<?xml version="1.0" encoding="UTF-8"?><svg id="Calque_2" xmlns="http://www.w3.org/2000/svg" viewBox="0 0 475.12 412.94"><defs><style>.cls-1,.cls-2,.cls-3,.cls-4,.cls-5,.cls-6,.cls-7,.cls-8{stroke:#263238;}.cls-1,.cls-2,.cls-3,.cls-4,.cls-6,.cls-8{stroke-miterlimit:10;}.cls-1,.cls-5,.cls-9{fill:#fff;}.cls-2,.cls-10{fill:#263238;}.cls-3{stroke-linecap:round;}.cls-3,.cls-7,.cls-8{fill:none;}.cls-4,.cls-11{fill:#92e3a9;}.cls-5,.cls-7{stroke-linejoin:round;}.cls-12{fill:#8c8c8c;}.cls-9{opacity:.7;}.cls-6{fill:#e0e0e0;}.cls-13{fill:#7a7a7a;}</style></defs><g id="Background_Simple"><path class="cls-11" d="m461.87,249.06c-14.34,38.4-43.63,79.97-84.86,92.27-62.29,18.6-69.73,68.81-181.3,64.15-17.39-.72-33.47-3.17-48.24-7.07-7.94-2.1-15.5-4.63-22.68-7.55-65.18-26.4-99.18-84.5-102-145.29-3.73-79.96,52.06-118.07,88.32-140.38C147.36,82.87,191.06-3.6,300.78.12c16.73.57,33.42,2.86,49.59,7.24,36.92,9.99,74.44,32.09,96.25,64.4,1.64,2.43,3.2,4.91,4.69,7.44,29.18,49.51,30.1,117.5,10.56,169.86Z"/><path class="cls-9" d="m461.87,249.06c-14.34,38.4-43.63,79.97-84.86,92.27-62.29,18.6-69.73,68.81-181.3,64.15-17.39-.72-33.47-3.17-48.24-7.07-7.94-2.1-15.5-4.63-22.68-7.55-65.18-26.4-99.18-84.5-102-145.29-3.73-79.96,52.06-118.07,88.32-140.38C147.36,82.87,191.06-3.6,300.78.12c16.73.57,33.42,2.86,49.59,7.24,36.92,9.99,74.44,32.09,96.25,64.4,1.64,2.43,3.2,4.91,4.69,7.44,29.18,49.51,30.1,117.5,10.56,169.86Z"/></g><g id="Plant"><ellipse class="cls-1" cx="118.21" cy="112.76" rx="19.81" ry="51.96"/><path class="cls-1" d="m179.76,80.72c-6.19,19.49-18.09,33.1-26.57,30.41-8.48-2.69-10.34-20.68-4.15-40.17,6.19-19.49,18.09-33.1,26.57-30.41,8.48,2.7,10.34,20.68,4.15,40.17Z"/><path class="cls-1" d="m34.42,198.24c-20.16-3.42-35.3-13.3-33.81-22.07,1.49-8.77,19.04-13.12,39.2-9.7,20.16,3.42,35.3,13.3,33.82,22.07-1.49,8.77-19.04,13.12-39.2,9.7Z"/><path class="cls-1" d="m198.41,150.21c-16.84,16.7-36.74,23.94-44.44,16.18-7.7-7.77-.3-27.6,16.54-44.3,16.84-16.7,36.74-23.94,44.44-16.18,7.7,7.77.3,27.6-16.54,44.3Z"/><path class="cls-1" d="m82.37,104.4c16.28,23.63,21.14,48.53,10.84,55.63-10.3,7.1-31.85-6.3-48.13-29.93-16.28-23.63-21.14-48.53-10.84-55.63,10.3-7.1,31.85,6.3,48.13,29.93Z"/><line class="cls-3" x1="119.6" y1="162.13" x2="121.14" y2="320.18"/><line class="cls-3" x1="117.76" y1="93.45" x2="119.6" y2="162.13"/><line class="cls-3" x1="117.89" y1="82.24" x2="117.76" y2="87.5"/><path class="cls-3" d="m93.13,156.66c9.93,20.85,18,46.18,19.56,74.96v97.76"/><path class="cls-3" d="m59.1,104.6c9.23,10.66,22.81,28.5,34.03,52.06"/><path class="cls-3" d="m48.4,93.28s2.05,1.88,5.43,5.46"/><path class="cls-3" d="m155.2,163.99c-11.56,15.97-23.16,36.88-32.11,63.73"/><path class="cls-3" d="m177.99,137.8c-6.99,6.63-14.88,15.25-22.79,26.19"/><path class="cls-3" d="m202.32,119.26s-7.06,3.62-17.35,12.3"/><path class="cls-3" d="m154.36,106.3c-10.97,34.53-25.7,85.56-32.58,129.86"/><path class="cls-3" d="m161.05,85.82c-1.95,5.82-4.22,12.74-6.69,20.48"/><path class="cls-3" d="m167.9,66s-1.92,5.29-5,14.35"/><path class="cls-3" d="m72.6,183.75c13.71,5.2,32.46,19.7,38.96,38.7"/><path class="cls-3" d="m47.27,178.6c7.38.43,16.42,1.77,25.33,5.15"/><path class="cls-3" d="m30.86,179.01s2.44-.35,6.47-.51"/><path class="cls-1" d="m73.97,274.21c-18.53,8.65-36.6,9.13-40.37,1.06-3.77-8.06,8.2-21.62,26.73-30.27,18.53-8.65,36.6-9.13,40.37-1.06,3.77,8.06-8.2,21.61-26.73,30.27Z"/><path class="cls-3" d="m73.38,250.75c6.32-3.84,14.52-7.88,23.76-10.16,0,0,6.19-4.13,12.75.24,2.51,1.67,1.67,14.2,1.67,14.2v65.16"/><path class="cls-3" d="m60.11,260.41s1.81-1.67,5.03-4.09"/><path class="cls-1" d="m206.96,198.24c20.16-3.42,35.3-13.3,33.82-22.07-1.49-8.77-19.04-13.12-39.2-9.7-20.16,3.42-35.3,13.3-33.81,22.07,1.49,8.77,19.04,13.12,39.2,9.7Z"/><path class="cls-3" d="m169.21,183.59c-2.41.9-4.82,1.94-7.19,3.16-16.66,8.58-26.85,26.06-26.85,44.8v86.13"/><path class="cls-3" d="m196.22,178.5c-7.61.29-17.38,1.51-27.01,5.09"/><path class="cls-3" d="m210.51,179.01s-1.61-.23-4.37-.4"/><path class="cls-1" d="m186.72,257.24c17.72,10.21,35.68,12.24,40.13,4.53,4.44-7.71-6.32-22.24-24.03-32.45-17.72-10.21-35.68-12.24-40.13-4.53-4.44,7.71,6.32,22.24,24.03,32.45Z"/><path class="cls-3" d="m191.02,235.18c-6.05-4.63-14.35-9.91-24.06-13.29,0,0-21.98-3.63-26.99,10.58"/><path class="cls-3" d="m201.71,244.68s-1.09-1.2-3.11-3.09"/><path class="cls-1" d="m143.31,233.31s-25.9-5.01-25.9,12.53,18.38,31.74,25.9,51.79c7.52,20.05,21.72,20.88,29.24.84,7.52-20.05-3.34-56.8-29.24-65.16Z"/><path class="cls-8" d="m125.76,234.14s22.55,9.19,29.24,38.43"/><line class="cls-3" x1="127.43" y1="272.57" x2="127.43" y2="320.18"/><path class="cls-10" d="m168.92,412.91c5.92-18.44,9.37-39.74,9.37-60.95,0-13.14-1.34-25.69-3.75-37.27h-105.51c-2.41,11.57-3.75,24.13-3.75,37.27,0,21.21,3.45,42.5,9.37,60.95h94.27Z"/><path class="cls-13" d="m66.32,332.12c-.3,2.86-.53,5.77-.71,8.71h112.33c-.17-2.94-.4-5.85-.71-8.71h-110.92Z"/><path class="cls-13" d="m176.76,376.64c.35-2.89.66-5.79.89-8.71h-111.72c.23,2.92.54,5.82.89,8.71h109.94Z"/><path class="cls-12" d="m78.92,352.44c0,2.42-2.04,4.39-4.55,4.39s-4.55-1.96-4.55-4.39,2.04-4.39,4.55-4.39,4.55,1.96,4.55,4.39Z"/><path class="cls-12" d="m101.65,352.44c0,2.42-2.04,4.39-4.55,4.39s-4.55-1.96-4.55-4.39,2.04-4.39,4.55-4.39,4.55,1.96,4.55,4.39Z"/><path class="cls-12" d="m124.38,352.44c0,2.42-2.04,4.39-4.55,4.39s-4.55-1.96-4.55-4.39,2.04-4.39,4.55-4.39,4.55,1.96,4.55,4.39Z"/><path class="cls-12" d="m147.12,352.44c0,2.42-2.04,4.39-4.55,4.39s-4.55-1.96-4.55-4.39,2.04-4.39,4.55-4.39,4.55,1.96,4.55,4.39Z"/><path class="cls-12" d="m169.85,352.44c0,2.42-2.04,4.39-4.55,4.39s-4.55-1.96-4.55-4.39,2.04-4.39,4.55-4.39,4.55,1.96,4.55,4.39Z"/></g><g id="Coins_2"><rect class="cls-6" x="397.56" y="403.65" width="54.81" height="8.53" transform="translate(849.93 815.83) rotate(180)"/><line class="cls-6" x1="448.78" y1="403.81" x2="448.78" y2="411.56"/><line class="cls-6" x1="444.9" y1="403.81" x2="444.9" y2="411.56"/><line class="cls-6" x1="441.03" y1="403.81" x2="441.03" y2="411.56"/><line class="cls-6" x1="437.15" y1="403.81" x2="437.15" y2="411.56"/><line class="cls-6" x1="433.27" y1="408.9" x2="433.27" y2="411.56"/><line class="cls-6" x1="433.27" y1="403.81" x2="433.27" y2="405.75"/><line class="cls-6" x1="429.4" y1="403.81" x2="429.4" y2="411.56"/><line class="cls-6" x1="425.52" y1="409.14" x2="425.52" y2="411.56"/><line class="cls-6" x1="425.52" y1="403.81" x2="425.52" y2="407.92"/><line class="cls-6" x1="418.5" y1="403.81" x2="418.5" y2="411.56"/><line class="cls-6" x1="410.02" y1="409.14" x2="410.02" y2="411.56"/><line class="cls-6" x1="410.02" y1="403.81" x2="410.02" y2="406.47"/><line class="cls-6" x1="407.11" y1="403.81" x2="407.11" y2="411.56"/><line class="cls-6" x1="402.27" y1="408.41" x2="402.27" y2="411.56"/><line class="cls-6" x1="402.27" y1="403.81" x2="402.27" y2="406.47"/><rect class="cls-6" x="400.67" y="394.93" width="54.41" height="8.53"/><line class="cls-6" x1="404.23" y1="395.09" x2="404.23" y2="402.84"/><line class="cls-6" x1="408.08" y1="395.09" x2="408.08" y2="402.84"/><line class="cls-6" x1="411.93" y1="395.09" x2="411.93" y2="402.84"/><line class="cls-6" x1="415.77" y1="395.09" x2="415.77" y2="402.84"/><line class="cls-6" x1="419.62" y1="400.18" x2="419.62" y2="402.84"/><line class="cls-6" x1="419.62" y1="395.09" x2="419.62" y2="397.03"/><line class="cls-6" x1="423.47" y1="395.09" x2="423.47" y2="402.84"/><line class="cls-6" x1="427.32" y1="400.42" x2="427.32" y2="402.84"/><line class="cls-6" x1="427.32" y1="395.09" x2="427.32" y2="399.2"/><line class="cls-6" x1="434.29" y1="395.09" x2="434.29" y2="402.84"/><line class="cls-6" x1="442.71" y1="400.42" x2="442.71" y2="402.84"/><line class="cls-6" x1="442.71" y1="395.09" x2="442.71" y2="397.75"/><line class="cls-6" x1="445.59" y1="395.09" x2="445.59" y2="402.84"/><line class="cls-6" x1="450.4" y1="399.69" x2="450.4" y2="402.84"/><line class="cls-6" x1="450.4" y1="395.09" x2="450.4" y2="397.75"/><rect class="cls-6" x="395.14" y="385.97" width="54.81" height="8.53" transform="translate(845.08 780.47) rotate(180)"/><line class="cls-6" x1="446.36" y1="386.12" x2="446.36" y2="393.88"/><line class="cls-6" x1="442.48" y1="386.12" x2="442.48" y2="393.88"/><line class="cls-6" x1="438.6" y1="386.12" x2="438.6" y2="393.88"/><line class="cls-6" x1="434.73" y1="386.12" x2="434.73" y2="393.88"/><line class="cls-6" x1="430.85" y1="391.21" x2="430.85" y2="393.88"/><line class="cls-6" x1="430.85" y1="386.12" x2="430.85" y2="388.06"/><line class="cls-6" x1="426.98" y1="386.12" x2="426.98" y2="393.88"/><line class="cls-6" x1="423.1" y1="391.45" x2="423.1" y2="393.88"/><line class="cls-6" x1="423.1" y1="386.12" x2="423.1" y2="390.23"/><line class="cls-6" x1="416.07" y1="386.12" x2="416.07" y2="393.88"/><line class="cls-6" x1="407.6" y1="391.45" x2="407.6" y2="393.88"/><line class="cls-6" x1="407.6" y1="386.12" x2="407.6" y2="388.79"/><line class="cls-6" x1="404.69" y1="386.12" x2="404.69" y2="393.88"/><line class="cls-6" x1="399.84" y1="390.73" x2="399.84" y2="393.88"/><line class="cls-6" x1="399.84" y1="386.12" x2="399.84" y2="388.79"/><rect class="cls-6" x="394.13" y="377.25" width="54.41" height="8.53"/><line class="cls-6" x1="397.69" y1="377.4" x2="397.69" y2="385.16"/><line class="cls-6" x1="401.54" y1="377.4" x2="401.54" y2="385.16"/><line class="cls-6" x1="405.39" y1="377.4" x2="405.39" y2="385.16"/><line class="cls-6" x1="409.23" y1="377.4" x2="409.23" y2="385.16"/><line class="cls-6" x1="413.08" y1="382.49" x2="413.08" y2="385.16"/><line class="cls-6" x1="413.08" y1="377.4" x2="413.08" y2="379.34"/><line class="cls-6" x1="416.93" y1="377.4" x2="416.93" y2="385.16"/><line class="cls-6" x1="420.78" y1="382.73" x2="420.78" y2="385.16"/><line class="cls-6" x1="420.78" y1="377.4" x2="420.78" y2="381.51"/><line class="cls-6" x1="427.75" y1="377.4" x2="427.75" y2="385.16"/><line class="cls-6" x1="436.17" y1="382.73" x2="436.17" y2="385.16"/><line class="cls-6" x1="436.17" y1="377.4" x2="436.17" y2="380.07"/><line class="cls-6" x1="439.05" y1="377.4" x2="439.05" y2="385.16"/><line class="cls-6" x1="443.86" y1="382.01" x2="443.86" y2="385.16"/><line class="cls-6" x1="443.86" y1="377.4" x2="443.86" y2="380.07"/><rect class="cls-6" x="395.86" y="368.28" width="54.81" height="8.53" transform="translate(846.54 745.1) rotate(180)"/><line class="cls-6" x1="447.08" y1="368.44" x2="447.08" y2="376.19"/><line class="cls-6" x1="443.21" y1="368.44" x2="443.21" y2="376.19"/><line class="cls-6" x1="439.33" y1="368.44" x2="439.33" y2="376.19"/><line class="cls-6" x1="435.45" y1="368.44" x2="435.45" y2="376.19"/><line class="cls-6" x1="431.58" y1="373.53" x2="431.58" y2="376.19"/><line class="cls-6" x1="431.58" y1="368.44" x2="431.58" y2="370.38"/><line class="cls-6" x1="427.7" y1="368.44" x2="427.7" y2="376.19"/><line class="cls-6" x1="423.83" y1="373.77" x2="423.83" y2="376.19"/><line class="cls-6" x1="423.83" y1="368.44" x2="423.83" y2="372.55"/><line class="cls-6" x1="416.8" y1="368.44" x2="416.8" y2="376.19"/><line class="cls-6" x1="408.32" y1="373.77" x2="408.32" y2="376.19"/><line class="cls-6" x1="408.32" y1="368.44" x2="408.32" y2="371.11"/><line class="cls-6" x1="405.42" y1="368.44" x2="405.42" y2="376.19"/><line class="cls-6" x1="400.57" y1="373.04" x2="400.57" y2="376.19"/><line class="cls-6" x1="400.57" y1="368.44" x2="400.57" y2="371.11"/><rect class="cls-6" x="400.68" y="359.56" width="54.41" height="8.53"/><line class="cls-6" x1="404.24" y1="359.72" x2="404.24" y2="367.47"/><line class="cls-6" x1="408.09" y1="359.72" x2="408.09" y2="367.47"/><line class="cls-6" x1="411.94" y1="359.72" x2="411.94" y2="367.47"/><line class="cls-6" x1="415.79" y1="359.72" x2="415.79" y2="367.47"/><line class="cls-6" x1="419.63" y1="364.81" x2="419.63" y2="367.47"/><line class="cls-6" x1="419.63" y1="359.72" x2="419.63" y2="361.66"/><line class="cls-6" x1="423.48" y1="359.72" x2="423.48" y2="367.47"/><line class="cls-6" x1="427.33" y1="365.05" x2="427.33" y2="367.47"/><line class="cls-6" x1="427.33" y1="359.72" x2="427.33" y2="363.83"/><line class="cls-6" x1="434.3" y1="359.72" x2="434.3" y2="367.47"/><line class="cls-6" x1="442.72" y1="365.05" x2="442.72" y2="367.47"/><line class="cls-6" x1="442.72" y1="359.72" x2="442.72" y2="362.38"/><line class="cls-6" x1="445.61" y1="359.72" x2="445.61" y2="367.47"/><line class="cls-6" x1="450.42" y1="364.32" x2="450.42" y2="367.47"/><line class="cls-6" x1="450.42" y1="359.72" x2="450.42" y2="362.38"/><rect class="cls-6" x="400.47" y="350.6" width="54.81" height="8.53" transform="translate(855.74 709.73) rotate(180)"/><line class="cls-6" x1="451.68" y1="350.76" x2="451.68" y2="358.51"/><line class="cls-6" x1="447.81" y1="350.76" x2="447.81" y2="358.51"/><line class="cls-6" x1="443.93" y1="350.76" x2="443.93" y2="358.51"/><line class="cls-6" x1="440.06" y1="350.76" x2="440.06" y2="358.51"/><line class="cls-6" x1="436.18" y1="355.84" x2="436.18" y2="358.51"/><line class="cls-6" x1="436.18" y1="350.76" x2="436.18" y2="352.69"/><line class="cls-6" x1="432.31" y1="350.76" x2="432.31" y2="358.51"/><line class="cls-6" x1="428.43" y1="356.09" x2="428.43" y2="358.51"/><line class="cls-6" x1="428.43" y1="350.76" x2="428.43" y2="354.86"/><line class="cls-6" x1="421.4" y1="350.76" x2="421.4" y2="358.51"/><line class="cls-6" x1="412.93" y1="356.09" x2="412.93" y2="358.51"/><line class="cls-6" x1="412.93" y1="350.76" x2="412.93" y2="353.42"/><line class="cls-6" x1="410.02" y1="350.76" x2="410.02" y2="358.51"/><line class="cls-6" x1="405.17" y1="355.36" x2="405.17" y2="358.51"/><line class="cls-6" x1="405.17" y1="350.76" x2="405.17" y2="353.42"/><rect class="cls-6" x="397.76" y="341.88" width="54.41" height="8.53"/><line class="cls-6" x1="401.32" y1="342.04" x2="401.32" y2="349.79"/><line class="cls-6" x1="405.17" y1="342.04" x2="405.17" y2="349.79"/><line class="cls-6" x1="409.02" y1="342.04" x2="409.02" y2="349.79"/><line class="cls-6" x1="412.87" y1="342.04" x2="412.87" y2="349.79"/><line class="cls-6" x1="416.71" y1="347.12" x2="416.71" y2="349.79"/><line class="cls-6" x1="416.71" y1="342.04" x2="416.71" y2="343.97"/><line class="cls-6" x1="420.56" y1="342.04" x2="420.56" y2="349.79"/><line class="cls-6" x1="424.41" y1="347.37" x2="424.41" y2="349.79"/><line class="cls-6" x1="424.41" y1="342.04" x2="424.41" y2="346.14"/><line class="cls-6" x1="431.38" y1="342.04" x2="431.38" y2="349.79"/><line class="cls-6" x1="439.8" y1="347.37" x2="439.8" y2="349.79"/><line class="cls-6" x1="439.8" y1="342.04" x2="439.8" y2="344.7"/><line class="cls-6" x1="442.69" y1="342.04" x2="442.69" y2="349.79"/><line class="cls-6" x1="447.5" y1="346.64" x2="447.5" y2="349.79"/><line class="cls-6" x1="447.5" y1="342.04" x2="447.5" y2="344.7"/><rect class="cls-6" x="397.56" y="332.91" width="54.81" height="8.53" transform="translate(849.93 674.36) rotate(180)"/><line class="cls-6" x1="448.78" y1="333.07" x2="448.78" y2="340.82"/><line class="cls-6" x1="444.9" y1="333.07" x2="444.9" y2="340.82"/><line class="cls-6" x1="441.03" y1="333.07" x2="441.03" y2="340.82"/><line class="cls-6" x1="437.15" y1="333.07" x2="437.15" y2="340.82"/><line class="cls-6" x1="433.27" y1="338.16" x2="433.27" y2="340.82"/><line class="cls-6" x1="433.27" y1="333.07" x2="433.27" y2="335.01"/><line class="cls-6" x1="429.4" y1="333.07" x2="429.4" y2="340.82"/><line class="cls-6" x1="425.52" y1="338.4" x2="425.52" y2="340.82"/><line class="cls-6" x1="425.52" y1="333.07" x2="425.52" y2="337.18"/><line class="cls-6" x1="418.5" y1="333.07" x2="418.5" y2="340.82"/><line class="cls-6" x1="410.02" y1="338.4" x2="410.02" y2="340.82"/><line class="cls-6" x1="410.02" y1="333.07" x2="410.02" y2="335.74"/><line class="cls-6" x1="407.11" y1="333.07" x2="407.11" y2="340.82"/><line class="cls-6" x1="402.27" y1="337.68" x2="402.27" y2="340.82"/><line class="cls-6" x1="402.27" y1="333.07" x2="402.27" y2="335.74"/><rect class="cls-6" x="394.13" y="324.19" width="54.41" height="8.53"/><line class="cls-6" x1="397.69" y1="324.35" x2="397.69" y2="332.1"/><line class="cls-6" x1="401.54" y1="324.35" x2="401.54" y2="332.1"/><line class="cls-6" x1="405.39" y1="324.35" x2="405.39" y2="332.1"/><line class="cls-6" x1="409.23" y1="324.35" x2="409.23" y2="332.1"/><line class="cls-6" x1="413.08" y1="329.44" x2="413.08" y2="332.1"/><line class="cls-6" x1="413.08" y1="324.35" x2="413.08" y2="326.29"/><line class="cls-6" x1="416.93" y1="324.35" x2="416.93" y2="332.1"/><line class="cls-6" x1="420.78" y1="329.68" x2="420.78" y2="332.1"/><line class="cls-6" x1="420.78" y1="324.35" x2="420.78" y2="328.46"/><line class="cls-6" x1="427.75" y1="324.35" x2="427.75" y2="332.1"/><line class="cls-6" x1="436.17" y1="329.68" x2="436.17" y2="332.1"/><line class="cls-6" x1="436.17" y1="324.35" x2="436.17" y2="327.02"/><line class="cls-6" x1="439.05" y1="324.35" x2="439.05" y2="332.1"/><line class="cls-6" x1="443.86" y1="328.95" x2="443.86" y2="332.1"/><line class="cls-6" x1="443.86" y1="324.35" x2="443.86" y2="327.02"/><rect class="cls-6" x="397.56" y="315.14" width="54.81" height="8.53" transform="translate(849.93 638.82) rotate(180)"/><line class="cls-6" x1="448.78" y1="315.3" x2="448.78" y2="323.05"/><line class="cls-6" x1="444.9" y1="315.3" x2="444.9" y2="323.05"/><line class="cls-6" x1="441.03" y1="315.3" x2="441.03" y2="323.05"/><line class="cls-6" x1="437.15" y1="315.3" x2="437.15" y2="323.05"/><line class="cls-6" x1="433.27" y1="320.39" x2="433.27" y2="323.05"/><line class="cls-6" x1="433.27" y1="315.3" x2="433.27" y2="317.24"/><line class="cls-6" x1="429.4" y1="315.3" x2="429.4" y2="323.05"/><line class="cls-6" x1="425.52" y1="320.63" x2="425.52" y2="323.05"/><line class="cls-6" x1="425.52" y1="315.3" x2="425.52" y2="319.41"/><line class="cls-6" x1="418.5" y1="315.3" x2="418.5" y2="323.05"/><line class="cls-6" x1="410.02" y1="320.63" x2="410.02" y2="323.05"/><line class="cls-6" x1="410.02" y1="315.3" x2="410.02" y2="317.97"/><line class="cls-6" x1="407.11" y1="315.3" x2="407.11" y2="323.05"/><line class="cls-6" x1="402.27" y1="319.9" x2="402.27" y2="323.05"/><line class="cls-6" x1="402.27" y1="315.3" x2="402.27" y2="317.97"/><rect class="cls-6" x="400.67" y="306.42" width="54.41" height="8.53"/><line class="cls-6" x1="404.23" y1="306.58" x2="404.23" y2="314.33"/><line class="cls-6" x1="408.08" y1="306.58" x2="408.08" y2="314.33"/><line class="cls-6" x1="411.93" y1="306.58" x2="411.93" y2="314.33"/><line class="cls-6" x1="415.77" y1="306.58" x2="415.77" y2="314.33"/><line class="cls-6" x1="419.62" y1="311.67" x2="419.62" y2="314.33"/><line class="cls-6" x1="419.62" y1="306.58" x2="419.62" y2="308.52"/><line class="cls-6" x1="423.47" y1="306.58" x2="423.47" y2="314.33"/><line class="cls-6" x1="427.32" y1="311.91" x2="427.32" y2="314.33"/><line class="cls-6" x1="427.32" y1="306.58" x2="427.32" y2="310.69"/><line class="cls-6" x1="434.29" y1="306.58" x2="434.29" y2="314.33"/><line class="cls-6" x1="442.71" y1="311.91" x2="442.71" y2="314.33"/><line class="cls-6" x1="442.71" y1="306.58" x2="442.71" y2="309.24"/><line class="cls-6" x1="445.59" y1="306.58" x2="445.59" y2="314.33"/><line class="cls-6" x1="450.4" y1="311.18" x2="450.4" y2="314.33"/><line class="cls-6" x1="450.4" y1="306.58" x2="450.4" y2="309.24"/><rect class="cls-1" x="361.63" y="403.65" width="54.81" height="8.53"/><line class="cls-8" x1="365.22" y1="403.81" x2="365.22" y2="411.56"/><line class="cls-8" x1="369.09" y1="403.81" x2="369.09" y2="411.56"/><line class="cls-8" x1="372.97" y1="403.81" x2="372.97" y2="411.56"/><line class="cls-8" x1="376.85" y1="403.81" x2="376.85" y2="411.56"/><line class="cls-8" x1="380.72" y1="408.9" x2="380.72" y2="411.56"/><line class="cls-8" x1="380.72" y1="403.81" x2="380.72" y2="405.75"/><line class="cls-8" x1="384.6" y1="403.81" x2="384.6" y2="411.56"/><line class="cls-8" x1="388.47" y1="409.14" x2="388.47" y2="411.56"/><line class="cls-8" x1="388.47" y1="403.81" x2="388.47" y2="407.92"/><line class="cls-8" x1="395.5" y1="403.81" x2="395.5" y2="411.56"/><line class="cls-8" x1="403.98" y1="409.14" x2="403.98" y2="411.56"/><line class="cls-8" x1="403.98" y1="403.81" x2="403.98" y2="406.47"/><line class="cls-8" x1="406.88" y1="403.81" x2="406.88" y2="411.56"/><line class="cls-8" x1="411.73" y1="408.41" x2="411.73" y2="411.56"/><line class="cls-8" x1="411.73" y1="403.81" x2="411.73" y2="406.47"/><rect class="cls-1" x="358.92" y="394.93" width="54.41" height="8.53" transform="translate(772.25 798.39) rotate(180)"/><line class="cls-8" x1="409.76" y1="395.09" x2="409.76" y2="402.84"/><line class="cls-8" x1="405.92" y1="395.09" x2="405.92" y2="402.84"/><line class="cls-8" x1="402.07" y1="395.09" x2="402.07" y2="402.84"/><line class="cls-8" x1="398.22" y1="395.09" x2="398.22" y2="402.84"/><line class="cls-8" x1="394.37" y1="400.18" x2="394.37" y2="402.84"/><line class="cls-8" x1="394.37" y1="395.09" x2="394.37" y2="397.03"/><line class="cls-8" x1="390.53" y1="395.09" x2="390.53" y2="402.84"/><line class="cls-8" x1="386.68" y1="400.42" x2="386.68" y2="402.84"/><line class="cls-8" x1="386.68" y1="395.09" x2="386.68" y2="399.2"/><line class="cls-8" x1="379.7" y1="395.09" x2="379.7" y2="402.84"/><line class="cls-8" x1="371.29" y1="400.42" x2="371.29" y2="402.84"/><line class="cls-8" x1="371.29" y1="395.09" x2="371.29" y2="397.75"/><line class="cls-8" x1="368.4" y1="395.09" x2="368.4" y2="402.84"/><line class="cls-8" x1="363.59" y1="399.69" x2="363.59" y2="402.84"/><line class="cls-8" x1="363.59" y1="395.09" x2="363.59" y2="397.75"/><rect class="cls-1" x="364.05" y="385.97" width="54.81" height="8.53"/><line class="cls-8" x1="367.64" y1="386.12" x2="367.64" y2="393.88"/><line class="cls-8" x1="371.52" y1="386.12" x2="371.52" y2="393.88"/><line class="cls-8" x1="375.39" y1="386.12" x2="375.39" y2="393.88"/><line class="cls-8" x1="379.27" y1="386.12" x2="379.27" y2="393.88"/><line class="cls-8" x1="383.14" y1="391.21" x2="383.14" y2="393.88"/><line class="cls-8" x1="383.14" y1="386.12" x2="383.14" y2="388.06"/><line class="cls-8" x1="387.02" y1="386.12" x2="387.02" y2="393.88"/><line class="cls-8" x1="390.9" y1="391.45" x2="390.9" y2="393.88"/><line class="cls-8" x1="390.9" y1="386.12" x2="390.9" y2="390.23"/><line class="cls-8" x1="397.92" y1="386.12" x2="397.92" y2="393.88"/><line class="cls-8" x1="406.4" y1="391.45" x2="406.4" y2="393.88"/><line class="cls-8" x1="406.4" y1="386.12" x2="406.4" y2="388.79"/><line class="cls-8" x1="409.31" y1="386.12" x2="409.31" y2="393.88"/><line class="cls-8" x1="414.15" y1="390.73" x2="414.15" y2="393.88"/><line class="cls-8" x1="414.15" y1="386.12" x2="414.15" y2="388.79"/><rect class="cls-1" x="365.46" y="377.25" width="54.41" height="8.53" transform="translate(785.33 763.02) rotate(180)"/><line class="cls-8" x1="416.31" y1="377.4" x2="416.31" y2="385.16"/><line class="cls-8" x1="412.46" y1="377.4" x2="412.46" y2="385.16"/><line class="cls-8" x1="408.61" y1="377.4" x2="408.61" y2="385.16"/><line class="cls-8" x1="404.76" y1="377.4" x2="404.76" y2="385.16"/><line class="cls-8" x1="400.91" y1="382.49" x2="400.91" y2="385.16"/><line class="cls-8" x1="400.91" y1="377.4" x2="400.91" y2="379.34"/><line class="cls-8" x1="397.07" y1="377.4" x2="397.07" y2="385.16"/><line class="cls-8" x1="393.22" y1="382.73" x2="393.22" y2="385.16"/><line class="cls-8" x1="393.22" y1="377.4" x2="393.22" y2="381.51"/><line class="cls-8" x1="386.24" y1="377.4" x2="386.24" y2="385.16"/><line class="cls-8" x1="377.83" y1="382.73" x2="377.83" y2="385.16"/><line class="cls-8" x1="377.83" y1="377.4" x2="377.83" y2="380.07"/><line class="cls-8" x1="374.94" y1="377.4" x2="374.94" y2="385.16"/><line class="cls-8" x1="370.13" y1="382.01" x2="370.13" y2="385.16"/><line class="cls-8" x1="370.13" y1="377.4" x2="370.13" y2="380.07"/><rect class="cls-1" x="363.32" y="368.28" width="54.81" height="8.53"/><line class="cls-8" x1="366.91" y1="368.44" x2="366.91" y2="376.19"/><line class="cls-8" x1="370.79" y1="368.44" x2="370.79" y2="376.19"/><line class="cls-8" x1="374.66" y1="368.44" x2="374.66" y2="376.19"/><line class="cls-8" x1="378.54" y1="368.44" x2="378.54" y2="376.19"/><line class="cls-8" x1="382.42" y1="373.53" x2="382.42" y2="376.19"/><line class="cls-8" x1="382.42" y1="368.44" x2="382.42" y2="370.38"/><line class="cls-8" x1="386.29" y1="368.44" x2="386.29" y2="376.19"/><line class="cls-8" x1="390.17" y1="373.77" x2="390.17" y2="376.19"/><line class="cls-8" x1="390.17" y1="368.44" x2="390.17" y2="372.55"/><line class="cls-8" x1="397.19" y1="368.44" x2="397.19" y2="376.19"/><line class="cls-8" x1="405.67" y1="373.77" x2="405.67" y2="376.19"/><line class="cls-8" x1="405.67" y1="368.44" x2="405.67" y2="371.11"/><line class="cls-8" x1="408.58" y1="368.44" x2="408.58" y2="376.19"/><line class="cls-8" x1="413.42" y1="373.04" x2="413.42" y2="376.19"/><line class="cls-8" x1="413.42" y1="368.44" x2="413.42" y2="371.11"/><rect class="cls-1" x="358.91" y="359.56" width="54.41" height="8.53" transform="translate(772.22 727.66) rotate(180)"/><line class="cls-8" x1="409.75" y1="359.72" x2="409.75" y2="367.47"/><line class="cls-8" x1="405.9" y1="359.72" x2="405.9" y2="367.47"/><line class="cls-8" x1="402.06" y1="359.72" x2="402.06" y2="367.47"/><line class="cls-8" x1="398.21" y1="359.72" x2="398.21" y2="367.47"/><line class="cls-8" x1="394.36" y1="364.81" x2="394.36" y2="367.47"/><line class="cls-8" x1="394.36" y1="359.72" x2="394.36" y2="361.66"/><line class="cls-8" x1="390.51" y1="359.72" x2="390.51" y2="367.47"/><line class="cls-8" x1="386.66" y1="365.05" x2="386.66" y2="367.47"/><line class="cls-8" x1="386.66" y1="359.72" x2="386.66" y2="363.83"/><line class="cls-8" x1="379.69" y1="359.72" x2="379.69" y2="367.47"/><line class="cls-8" x1="371.27" y1="365.05" x2="371.27" y2="367.47"/><line class="cls-8" x1="371.27" y1="359.72" x2="371.27" y2="362.38"/><line class="cls-8" x1="368.39" y1="359.72" x2="368.39" y2="367.47"/><line class="cls-8" x1="363.58" y1="364.32" x2="363.58" y2="367.47"/><line class="cls-8" x1="363.58" y1="359.72" x2="363.58" y2="362.38"/><rect class="cls-1" x="358.72" y="350.6" width="54.81" height="8.53"/><line class="cls-8" x1="362.31" y1="350.76" x2="362.31" y2="358.51"/><line class="cls-8" x1="366.19" y1="350.76" x2="366.19" y2="358.51"/><line class="cls-8" x1="370.06" y1="350.76" x2="370.06" y2="358.51"/><line class="cls-8" x1="373.94" y1="350.76" x2="373.94" y2="358.51"/><line class="cls-8" x1="377.81" y1="355.84" x2="377.81" y2="358.51"/><line class="cls-8" x1="377.81" y1="350.76" x2="377.81" y2="352.69"/><line class="cls-8" x1="381.69" y1="350.76" x2="381.69" y2="358.51"/><line class="cls-8" x1="385.57" y1="356.09" x2="385.57" y2="358.51"/><line class="cls-8" x1="385.57" y1="350.76" x2="385.57" y2="354.86"/><line class="cls-8" x1="392.59" y1="350.76" x2="392.59" y2="358.51"/><line class="cls-8" x1="401.07" y1="356.09" x2="401.07" y2="358.51"/><line class="cls-8" x1="401.07" y1="350.76" x2="401.07" y2="353.42"/><line class="cls-8" x1="403.98" y1="350.76" x2="403.98" y2="358.51"/><line class="cls-8" x1="408.82" y1="355.36" x2="408.82" y2="358.51"/><line class="cls-8" x1="408.82" y1="350.76" x2="408.82" y2="353.42"/><rect class="cls-1" x="361.83" y="341.88" width="54.41" height="8.53" transform="translate(778.06 692.29) rotate(180)"/><line class="cls-8" x1="412.67" y1="342.04" x2="412.67" y2="349.79"/><line class="cls-8" x1="408.82" y1="342.04" x2="408.82" y2="349.79"/><line class="cls-8" x1="404.98" y1="342.04" x2="404.98" y2="349.79"/><line class="cls-8" x1="401.13" y1="342.04" x2="401.13" y2="349.79"/><line class="cls-8" x1="397.28" y1="347.12" x2="397.28" y2="349.79"/><line class="cls-8" x1="397.28" y1="342.04" x2="397.28" y2="343.97"/><line class="cls-8" x1="393.43" y1="342.04" x2="393.43" y2="349.79"/><line class="cls-8" x1="389.59" y1="347.37" x2="389.59" y2="349.79"/><line class="cls-8" x1="389.59" y1="342.04" x2="389.59" y2="346.14"/><line class="cls-8" x1="382.61" y1="342.04" x2="382.61" y2="349.79"/><line class="cls-8" x1="374.19" y1="347.37" x2="374.19" y2="349.79"/><line class="cls-8" x1="374.19" y1="342.04" x2="374.19" y2="344.7"/><line class="cls-8" x1="371.31" y1="342.04" x2="371.31" y2="349.79"/><line class="cls-8" x1="366.5" y1="346.64" x2="366.5" y2="349.79"/><line class="cls-8" x1="366.5" y1="342.04" x2="366.5" y2="344.7"/><rect class="cls-1" x="361.63" y="332.91" width="54.81" height="8.53"/><line class="cls-8" x1="365.22" y1="333.07" x2="365.22" y2="340.82"/><line class="cls-8" x1="369.09" y1="333.07" x2="369.09" y2="340.82"/><line class="cls-8" x1="372.97" y1="333.07" x2="372.97" y2="340.82"/><line class="cls-8" x1="376.85" y1="333.07" x2="376.85" y2="340.82"/><line class="cls-8" x1="380.72" y1="338.16" x2="380.72" y2="340.82"/><line class="cls-8" x1="380.72" y1="333.07" x2="380.72" y2="335.01"/><line class="cls-8" x1="384.6" y1="333.07" x2="384.6" y2="340.82"/><line class="cls-8" x1="388.47" y1="338.4" x2="388.47" y2="340.82"/><line class="cls-8" x1="388.47" y1="333.07" x2="388.47" y2="337.18"/><line class="cls-8" x1="395.5" y1="333.07" x2="395.5" y2="340.82"/><line class="cls-8" x1="403.98" y1="338.4" x2="403.98" y2="340.82"/><line class="cls-8" x1="403.98" y1="333.07" x2="403.98" y2="335.74"/><line class="cls-8" x1="406.88" y1="333.07" x2="406.88" y2="340.82"/><line class="cls-8" x1="411.73" y1="337.68" x2="411.73" y2="340.82"/><line class="cls-8" x1="411.73" y1="333.07" x2="411.73" y2="335.74"/><rect class="cls-1" x="365.46" y="324.19" width="54.41" height="8.53" transform="translate(785.33 656.92) rotate(180)"/><line class="cls-8" x1="416.31" y1="324.35" x2="416.31" y2="332.1"/><line class="cls-8" x1="412.46" y1="324.35" x2="412.46" y2="332.1"/><line class="cls-8" x1="408.61" y1="324.35" x2="408.61" y2="332.1"/><line class="cls-8" x1="404.76" y1="324.35" x2="404.76" y2="332.1"/><line class="cls-8" x1="400.91" y1="329.44" x2="400.91" y2="332.1"/><line class="cls-8" x1="400.91" y1="324.35" x2="400.91" y2="326.29"/><line class="cls-8" x1="397.07" y1="324.35" x2="397.07" y2="332.1"/><line class="cls-8" x1="393.22" y1="329.68" x2="393.22" y2="332.1"/><line class="cls-8" x1="393.22" y1="324.35" x2="393.22" y2="328.46"/><line class="cls-8" x1="386.24" y1="324.35" x2="386.24" y2="332.1"/><line class="cls-8" x1="377.83" y1="329.68" x2="377.83" y2="332.1"/><line class="cls-8" x1="377.83" y1="324.35" x2="377.83" y2="327.02"/><line class="cls-8" x1="374.94" y1="324.35" x2="374.94" y2="332.1"/><line class="cls-8" x1="370.13" y1="328.95" x2="370.13" y2="332.1"/><line class="cls-8" x1="370.13" y1="324.35" x2="370.13" y2="327.02"/><rect class="cls-1" x="361.63" y="315.14" width="54.81" height="8.53"/><line class="cls-8" x1="365.22" y1="315.3" x2="365.22" y2="323.05"/><line class="cls-8" x1="369.09" y1="315.3" x2="369.09" y2="323.05"/><line class="cls-8" x1="372.97" y1="315.3" x2="372.97" y2="323.05"/><line class="cls-8" x1="376.85" y1="315.3" x2="376.85" y2="323.05"/><line class="cls-8" x1="380.72" y1="320.39" x2="380.72" y2="323.05"/><line class="cls-8" x1="380.72" y1="315.3" x2="380.72" y2="317.24"/><line class="cls-8" x1="384.6" y1="315.3" x2="384.6" y2="323.05"/><line class="cls-8" x1="388.47" y1="320.63" x2="388.47" y2="323.05"/><line class="cls-8" x1="388.47" y1="315.3" x2="388.47" y2="319.41"/><line class="cls-8" x1="395.5" y1="315.3" x2="395.5" y2="323.05"/><line class="cls-8" x1="403.98" y1="320.63" x2="403.98" y2="323.05"/><line class="cls-8" x1="403.98" y1="315.3" x2="403.98" y2="317.97"/><line class="cls-8" x1="406.88" y1="315.3" x2="406.88" y2="323.05"/><line class="cls-8" x1="411.73" y1="319.9" x2="411.73" y2="323.05"/><line class="cls-8" x1="411.73" y1="315.3" x2="411.73" y2="317.97"/><rect class="cls-1" x="358.92" y="306.42" width="54.41" height="8.53" transform="translate(772.25 621.38) rotate(180)"/><line class="cls-8" x1="409.76" y1="306.58" x2="409.76" y2="314.33"/><line class="cls-8" x1="405.92" y1="306.58" x2="405.92" y2="314.33"/><line class="cls-8" x1="402.07" y1="306.58" x2="402.07" y2="314.33"/><line class="cls-8" x1="398.22" y1="306.58" x2="398.22" y2="314.33"/><line class="cls-8" x1="394.37" y1="311.67" x2="394.37" y2="314.33"/><line class="cls-8" x1="394.37" y1="306.58" x2="394.37" y2="308.52"/><line class="cls-8" x1="390.53" y1="306.58" x2="390.53" y2="314.33"/><line class="cls-8" x1="386.68" y1="311.91" x2="386.68" y2="314.33"/><line class="cls-8" x1="386.68" y1="306.58" x2="386.68" y2="310.69"/><line class="cls-8" x1="379.7" y1="306.58" x2="379.7" y2="314.33"/><line class="cls-8" x1="371.29" y1="311.91" x2="371.29" y2="314.33"/><line class="cls-8" x1="371.29" y1="306.58" x2="371.29" y2="309.24"/><line class="cls-8" x1="368.4" y1="306.58" x2="368.4" y2="314.33"/><line class="cls-8" x1="363.59" y1="311.18" x2="363.59" y2="314.33"/><line class="cls-8" x1="363.59" y1="306.58" x2="363.59" y2="309.24"/><rect class="cls-1" x="364.05" y="297.46" width="54.81" height="8.53"/><line class="cls-8" x1="367.64" y1="297.62" x2="367.64" y2="305.37"/><line class="cls-8" x1="371.52" y1="297.62" x2="371.52" y2="305.37"/><line class="cls-8" x1="375.39" y1="297.62" x2="375.39" y2="305.37"/><line class="cls-8" x1="379.27" y1="297.62" x2="379.27" y2="305.37"/><line class="cls-8" x1="383.14" y1="302.7" x2="383.14" y2="305.37"/><line class="cls-8" x1="383.14" y1="297.62" x2="383.14" y2="299.55"/><line class="cls-8" x1="387.02" y1="297.62" x2="387.02" y2="305.37"/><line class="cls-8" x1="390.9" y1="302.95" x2="390.9" y2="305.37"/><line class="cls-8" x1="390.9" y1="297.62" x2="390.9" y2="301.72"/><line class="cls-8" x1="397.92" y1="297.62" x2="397.92" y2="305.37"/><line class="cls-8" x1="406.4" y1="302.95" x2="406.4" y2="305.37"/><line class="cls-8" x1="406.4" y1="297.62" x2="406.4" y2="300.28"/><line class="cls-8" x1="409.31" y1="297.62" x2="409.31" y2="305.37"/><line class="cls-8" x1="414.15" y1="302.22" x2="414.15" y2="305.37"/><line class="cls-8" x1="414.15" y1="297.62" x2="414.15" y2="300.28"/><rect class="cls-1" x="365.46" y="288.74" width="54.41" height="8.53" transform="translate(785.33 586.01) rotate(180)"/><line class="cls-8" x1="416.31" y1="288.9" x2="416.31" y2="296.65"/><line class="cls-8" x1="412.46" y1="288.9" x2="412.46" y2="296.65"/><line class="cls-8" x1="408.61" y1="288.9" x2="408.61" y2="296.65"/><line class="cls-8" x1="404.76" y1="288.9" x2="404.76" y2="296.65"/><line class="cls-8" x1="400.91" y1="293.98" x2="400.91" y2="296.65"/><line class="cls-8" x1="400.91" y1="288.9" x2="400.91" y2="290.83"/><line class="cls-8" x1="397.07" y1="288.9" x2="397.07" y2="296.65"/><line class="cls-8" x1="393.22" y1="294.23" x2="393.22" y2="296.65"/><line class="cls-8" x1="393.22" y1="288.9" x2="393.22" y2="293"/><line class="cls-8" x1="386.24" y1="288.9" x2="386.24" y2="296.65"/><line class="cls-8" x1="377.83" y1="294.23" x2="377.83" y2="296.65"/><line class="cls-8" x1="377.83" y1="288.9" x2="377.83" y2="291.56"/><line class="cls-8" x1="374.94" y1="288.9" x2="374.94" y2="296.65"/><line class="cls-8" x1="370.13" y1="293.5" x2="370.13" y2="296.65"/><line class="cls-8" x1="370.13" y1="288.9" x2="370.13" y2="291.56"/><rect class="cls-1" x="363.32" y="279.77" width="54.81" height="8.53"/><line class="cls-8" x1="366.91" y1="279.93" x2="366.91" y2="287.68"/><line class="cls-8" x1="370.79" y1="279.93" x2="370.79" y2="287.68"/><line class="cls-8" x1="374.66" y1="279.93" x2="374.66" y2="287.68"/><line class="cls-8" x1="378.54" y1="279.93" x2="378.54" y2="287.68"/><line class="cls-8" x1="382.42" y1="285.02" x2="382.42" y2="287.68"/><line class="cls-8" x1="382.42" y1="279.93" x2="382.42" y2="281.87"/><line class="cls-8" x1="386.29" y1="279.93" x2="386.29" y2="287.68"/><line class="cls-8" x1="390.17" y1="285.26" x2="390.17" y2="287.68"/><line class="cls-8" x1="390.17" y1="279.93" x2="390.17" y2="284.04"/><line class="cls-8" x1="397.19" y1="279.93" x2="397.19" y2="287.68"/><line class="cls-8" x1="405.67" y1="285.26" x2="405.67" y2="287.68"/><line class="cls-8" x1="405.67" y1="279.93" x2="405.67" y2="282.6"/><line class="cls-8" x1="408.58" y1="279.93" x2="408.58" y2="287.68"/><line class="cls-8" x1="413.42" y1="284.54" x2="413.42" y2="287.68"/><line class="cls-8" x1="413.42" y1="279.93" x2="413.42" y2="282.6"/><rect class="cls-1" x="358.91" y="271.05" width="54.41" height="8.53" transform="translate(772.22 550.64) rotate(180)"/><line class="cls-8" x1="409.75" y1="271.21" x2="409.75" y2="278.96"/><line class="cls-8" x1="405.9" y1="271.21" x2="405.9" y2="278.96"/><line class="cls-8" x1="402.06" y1="271.21" x2="402.06" y2="278.96"/><line class="cls-8" x1="398.21" y1="271.21" x2="398.21" y2="278.96"/><line class="cls-8" x1="394.36" y1="276.3" x2="394.36" y2="278.96"/><line class="cls-8" x1="394.36" y1="271.21" x2="394.36" y2="273.15"/><line class="cls-8" x1="390.51" y1="271.21" x2="390.51" y2="278.96"/><line class="cls-8" x1="386.66" y1="276.54" x2="386.66" y2="278.96"/><line class="cls-8" x1="386.66" y1="271.21" x2="386.66" y2="275.32"/><line class="cls-8" x1="379.69" y1="271.21" x2="379.69" y2="278.96"/><line class="cls-8" x1="371.27" y1="276.54" x2="371.27" y2="278.96"/><line class="cls-8" x1="371.27" y1="271.21" x2="371.27" y2="273.88"/><line class="cls-8" x1="368.39" y1="271.21" x2="368.39" y2="278.96"/><line class="cls-8" x1="363.58" y1="275.81" x2="363.58" y2="278.96"/><line class="cls-8" x1="363.58" y1="271.21" x2="363.58" y2="273.88"/><rect class="cls-1" x="358.72" y="262.09" width="54.81" height="8.53"/><line class="cls-8" x1="362.31" y1="262.25" x2="362.31" y2="270"/><line class="cls-8" x1="366.19" y1="262.25" x2="366.19" y2="270"/><line class="cls-8" x1="370.06" y1="262.25" x2="370.06" y2="270"/><line class="cls-8" x1="373.94" y1="262.25" x2="373.94" y2="270"/><line class="cls-8" x1="377.81" y1="267.34" x2="377.81" y2="270"/><line class="cls-8" x1="377.81" y1="262.25" x2="377.81" y2="264.19"/><line class="cls-8" x1="381.69" y1="262.25" x2="381.69" y2="270"/><line class="cls-8" x1="385.57" y1="267.58" x2="385.57" y2="270"/><line class="cls-8" x1="385.57" y1="262.25" x2="385.57" y2="266.36"/><line class="cls-8" x1="392.59" y1="262.25" x2="392.59" y2="270"/><line class="cls-8" x1="401.07" y1="267.58" x2="401.07" y2="270"/><line class="cls-8" x1="401.07" y1="262.25" x2="401.07" y2="264.91"/><line class="cls-8" x1="403.98" y1="262.25" x2="403.98" y2="270"/><line class="cls-8" x1="408.82" y1="266.85" x2="408.82" y2="270"/><line class="cls-8" x1="408.82" y1="262.25" x2="408.82" y2="264.91"/><rect class="cls-1" x="361.83" y="253.37" width="54.41" height="8.53" transform="translate(778.06 515.27) rotate(180)"/><line class="cls-8" x1="412.67" y1="253.53" x2="412.67" y2="261.28"/><line class="cls-8" x1="408.82" y1="253.53" x2="408.82" y2="261.28"/><line class="cls-8" x1="404.98" y1="253.53" x2="404.98" y2="261.28"/><line class="cls-8" x1="401.13" y1="253.53" x2="401.13" y2="261.28"/><line class="cls-8" x1="397.28" y1="258.61" x2="397.28" y2="261.28"/><line class="cls-8" x1="397.28" y1="253.53" x2="397.28" y2="255.47"/><line class="cls-8" x1="393.43" y1="253.53" x2="393.43" y2="261.28"/><line class="cls-8" x1="389.59" y1="258.86" x2="389.59" y2="261.28"/><line class="cls-8" x1="389.59" y1="253.53" x2="389.59" y2="257.64"/><line class="cls-8" x1="382.61" y1="253.53" x2="382.61" y2="261.28"/><line class="cls-8" x1="374.19" y1="258.86" x2="374.19" y2="261.28"/><line class="cls-8" x1="374.19" y1="253.53" x2="374.19" y2="256.19"/><line class="cls-8" x1="371.31" y1="253.53" x2="371.31" y2="261.28"/><line class="cls-8" x1="366.5" y1="258.13" x2="366.5" y2="261.28"/><line class="cls-8" x1="366.5" y1="253.53" x2="366.5" y2="256.19"/><rect class="cls-1" x="361.63" y="244.41" width="54.81" height="8.53"/><line class="cls-8" x1="365.22" y1="244.56" x2="365.22" y2="252.32"/><line class="cls-8" x1="369.09" y1="244.56" x2="369.09" y2="252.32"/><line class="cls-8" x1="372.97" y1="244.56" x2="372.97" y2="252.32"/><line class="cls-8" x1="376.85" y1="244.56" x2="376.85" y2="252.32"/><line class="cls-8" x1="380.72" y1="249.65" x2="380.72" y2="252.32"/><line class="cls-8" x1="380.72" y1="244.56" x2="380.72" y2="246.5"/><line class="cls-8" x1="384.6" y1="244.56" x2="384.6" y2="252.32"/><line class="cls-8" x1="388.47" y1="249.89" x2="388.47" y2="252.32"/><line class="cls-8" x1="388.47" y1="244.56" x2="388.47" y2="248.67"/><line class="cls-8" x1="395.5" y1="244.56" x2="395.5" y2="252.32"/><line class="cls-8" x1="403.98" y1="249.89" x2="403.98" y2="252.32"/><line class="cls-8" x1="403.98" y1="244.56" x2="403.98" y2="247.23"/><line class="cls-8" x1="406.88" y1="244.56" x2="406.88" y2="252.32"/><line class="cls-8" x1="411.73" y1="249.17" x2="411.73" y2="252.32"/><line class="cls-8" x1="411.73" y1="244.56" x2="411.73" y2="247.23"/><rect class="cls-1" x="365.46" y="235.69" width="54.41" height="8.53" transform="translate(785.33 479.9) rotate(180)"/><line class="cls-8" x1="416.31" y1="235.84" x2="416.31" y2="243.6"/><line class="cls-8" x1="412.46" y1="235.84" x2="412.46" y2="243.6"/><line class="cls-8" x1="408.61" y1="235.84" x2="408.61" y2="243.6"/><line class="cls-8" x1="404.76" y1="235.84" x2="404.76" y2="243.6"/><line class="cls-8" x1="400.91" y1="240.93" x2="400.91" y2="243.6"/><line class="cls-8" x1="400.91" y1="235.84" x2="400.91" y2="237.78"/><line class="cls-8" x1="397.07" y1="235.84" x2="397.07" y2="243.6"/><line class="cls-8" x1="393.22" y1="241.17" x2="393.22" y2="243.6"/><line class="cls-8" x1="393.22" y1="235.84" x2="393.22" y2="239.95"/><line class="cls-8" x1="386.24" y1="235.84" x2="386.24" y2="243.6"/><line class="cls-8" x1="377.83" y1="241.17" x2="377.83" y2="243.6"/><line class="cls-8" x1="377.83" y1="235.84" x2="377.83" y2="238.51"/><line class="cls-8" x1="374.94" y1="235.84" x2="374.94" y2="243.6"/><line class="cls-8" x1="370.13" y1="240.45" x2="370.13" y2="243.6"/><line class="cls-8" x1="370.13" y1="235.84" x2="370.13" y2="238.51"/></g><g id="Piggy_Bank"><ellipse class="cls-4" cx="197.93" cy="260.18" rx="33.03" ry="25.77" transform="translate(-95.38 404.55) rotate(-78.94)"/><path class="cls-4" d="m320.37,229.04s20.53-31.7,44.45-26.57c15.93,3.42,6.57,33.73,6.57,33.73"/><path class="cls-2" d="m366.04,239.17s.05,0,.07.01l1.47-.37s9.15-27.8-4.18-27.45c-11.25.29-26.39,26.26-30.83,34.34,8.67-6.05,20.73-8.75,33.48-6.53Z"/><path class="cls-2" d="m266.96,374.52l-5.61,24.75c-1.75,7.7-8.59,13.16-16.48,13.16h0c-7.89,0-14.74-5.46-16.48-13.16l-9.88-43.56"/><path class="cls-2" d="m352.71,374.52l-5.63,24.84c-1.73,7.65-8.53,13.08-16.37,13.08h0c-7.92,0-14.77-5.54-16.42-13.29l-5.62-26.35"/><path class="cls-4" d="m402.16,300.49c0,30.24-16,57.32-41.25,75.55-20.6,14.88-47.35,23.86-76.59,23.86-65.08,0-117.84-44.51-117.84-99.41s52.76-99.41,117.84-99.41,117.84,44.51,117.84,99.41Z"/><path class="cls-8" d="m380.5,348.84c-6.26,8.85-14.19,16.76-23.42,23.42-6.11,4.41-12.8,8.28-19.94,11.52"/><path class="cls-1" d="m393.28,322.27c-1.5,5.35-3.54,10.53-6.06,15.49"/><path class="cls-8" d="m189.94,249.68c3.71-4.89,7.93-9.47,12.61-13.69"/><path class="cls-8" d="m184.33,343c-7.65-12.78-11.95-27.22-11.95-42.51s4.31-29.75,11.97-42.54"/><path class="cls-8" d="m337.14,383.78c-15.73,7.12-33.72,11.15-52.82,11.15-21.85,0-42.24-5.28-59.47-14.41"/><path class="cls-8" d="m338.28,245.84c0,5.8-2.52,10.51-5.63,10.51-2.81,0-5.14-3.85-5.56-8.88"/><path class="cls-8" d="m367.36,243.34c0,4.3-1.87,7.79-4.17,7.79-2.08,0-3.81-2.85-4.12-6.58"/><path class="cls-1" d="m308.6,209.02c-2.34.82-4.22,1.62-5.69,2.35-1.13.56-2.04,1.07-2.74,1.51-1.49-.18-2.99-.33-4.5-.45-3.73-.33-7.52-.49-11.35-.49-17.21,0-33.53,3.27-48.19,9.13-2.55,1.02-5.06,2.13-7.51,3.3,4.69-4.92,9.93-8.49,14.12-10.87,12.89-4.33,26.91-6.7,41.57-6.7,8.33,0,16.45.77,24.28,2.23Z"/><path class="cls-2" d="m302.91,211.37l-7.24,1.05c-3.73-.33-7.52-.49-11.35-.49-17.21,0-33.53,3.27-48.19,9.13,2.33-1.71,4.59-3.15,6.62-4.29,12.89-4.32,26.91-6.7,41.57-6.7,6.32,0,12.53.45,18.59,1.3Z"/><ellipse class="cls-2" cx="365.11" cy="287.93" rx="12.46" ry="29.32"/><circle class="cls-4" cx="373.69" cy="278.67" r="29.32"/><circle class="cls-4" cx="381.72" cy="278.67" r="29.32"/><ellipse class="cls-2" cx="373.25" cy="279.11" rx="6.17" ry="10.18"/><ellipse class="cls-2" cx="395.35" cy="277.53" rx="6.17" ry="10.18"/><path class="cls-4" d="m238.52,374.52l-5.61,24.75c-1.75,7.7-8.59,13.16-16.48,13.16h0c-7.89,0-14.74-5.46-16.48-13.16l-9.88-43.56"/><path class="cls-4" d="m322.52,374.52l-5.63,24.84c-1.73,7.65-8.53,13.08-16.37,13.08h0c-7.92,0-14.77-5.54-16.42-13.29l-5.62-26.35"/><path class="cls-4" d="m273.42,245.25s2.97-36.78,28.18-47.16c16.79-6.91,23.64,22.1,23.64,22.1"/><path class="cls-2" d="m321.73,225.68s.05-.02.07-.03l1.19-1.17s-5.74-26.94-18.13-18.68c-10.46,6.97-11.31,36.09-11.32,44.99,5.05-9.87,15.02-19.18,28.19-25.11Z"/></g><g id="Coins_1"><circle class="cls-5" cx="268.88" cy="177.76" r="27.36"/><circle class="cls-5" cx="265.66" cy="177.76" r="27.36"/><circle class="cls-5" cx="265.66" cy="177.76" r="21.99"/><path class="cls-5" d="m245.57,177.76c0-11.83,9.34-21.47,21.04-21.97-.32-.01-.63-.02-.95-.02-12.15,0-21.99,9.85-21.99,21.99s9.85,21.99,21.99,21.99c.32,0,.63-.01.95-.02-11.71-.5-21.04-10.14-21.04-21.97Z"/><line class="cls-7" x1="286.05" y1="156.66" x2="283.96" y2="156.66"/><line class="cls-7" x1="288.71" y1="159.13" x2="287.19" y2="159.13"/><line class="cls-7" x1="292.13" y1="162.93" x2="290.42" y2="162.93"/><line class="cls-7" x1="294.03" y1="167.68" x2="291.75" y2="167.68"/><line class="cls-7" x1="295.74" y1="172.81" x2="293.65" y2="172.81"/><line class="cls-7" x1="295.74" y1="183.64" x2="293.46" y2="183.64"/><line class="cls-7" x1="286.81" y1="196.56" x2="288.71" y2="196.56"/><line class="cls-7" x1="283.58" y1="199.03" x2="285.67" y2="199.03"/><line class="cls-7" x1="280.16" y1="201.69" x2="282.25" y2="201.69"/><line class="cls-7" x1="282.44" y1="154.01" x2="279.21" y2="154.01"/><path class="cls-10" d="m264.54,170.27c0-1.97.79-2.72,2.17-2.72s2.17.75,2.17,2.72v1.14h4.1v-.87c0-3.75-1.58-6.11-4.65-6.74v-2.05h-3.55v2.05c-3.04.67-4.57,3.04-4.57,6.74,0,7.89,8.48,8.16,8.48,13.84,0,1.97-.87,2.68-2.25,2.68s-2.25-.71-2.25-2.68v-2.17h-4.1v1.89c0,3.75,1.58,6.15,4.69,6.78v2.01h3.55v-2.01c3.08-.63,4.69-3.04,4.69-6.78,0-7.89-8.48-8.16-8.48-13.84Z"/><circle class="cls-5" cx="315.6" cy="118.8" r="27.36" transform="translate(49.76 326.28) rotate(-58.6)"/><circle class="cls-5" cx="312.39" cy="118.8" r="27.36" transform="translate(-21.65 129.75) rotate(-22.7)"/><circle class="cls-5" cx="312.39" cy="118.8" r="21.99" transform="translate(84.42 363.2) rotate(-67.81)"/><path class="cls-5" d="m292.29,118.8c0-11.83,9.34-21.47,21.04-21.97-.32-.01-.63-.02-.95-.02-12.15,0-21.99,9.85-21.99,21.99s9.85,21.99,21.99,21.99c.32,0,.63-.01.95-.02-11.71-.5-21.04-10.14-21.04-21.97Z"/><line class="cls-7" x1="332.78" y1="97.7" x2="330.69" y2="97.7"/><line class="cls-7" x1="335.44" y1="100.17" x2="333.92" y2="100.17"/><line class="cls-7" x1="338.85" y1="103.97" x2="337.14" y2="103.97"/><line class="cls-7" x1="340.75" y1="108.72" x2="338.47" y2="108.72"/><line class="cls-7" x1="342.46" y1="113.85" x2="340.37" y2="113.85"/><line class="cls-7" x1="342.46" y1="124.67" x2="340.18" y2="124.67"/><line class="cls-7" x1="333.54" y1="137.59" x2="335.44" y2="137.59"/><line class="cls-7" x1="330.31" y1="140.06" x2="332.4" y2="140.06"/><line class="cls-7" x1="326.89" y1="142.72" x2="328.98" y2="142.72"/><line class="cls-7" x1="329.17" y1="95.04" x2="325.94" y2="95.04"/><path class="cls-10" d="m319,113.77c1.82-.77,2.81-.33,3.35.94.54,1.27.15,2.29-1.66,3.06l-1.05.44,1.59,3.78.8-.34c3.45-1.46,5.02-3.83,4.4-6.91l1.89-.8-1.38-3.27-1.89.8c-1.8-2.54-4.58-3.03-7.99-1.59-7.27,3.07-4.22,10.98-9.46,13.19-1.82.77-2.81.24-3.34-1.03s-.22-2.35,1.6-3.11l2-.84-1.59-3.78-1.74.74c-3.45,1.46-5.05,3.85-4.43,6.96l-1.85.78,1.38,3.27,1.85-.78c1.78,2.59,4.62,3.14,8.07,1.69,7.27-3.07,4.22-10.98,9.46-13.19Z"/><circle class="cls-5" cx="269.33" cy="64.81" r="27.36" transform="translate(33.06 209.42) rotate(-45)"/><circle class="cls-5" cx="266.11" cy="64.81" r="27.36" transform="translate(-4.4 107.71) rotate(-22.7)"/><circle class="cls-5" cx="266.11" cy="64.81" r="21.99" transform="translate(-4.43 107.52) rotate(-22.66)"/><path class="cls-5" d="m246.01,64.81c0-11.83,9.34-21.47,21.04-21.97-.32-.01-.63-.02-.95-.02-12.15,0-21.99,9.85-21.99,21.99s9.85,21.99,21.99,21.99c.32,0,.63-.01.95-.02-11.71-.5-21.04-10.14-21.04-21.97Z"/><line class="cls-7" x1="286.5" y1="43.71" x2="284.41" y2="43.71"/><line class="cls-7" x1="289.16" y1="46.18" x2="287.64" y2="46.18"/><line class="cls-7" x1="292.58" y1="49.98" x2="290.87" y2="49.98"/><line class="cls-7" x1="294.47" y1="54.73" x2="292.2" y2="54.73"/><line class="cls-7" x1="296.18" y1="59.85" x2="294.09" y2="59.85"/><line class="cls-7" x1="296.18" y1="70.68" x2="293.9" y2="70.68"/><line class="cls-7" x1="287.26" y1="83.6" x2="289.16" y2="83.6"/><line class="cls-7" x1="284.03" y1="86.07" x2="286.12" y2="86.07"/><line class="cls-7" x1="280.61" y1="88.73" x2="282.7" y2="88.73"/><line class="cls-7" x1="282.89" y1="41.05" x2="279.66" y2="41.05"/><path class="cls-10" d="m261.46,59.55c-1.07-1.65-.82-2.71.34-3.46,1.16-.75,2.23-.55,3.3,1.1l.62.96,3.44-2.23-.47-.73c-2.04-3.14-4.65-4.27-7.58-3.12l-1.12-1.72-2.98,1.93,1.12,1.72c-2.18,2.22-2.18,5.04-.16,8.15,4.3,6.61,11.56,2.23,14.65,6.99,1.07,1.65.73,2.72-.42,3.47-1.16.75-2.27.63-3.35-1.02l-1.18-1.82-3.44,2.23,1.03,1.59c2.04,3.14,4.67,4.3,7.63,3.13l1.1,1.69,2.98-1.93-1.1-1.69c2.24-2.2,2.28-5.1.24-8.24-4.3-6.61-11.56-2.23-14.65-6.99Z"/></g><g id="Floor"><line class="cls-8" x1="38.02" y1="412.44" x2="16.83" y2="412.44"/><line class="cls-8" x1="472.34" y1="412.44" x2="49.67" y2="412.44"/></g></svg>