<svg width="98" height="29" viewBox="0 0 98 29" fill="none" xmlns="http://www.w3.org/2000/svg">
<g clip-path="url(#clip0_893_3045)">
<path d="M50.6832 9.23464C50.6273 13.2583 54.612 15.5035 57.6137 16.8386C60.6976 18.2082 61.7335 19.0866 61.7212 20.3116C61.6983 22.1861 59.2613 23.0135 56.9809 23.0456C53.0023 23.1019 50.689 22.0652 48.8499 21.2812L47.4167 27.4023C49.2618 28.1783 52.6784 28.8551 56.2214 28.8848C64.538 28.8848 69.9789 25.1378 70.0084 19.3284C70.0409 11.9554 58.8348 11.5473 58.9114 8.25179C58.9378 7.25251 59.9825 6.18615 62.2717 5.91502C63.4049 5.77806 66.5328 5.67323 70.0792 7.16376L71.4711 1.24148C69.5639 0.60767 67.1128 0.000764847 64.061 0.000764847C56.2332 0.000764847 50.7276 3.79872 50.6832 9.23464ZM84.8458 0.510885C83.3272 0.510885 82.0474 1.31939 81.4763 2.5601L69.5965 28.4498H77.9069L79.5607 24.2783H89.7159L90.6753 28.4498H98L91.6082 0.510885H84.8458ZM86.0084 8.05822L88.4067 18.5496H81.8384L86.0084 8.05822ZM40.6072 0.511234L34.0565 28.4494H41.9758L48.5234 0.510536H40.6072M28.892 0.510536L20.6493 19.5272L17.315 3.35813C16.9238 1.55314 15.3787 0.510885 13.663 0.510885H0.188727L0 1.32219C2.7662 1.87004 5.90909 2.75367 7.8132 3.69914C8.97848 4.27669 9.31077 4.78157 9.69358 6.15401L16.0088 28.4498H24.3775L37.2078 0.510885L28.892 0.510536Z" fill="url(#paint0_linear_893_3045)"/>
</g>
<defs>
<linearGradient id="paint0_linear_893_3045" x1="4505.45" y1="86.8261" x2="4581.77" y2="-2880" gradientUnits="userSpaceOnUse">
<stop stop-color="#222357"/>
<stop offset="1" stop-color="#254AA5"/>
</linearGradient>
<clipPath id="clip0_893_3045">
<rect width="98" height="29" fill="white"/>
</clipPath>
</defs>
</svg>
