<svg width="54" height="63" viewBox="0 0 54 63" fill="none" xmlns="http://www.w3.org/2000/svg">
<g clip-path="url(#clip0_893_3033)">
<path d="M45.8088 4.90347C42.8696 1.59034 37.5565 0.169922 30.7595 0.169922H11.0326C10.3601 0.169947 9.70968 0.407223 9.19825 0.839093C8.68682 1.27096 8.34794 1.86909 8.24255 2.52595L0.0286394 54.0456C-0.134626 55.0615 0.660819 55.9814 1.70201 55.9814H13.8807L16.9393 36.7955L16.8444 37.3962C17.0623 36.0401 18.2351 35.0398 19.6239 35.0398H25.4112C36.7803 35.0398 45.6825 30.4729 48.2829 17.2619C48.3601 16.8712 48.427 16.4909 48.4848 16.1194C48.1566 15.9475 48.1566 15.9475 48.4848 16.1194C49.2591 11.2364 48.4795 7.91266 45.8088 4.90347Z" fill="#27346A"/>
<path d="M21.5993 14.3604C21.9323 14.2036 22.2964 14.1223 22.6652 14.1225H38.1307C39.9621 14.1225 41.6702 14.2404 43.2312 14.4889C43.668 14.5577 44.1025 14.64 44.5341 14.7354C45.1459 14.8689 45.7506 15.0324 46.3461 15.225C47.1135 15.4785 47.8281 15.7737 48.485 16.1194C49.2591 11.2346 48.4795 7.91266 45.8088 4.90348C42.8679 1.59034 37.5565 0.169922 30.7595 0.169922H11.0309C9.64191 0.169922 8.46023 1.16999 8.24255 2.52595L0.0286406 54.0437C-0.134625 55.0613 0.66082 55.98 1.70032 55.98H13.8807L20.2263 16.1836C20.2887 15.7924 20.4463 15.4221 20.6855 15.1045C20.9246 14.7869 21.2382 14.5315 21.5993 14.3604Z" fill="#27346A"/>
<path d="M48.2829 17.2617C45.6825 30.4708 36.7805 35.0396 25.4112 35.0396H19.6222C18.2334 35.0396 17.0604 36.0399 16.8446 37.396L13.0395 61.2515C12.8973 62.1406 13.5926 62.9463 14.5021 62.9463H24.7685C25.3566 62.9461 25.9253 62.7385 26.3724 62.3607C26.8195 61.9829 27.1156 61.4597 27.2075 60.8852L27.3075 60.3679L29.2425 48.2402L29.3671 47.5699C29.459 46.9955 29.7551 46.4723 30.2022 46.0945C30.6492 45.7167 31.2179 45.5091 31.806 45.5089H33.3424C43.2875 45.5089 51.0747 41.5131 53.3503 29.957C54.3001 25.1277 53.8087 21.0957 51.296 18.2636C50.5339 17.4058 49.5874 16.6974 48.4848 16.1191C48.4251 16.4926 48.3604 16.871 48.2829 17.2617Z" fill="#2790C3"/>
<path d="M45.7634 15.047C45.3579 14.9299 44.9486 14.8262 44.5362 14.7362C44.1043 14.6422 43.6698 14.5606 43.2332 14.4912C41.6706 14.2411 39.9637 14.1231 38.1306 14.1231H22.667C22.298 14.1222 21.9335 14.2042 21.6011 14.3627C21.2397 14.5334 20.9257 14.7886 20.6864 15.1063C20.4471 15.424 20.2898 15.7946 20.2279 16.186L16.9411 36.7962L16.8462 37.397C17.0624 36.0408 18.2352 35.0405 19.6242 35.0405H25.4132C36.7823 35.0405 45.6843 30.4736 48.2847 17.2626C48.3622 16.8719 48.4271 16.4933 48.4868 16.1201C47.8283 15.7763 47.1155 15.4792 46.3479 15.2274C46.1542 15.1639 45.9594 15.1038 45.7636 15.047" fill="#1F264F"/>
</g>
<defs>
<clipPath id="clip0_893_3033">
<rect width="54" height="63" fill="white"/>
</clipPath>
</defs>
</svg>
