<svg width="78" height="61" viewBox="0 0 78 61" fill="none" xmlns="http://www.w3.org/2000/svg">
<g clip-path="url(#clip0_893_3038)">
<path d="M14.1801 60.6967V56.6593C14.1801 55.1113 13.2435 54.1022 11.6381 54.1022C10.8356 54.1022 9.966 54.3713 9.36394 55.2462C8.89594 54.5059 8.22715 54.1022 7.22381 54.1022C6.55472 54.1022 5.88623 54.3039 5.3509 55.0442V54.2368H3.94629V60.6967H5.3509V57.1301C5.3509 55.9865 5.95296 55.4479 6.88957 55.4479C7.82557 55.4479 8.29418 56.0536 8.29418 57.1301V60.6967H9.69879V57.1301C9.69879 55.9865 10.3673 55.4479 11.2369 55.4479C12.1735 55.4479 12.6415 56.0536 12.6415 57.1301V60.6967H14.1801ZM34.9815 54.2368H32.7076V52.2854H31.303V54.2368H30.0321V55.515H31.3027V58.4761C31.3027 59.9567 31.9047 60.8312 33.5101 60.8312C34.1122 60.8312 34.7807 60.6295 35.2493 60.3604L34.8477 59.149C34.4464 59.4181 33.9784 59.4855 33.6439 59.4855C32.9751 59.4855 32.7076 59.0818 32.7076 58.4087V55.515H34.9815V54.2368ZM46.8874 54.1019C46.0849 54.1019 45.5498 54.5059 45.2153 55.0442V54.2368H43.8107V60.6967H45.2153V57.063C45.2153 55.9865 45.6833 55.3808 46.5529 55.3808C46.8204 55.3808 47.1549 55.4482 47.4225 55.5153L47.8237 54.1697C47.5562 54.1022 47.1549 54.1022 46.8874 54.1022V54.1019ZM28.895 54.7751C28.2259 54.3039 27.2896 54.1022 26.2863 54.1022C24.6812 54.1022 23.6111 54.9096 23.6111 56.1882C23.6111 57.265 24.4137 57.8704 25.8183 58.0724L26.4871 58.1399C27.2229 58.2741 27.6242 58.4761 27.6242 58.8127C27.6242 59.2835 27.0891 59.6201 26.1525 59.6201C25.2162 59.6201 24.4804 59.2835 24.0121 58.9473L23.3433 60.0238C24.0791 60.5621 25.0825 60.8312 26.0855 60.8312C27.9584 60.8312 29.0288 59.9567 29.0288 58.7453C29.0288 57.6013 28.1592 56.9956 26.8213 56.7939L26.1525 56.7264C25.5505 56.659 25.0825 56.5247 25.0825 56.121C25.0825 55.6499 25.5505 55.3808 26.2863 55.3808C27.0891 55.3808 27.8917 55.717 28.293 55.919L28.895 54.7751ZM66.2177 54.1022C65.4149 54.1022 64.8798 54.5059 64.5453 55.0442V54.2368H63.1407V60.6967H64.5453V57.063C64.5453 55.9865 65.0136 55.3808 65.8829 55.3808C66.1507 55.3808 66.4852 55.4482 66.7527 55.5153L67.154 54.1697C66.8865 54.1022 66.4852 54.1022 66.2177 54.1022ZM48.292 57.4667C48.292 59.4181 49.6296 60.8312 51.7033 60.8312C52.6396 60.8312 53.3084 60.6295 53.9772 60.0912L53.3084 58.9473C52.7734 59.351 52.2383 59.5527 51.6363 59.5527C50.4992 59.5527 49.6966 58.7453 49.6966 57.4667C49.6966 56.2556 50.4992 55.4479 51.6363 55.3808C52.2383 55.3808 52.7734 55.5825 53.3084 55.9865L53.9772 54.8425C53.3084 54.3039 52.6396 54.1022 51.7033 54.1022C49.6296 54.1022 48.292 55.5153 48.292 57.4667ZM61.2681 57.4667V54.2368H59.8635V55.0442C59.3952 54.4388 58.7264 54.1022 57.8568 54.1022C56.0509 54.1022 54.6463 55.5153 54.6463 57.4667C54.6463 59.4181 56.0509 60.8312 57.8568 60.8312C58.7931 60.8312 59.4622 60.495 59.8635 59.8892V60.6967H61.2681V57.4667ZM56.1176 57.4667C56.1176 56.3227 56.8534 55.3808 58.0573 55.3808C59.1944 55.3808 59.9972 56.2556 59.9972 57.4667C59.9972 58.6107 59.1944 59.5527 58.0573 59.5527C56.8534 59.4852 56.1176 58.6107 56.1176 57.4667ZM39.3293 54.1022C37.4564 54.1022 36.1185 55.4479 36.1185 57.4667C36.1185 59.4855 37.4561 60.8312 39.3961 60.8312C40.3324 60.8312 41.269 60.5621 42.0048 59.9567L41.3357 58.9473C40.8007 59.351 40.1319 59.6201 39.4631 59.6201C38.5935 59.6201 37.7239 59.2164 37.5232 58.0721H42.2723V57.5342C42.3394 55.4479 41.1355 54.1022 39.3293 54.1022ZM39.3293 55.3133C40.1986 55.3133 40.801 55.8519 40.9344 56.8613H37.5902C37.7239 55.9865 38.326 55.3133 39.3293 55.3133ZM74.1771 57.4667V51.6797H72.7725V55.0442C72.3042 54.4388 71.6354 54.1022 70.7658 54.1022C68.9599 54.1022 67.5553 55.5153 67.5553 57.4667C67.5553 59.4181 68.9599 60.8312 70.7658 60.8312C71.7024 60.8312 72.3712 60.495 72.7725 59.8892V60.6967H74.1771V57.4667ZM69.0269 57.4667C69.0269 56.3227 69.7624 55.3808 70.9666 55.3808C72.1037 55.3808 72.9062 56.2556 72.9062 57.4667C72.9062 58.6107 72.1037 59.5527 70.9666 59.5527C69.7624 59.4852 69.0269 58.6107 69.0269 57.4667ZM22.0725 57.4667V54.2368H20.6678V55.0442C20.1995 54.4388 19.5308 54.1022 18.6612 54.1022C16.8553 54.1022 15.4507 55.5153 15.4507 57.4667C15.4507 59.4181 16.8553 60.8312 18.6612 60.8312C19.5978 60.8312 20.2666 60.495 20.6678 59.8892V60.6967H22.0725V57.4667ZM16.8553 57.4667C16.8553 56.3227 17.5911 55.3808 18.7949 55.3808C19.932 55.3808 20.7349 56.2556 20.7349 57.4667C20.7349 58.6107 19.932 59.5527 18.7949 59.5527C17.5911 59.4852 16.8553 58.6107 16.8553 57.4667Z" fill="black"/>
<path d="M28.4268 5.18164H49.4959V43.2686H28.4268V5.18164Z" fill="#FF5F00"/>
<path d="M29.7646 24.225C29.7646 16.4866 33.3764 9.62267 38.9278 5.18132C34.848 1.95139 29.6979 0 24.0795 0C10.7686 0 0 10.8338 0 24.225C0 37.6159 10.7686 48.4499 24.0791 48.4499C29.6976 48.4499 34.8477 46.4986 38.9278 43.2683C33.3764 38.8944 29.7646 31.9634 29.7646 24.225Z" fill="#EB001B"/>
<path d="M77.9224 24.225C77.9224 37.6159 67.1538 48.4499 53.8433 48.4499C48.2248 48.4499 43.0747 46.4986 38.9946 43.2683C44.6131 38.8273 48.1581 31.9634 48.1581 24.225C48.1581 16.4866 44.546 9.62267 38.9946 5.18132C43.0744 1.95139 48.2248 0 53.8433 0C67.1538 0 77.9224 10.9012 77.9224 24.225Z" fill="#F79E1B"/>
</g>
<defs>
<clipPath id="clip0_893_3038">
<rect width="78" height="61" fill="white"/>
</clipPath>
</defs>
</svg>
