<?xml version="1.0" encoding="UTF-8"?><svg id="Calque_2" xmlns="http://www.w3.org/2000/svg" viewBox="0 0 702.3 442.65"><defs><style>.cls-1,.cls-2,.cls-3,.cls-4,.cls-5,.cls-6,.cls-7{stroke-miterlimit:10;}.cls-1,.cls-3,.cls-4,.cls-5,.cls-7{stroke:#263238;}.cls-1,.cls-8,.cls-9{fill:#fff;}.cls-2{stroke:#000;}.cls-2,.cls-5,.cls-6,.cls-7{fill:none;}.cls-3{fill:#263238;}.cls-4,.cls-10{fill:#92e3a9;}.cls-8{opacity:.5;}.cls-9{opacity:.7;}.cls-11{opacity:.3;}.cls-5{stroke-linecap:round;stroke-width:3px;}.cls-6{stroke:#787878;}.cls-12{fill:#a3a3a3;}</style></defs><g id="Background_Simple"><path class="cls-10" d="m661.03,119.79s-36.66-79.04-162.66-112.26c-126-33.22-199.31,50.4-235.97,113.4-36.66,63-140.89,66.44-202.75,81.33-61.86,14.89-77.89,164.95,8.02,208.48,85.91,43.53,167.24-2.29,243.99-2.29s209.62,50.4,304.7,6.87c95.07-43.53,106.53-197.02,44.67-295.53Z"/><path class="cls-9" d="m661.03,119.79s-36.66-79.04-162.66-112.26c-126-33.22-199.31,50.4-235.97,113.4-36.66,63-140.89,66.44-202.75,81.33-61.86,14.89-77.89,164.95,8.02,208.48,85.91,43.53,167.24-2.29,243.99-2.29s209.62,50.4,304.7,6.87c95.07-43.53,106.53-197.02,44.67-295.53Z"/></g><g id="Clouds"><g class="cls-11"><path class="cls-2" d="m579.4,117.52c-4.27-2.33-6.2-.39-7.75-2.33-1.55-1.94,4.26-6.98-7.37-12.02,0,0-.78-10.86-16.67-11.24-15.9-.39-11.63,10.86-15.9,13.57-4.27,2.71-5.43-1.55-9.69,1.16-4.27,2.71-2.33,8.14-5.82,8.92-3.49.78-8.14-3.49-12.41-.78-4.26,2.71-4.26,5.04-6.2,5.04s-5.82-1.55-8.14,0c-2.33,1.55-5.04,3.49-5.04,3.49h98.1s1.16-3.49-3.1-5.82Z"/></g><g class="cls-11"><path class="cls-2" d="m338.48,59.4c-1.94-1.06-2.82-.18-3.52-1.06-.7-.88,1.94-3.17-3.34-5.46,0,0-.35-4.93-7.57-5.1-7.22-.18-5.28,4.93-7.22,6.16-1.94,1.23-2.46-.7-4.4.53-1.94,1.23-1.06,3.7-2.64,4.05-1.58.35-3.7-1.58-5.63-.35-1.94,1.23-1.94,2.29-2.82,2.29s-2.64-.7-3.7,0c-1.06.7-2.29,1.58-2.29,1.58h44.53s.53-1.58-1.41-2.64Z"/></g><g class="cls-11"><path class="cls-2" d="m111.92,75.58c-3.96-2.16-5.76-.36-7.2-2.16-1.44-1.8,3.96-6.48-6.85-11.17,0,0-.72-10.09-15.49-10.45-14.77-.36-10.81,10.09-14.77,12.61-3.96,2.52-5.04-1.44-9.01,1.08-3.96,2.52-2.16,7.57-5.4,8.29-3.24.72-7.57-3.24-11.53-.72-3.96,2.52-3.96,4.68-5.76,4.68s-5.4-1.44-7.57,0c-2.16,1.44-4.68,3.24-4.68,3.24h91.14s1.08-3.24-2.88-5.4Z"/></g><g class="cls-11"><path class="cls-2" d="m331.54,38.78c-2.66-1.45-3.87-.24-4.84-1.45-.97-1.21,2.66-4.36-4.6-7.5,0,0-.48-6.78-10.41-7.02-9.92-.24-7.26,6.78-9.92,8.47-2.66,1.69-3.39-.97-6.05.73-2.66,1.69-1.45,5.08-3.63,5.57-2.18.48-5.08-2.18-7.74-.48-2.66,1.69-2.66,3.15-3.87,3.15s-3.63-.97-5.08,0c-1.45.97-3.15,2.18-3.15,2.18h61.23s.73-2.18-1.94-3.63Z"/></g></g><g id="Buildings"><g class="cls-11"><rect class="cls-2" x="103.53" y="191.88" width="13.9" height="12.27"/><rect class="cls-2" x="88.5" y="199.3" width="5.64" height="4.84"/><polyline class="cls-2" points="659.65 269.35 606.95 269.35 606.95 171.99 610.47 171.99 610.47 161.91 487.01 161.91 487.01 171.99 491.29 171.99 491.29 316.78 458.9 316.78 458.9 6.14 347.86 6.14 347.86 241.06 307.26 241.06 307.26 215.05 317.89 215.05 317.89 204.06 229.11 204.06 229.11 46.45 234.85 46.45 234.85 38.21 127.08 38.21 127.08 46.45 134.81 46.45 134.81 204.33 49.64 204.33 49.64 317.23 4.91 317.23"/><rect class="cls-2" x="342.91" y="2.74" width="120.41" height="3.37"/><rect class="cls-2" x="144.45" y="55.62" width="13.56" height="12.72"/><rect class="cls-2" x="164.35" y="55.62" width="13.56" height="12.72"/><rect class="cls-2" x="184.24" y="55.62" width="13.56" height="12.72"/><rect class="cls-2" x="204.13" y="55.62" width="13.56" height="12.72"/><rect class="cls-2" x="144.45" y="75.78" width="13.56" height="12.72"/><rect class="cls-2" x="164.35" y="75.78" width="13.56" height="12.72"/><rect class="cls-2" x="184.24" y="75.78" width="13.56" height="12.72"/><rect class="cls-2" x="204.13" y="75.78" width="13.56" height="12.72"/><rect class="cls-2" x="144.45" y="95.93" width="13.56" height="12.72"/><rect class="cls-2" x="164.35" y="95.93" width="13.56" height="12.72"/><rect class="cls-2" x="184.24" y="95.93" width="13.56" height="12.72"/><rect class="cls-2" x="204.13" y="95.93" width="13.56" height="12.72"/><rect class="cls-2" x="144.45" y="116.09" width="13.56" height="12.72"/><rect class="cls-2" x="164.35" y="116.09" width="13.56" height="12.72"/><rect class="cls-2" x="184.24" y="116.09" width="13.56" height="12.72"/><rect class="cls-2" x="204.13" y="116.09" width="13.56" height="12.72"/><rect class="cls-2" x="144.45" y="136.25" width="13.56" height="12.72"/><rect class="cls-2" x="164.35" y="136.25" width="13.56" height="12.72"/><rect class="cls-2" x="184.24" y="136.25" width="13.56" height="12.72"/><rect class="cls-2" x="204.13" y="136.25" width="13.56" height="12.72"/><rect class="cls-2" x="144.45" y="156.41" width="13.56" height="12.72"/><rect class="cls-2" x="164.35" y="156.41" width="13.56" height="12.72"/><rect class="cls-2" x="184.24" y="156.41" width="13.56" height="12.72"/><rect class="cls-2" x="204.13" y="156.41" width="13.56" height="12.72"/><rect class="cls-2" x="144.45" y="176.57" width="13.56" height="12.72"/><rect class="cls-2" x="164.35" y="176.57" width="13.56" height="12.72"/><rect class="cls-2" x="184.24" y="176.57" width="13.56" height="12.72"/><rect class="cls-2" x="204.13" y="176.57" width="13.56" height="12.72"/><rect class="cls-2" x="144.45" y="196.73" width="13.56" height="12.72"/><rect class="cls-2" x="164.35" y="196.73" width="13.56" height="12.72"/><rect class="cls-2" x="184.24" y="196.73" width="13.56" height="12.72"/><rect class="cls-2" x="204.13" y="196.73" width="13.56" height="12.72"/><rect class="cls-2" x="144.45" y="215.17" width="13.56" height="12.72"/><rect class="cls-2" x="164.35" y="215.17" width="13.56" height="12.72"/><rect class="cls-2" x="184.24" y="215.17" width="13.56" height="12.72"/><rect class="cls-2" x="204.13" y="215.17" width="13.56" height="12.72"/><rect class="cls-2" x="144.45" y="235.33" width="13.56" height="12.72"/><rect class="cls-2" x="164.35" y="235.33" width="13.56" height="12.72"/><rect class="cls-2" x="184.24" y="235.33" width="13.56" height="12.72"/><rect class="cls-2" x="204.13" y="235.33" width="13.56" height="12.72"/><rect class="cls-2" x="144.45" y="255.49" width="13.56" height="12.72"/><rect class="cls-2" x="164.35" y="255.49" width="13.56" height="12.72"/><rect class="cls-2" x="184.24" y="255.49" width="13.56" height="12.72"/><rect class="cls-2" x="204.13" y="255.49" width="13.56" height="12.72"/><rect class="cls-2" x="144.45" y="275.64" width="13.56" height="12.72"/><rect class="cls-2" x="164.35" y="275.64" width="13.56" height="12.72"/><rect class="cls-2" x="184.24" y="275.64" width="13.56" height="12.72"/><rect class="cls-2" x="204.13" y="275.64" width="13.56" height="12.72"/><rect class="cls-2" x="144.45" y="295.8" width="13.56" height="12.72"/><rect class="cls-2" x="164.35" y="295.8" width="13.56" height="12.72"/><rect class="cls-2" x="184.24" y="295.8" width="13.56" height="12.72"/><rect class="cls-2" x="204.13" y="295.8" width="13.56" height="12.72"/><rect class="cls-2" x="144.45" y="315.96" width="13.56" height="12.72"/><rect class="cls-2" x="164.35" y="315.96" width="13.56" height="12.72"/><rect class="cls-2" x="184.24" y="315.96" width="13.56" height="12.72"/><rect class="cls-2" x="204.13" y="315.96" width="13.56" height="12.72"/><rect class="cls-2" x="144.45" y="336.12" width="13.56" height="12.72"/><rect class="cls-2" x="164.35" y="336.12" width="13.56" height="12.72"/><rect class="cls-2" x="184.24" y="336.12" width="13.56" height="12.72"/><rect class="cls-2" x="204.13" y="336.12" width="13.56" height="12.72"/><rect class="cls-2" x="144.45" y="356.28" width="13.56" height="12.72"/><rect class="cls-2" x="164.35" y="356.28" width="13.56" height="12.72"/><rect class="cls-2" x="184.24" y="356.28" width="13.56" height="12.72"/><rect class="cls-2" x="204.13" y="356.28" width="13.56" height="12.72"/><rect class="cls-2" x="222.15" y="215.17" width="13.56" height="12.72"/><rect class="cls-2" x="242.04" y="215.17" width="13.56" height="12.72"/><rect class="cls-2" x="261.93" y="215.17" width="13.56" height="12.72"/><rect class="cls-2" x="281.83" y="215.17" width="13.56" height="12.72"/><rect class="cls-2" x="222.15" y="235.33" width="13.56" height="12.72"/><rect class="cls-2" x="242.04" y="235.33" width="13.56" height="12.72"/><rect class="cls-2" x="261.93" y="235.33" width="13.56" height="12.72"/><rect class="cls-2" x="281.83" y="235.33" width="13.56" height="12.72"/><rect class="cls-2" x="222.15" y="255.49" width="13.56" height="12.72"/><rect class="cls-2" x="242.04" y="255.49" width="13.56" height="12.72"/><rect class="cls-2" x="261.93" y="255.49" width="13.56" height="12.72"/><rect class="cls-2" x="281.83" y="255.49" width="13.56" height="12.72"/><rect class="cls-2" x="222.15" y="275.64" width="13.56" height="12.72"/><rect class="cls-2" x="242.04" y="275.64" width="13.56" height="12.72"/><rect class="cls-2" x="261.93" y="275.64" width="13.56" height="12.72"/><rect class="cls-2" x="281.83" y="275.64" width="13.56" height="12.72"/><rect class="cls-2" x="222.15" y="295.8" width="13.56" height="12.72"/><rect class="cls-2" x="242.04" y="295.8" width="13.56" height="12.72"/><rect class="cls-2" x="261.93" y="295.8" width="13.56" height="12.72"/><rect class="cls-2" x="281.83" y="295.8" width="13.56" height="12.72"/><rect class="cls-2" x="222.15" y="315.96" width="13.56" height="12.72"/><rect class="cls-2" x="242.04" y="315.96" width="13.56" height="12.72"/><rect class="cls-2" x="261.93" y="315.96" width="13.56" height="12.72"/><rect class="cls-2" x="281.83" y="315.96" width="13.56" height="12.72"/><rect class="cls-2" x="222.15" y="336.12" width="13.56" height="12.72"/><rect class="cls-2" x="242.04" y="336.12" width="13.56" height="12.72"/><rect class="cls-2" x="261.93" y="336.12" width="13.56" height="12.72"/><rect class="cls-2" x="281.83" y="336.12" width="13.56" height="12.72"/><rect class="cls-2" x="222.15" y="356.28" width="13.56" height="12.72"/><rect class="cls-2" x="242.04" y="356.28" width="13.56" height="12.72"/><rect class="cls-2" x="261.93" y="356.28" width="13.56" height="12.72"/><rect class="cls-2" x="281.83" y="356.28" width="13.56" height="12.72"/><rect class="cls-2" x="65.66" y="215.17" width="13.56" height="12.72"/><rect class="cls-2" x="85.56" y="215.17" width="13.56" height="12.72"/><rect class="cls-2" x="105.45" y="215.17" width="13.56" height="12.72"/><rect class="cls-2" x="125.34" y="215.17" width="13.56" height="12.72"/><rect class="cls-2" x="65.66" y="235.33" width="13.56" height="12.72"/><rect class="cls-2" x="85.56" y="235.33" width="13.56" height="12.72"/><rect class="cls-2" x="105.45" y="235.33" width="13.56" height="12.72"/><rect class="cls-2" x="125.34" y="235.33" width="13.56" height="12.72"/><rect class="cls-2" x="65.66" y="255.49" width="13.56" height="12.72"/><rect class="cls-2" x="85.56" y="255.49" width="13.56" height="12.72"/><rect class="cls-2" x="105.45" y="255.49" width="13.56" height="12.72"/><rect class="cls-2" x="125.34" y="255.49" width="13.56" height="12.72"/><rect class="cls-2" x="65.66" y="275.64" width="13.56" height="12.72"/><rect class="cls-2" x="85.56" y="275.64" width="13.56" height="12.72"/><rect class="cls-2" x="105.45" y="275.64" width="13.56" height="12.72"/><rect class="cls-2" x="125.34" y="275.64" width="13.56" height="12.72"/><rect class="cls-2" x="65.66" y="295.8" width="13.56" height="12.72"/><rect class="cls-2" x="85.56" y="295.8" width="13.56" height="12.72"/><rect class="cls-2" x="105.45" y="295.8" width="13.56" height="12.72"/><rect class="cls-2" x="125.34" y="295.8" width="13.56" height="12.72"/><rect class="cls-2" x="65.66" y="315.96" width="13.56" height="12.72"/><rect class="cls-2" x="85.56" y="315.96" width="13.56" height="12.72"/><rect class="cls-2" x="105.45" y="315.96" width="13.56" height="12.72"/><rect class="cls-2" x="125.34" y="315.96" width="13.56" height="12.72"/><rect class="cls-2" x="65.66" y="336.12" width="13.56" height="12.72"/><rect class="cls-2" x="85.56" y="336.12" width="13.56" height="12.72"/><rect class="cls-2" x="105.45" y="336.12" width="13.56" height="12.72"/><rect class="cls-2" x="125.34" y="336.12" width="13.56" height="12.72"/><rect class="cls-2" x="65.66" y="356.28" width="13.56" height="12.72"/><rect class="cls-2" x="85.56" y="356.28" width="13.56" height="12.72"/><rect class="cls-2" x="105.45" y="356.28" width="13.56" height="12.72"/><rect class="cls-2" x="125.34" y="356.28" width="13.56" height="12.72"/><rect class="cls-2" x="510.03" y="175.65" width="13.56" height="12.72"/><rect class="cls-2" x="529.92" y="175.65" width="13.56" height="12.72"/><rect class="cls-2" x="549.81" y="175.65" width="13.56" height="12.72"/><rect class="cls-2" x="569.7" y="175.65" width="13.56" height="12.72"/><rect class="cls-2" x="510.03" y="195.81" width="13.56" height="12.72"/><rect class="cls-2" x="529.92" y="195.81" width="13.56" height="12.72"/><rect class="cls-2" x="549.81" y="195.81" width="13.56" height="12.72"/><rect class="cls-2" x="569.7" y="195.81" width="13.56" height="12.72"/><rect class="cls-2" x="510.03" y="215.97" width="13.56" height="12.72"/><rect class="cls-2" x="529.92" y="215.97" width="13.56" height="12.72"/><rect class="cls-2" x="549.81" y="215.97" width="13.56" height="12.72"/><rect class="cls-2" x="569.7" y="215.97" width="13.56" height="12.72"/><rect class="cls-2" x="510.03" y="236.13" width="13.56" height="12.72"/><rect class="cls-2" x="529.92" y="236.13" width="13.56" height="12.72"/><rect class="cls-2" x="549.81" y="236.13" width="13.56" height="12.72"/><rect class="cls-2" x="569.7" y="236.13" width="13.56" height="12.72"/><rect class="cls-2" x="510.03" y="256.29" width="13.56" height="12.72"/><rect class="cls-2" x="529.92" y="256.29" width="13.56" height="12.72"/><rect class="cls-2" x="549.81" y="256.29" width="13.56" height="12.72"/><rect class="cls-2" x="569.7" y="256.29" width="13.56" height="12.72"/><rect class="cls-2" x="510.03" y="276.45" width="13.56" height="12.72"/><rect class="cls-2" x="529.92" y="276.45" width="13.56" height="12.72"/><rect class="cls-2" x="549.81" y="276.45" width="13.56" height="12.72"/><rect class="cls-2" x="569.7" y="276.45" width="13.56" height="12.72"/><rect class="cls-2" x="510.03" y="296.61" width="13.56" height="12.72"/><rect class="cls-2" x="529.92" y="296.61" width="13.56" height="12.72"/><rect class="cls-2" x="549.81" y="296.61" width="13.56" height="12.72"/><rect class="cls-2" x="569.7" y="296.61" width="13.56" height="12.72"/><rect class="cls-2" x="510.03" y="316.77" width="13.56" height="12.72"/><rect class="cls-2" x="529.92" y="316.77" width="13.56" height="12.72"/><rect class="cls-2" x="549.81" y="316.77" width="13.56" height="12.72"/><rect class="cls-2" x="569.7" y="316.77" width="13.56" height="12.72"/><line class="cls-2" x1="358.31" y1="13.47" x2="358.31" y2="381.82"/><line class="cls-2" x1="371.77" y1="13.47" x2="371.77" y2="381.82"/><line class="cls-2" x1="385.22" y1="13.47" x2="385.22" y2="381.82"/><line class="cls-2" x1="398.67" y1="13.47" x2="398.67" y2="381.82"/><line class="cls-2" x1="412.12" y1="13.47" x2="412.12" y2="381.82"/><line class="cls-2" x1="425.58" y1="13.47" x2="425.58" y2="381.82"/><line class="cls-2" x1="439.03" y1="13.47" x2="439.03" y2="381.82"/><line class="cls-2" x1="452.48" y1="13.47" x2="452.48" y2="381.82"/><rect class="cls-2" x="74.77" y="375.41" width="241.19" height="11.91"/><rect class="cls-2" x="463.99" y="375.41" width="216.58" height="11.91"/></g></g><g id="Trees"><path class="cls-10" d="m44.04,263.51s53.01,5.24,79.87,38.1c0,0,28.38-38.07,79.36-37.29,14.79-17.83,23.69-40.73,23.7-65.71.02-56.9-46.09-103.05-102.99-103.07-56.9-.02-103.05,46.09-103.07,102.99,0,24.67,8.66,47.31,23.11,65.05l.02-.09Z"/><path class="cls-8" d="m44.04,263.51s53.01,5.24,79.87,38.1c0,0,28.38-38.07,79.36-37.29,14.79-17.83,23.69-40.73,23.7-65.71.02-56.9-46.09-103.05-102.99-103.07-56.9-.02-103.05,46.09-103.07,102.99,0,24.67,8.66,47.31,23.11,65.05l.02-.09Z"/><polygon class="cls-12" points="122.16 102.82 120.37 433.18 129.31 433.18 122.16 102.82"/><path class="cls-12" d="m124.84,291.6s17.89-32.21,50.1-42.05c0,0-34,8.05-51,35.79l.89,6.26Z"/><path class="cls-12" d="m124.84,200.34s17.89-32.21,50.1-42.05c0,0-34,8.05-51,35.79l.89,6.26Z"/><path class="cls-12" d="m124.84,245.97s17.89-32.21,50.1-42.05c0,0-34,8.05-51,35.79l.89,6.26Z"/><path class="cls-12" d="m122.19,223.6s-17.27-32.21-48.34-42.05c0,0,32.8,8.05,49.21,35.79l-.86,6.26Z"/><path class="cls-12" d="m122.19,268.34s-17.27-32.21-48.34-42.05c0,0,32.8,8.05,49.21,35.79l-.86,6.26Z"/><path class="cls-10" d="m547.98,279.94s44.72,4.42,67.38,32.14c0,0,23.94-32.11,66.95-31.45,12.48-15.04,19.99-34.36,19.99-55.43.02-48-38.88-86.93-86.89-86.95-48-.02-86.93,38.88-86.95,86.88,0,20.81,7.3,39.91,19.49,54.88v-.07Z"/><path class="cls-8" d="m547.98,279.94s44.72,4.42,67.38,32.14c0,0,23.94-32.11,66.95-31.45,12.48-15.04,19.99-34.36,19.99-55.43.02-48-38.88-86.93-86.89-86.95-48-.02-86.93,38.88-86.95,86.88,0,20.81,7.3,39.91,19.49,54.88v-.07Z"/><polygon class="cls-12" points="613.88 144.38 612.37 433.18 619.92 433.18 613.88 144.38"/><path class="cls-12" d="m616.14,303.63s15.09-27.17,42.27-35.47c0,0-28.68,6.79-43.02,30.19l.75,5.28Z"/><path class="cls-12" d="m616.14,226.65s15.09-27.17,42.27-35.47c0,0-28.68,6.79-43.02,30.19l.75,5.28Z"/><path class="cls-12" d="m616.14,265.14s15.09-27.17,42.27-35.47c0,0-28.68,6.79-43.02,30.19l.75,5.28Z"/><path class="cls-12" d="m613.9,246.27s-14.57-27.17-40.78-35.47c0,0,27.67,6.79,41.51,30.19l-.73,5.28Z"/><path class="cls-12" d="m613.9,284.01s-14.57-27.17-40.78-35.47c0,0,27.67,6.79,41.51,30.19l-.73,5.28Z"/></g><g id="Car"><path class="cls-4" d="m132.77,258.87s-61.56,2.25-64.7,6.29c-3.15,4.04-5.39,17.52-4.04,20.67,1.35,3.15,17.07,20.67,17.07,20.67h29.21l7.73-12.73c4.68-7.72,13.06-12.43,22.08-12.43h0c9.58,0,18.37,5.3,22.84,13.76l9.35,17.69h149.17l9.2-18.58c2.9-4.61,7.02-8.25,12.1-10.21l2.1-.81c6.31-2.44,15.12-1.93,21.28.85h0c5.39,2.42,9.76,7.84,12.35,13.15l4.98,10.2h14.83l8.09-27.86s0-6.29-1.8-9.88c-1.8-3.59-20.22-4.49-20.22-4.49l-26.51-2.25-69.64-1.35-26.96-24.26s3.59-2.7,2.25-6.74c-1.35-4.04-17.07-2.7-17.07-2.7,0,0-71.89.9-76.83,1.8s-31.45,22.92-36.84,29.21Z"/><path class="cls-7" d="m292.72,296.56h-108.48c-1.51,0-2.87-.92-3.44-2.32l-5.35-13.21c-.65-1.6.53-3.35,2.26-3.35h221.95"/><polygon class="cls-3" points="281.04 263.82 257.07 243.67 264.55 263.82 281.04 263.82"/><path class="cls-3" d="m194.81,263.82h66.6l-8.91-23.99-1.72-1.45c-1.85-1.55-4.18-2.42-6.59-2.45l-41.87-.57s-6.9.08-11.37.5l3.86,27.96Z"/><path class="cls-3" d="m188.04,236.27c-.17.04-.33.09-.45.14l-17.97,24.71h11.68l4.49,2.7h6.05l-3.8-27.54Z"/><polygon class="cls-3" points="261.27 237.31 258.03 239.9 284.03 262.39 288.23 261.57 261.27 237.31"/><circle class="cls-3" cx="140.2" cy="307.22" r="23.18"/><circle class="cls-1" cx="140.2" cy="307.22" r="17.3" transform="translate(-66.83 40.43) rotate(-13.28)"/><circle class="cls-1" cx="140.2" cy="307.22" r="8.1"/><circle class="cls-3" cx="353.65" cy="307.22" r="23.18"/><circle class="cls-1" cx="353.65" cy="307.22" r="17.3" transform="translate(-60.75 88.75) rotate(-13.18)"/><circle class="cls-1" cx="353.65" cy="307.22" r="8.1"/><path class="cls-1" d="m407.01,291.4h-18.77s-2.94.37-1.1,1.84c1.84,1.47,10.3,13.98,13.25,14.35,2.94.37,12.51-11.04,12.51-13.25s-5.89-2.94-5.89-2.94Z"/><path class="cls-1" d="m67.34,280.72h-6.26s-.37,3.68.37,7.36c.74,3.68,4.42,6.62,5.89,6.26,1.47-.37,0-13.62,0-13.62Z"/><polygon class="cls-1" points="172.31 312.79 321.48 312.79 324.31 308.3 169.93 308.3 172.31 312.79"/><line class="cls-7" x1="289.69" y1="270.7" x2="289.69" y2="304.1"/><line class="cls-7" x1="194.57" y1="268.68" x2="201.65" y2="301.06"/></g><g id="Towing"><line class="cls-5" x1="431.92" y1="283.9" x2="393.78" y2="334.75"/><rect class="cls-1" x="423.18" y="199.2" width="21.74" height="15.84"/><rect class="cls-3" x="427.15" y="215.83" width="11.92" height="116.8"/><polygon class="cls-3" points="152.24 335.81 151.48 341.1 131.05 341.1 131.05 365.47 78.08 353.82 78.08 340.05 49.48 340.05 48.42 343.22 48.42 357 36.76 357 36.76 371.83 64.31 371.83 64.31 366.53 152.24 384.54 152.24 358.06 169.19 358.06 169.19 375.01 244.41 375.01 244.41 390.9 265.6 390.9 271.95 377.12 312.21 377.12 456.29 377.12 456.29 335.81 152.24 335.81"/><polygon class="cls-3" points="549.04 224.57 582.89 292.9 561.43 292.9 534.42 222.19 547.93 221.39 549.04 224.57"/><path class="cls-1" d="m642.56,310.69l-73.18-24.14-27.01-61.98h6.68c2.28,0,3.68-2.51,2.47-4.45l-4.79-7.69c-.53-.85-1.47-1.37-2.47-1.37h-93.26v194.67h95.35l2.95-25.75c1.63-14.2,10.21-26.67,22.9-33.26h0c13.09-6.8,28.74-6.41,41.48,1.02l4.46,2.6c8.55,4.99,15.12,12.77,18.59,22.04l4.16,11.09h13.51v-56.42c0-4.57-1.82-8.96-5.05-12.19h0c-1.9-1.9-4.23-3.34-6.79-4.18Z"/><ellipse class="cls-10" cx="503.78" cy="321.12" rx="33.73" ry="22.6"/><rect class="cls-3" x="461.32" y="224.57" width="56.41" height="62.31" rx="3.5" ry="3.5"/><path class="cls-3" d="m524.88,225.26v65.78c0,1.9,1.77,3.45,3.96,3.45h23.99c2.68,0,4.59-2.27,3.77-4.5l-23.8-64.73h-7.91Z"/><polygon class="cls-1" points="654.4 365.21 633.74 365.21 641.68 388.25 656.78 388.25 654.4 365.21"/><circle class="cls-3" cx="592.6" cy="392.09" r="41.45" transform="translate(-75.27 149.48) rotate(-13.53)"/><circle class="cls-1" cx="592.6" cy="392.09" r="20.13" transform="translate(-74.73 148.01) rotate(-13.4)"/><circle class="cls-3" cx="210.15" cy="392.09" r="41.45" transform="translate(-87.97 61.91) rotate(-13.89)"/><circle class="cls-1" cx="210.15" cy="392.09" r="20.13" transform="translate(-85.14 59.38) rotate(-13.4)"/><rect class="cls-3" x="454.17" y="361.23" width="78.66" height="37.34"/><line class="cls-6" x1="477.38" y1="363" x2="477.38" y2="395.19"/><line class="cls-6" x1="508.74" y1="363" x2="508.74" y2="395.19"/><rect class="cls-1" x="528.06" y="246.82" width="17.48" height="53.23" rx="2" ry="2"/><polygon class="cls-1" points="25.11 343.22 452.05 343.22 452.05 329.45 9.22 329.45 25.11 343.22"/><path class="cls-7" d="m563.53,333.77c-2.44,1.83-4.74,3.83-6.9,5.98"/><path class="cls-7" d="m653.91,347.52c-11.64-16.08-30.58-26.55-51.95-26.55-11.49,0-22.28,3.03-31.61,8.32"/><rect class="cls-1" x="365.97" y="354.88" width="69.92" height="36.55"/><path class="cls-1" d="m449.39,199.94h0c-1.43-3.19-5.78-3.6-7.79-.74l-.4.57c-.33.47-.51,1.03-.51,1.6v123.07h8.94v-123.35c0-.39-.08-.78-.24-1.14Z"/><rect class="cls-1" x="438.81" y="222.45" width="12.71" height="139.84"/><path class="cls-3" d="m448.24,205.02c0,3.22-1.49,5.83-3.32,5.83s-3.32-2.61-3.32-5.83,1.49-5.83,3.32-5.83,3.32,2.61,3.32,5.83Z"/><line class="cls-7" x1="568.58" y1="293.43" x2="568.58" y2="326.27"/><rect class="cls-3" x="460.53" y="315.68" width="14.83" height="29.66" rx="4.67" ry="4.67"/></g><g id="Floor"><line class="cls-7" x1="538.46" y1="433.28" x2="682" y2="433.28"/><line class="cls-7" y1="433.28" x2="529.3" y2="433.28"/></g><g id="Character"><path class="cls-1" d="m52.7,295.68s4.39,2.78,5.46,4.65c1.07,1.87,11.35,25.89,11.75,28.16.4,2.27-2.8,6.54-6.14,6.54s-7.07-5.07-7.07-5.07l-6.54-33.9s.3-.89,2.55-.38Z"/><path class="cls-1" d="m64.56,323.15s2.8,2,4.14,4.14"/><path class="cls-1" d="m68.03,324.89s-1.87-1.33-2.8-1.07"/><path class="cls-1" d="m48.98,427.86s2.22,2.39,3.76,4.1,5.13,3.42,6.5,4.1,1.71,2.22.85,3.25c-.85,1.03-13.17.85-14.88.51-1.71-.34-8.72-.51-9.58-.86-.86-.34-1.37-2.57-1.03-3.76.34-1.2,2.22-7.35,2.22-7.35h12.14Z"/><path class="cls-1" d="m45.21,439.83c-1.71-.34-8.72-.51-9.58-.85-.7-.28-1.18-1.84-1.13-3.05,3.22.79,11.02,2.53,15.66,2.53,3.86,0,8.01-.3,10.38-.5.02.48-.12.96-.46,1.36-.85,1.03-13.17.86-14.88.51Z"/><path class="cls-3" d="m54.28,358.09s1.2,25.31-.34,35.74-4.1,28.04-4.1,28.04c0,0,.68,3.08.51,4.79-.17,1.71-.86,1.88-.86,1.88,0,0-5.81,1.2-9.23,2.05-3.42.85-4.62,0-4.62-1.2s1.88-11.63,1.54-13.17-1.54-28.39-1.54-30.61-2.39-25.48-2.39-25.48l21.03-2.05Z"/><path class="cls-4" d="m54.44,388.58c-.12,1.93-.28,3.68-.49,5.15-1.12.27-2.37.5-3.78.64-3.69.36-8.4.14-14.26-1.28-.08-1.96-.15-3.7-.2-5.01,9.39,2.51,15.35,1.68,18.73.51Z"/><path class="cls-4" d="m35.28,380.86c9.5,2.69,15.98,1.29,19.42-.08-.02,1.75-.06,3.47-.13,5.11-1.6.49-3.51.92-5.75,1.14-3.59.35-8,.17-13.18-1.1,0-.13,0-.23,0-.31,0-.54-.14-2.35-.36-4.76Z"/><path class="cls-1" d="m30.68,429.22s4.27,4.27,5.64,5.47c1.37,1.2,5.3,3.08,4.62,5.13-.68,2.05-2.39,1.88-3.42,2.05s-7.01.51-8.89,0c-1.88-.51-6.16-.68-7.35-1.03s-2.57-1.71-2.39-2.74,1.37-7.87,1.37-7.87l10.43-1.03Z"/><path class="cls-1" d="m41.01,439.32c0,.17-.01.34-.07.51-.68,2.05-2.39,1.88-3.42,2.05s-7.01.51-8.89,0c-1.88-.51-6.16-.68-7.35-1.03s-2.57-1.71-2.39-2.74c.02-.14.07-.4.12-.72,2.36.92,7.05,2.49,11.16,2.78,3.83.26,8.79-.49,10.84-.85Z"/><path class="cls-3" d="m42.65,367.49l-3.76,5.3s-2.22,33.52-3.08,39.5c-.86,5.99-2.57,15.22-2.57,15.22,0,0,.34,2.05.34,2.74s-.17,1.37-.17,1.37c0,0-6.16.34-8.89.68-2.74.34-4.96-1.2-4.96-1.2,0,0,.17-5.81.17-6.33s-.51-29.24-.51-34.37.34-17.61,0-19.32c-.34-1.71-1.54-11.46-1.54-11.46l24.97,1.03"/><path class="cls-1" d="m29.31,291.91l19.49,3.76s3.93,26.51,5.64,36.25c1.71,9.75,1.71,27.53,1.71,27.53,0,0-1.71,2.39-10.77,3.76-9.06,1.37-19.32.85-23.09.17s-5.64-1.71-5.64-1.71c0,0,.34-38.82.34-42.07s2.39-21.2,4.28-22.74c1.88-1.54,7.35-4.62,7.35-4.62l.68-.34Z"/><path class="cls-4" d="m40.56,292.55s4.41,20.23,6.07,36.41c1.65,16.18,2.02,29.05,2.02,29.05,0,0,5.41-.29,8.17-1.76,1.85-.99,4.54-3.2,4.54-3.2,0,0-6.27-48.55-7.01-51.12s-1.65-6.25-1.65-6.25c0,0-4.96-3.68-12.14-3.13Z"/><path class="cls-1" d="m56.17,313.93c.26,1.86.53,3.85.81,5.91-2.97.83-6.72,1.75-11.13,2.54-.26-1.96-.55-3.93-.85-5.88,4.51-.82,8.3-1.76,11.17-2.58Z"/><path class="cls-1" d="m48.24,349.16c-.1-1.78-.23-3.78-.38-5.95,5.12-.84,9.03-2.06,11.81-3.17.29,2.21.56,4.26.79,6.04-3.11,1.15-7.16,2.3-12.21,3.09Z"/><path class="cls-1" d="m50.86,284.09s-3.86,10.3-5.15,11.58-5.52-.18-5.52-.18c0,0-.74,11.22-2.39,9.56s-7.54-12.32-7.54-12.32l-.18-2.57,1.47-3.86s-1.29-6.07-.74-7.36c.55-1.29,2.57-2.39,2.57-2.39,0,0,11.22,1.65,13.79,1.47s3.31-.37,3.31-.37l.37,6.44Z"/><path class="cls-3" d="m31.16,287.32l.39-1.02s-1.29-6.07-.74-7.36c.26-.61.85-1.17,1.39-1.6,1.6.25,4.12,1.05,4.12,1.05l.55,2.94s-.92,3.31-1.47,2.02c-.55-1.29.37-2.57-.74-3.49s-3.13-1.1-3.49,1.29c-.37,2.39,2.21,5.15,2.21,5.15,0,0-1.12.9-2.23,1.02Z"/><path class="cls-1" d="m51.6,280.23l4.78,4.05s-4.96.92-10.3.92-9.19-3.31-10.48-4.41,12.5,1.29,16-.55Z"/><path class="cls-1" d="m51.6,280.23s1.1-6.07,1.1-7.17-3.13-6.07-10.85-6.07-10.11,4.05-10.11,4.05l-.92,7.91s3.31,1.84,4.78,1.84,11.58.74,16-.55Z"/><polyline class="cls-1" points="46.81 285.75 45.89 291.08 43.32 291.26"/><path class="cls-4" d="m30.08,290.16s5.33,12.14,5.7,24.09,3.13,45.79,3.13,45.79c0,0-7.11,2.21-14.65,1.29-7.54-.92-11.64-4.54-11.64-4.54,0,0,1.29-12.01,2.21-23.05.92-11.03-1.84-31.81-1.29-33.28s11.77-9.38,16.55-10.3Z"/><path class="cls-1" d="m37.67,344.18c.16,2.09.31,4.09.45,5.91-1.13.04-2.29.07-3.5.07-6.13,0-13.16-.56-21.14-1.94.18-1.8.37-3.79.57-5.87,9.2,1.62,17.04,2.06,23.62,1.83Z"/><path class="cls-1" d="m35.93,317.82c.09,1.78.2,3.78.33,5.93-4.18.44-8.7.71-13.53.71-2.52,0-5.12-.08-7.79-.24-.07-1.95-.17-3.95-.29-5.92,7.77.5,14.96.2,21.29-.48Z"/><path class="cls-1" d="m58.69,318.75s3.07-.13,3.34.67c.27.8,1.47,1.6,1.47,1.6,0,0,1.2,1.6,1.07,2.14-.13.53-3.07,3.34-4,3.47-.93.13-6.27-2-6.41-2.8s1.2-3.6,1.6-4c.4-.4,2.94-1.07,2.94-1.07Z"/><path class="cls-1" d="m59.15,316.12c.34.04.52.43.33.72l-2.39,3.64h-.53l2.12-4.11c.09-.17.28-.27.47-.25h0Z"/><polygon class="cls-3" points="42.52 329.6 47.75 320.48 65.9 320.88 53.62 335.7 39.07 335.56 42.52 329.6"/><path class="cls-1" d="m34.18,333.64s2.32-2.24,3.18-3.44c.86-1.2,4.64-2.75,4.81-3.01.17-.26,2.06-.6,2.06-.6l-1.72,3.01s1.81.86,2.67,1.2c.86.34,4.3.69,5.16,1.03.86.34.95,1.29.69,1.72-.26.43-2.15.34-2.58.52-.43.17-1.72,1.46-2.75,1.98-1.03.52-2.58,1.81-4.13,1.72-1.55-.09-5.33.34-5.33.34l-2.32.34.26-4.81Z"/><path class="cls-1" d="m31.09,333.04l3.18-.26s1.12,1.81.69,3.61-.86,2.49-.86,2.49l-3.01.26v-6.1Z"/><path class="cls-1" d="m15.37,299.91s7.54,2.39,8.83,7.36.37,13.61-.74,15.63c-1.1,2.02-1.84,3.68-1.84,3.68l-.74,3.86s10.48,1.1,10.85,1.84c.37.74,1.84,6.25-.74,7.54s-18.39.55-21.51-.18c-3.13-.74-2.76-1.84-2.39-4.41.37-2.57,3.49-29.61,4.96-32.18s3.31-3.13,3.31-3.13Z"/><line class="cls-1" x1="21.62" y1="326.57" x2="23.09" y2="313.51"/><line class="cls-1" x1="20.89" y1="330.43" x2="13.9" y2="329.88"/><path class="cls-4" d="m19.22,390.07c10.12,3.26,15.95,1.76,18.41.66-.13,1.74-.26,3.5-.39,5.23-1.76.51-4.01.9-6.8.9-3.07,0-6.78-.47-11.18-1.75-.03-2.12-.04-3.78-.04-4.7,0-.11,0-.23,0-.34Z"/><path class="cls-4" d="m38.18,383.12c-.11,1.64-.24,3.4-.37,5.21-1.99.59-4.67,1.1-7.98,1.1-3.02,0-6.57-.43-10.59-1.6.02-1.51.04-3.24.07-5.01,9.88,3.25,16.38,1.37,18.87.31Z"/></g></svg>