<?xml version="1.0" encoding="UTF-8"?><svg id="Calque_2" xmlns="http://www.w3.org/2000/svg" viewBox="0 0 453.99 360.36"><defs><style>.cls-1,.cls-2,.cls-3,.cls-4{fill:#fff;}.cls-5{fill:#999;}.cls-5,.cls-6,.cls-2,.cls-7,.cls-8,.cls-9,.cls-10,.cls-4,.cls-11,.cls-12{stroke-width:1.09px;}.cls-5,.cls-6,.cls-7,.cls-8,.cls-9,.cls-4,.cls-11,.cls-12{stroke-linecap:round;stroke-linejoin:round;}.cls-5,.cls-2,.cls-7,.cls-8,.cls-9,.cls-10,.cls-4,.cls-11,.cls-12{stroke:#263238;}.cls-6{stroke:#7f7f7f;}.cls-6,.cls-12{fill:none;}.cls-2,.cls-10{stroke-miterlimit:10;}.cls-3{opacity:.7;}.cls-7,.cls-13{fill:#263238;}.cls-8{fill:#858585;}.cls-9,.cls-14,.cls-10{fill:#92e3a9;}.cls-11{fill:#757575;}</style></defs><g id="Background_Simple"><path class="cls-14" d="m436.96,245.09c-20.83,47.31-137.29,77.42-188.39,85.26-38.87,5.96-120.85-14.66-152.7-37.73C43.06,254.36-20.06,107.39,6.12,47.65,25.37,3.72,154.63-14.01,194.71,12.34c28.92,19.02,26.6,117.64,60.52,124.5,28.87,5.85,75.22-65.83,103.26-56.78,43.48,14.03,96.89,123.21,78.48,165.02Z"/><path class="cls-3" d="m436.96,245.09c-20.83,47.31-137.29,77.42-188.39,85.26-38.87,5.96-120.85-14.66-152.7-37.73C43.06,254.36-20.06,107.39,6.12,47.65,25.37,3.72,154.63-14.01,194.71,12.34c28.92,19.02,26.6,117.64,60.52,124.5,28.87,5.85,75.22-65.83,103.26-56.78,43.48,14.03,96.89,123.21,78.48,165.02Z"/></g><g id="Lamp"><g id="Lamp-2"><line class="cls-12" x1="171.83" y1="62.46" x2="171.83" y2="3.52"/><path class="cls-9" d="m146.52,86.04c0-13.98,11.33-25.31,25.31-25.31s25.31,11.33,25.31,25.31h-50.62Z"/><path class="cls-7" d="m176.52,61.17c-.77-.14-1.55-.26-2.34-.33-12.88,1.19-22.96,12.01-22.96,25.2h4.69c0-12.37,8.88-22.67,20.62-24.87Z"/></g></g><g id="Floor"><line class="cls-12" x1="3.73" y1="359.82" x2="453.45" y2="359.82"/></g><g id="Door"><rect class="cls-11" x="234.44" y="62.47" width="6.42" height="297.35"/><rect class="cls-4" x="237.65" y="62.47" width="92.59" height="297.35"/><line class="cls-4" x1="271.59" y1="133.91" x2="250.82" y2="208.16"/><line class="cls-4" x1="287.73" y1="76.19" x2="273.7" y2="126.35"/><line class="cls-4" x1="258.03" y1="207.02" x2="251.47" y2="230.47"/><line class="cls-4" x1="282.76" y1="118.57" x2="261" y2="196.39"/><line class="cls-4" x1="288.38" y1="98.5" x2="285.1" y2="110.23"/><line class="cls-4" x1="317.19" y1="223.25" x2="283.94" y2="342.13"/><line class="cls-4" x1="262.09" y1="296.05" x2="258.5" y2="308.88"/><line class="cls-4" x1="295.87" y1="175.25" x2="264.98" y2="285.73"/><line class="cls-4" x1="318.25" y1="95.21" x2="303.15" y2="149.22"/><rect class="cls-9" x="317.19" y="179.16" width="9.79" height="39.49" rx="2.42" ry="2.42"/><path class="cls-5" d="m322.08,187.69h0c0,.9.73,1.63,1.63,1.63h2.04v18.56h-2.04c-.9,0-1.63.73-1.63,1.63h0c0,.9.73,1.63,1.63,1.63h2.69c1.37,0,2.47-1.11,2.47-2.47v-20.14c0-1.37-1.11-2.47-2.47-2.47h-2.69c-.9,0-1.63.73-1.63,1.63Z"/><polygon class="cls-5" points="228.02 56.05 228.02 359.82 234.44 359.82 234.44 62.47 299.89 62.47 299.89 359.82 306.31 359.82 306.31 56.05 228.02 56.05"/><rect class="cls-11" x="306.31" y="56.05" width="6.42" height="303.77"/><path class="cls-5" d="m237.65,99.26h3.93c2.44,0,4.41,1.98,4.41,4.41v18.5c0,2.44-1.98,4.41-4.41,4.41h-3.93v-27.33h0Z"/><path class="cls-5" d="m237.65,287.04h3.93c2.44,0,4.41,1.98,4.41,4.41v18.5c0,2.44-1.98,4.41-4.41,4.41h-3.93v-27.33h0Z"/><rect class="cls-13" x="254.75" y="34.98" width="30.35" height="16.58"/><path class="cls-1" d="m262.97,42.92h1.97v1.3h-1.97v2.67h2.48v1.3h-3.91v-9.13h3.91v1.3h-2.48v2.54Z"/><path class="cls-1" d="m271.39,39.07l-1.5,4.43,1.6,4.69h-1.51l-1.17-3.61-1.19,3.61h-1.34l1.6-4.69-1.5-4.43h1.49l1.08,3.36,1.11-3.36h1.33Z"/><path class="cls-1" d="m272.47,39.07h1.43v9.13h-1.43v-9.13Z"/><path class="cls-1" d="m274.8,39.07h4.43v1.3h-1.5v7.83h-1.43v-7.83h-1.5v-1.3Z"/></g><g id="Desk"><path class="cls-7" d="m105.34,296.05c8.15,0,31.7-5.32,31.7-5.32h-63.41s23.55,5.32,31.7,5.32Z"/><rect class="cls-7" x="98.08" y="293.39" width="14.53" height="9.96" transform="translate(210.69 596.73) rotate(180)"/><rect class="cls-7" x="75.15" y="252.43" width="12.24" height="25.59" transform="translate(162.54 530.45) rotate(180)"/><rect class="cls-5" x="95.93" y="303.35" width="18.83" height="42.83" transform="translate(210.69 649.52) rotate(180)"/><polyline class="cls-12" points="105.34 298.37 121.37 298.37 133.37 310.37"/><path class="cls-9" d="m51.46,255.36h52.75c6.2,0,11.1-5.27,10.64-11.45l-4.17-56.95c-.41-5.58-5.05-9.89-10.64-9.89h-44.4c-5.59,0-10.23,4.32-10.64,9.89l-4.17,56.95c-.45,6.18,4.44,11.45,10.64,11.45Z"/><path class="cls-9" d="m50.17,243.9l4.17-56.95c.41-5.58,5.05-9.89,10.64-9.89h35.05c5.59,0,10.23,4.32,10.64,9.89l4.17,56.95c.45,6.18-4.44,11.45-10.64,11.45h-43.39c-6.2,0-11.1-5.27-10.64-11.45Z"/><path class="cls-7" d="m73.64,352.16c0,1,.93,1.75,1.91,1.54,5.77-1.26,23.05-4.9,29.8-4.9s24.03,3.64,29.8,4.9c.98.21,1.91-.53,1.91-1.54h0c0-1.95-1.36-3.63-3.26-4.04-6.75-1.45-22.17-4.61-28.44-4.61s-21.69,3.16-28.44,4.61c-1.9.41-3.26,2.09-3.26,4.04h0Z"/><path class="cls-9" d="m131.62,354.39c0,2.99,2.43,5.42,5.42,5.42s5.42-2.43,5.42-5.42-2.43-5.42-5.42-5.42-5.42,2.43-5.42,5.42Zm2.49,0c0-1.62,1.31-2.94,2.94-2.94s2.94,1.31,2.94,2.94-1.31,2.94-2.94,2.94-2.94-1.31-2.94-2.94Z"/><path class="cls-9" d="m99.92,354.39c0,2.99,2.43,5.42,5.42,5.42s5.42-2.43,5.42-5.42-2.43-5.42-5.42-5.42-5.42,2.43-5.42,5.42Zm2.49,0c0-1.62,1.31-2.94,2.94-2.94s2.94,1.31,2.94,2.94-1.31,2.94-2.94,2.94-2.94-1.31-2.94-2.94Z"/><path class="cls-9" d="m68.87,354.39c0,2.99,2.43,5.42,5.42,5.42s5.42-2.43,5.42-5.42-2.43-5.42-5.42-5.42-5.42,2.43-5.42,5.42Zm2.49,0c0-1.62,1.31-2.94,2.94-2.94s2.94,1.31,2.94,2.94-1.31,2.94-2.94,2.94-2.94-1.31-2.94-2.94Z"/><path class="cls-9" d="m89.32,274.01h63.28c4.33,0,7.84,3.51,7.84,7.84v1.04c0,4.33-3.51,7.84-7.84,7.84h-63.28v-16.72Z"/><rect class="cls-9" x="50.25" y="274.01" width="51.02" height="16.72" rx="7.43" ry="7.43" transform="translate(151.51 564.73) rotate(180)"/><path class="cls-9" d="m136.39,310.37c0,1.67-1.35,3.02-3.02,3.02s-3.02-1.35-3.02-3.02,1.35-3.02,3.02-3.02,3.02,1.35,3.02,3.02Z"/><path class="cls-4" d="m130.64,160.82h4.58l-4.67,44.46h-4.58c-1.05,0-1.81-.85-1.7-1.9l4.27-40.65c.11-1.05,1.05-1.9,2.1-1.9Z"/><rect class="cls-9" x="77.68" y="227.15" width="140.52" height="14.44" transform="translate(295.87 468.73) rotate(180)"/><rect class="cls-9" x="27.66" y="227.15" width="50.02" height="14.44" transform="translate(105.33 468.73) rotate(180)"/><rect class="cls-5" x="83.52" y="218.99" width="139.19" height="8.16" transform="translate(306.23 446.14) rotate(180)"/><rect class="cls-8" x="23.14" y="218.99" width="60.38" height="8.16" transform="translate(106.66 446.14) rotate(180)"/><polygon class="cls-5" points="210.57 359.82 213.62 359.82 214.7 241.59 210.57 241.59 210.57 359.82"/><polygon class="cls-8" points="207.53 359.82 210.57 359.82 210.57 241.59 206.45 241.59 207.53 359.82"/><polygon class="cls-5" points="170.39 359.82 173.43 359.82 174.52 241.59 170.39 241.59 170.39 359.82"/><polygon class="cls-8" points="167.35 359.82 170.39 359.82 170.39 241.59 166.26 241.59 167.35 359.82"/><polygon class="cls-5" points="75.46 359.82 78.5 359.82 79.59 241.59 75.46 241.59 75.46 359.82"/><polygon class="cls-8" points="72.42 359.82 75.46 359.82 75.46 241.59 71.33 241.59 72.42 359.82"/><polygon class="cls-5" points="35.28 359.82 38.32 359.82 39.41 241.59 35.28 241.59 35.28 359.82"/><polygon class="cls-8" points="32.24 359.82 35.28 359.82 35.28 241.59 31.15 241.59 32.24 359.82"/><rect class="cls-5" x="46.44" y="182.4" width="31.23" height="36.59" transform="translate(124.12 401.4) rotate(180)"/><rect class="cls-4" x="77.53" y="182.4" width="21.2" height="36.59" transform="translate(176.25 401.4) rotate(180)"/><line class="cls-12" x1="71.33" y1="186.98" x2="75.5" y2="186.98"/><line class="cls-12" x1="48.62" y1="186.98" x2="62.06" y2="186.98"/><line class="cls-12" x1="65.09" y1="191.55" x2="75.5" y2="191.55"/><line class="cls-12" x1="48.62" y1="191.55" x2="55.34" y2="191.55"/><line class="cls-12" x1="69.17" y1="196.12" x2="75.5" y2="196.12"/><line class="cls-12" x1="48.62" y1="196.12" x2="55.34" y2="196.12"/><line class="cls-12" x1="65.09" y1="200.7" x2="75.5" y2="200.7"/><line class="cls-12" x1="48.62" y1="200.7" x2="57.75" y2="200.7"/><line class="cls-12" x1="70.3" y1="205.27" x2="75.5" y2="205.27"/><line class="cls-12" x1="48.62" y1="205.27" x2="60.2" y2="205.27"/><line class="cls-12" x1="65.09" y1="209.85" x2="75.5" y2="209.85"/><line class="cls-12" x1="48.62" y1="209.85" x2="52.67" y2="209.85"/><line class="cls-12" x1="70.3" y1="214.42" x2="75.5" y2="214.42"/><line class="cls-12" x1="48.62" y1="214.42" x2="53.33" y2="214.42"/><line class="cls-12" x1="91.09" y1="186.98" x2="96.55" y2="186.98"/><line class="cls-12" x1="79.7" y1="186.98" x2="88.13" y2="186.98"/><line class="cls-12" x1="86.16" y1="191.55" x2="96.55" y2="191.55"/><line class="cls-12" x1="79.7" y1="191.55" x2="82.83" y2="191.55"/><line class="cls-12" x1="89.38" y1="196.12" x2="96.55" y2="196.12"/><line class="cls-12" x1="79.7" y1="196.12" x2="82.83" y2="196.12"/><line class="cls-12" x1="88.34" y1="200.7" x2="96.55" y2="200.7"/><line class="cls-12" x1="79.7" y1="200.7" x2="84.73" y2="200.7"/><line class="cls-12" x1="90.27" y1="205.27" x2="96.55" y2="205.27"/><line class="cls-12" x1="79.7" y1="205.27" x2="86.66" y2="205.27"/><line class="cls-12" x1="86.16" y1="209.85" x2="96.55" y2="209.85"/><line class="cls-12" x1="79.7" y1="209.85" x2="80.72" y2="209.85"/><line class="cls-12" x1="90.27" y1="214.42" x2="96.55" y2="214.42"/><line class="cls-12" x1="79.7" y1="214.42" x2="81.24" y2="214.42"/><polygon class="cls-4" points="65.05 195.05 72.9 191.55 61.56 191.55 65.05 195.05"/><polygon class="cls-4" points="47.85 198.59 53.33 196.15 48.62 196.15 47.85 198.59"/><polygon class="cls-5" points="95.71 198.59 90.23 196.15 94.94 196.15 95.71 198.59"/><polygon class="cls-5" points="91.08 212.29 85.6 209.85 93.57 209.85 91.08 212.29"/><polygon class="cls-4" points="62.12 208.77 64.53 205.27 53.18 205.27 62.12 208.77"/><polygon class="cls-5" points="98.73 191.55 101.9 194.81 98.73 194.42 98.73 191.55"/><polygon class="cls-4" points="46.44 186.98 41.1 191.33 46.44 190.93 46.44 186.98"/><polygon class="cls-4" points="46.44 210.11 43.27 214.46 46.44 214.07 46.44 210.11"/><polygon class="cls-4" points="108.6 218.99 124 218.99 124 216.46 108.6 217.54 108.6 218.99"/><rect class="cls-7" x="124" y="216.46" width="15.74" height="2.54" transform="translate(263.74 435.45) rotate(180)"/><path class="cls-5" d="m184.78,215.1h6.54c1.04,0,1.88.84,1.88,1.88v2.01h-10.31v-2.01c0-1.04.84-1.88,1.88-1.88Z" transform="translate(376.1 434.09) rotate(180)"/><path class="cls-4" d="m193.21,215.11c0-1.48-2.31-2.68-5.16-2.68s-5.16,1.2-5.16,2.68h10.31Z"/><path class="cls-4" d="m182.9,215.11c0-1.48,2.31-2.68,5.16-2.68v2.68h-5.16Z"/><path class="cls-12" d="m183.69,203.23h0c.58,0,1.09-.47,1.15-1.04l.27-2.55c.06-.58-.36-1.04-.93-1.04h0c-.58,0-1.09.47-1.15,1.04l-.27,2.55c-.06.58.36,1.04.93,1.04Z"/><path class="cls-12" d="m180.24,203.23h0c.58,0,1.09-.47,1.15-1.04l.27-2.55c.06-.58-.36-1.04-.93-1.04h0c-.58,0-1.09.47-1.15,1.04l-.27,2.55c-.06.58.36,1.04.93,1.04Z"/><path class="cls-12" d="m176.79,203.23h0c.58,0,1.09-.47,1.15-1.04l.27-2.55c.06-.58-.36-1.04-.93-1.04h0c-.58,0-1.09.47-1.15,1.04l-.27,2.55c-.06.58.36,1.04.93,1.04Z"/><path class="cls-9" d="m206.22,199.54h4.11c2.42,0,4.38,1.96,4.38,4.38v15.07h-12.87v-15.07c0-2.42,1.96-4.38,4.38-4.38Z" transform="translate(416.54 418.54) rotate(180)"/><path class="cls-7" d="m210.26,199.54h2.58l1.92-11.08c.13-.78-.46-1.49-1.25-1.49h0c-.62,0-1.15.45-1.25,1.06l-1.99,11.51Z"/><path class="cls-4" d="m202.65,199.54h2.71l-1.03-10.26c-.03-.34-.32-.6-.66-.6h-1.37c-.39,0-.7.34-.66.73l1.01,10.13Z"/><polygon class="cls-5" points="207.45 199.54 209.18 199.54 210.26 187.37 208.54 187.37 207.45 199.54"/><path class="cls-7" d="m128.1,205.27h57.63c1.05,0,1.99-.85,2.1-1.9l4.27-40.65c.11-1.05-.65-1.9-1.7-1.9h-57.63c-1.05,0-1.99.85-2.1,1.9l-4.27,40.65c-.11,1.05.65,1.9,1.7,1.9Z"/><rect class="cls-7" x="148.13" y="214.42" width="28.66" height="4.57" transform="translate(324.92 433.41) rotate(180)"/><rect class="cls-4" x="139.74" y="214.42" width="8.39" height="4.57" transform="translate(287.87 433.41) rotate(180)"/><path class="cls-9" d="m162.7,195.05c-.22-2.11-1.87-3.87-3.88-4.36.34-.09.69-.15,1.07-.15,2.49,0,4.72,2.02,4.98,4.51.26,2.49-1.55,4.51-4.04,4.51-.38,0-.74-.06-1.1-.15,1.91-.49,3.19-2.25,2.96-4.36Z"/><path class="cls-9" d="m152.48,187.27l2.85,27.14h-2.17l-2.85-27.14c-.07-.65.4-1.18,1.06-1.18h2.17c-.65,0-1.12.53-1.06,1.18Z"/><path class="cls-9" d="m152.48,187.27l2.85,27.14h14.14l-2.85-27.14c-.07-.65-.65-1.18-1.3-1.18h-11.78c-.65,0-1.12.53-1.06,1.18Zm7.41,3.26c2.49,0,4.72,2.02,4.98,4.51.26,2.49-1.55,4.51-4.04,4.51s-4.72-2.02-4.98-4.51c-.26-2.49,1.55-4.51,4.04-4.51Z"/></g><g id="Clock"><path class="cls-1" d="m77.23,97.33c-16.46,0-29.81-13.35-29.81-29.81s13.35-29.81,29.81-29.81,29.81,13.35,29.81,29.81-13.35,29.81-29.81,29.81Z"/><path class="cls-13" d="m77.23,34.35c-18.32,0-33.17,14.85-33.17,33.17s14.85,33.17,33.17,33.17,33.17-14.85,33.17-33.17-14.85-33.17-33.17-33.17Zm0,60.19c-14.92,0-27.02-12.1-27.02-27.02s12.1-27.02,27.02-27.02,27.02,12.1,27.02,27.02-12.1,27.02-27.02,27.02Z"/><polyline class="cls-12" points="77.23 47.31 77.23 67.52 83.76 82.11"/></g><g id="Character"><path class="cls-2" d="m333.75,323.49l10.71,5.27-6.27,9.82s2.34,11.83,5.14,15.19c.96,1.15,4.79,2.91,4.01,4.44-.54,1.06-3.48,1.88-5.48,1.53-1.19-.21-2.27-.8-3.09-1.67l-15.83-16.71c-2.29-2.4-1.97-6.27.68-8.26,1.55-1.16,3.58-1.57,5.08-2.53,1.83-1.17,5.05-7.07,5.05-7.07Z"/><path class="cls-10" d="m341.86,359.73c2,.35,4.93-.46,5.48-1.53.78-1.53-3.05-3.29-4.01-4.44-2.8-3.36-5.14-15.19-5.14-15.19l.11-.17c-2.23.01-4.79,1.12-6.02.25-1.98-1.42-1.79-3.21-2.08-5.5-.13-1.02-.66-2.01-1.22-2.81-.1.08-.19.16-.29.22-1.5.96-3.54,1.37-5.08,2.53-2.65,1.99-2.97,5.86-.68,8.26l15.83,16.71c.83.87,1.91,1.46,3.09,1.67Z"/><path class="cls-13" d="m359,226.93l2.25,57.78c-11.59,9.01-14.27,13.65-31.43,39.38l13.31,9.06,36.58-42.43,10.16-47.09-3.97-14.16-12.58-5.16-14.33,2.61Z"/><path class="cls-2" d="m411.12,331.39l.92,15.11s9.95,5.51,13.97,6.99c1.54.57,6.62,1.16,7.55,2.51.12.17.15.45.13.77-.11,1.75-1.67,3.05-3.42,3.05h-27.24c-2.37,0-4.29-1.9-4.35-4.27-.05-2.33.98-5.11,1.02-7.86.02-1.87-1.11-7.12-1.11-7.12l12.51-9.19Z"/><path class="cls-10" d="m430.28,359.82c1.75,0,3.3-1.31,3.42-3.05.02-.32-.01-.6-.13-.77-.93-1.35-6.01-1.94-7.55-2.51-4.02-1.48-13.97-6.99-13.97-6.99v-.02c-1.06.39-2.08.96-2.41,1.74-.76,1.81-4.82,3.39-7.22,1.02-.9-.88-1.86-1.25-2.71-1.36-.08,2.68-1.06,5.39-1.01,7.67.05,2.37,1.98,4.27,4.35,4.27h27.24Z"/><path class="cls-13" d="m356.93,217.05l34.59-11.77,16.1,74.62,5.66,59.01-15.5,4.48-5.13-22.41c-5.92-22.96-3.71-35.25-3.71-35.25,0,0-32.3-51.69-32.01-68.68Z"/><path class="cls-4" d="m365.95,125.96l3.2-13.13-3.2-10.73v-12.2l9.69-5.35,8.45-1.25,3.37,2.19,1.33,3.52s4.02,9.22,3.31,10.94-1.25,3.36-1.25,3.36c0,0,2.69,4.43,3.03,6.31.41,2.24-2.53.52-3.03,3.21-.51,2.7-.37,8.76-3.55,8.99-3.18.24-4.9.26-5.28,3.07-.38,2.81-1.26,10.46-1.26,10.46l-14.8-9.4Z"/><path class="cls-7" d="m391.36,75.38s-4.94.5-5.5,3.99l-1.87-5.93s-3.12,1.9-2.56,4.8l-6.31-2.22s-1.63,2.77.79,4.87c0,0-14.94-3.94-14.45,9.85,0,0-7.8,6.26,6.98,25.1l2.68-3.73.12-.28c-1.38-.56-2.51-2.04-2.8-3.93-.4-2.61.94-4.98,3-5.3,1.22-.19,2.42.4,3.27,1.45l2.37-5.3,3.52-3.84-.83-2.31s10.48.7,9.83-7.76c-.65-8.46,1.76-9.46,1.76-9.46Z"/><path class="cls-13" d="m388.19,102.79c0,.67-.32,1.21-.73,1.21s-.73-.54-.73-1.21.32-1.21.73-1.21.73.54.73,1.21Z"/><path class="cls-12" d="m384.8,100.19s1.73-3.35,4.84-1.33"/><path class="cls-6" d="m366.64,89.8s4.19-5.66,11.53-3.45c7.34,2.21,2.62-6.64,2.62-6.64"/><path class="cls-6" d="m386.22,80.25s4.53,9.42-5.33,9.87"/><path class="cls-12" d="m387.77,113.73s-2.31.25-3.93-1.99"/><path class="cls-7" d="m386.37,121.83s-5.22-.25-7.27-2.27l2.92,5.34s-.07-3.84,4.35-3.07Z"/><line class="cls-6" x1="404.96" y1="330.35" x2="405.79" y2="336.64"/><path class="cls-6" d="m404.35,325.71l-.52-3.99-3.28-24.98c-1.23-9.34-3.41-18.53-6.5-27.43l-17.51-50.31-1.69-5.57"/><path class="cls-6" d="m383.35,211.87s1.3,10.85-3.02,15.84"/><path class="cls-6" d="m380.11,270.88c-7.31-12.75-17.15-31.04-21.26-43.91"/><path class="cls-6" d="m382.73,275.4c-.26-.45-.53-.91-.81-1.38"/><path class="cls-4" d="m427.74,196.45c-3.16-2.12-8.87.77-8.91.79h-.02s-1.67-1.18-1.67-1.18h-.64s-5.38,5.78-5.38,5.78l2.14,1.4s6.01,6.06,9.97,5.97c3.97-.09,9.6-5.71,9.6-5.71l-.95-1.1c.72.03,1.34-.14,1.8-.46,1.31-.92-2.76-3.35-5.94-5.48Z"/><path class="cls-4" d="m431.39,204.33l-1.7-1.7,1.96-1.35,2.6,2.07s.44,1.48-1.42,1.78c0,0-.13,1.72-2.52,1.95,0,0-1.13,1.73-3.28,1.16,0,0-.21,1.98-2.43,1.16l-.8-1.02,2.01-1.16.51.12.27-.84,1.7-1.06.66.25-.15-.98,1.4-.72,1.2.35Z"/><path class="cls-9" d="m433.09,226.68h12.43c1.08,0,1.97.84,2.05,1.92.35,4.72-.64,16.49-19.14,16.49s-18.45-14.37-17.64-19.11c.16-.96.98-1.66,1.96-1.66h15.85c.8,0,1.55.34,2.08.94l.48.54c.49.56,1.2.88,1.94.88Z"/><path class="cls-13" d="m429.65,230.17c0-.42.34-.76.76-.76s.76.34.76.76-.34.76-.76.76-.76-.34-.76-.76Z"/><path class="cls-13" d="m422.66,230.17c0-.42.34-.76.76-.76s.76.34.76.76-.34.76-.76.76-.76-.34-.76-.76Z"/><path class="cls-13" d="m422.62,224.32c2.13-4.11,4.48-7.7,5.62-8.53,1.15,1.09,3.37,5.65,5.31,10.89h3.62c-5.15-14.6-8.02-14.45-8.99-14.41-2.97.16-6.69,6.52-9.37,12.05h3.81Z"/><path class="cls-13" d="m429.05,215.67c-.14,0-.27-.02-.41-.05-.91-.23-1.47-1.15-1.24-2.06,1.83-7.39,2.02-13.97.96-14.69-.86-.37-1.25-1.37-.88-2.23.37-.86,1.38-1.25,2.24-.88,4.55,1.98,2.2,13.68.97,18.62-.19.77-.89,1.29-1.65,1.29Z"/><path class="cls-2" d="m427.92,212.28l2.58.55c.58.12.8.84.39,1.27l-1.8,1.88c-.4.42-1.1.25-1.27-.3l-.77-2.43c-.18-.56.31-1.1.88-.97Z"/><path class="cls-4" d="m427.74,196.45c3.17,2.13,7.25,4.56,5.94,5.48-1.31.92-3.89.66-6.67-2.18,0,0-1.32,3.44-5.77,2.32"/><path class="cls-4" d="m418.81,202.44s4.03,1.66,4.61,3"/><path class="cls-9" d="m380.7,130.96s6.04,4.04,8.5,13.52c2.47,9.49,3.56,28.13,3.56,28.13l23.73,23.43-7.61,5.91-25.09-15.9-7.69-37.75,4.58-17.35Z"/><polygon class="cls-9" points="403.83 203.34 409.58 206.26 420.11 194.56 413.81 190.1 403.83 203.34"/><path class="cls-9" d="m349.79,211.59s27.05,4.43,43.87-2.32c0,0,.13-2.25-.7-25.96-.57-16.56-.77-36.17-6.59-46.17-4.42-7.61-21.86-14.06-21.86-14.06,0,0-17.54,7.93-17.54,19.82s4.36,49.47,4.36,49.47l-1.55,19.22Z"/><line class="cls-12" x1="361.25" y1="190.02" x2="363.59" y2="213.48"/><line class="cls-12" x1="356.93" y1="160.3" x2="360.94" y2="186.85"/><path class="cls-13" d="m388.19,148.53c0,.99-.39,1.79-.86,1.79s-.86-.8-.86-1.79.39-1.79.86-1.79.86.8.86,1.79Z"/><path class="cls-13" d="m389.82,168.01c0,.99-.39,1.79-.86,1.79s-.86-.8-.86-1.79.39-1.79.86-1.79.86.8.86,1.79Z"/><path class="cls-13" d="m390.84,188.68c0,.99-.39,1.79-.86,1.79s-.86-.8-.86-1.79.39-1.79.86-1.79.86.8.86,1.79Z"/><polygon class="cls-9" points="365.98 120.99 382.39 131.95 381.75 127.01 386.38 137.13 383.07 133.45 380.47 138.91 363.32 124.17 365.98 120.99"/><path class="cls-13" d="m369.76,201.1c-.08,0-.16,0-.24-.02-.93-.13-1.57-.99-1.44-1.92.02-.17,2.39-16.91,2.69-34.1.39-21.75-2.68-34.84-8.63-36.87-10.97-3.74-29.92,37.63-39.29,64.58-.31.89-1.28,1.36-2.16,1.05-.89-.31-1.36-1.28-1.05-2.16.06-.18,6.32-18.12,14.55-35.13,11.58-23.95,21.09-34.27,29.04-31.56,7.79,2.65,11.37,15.8,10.93,40.18-.31,17.4-2.7,34.32-2.72,34.49-.12.85-.85,1.46-1.68,1.46Z"/><path class="cls-13" d="m358.4,224.12c-10.49.22-22.3-1.53-32.27-4.78-4.41-1.36-7.35-6.44-6.68-10.96,1.15-7.77,1.73-11.66,2.88-19.43.67-4.52,4.7-6.77,9.1-5.41,9.97,3.25,21.78,5,32.27,4.78,4.61-.02,7.82,3.29,7.15,7.81-1.15,7.77-1.73,11.66-2.88,19.43-.67,4.52-4.96,8.53-9.57,8.55Z"/><path class="cls-13" d="m363.7,188.32c-10.49.22-22.29-1.53-32.27-4.78-4.41-1.36-8.44.89-9.1,5.41-.47,3.2-.71,4.8-1.18,7.99-.51,3.46,1.74,7.33,5.09,8.44,12.76,3.37,22.92,4.87,36.11,5.35,3.53-.08,6.81-3.14,7.32-6.6.47-3.2.71-4.8,1.18-7.99.67-4.52-2.53-7.84-7.15-7.81Z"/><path class="cls-6" d="m321.14,196.94c-.51,3.46,1.74,7.33,5.09,8.44,12.76,3.37,22.92,4.87,36.11,5.35,3.53-.08,6.81-3.14,7.32-6.6"/><path class="cls-5" d="m328.81,215.19c-.53-.15-.8-.23-1.33-.39-.94-.28-1.59-1.31-1.45-2.28.53-3.56.79-5.34,1.32-8.9,1.89.6,2.84.88,4.75,1.4-.53,3.56-.79,5.34-1.32,8.9-.14.97-1.03,1.54-1.98,1.27Z"/><path class="cls-5" d="m360.9,219.35c-.55.01-.83.02-1.39.02-.99,0-1.67-.78-1.53-1.75.53-3.56.79-5.34,1.32-8.9,1.98.01,2.97,0,4.96-.08-.53,3.56-.79,5.34-1.32,8.9-.14.97-1.06,1.78-2.05,1.8Z"/><path class="cls-8" d="m363.87,195.35c-10.8.35-23.03-1.38-33.31-4.71-.68-.21-1.15-.95-1.05-1.65h0c.1-.7.74-1.09,1.42-.88,10.27,3.33,22.51,5.06,33.31,4.71.71-.01,1.21.54,1.11,1.24h0c-.1.7-.77,1.28-1.48,1.3Z"/><path class="cls-8" d="m329.45,210.87c-.53-.15-.8-.23-1.33-.39-.94-.28-1.59-1.31-1.45-2.28l1.13-7.64c.1-.66.76-1.08,1.4-.88.91.28,1.65.5,2.61.76.53.15.87.66.79,1.21l-1.18,7.94c-.14.97-1.04,1.54-1.98,1.27Z"/><path class="cls-8" d="m361.53,215.04c-.55.01-.83.02-1.38.02-.98,0-1.67-.78-1.53-1.75l1.17-7.92c.08-.56.57-.98,1.14-.98.95,0,1.7,0,2.6-.03.71-.02,1.27.61,1.17,1.31l-1.12,7.54c-.14.97-1.07,1.78-2.05,1.81Z"/><path class="cls-4" d="m339.46,213.56l-.39,4.83,3.04,6.55s1.83,8.5,0,8.85h-2.3s-.09,3.97-3.93,2.12c0,0-2.49.77-3.3-1.67,0,0-2.99-.14-3.22-2.35,0,0-2.94-1.72-1.92-6.18,1.01-4.46,2.3-7.93,2.3-7.93l.68-5.95,9.04,1.72Z"/><path class="cls-14" d="m364.86,150.39l-17.72,27.16-.46,4.57c-.38,3.84-.88,7.67-1.49,11.48l-3.55,22.15-12.52-.76,2.12-42.07s3.85-11.85,8.99-21.43c9.6-17.86,18.6-23.73,18.6-23.73,0,0,11.93-.73,6.03,22.63Z"/><path class="cls-12" d="m364.86,150.39l-17.72,27.16-.46,4.57c-.38,3.84-.88,7.67-1.49,11.48l-3.55,22.15-12.52-.76,2.12-42.07s3.85-11.85,8.99-21.43c9.6-17.86,18.6-23.73,18.6-23.73"/><path class="cls-12" d="m339.07,178.74s4.06-1.93,4.28-2.83c.3-1.24-3.92-4.15-3.92-4.15"/><path class="cls-12" d="m362.59,127.19s-7.96,2.22-11.38,13.33"/><polygon class="cls-9" points="327.04 209.2 327.04 215.34 343.27 216.73 344.06 209.65 327.04 209.2"/></g></svg>