<?xml version="1.0" encoding="UTF-8"?><svg id="Calque_2" xmlns="http://www.w3.org/2000/svg" viewBox="0 0 500.56 481.48"><defs><style>.cls-1,.cls-2,.cls-3,.cls-4,.cls-5,.cls-6,.cls-7,.cls-8,.cls-9{stroke:#263238;stroke-miterlimit:10;}.cls-1,.cls-10{fill:#fff;}.cls-2{stroke-width:4px;}.cls-2,.cls-5,.cls-7{fill:none;}.cls-3,.cls-11{fill:#263238;}.cls-4,.cls-12{fill:#92e3a9;}.cls-5{stroke-width:3px;}.cls-10{opacity:.75;}.cls-6{fill:#cfcfcf;}.cls-8{fill:#9c9c9c;}.cls-9{fill:#b2b2b2;}</style></defs><g id="Background_Simple"><path class="cls-12" d="m442.37,101.53S342.59.88,273.45,0C204.3-.87,26.62,127.79,13.49,168.05.36,208.32,87.02,411.38,148.28,442.89c61.27,31.51,305.47-108.53,333.47-151.42,28.01-42.89-8.75-140.92-39.39-189.93Z"/><path class="cls-10" d="m442.37,101.53S342.59.88,273.45,0C204.3-.87,26.62,127.79,13.49,168.05.36,208.32,87.02,411.38,148.28,442.89c61.27,31.51,305.47-108.53,333.47-151.42,28.01-42.89-8.75-140.92-39.39-189.93Z"/></g><g id="Clouds"><path class="cls-7" d="m189.49,12.09c-13.09,4.65-16.58,18.28-20.57,22.94-5.32,6.21-12.41-12.41-29.25-7.98-16.84,4.43-15.07,14.18-22.16,18.62-7.09,4.43-10.64-6.21-18.62-2.66-7.98,3.55-12.41,7.98-14.18,11.52s-11.52.89-15.07,2.66c-3.55,1.77-7.98,4.43-7.98,4.43h223.38s-2.66-19.5-14.18-23.93c-11.52-4.43-22.16,7.98-29.25,1.77,0,0-7.98-23.93-35.46-28.37-1.85-.3-3.59-.48-5.23-.55"/><path class="cls-7" d="m185.83,309.93c-2.41-5.44-7.32-11.82-17.25-13.42-18.11-2.92-24.87,14.75-28.38,18.84-3.51,4.09-8.18-8.18-19.28-5.26-11.1,2.92-9.93,9.35-14.61,12.27s-7.01-4.09-12.27-1.75c-5.26,2.34-8.18,5.26-9.35,7.6-1.17,2.34-7.6.58-9.93,1.75-2.34,1.17-5.26,2.92-5.26,2.92h147.23s-1.75-12.85-9.35-15.77c-7.6-2.92-14.61,5.26-19.28,1.17"/><path class="cls-7" d="m375.87,202.57h92.75s-1.75-12.85-9.35-15.77c-7.6-2.92-14.61,5.26-19.28,1.17,0,0-5.26-15.77-23.37-18.7s-21.03,11.68-24.54,15.77c-3.51,4.09-8.18-8.18-19.28-5.26-11.1,2.92-9.93,9.35-14.61,12.27s-7.01-4.09-12.27-1.75c-5.26,2.34-8.18,5.26-9.35,7.6-1.17,2.34-7.6.58-9.93,1.75-2.34,1.17-5.26,2.92-5.26,2.92h44.46"/></g><g id="Megaphone_3"><path class="cls-8" d="m500.06,203.49c-10.37,13.04-19.81,24.42-22.22,26.51-4.8,4.17-6.38,1.15-9.39-1.75-3.02-2.9-28.56-21.92-41.64-39.52-13.08-17.59-19.67-27.65-19.67-27.65,0,0-.17-1,.54-8.08.71-7.08,1.87-14.12-2.04-17.11-3.9-2.99-9.51-1.49-13.19,3.95-3.68,5.44-16.87,24.28-16.87,24.28,0,0,6.24,6.27,8.67,8.81,2.43,2.54,4.81,6.69,10.8,15.45,5.99,8.76,29.1,47.13,41.82,62.1,12.72,14.96,28.22,28.87,31.55,28.67,3.33-.2,8.4-2.55,18.45-9.15,3.25-2.13,8.1-5.32,13.18-8.65v-57.85Z"/><path class="cls-4" d="m392.51,189.56c-.39,0-.77-.15-1.07-.45-.58-.59-.57-1.54.02-2.12l20.15-19.86c.59-.58,1.54-.57,2.12.02.58.59.57,1.54-.02,2.12l-20.15,19.86c-.29.29-.67.43-1.05.43Z"/><path class="cls-1" d="m395.32,194.04c-.35,0-.7-.12-.98-.37-.62-.54-.69-1.49-.15-2.12l18.57-21.35c.54-.62,1.49-.69,2.12-.15.62.54.69,1.49.15,2.12l-18.57,21.35c-.3.34-.71.52-1.13.52Z"/><path class="cls-1" d="m447.99,72.06l-7.61,51.16-106.14-16.7s-12.6-1.4-30.45,3.1c-17.85,4.51-33.5,15.67-33.5,15.67,0,0-3.78-23.67.82-54.44,4.6-30.77,14.7-52.22,14.7-52.22,0,0,19.08,22.74,50.25,34.37,31.16,11.63,111.93,19.07,111.93,19.07Z"/><path class="cls-2" d="m375.54,106.7l-40.46-6.37s-12.6-1.4-30.45,3.1c-17.85,4.51-33.5,15.67-33.5,15.67"/><path class="cls-4" d="m271.27,127.85c-.17.07-.35.11-.54.15-1.49.24-2.9-.78-3.14-2.27-.16-.98-3.8-24.44.81-55.28,4.61-30.82,14.52-52.1,14.94-52.99.64-1.37,2.28-1.96,3.65-1.31,1.37.64,1.96,2.28,1.31,3.65-.1.21-9.99,21.49-14.47,51.46-4.49,30.01-.86,53.37-.82,53.6.21,1.3-.54,2.54-1.73,2.99Z"/><path class="cls-4" d="m370.48,112.21l69.9,11,7.61-51.16s-36.36-3.35-69.69-9.06l-7.81,49.22Z"/><line class="cls-7" x1="432.08" y1="92.91" x2="427.82" y2="120.62"/><line class="cls-7" x1="435.25" y1="72.24" x2="433.36" y2="84.55"/><path class="cls-1" d="m382.05,105.08l-.87,9.48,3.57,1.9s.46,8.16-3.88,18.15l-4.34,9.99s-6.64,6.59-9.84,7.81c-3.2,1.22-5.37,2.45-4.33,5.72s2.78,8.91,7.29,11.67c4.51,2.76,4.25,1.03,5.34-.4,1.08-1.43,11.02-8.46,17.88-19.82,6.87-11.36,8.71-17.75,8.71-17.75,0,0,7.87,4.12,8.53,2.65.66-1.47,4.58-24.32,4.58-24.32l-32.64-5.08Z"/><line class="cls-1" x1="383.05" y1="114.66" x2="408.41" y2="132.68"/><path class="cls-8" d="m384.49,118.42s-4.76-1.55-6.63.21c-1.88,1.76-2.28,6.19-1.03,8.26s4.6,6.93,6.45,6c1.84-.93.66-8.01.66-8.01,0,0,.6-5.44.55-6.46Z"/><path class="cls-8" d="m376.07,124.29s-3.73-2.52-6.12,1.86c-2.39,4.38.77,7.81,3.19,10.83,2.42,3.02,5.41,4.19,6.86,2.83,1.45-1.36,1.94-4.33,1.58-5.58s-1.23-3.24-1.23-3.24c0,0-3.92-3.6-4.29-6.7Z"/><path class="cls-8" d="m369.51,131.99s-2.74.7-3.3,4.73c-.55,4.03,4.54,8.58,6.48,10.96,1.95,2.38,3.73,2.52,5.67,1.2s1.88-3.26,1.27-4.88c-.62-1.62-2.49-3.8-2.49-3.8,0,0-3.63-2.55-5.19-4.51-1.55-1.96-2.45-3.7-2.45-3.7Z"/><path class="cls-8" d="m368.53,143.13s-4.5-2.69-6.11.36c-1.62,3.05.6,6.14,3.23,7.57s5.72,1.65,6.98.7c1.26-.94,1.08-2.96,1.08-2.96l-5.17-5.67Z"/><path class="cls-8" d="m406.49,159.84s2.57-13.94,3.6-17.92c1.03-3.98.33-5.61.02-7.44-.31-1.83-10-6.94-12.44-8.79-2.44-1.85-3.34-1.16-7.41-1.23-4.08-.07-7.16-3.3-8.81-.93-1.65,2.36,2.16,7.51,4.47,8.72,2.31,1.21,6.47,1.48,6.47,1.48l5.98,6.29s-9.05,11.2-9.02,16.16c.04,4.96,3.85,8.61,4.7,9.32"/></g><g id="Megaphone_2"><path class="cls-8" d="m66.49,296.21c18.33-13.24,27.92-21.02,27.92-21.02,0,0,.51-1,2.14-8.7s2.77-15.51,7.89-17.34,10.52,1.62,12.57,8.59c2.05,6.97,9.63,31.24,9.63,31.24,0,0-8.69,4.51-12.1,6.37-3.41,1.86-7.31,5.43-16.57,12.65-2.97,2.32-8.82,7.25-16,13.26l-15.49-25.05Z"/><path class="cls-4" d="m137.38,234.89l-4.4.8s-3.23,8.45-2.01,20.43l1.22,11.98s4.79,9.18,7.75,11.53c2.96,2.36,4.84,4.39,2.65,7.48-2.19,3.09-5.92,8.45-11.59,9.85-5.68,1.39-4.83-.35-5.49-2.22-.66-1.87-8.77-12.61-12.19-26.88-3.42-14.27-3.21-21.63-3.21-21.63,0,0-9.52,1.68-9.88-.07-.77-3.76,35.77-16.13,37.16-11.27Z"/><path class="cls-8" d="m132.6,237.85s5.53-.03,6.92,2.45c1.39,2.48.32,7.29-1.69,9.05-2.01,1.76-7.18,5.76-8.81,4.15s1.99-8.66,1.99-8.66c0,0,1.2-5.93,1.59-6.99Z"/><path class="cls-8" d="m139.5,246.85s4.78-1.4,5.82,4.02-3.43,7.97-7,10.33-7.11,2.6-8.18.68c-1.07-1.92-.59-5.21.21-6.41s2.38-3,2.38-3c0,0,5.34-2.48,6.77-5.62Z"/><path class="cls-8" d="m143.83,257.18s2.66,1.66,1.89,6.09c-.77,4.43-7.66,7.51-10.51,9.37-2.85,1.86-4.78,1.4-6.37-.64-1.59-2.03-.89-4.07.3-5.57,1.19-1.5,3.9-3.17,3.9-3.17,0,0,4.69-1.47,6.98-3.01,2.29-1.54,3.82-3.08,3.82-3.08Z"/><path class="cls-8" d="m141.11,269.24s5.64-1.32,6.32,2.43c.68,3.75-2.69,6.27-5.94,6.89-3.25.63-6.58-.19-7.59-1.6-1.01-1.42-.14-3.48-.14-3.48l7.35-4.24Z"/><path class="cls-8" d="m95.52,274.09s1.97-15.55,2.22-20.09c.25-4.54,1.54-6.02,2.47-7.85.94-1.83,12.87-3.95,16.06-5.08,3.19-1.13,3.91-.1,8.23,1.19s8.65-1.07,9.59,1.97c.94,3.04-4.8,7.19-7.64,7.68-2.84.49-7.31-.61-7.31-.61l-8.41,4.62s5.78,14.84,4.07,20.06c-1.7,5.22-6.95,7.77-8.09,8.24"/><polygon class="cls-1" points="73.59 289.73 92.25 321.47 79.81 330.31 62.14 295.95 73.59 289.73"/><polygon class="cls-3" points=".5 388.66 89.3 345.36 64.76 291.04 .5 323.06 .5 388.66"/><line class="cls-7" x1="90.23" y1="239.32" x2="101.44" y2="236.1"/><path class="cls-1" d="m119.92,186.44s16.47-3.83,36.19-14.75c19.72-10.92,32.17-25.28,32.17-25.28,0,0,10.23,5.34,18.96,35.43,7.28,25.09,4.02,43.09,3.45,44.62l-.57,1.53s-20.68-5.75-46.73-4.98c-26.04.77-33.7,7.66-33.7,7.66l-9.77-44.24Z"/><path class="cls-5" d="m200.62,221.18c-8.77-1.58-22.38-3.35-37.82-2.9-26.83.79-34.72,7.89-34.72,7.89"/><path class="cls-5" d="m210.93,223.41s-2.57-.71-7.05-1.61"/><path class="cls-11" d="m210.12,230.23c-.26,0-.52-.05-.78-.14-1.15-.43-1.74-1.72-1.3-2.87l.57-1.53c.74-2.24,3.28-19.83-3.5-43.22-8.24-28.39-17.78-34.04-17.88-34.09-1.06-.6-1.46-1.94-.88-3.01.58-1.07,1.89-1.48,2.97-.92.45.24,11.18,6.13,20.07,36.78,8.05,27.75,3.45,45.87,3.39,46.02l-.57,1.53c-.34.89-1.18,1.45-2.09,1.45Z"/><polygon class="cls-1" points="75.88 192.95 91.2 245.23 136.01 233.36 120.69 179.93 75.88 192.95"/><polygon class="cls-4" points="91.2 245.23 98.34 243.34 83.62 190.7 75.88 192.95 91.2 245.23"/><line class="cls-7" x1="117.44" y1="188.87" x2="122.74" y2="187.35"/><line class="cls-7" x1="78.01" y1="200.19" x2="113.75" y2="189.93"/><line class="cls-7" x1="104.83" y1="235.12" x2="134.13" y2="226.69"/><polygon class="cls-4" points="77.32 197.89 61.32 207.32 73.58 243.13 90.17 241.73 77.32 197.89"/><line class="cls-7" x1="78.75" y1="202.15" x2="68.41" y2="207.32"/><line class="cls-7" x1="80.28" y1="210" x2="70.13" y2="213.83"/><line class="cls-7" x1="82.58" y1="218.04" x2="72.81" y2="221.49"/><line class="cls-7" x1="84.88" y1="225.7" x2="76.45" y2="228.57"/><line class="cls-7" x1="87.37" y1="232.79" x2="80.09" y2="235.08"/></g><g id="Megaphone_1"><path class="cls-7" d="m308.28,175.06c-.41,1.96-.96,3.96-1.63,6,.66-2.04,1.21-4.05,1.63-6Z"/><path class="cls-4" d="m289.15,211.38c-21.01,24.28-37.72,27.68-37.72,27.68-10.45,3.54-19.81,3.06-25.85-2.27-12.81-11.29-5.88-40.09,15.47-64.32,21.36-24.23,49.06-34.72,61.87-23.43,6.17,5.44,7.76,14.93,5.36,26.02-3.58,18.35-19.13,36.32-19.13,36.32Z"/><ellipse class="cls-6" cx="263.1" cy="191.91" rx="54.46" ry="27.26" transform="translate(-54.83 262.4) rotate(-48.61)"/><path class="cls-3" d="m283.55,209.93c-15.99,18.13-35.45,28.3-48.34,26.42,11.72-6.82,24.88-17.81,37.16-31.75,15.23-17.28,25.8-35.34,29.93-49.48,6.33,11.92-1.16,34.85-18.75,54.81Z"/><path class="cls-4" d="m268.69,196.83c-5.44,6.17-12.35,8.96-15.43,6.24s-1.18-9.93,4.25-16.1c5.44-6.17,12.35-8.96,15.43-6.24,3.09,2.72,1.18,9.93-4.25,16.1Z"/><path class="cls-4" d="m272.94,180.74c3.09,2.72,1.18,9.93-4.25,16.1-5.44,6.17-12.35,8.96-15.43,6.24l17.68,19c4.32-3.5,8.58-7.56,12.62-12.14,4.44-5.04,8.24-10.28,11.33-15.47l-21.94-13.72Z"/><path class="cls-7" d="m295.32,203.31c.94-1.36,1.83-2.72,2.68-4.08-.84,1.36-1.74,2.72-2.68,4.08Z"/><path class="cls-4" d="m385.15,274.43c-.67,6.51-4.04,14.38-13.25,19.99-7.67,4.68-12.36,4.72-17.98,1.8-5.44-2.83-14.47-6.72-22.58-12.89,1.74.86,3.34,1.64,4.74,2.37,6.7,3.48,12.28,3.43,21.43-2.14,10.99-6.7,15.01-16.08,15.81-23.85.27-2.62.3-5.2-.3-7.91.15.13.3.26.45.38,11.23,9.44,12.36,15.73,11.68,22.25Z"/><path class="cls-1" d="m373.32,259.71c-.8,7.77-4.82,17.15-15.81,23.85-9.15,5.57-14.73,5.62-21.43,2.14-1.4-.73-3-1.51-4.74-2.37-.26-.19-.52-.39-.78-.59-7.11-5.58-24.59-18.4-41.87-28.45-1.12-.6-2.3-1.24-3.53-1.93-16.41-9.12-31.18-12.72-33.73-13.3,2.4-.8,4.87-1.83,7.36-3.06.38-.19.77-.38,1.15-.58.37-.18.73-.37,1.09-.57l.21-.12c.48-.25.95-.51,1.42-.78,1.27-.72,2.54-1.49,3.81-2.31.03-.02.06-.03.09-.06.41-.26.81-.52,1.22-.8.76-.51,1.53-1.04,2.29-1.59.4-.28.8-.57,1.2-.88.45-.32.89-.65,1.33-1,.38-.28.75-.57,1.12-.87,1.79-1.42,3.57-2.93,5.33-4.54.47-.42.94-.85,1.41-1.3.09-.08.18-.16.27-.25.45-.44.91-.88,1.36-1.32.95-.94,1.9-1.9,2.83-2.9.36-.37.71-.75,1.06-1.14.5-.54.98-1.08,1.47-1.63.58-.66,1.15-1.32,1.7-1.98.56-.66,1.11-1.33,1.64-2,.54-.67,1.06-1.34,1.58-2.01.55-.73,1.09-1.45,1.61-2.18.46-.62.91-1.25,1.34-1.88.94-1.36,1.84-2.72,2.68-4.08.43-.69.84-1.37,1.24-2.05.81-1.36,1.56-2.73,2.28-4.09.27-.51.53-1.02.78-1.53.26-.51.51-1.01.74-1.52.49-1.02.94-2.02,1.37-3.03.28-.67.56-1.34.82-2,.26-.67.51-1.33.75-1.99.23-.64.45-1.28.66-1.92,0-.01.01-.03.01-.04.67-2.04,1.22-4.04,1.63-6,1.16,3.93,3.04,8.96,6.08,14.32.7,1.22,1.45,2.46,2.27,3.71,8.87,13.53,44.66,48.73,56.39,58.71.6,2.71.57,5.29.3,7.91Z"/><path class="cls-3" d="m299.85,261.51s6.81,10.43,7.45,14.26c.64,3.83,2.98,11.71,4.26,13.2,1.28,1.49,15.32,2.77,16.81,1.49,1.49-1.28,11.28-10.22,11.28-10.22,0,0-21.5-17.03-22.99-17.03s-13.83-1.06-16.81-1.7Z"/><path class="cls-1" d="m324.8,290.98c1.79-.01,3.16-.17,3.58-.52,1.49-1.28,11.28-10.22,11.28-10.22,0,0-21.5-17.03-22.99-17.03,0,0-1.49,3.83-.64,4.9,0,0,6.39,6.39,7.88,13.2,1.24,5.66-.45,7.5.89,9.67Z"/><path class="cls-3" d="m268.37,322.87s-3.75,3.75-3.48,6.16,8.03,13.92,10.7,14.45c2.68.54,6.42-2.94,6.42-2.94,0,0-4.01-13.11-13.65-17.66Z"/><path class="cls-9" d="m342.29,386.51s-11.65-38.03-12.6-47.54c-.95-9.51,2.38-28.29,2.85-32.8s-4.52-9.51-5.71-10.93c-1.19-1.43-3.57-9.27-6.66-14.02-3.09-4.75-20.21-9.98-27.57-12.36-7.37-2.38-13.31-2.61-15.21,1.9-1.9,4.52.95,8.8,1.43,9.51.48.71.71,1.9.71,1.9,0,0-5.94-1.19-8.32.95-2.38,2.14-4.04,5.94-3.33,8.32.71,2.38,1.9,4.28,1.9,4.28,0,0-6.66-1.19-9.03,3.09-2.38,4.28-.71,6.66.24,7.61.95.95,2.14,2.38,2.14,2.38,0,0-4.75,1.43-4.04,5.71.71,4.28,1.66,5.71,2.85,6.18,1.19.48,7.61,6.89,7.61,6.89,0,0,7.13,7.13,9.75,14.03,2.61,6.89,3.8,10.22,8.8,14.03s6.18,4.99,6.18,4.99l3.09,35.66,44.93-9.75Z"/><path class="cls-7" d="m279.53,282.15s18.78,2.38,20.44,2.38,3.09-1.43,6.18,1.43c3.09,2.85,3.57,5.23,3.57,5.23"/><path class="cls-7" d="m269.79,295.7s18.54,1.43,19.49,1.43,5.47-2.14,8.32,1.19c2.85,3.33,3.57,6.18,3.57,6.18"/><line class="cls-7" x1="263.13" y1="308.78" x2="282.15" y2="313.06"/><path class="cls-7" d="m276.68,325.66s1.66,3.57,7.13,2.85"/><path class="cls-7" d="m296.88,359.89s1.19,2.38,8.08.48"/><path class="cls-7" d="m287.85,314.01s0,1.66,2.14,2.61c2.14.95,4.04,1.66,4.04,1.66l10.93,11.41"/><line class="cls-7" x1="307.58" y1="363.69" x2="309.96" y2="373.91"/><path class="cls-4" d="m343.1,383.75l-3.72,1.13c-13.95,4.22-28.55,5.87-43.09,4.86l-3.78-.26,2.64,35.2s9.24,3.08,27.72.44c18.48-2.64,32.12-7.92,32.12-7.92l-11.88-33.44Z"/><path class="cls-4" d="m295.14,424.66s-3.96,6.16-3.52,17.16c.44,11,.44,39.15.44,39.15h84.95s-14.12-49.27-17.64-55.43c-3.52-6.16-4.4-8.36-4.4-8.36,0,0-36.08,10.12-59.83,7.48Z"/></g></svg>