<?xml version="1.0" encoding="UTF-8"?><svg id="Calque_2" xmlns="http://www.w3.org/2000/svg" viewBox="0 0 475.42 479.2"><defs><style>.cls-1,.cls-2,.cls-3,.cls-4,.cls-5{stroke:#263238;stroke-miterlimit:10;}.cls-1,.cls-6{fill:#fff;}.cls-2,.cls-7,.cls-8{fill:#263238;}.cls-3,.cls-9{fill:#92e3a9;}.cls-10{opacity:.2;}.cls-6{opacity:.7;}.cls-4{fill:#8f8f8f;}.cls-11,.cls-8{opacity:.3;}.cls-5{fill:none;}</style></defs><g id="Background_Simple"><path class="cls-9" d="m466.16,175.03c-1.75-21.7-1.94-40.91-10.76-61.46-7.08-16.5-14.95-33.2-25.75-47.65C396.68,21.8,345.06,2.14,291.32.14,203.2-3.15,117.41,53.16,87.95,136.71c-4.76,13.49-12.58,24.87-21.44,35.58-.92-.56-1.45-2.06-1.45-4.65,0-23.06-26.06,2.73-30.15,9.01-52.84,81.28-41.47,214.93,46.6,266.89,36.17,21.34,76.25,31.59,117.84,34.92,37.83,3.03,78.81-2.68,107.35-29.88,24.71-23.55,33.15-58.52,53.81-84.4-1.65,3.29-5.83,12.69-5.76,23.8.08,13.85,35.01,8.29,70.73-52.84,33.52-57.35,44.67-110.51,40.68-160.12Z"/><path class="cls-6" d="m466.16,175.03c-1.75-21.7-1.94-40.91-10.76-61.46-7.08-16.5-14.95-33.2-25.75-47.65C396.68,21.8,345.06,2.14,291.32.14,203.2-3.15,117.41,53.16,87.95,136.71c-4.76,13.49-12.58,24.87-21.44,35.58-.92-.56-1.45-2.06-1.45-4.65,0-23.06-26.06,2.73-30.15,9.01-52.84,81.28-41.47,214.93,46.6,266.89,36.17,21.34,76.25,31.59,117.84,34.92,37.83,3.03,78.81-2.68,107.35-29.88,24.71-23.55,33.15-58.52,53.81-84.4-1.65,3.29-5.83,12.69-5.76,23.8.08,13.85,35.01,8.29,70.73-52.84,33.52-57.35,44.67-110.51,40.68-160.12Z"/></g><g id="Plants_2"><path class="cls-7" d="m434.04,368.35c.07.03.78-5.18.78-5.51.08-3.86-2.05-11.38-6.14-12.79-2.95-1.02-5.87.98-6.56,3.89-.7,2.98,1.03,6.32,2.88,8.54,2.17,2.61,9.03,5.87,9.04,5.87Z"/><path class="cls-7" d="m357.52,375.77c3.24.98,10.77-.09,10.78-.09.08-.01-2.21-4.75-2.39-5.03-2.07-3.27-7.98-8.36-12.18-7.28-3.02.78-4.36,4.05-3.32,6.86,1.06,2.87,4.35,4.7,7.11,5.54Z"/><path class="cls-7" d="m396.51,434.15c.72,1.34,1.45,2.69,2.09,4.02.42.92.88,1.78,1.25,2.73.38.93.76,1.85,1.14,2.77.66,1.78,1.35,3.62,1.95,5.38.43,1.22.81,2.39,1.2,3.56-.78-1.28-2.36-3.77-2.52-3.96-2.43-3.01-8.89-7.39-12.93-5.83-2.91,1.12-3.87,4.53-2.51,7.2,1.38,2.73,4.86,4.17,7.7,4.68,3.13.56,9.71-1.07,10.53-1.28.64,1.95,1.24,3.85,1.78,5.66.97,3.2,1.78,6.14,2.47,8.75h2.87c-.79-2.8-1.75-5.99-2.9-9.51-.64-1.98-1.36-4.09-2.13-6.24.48-.26,3.19-1.75,5.55-3.46,2.48,2.12,8.45,4.24,9.23,4.51-.54,1.98-1.09,3.9-1.64,5.7-1.01,3.35-1.99,6.37-2.88,9.01h2.9c.77-2.48,1.6-5.25,2.45-8.3.56-2.01,1.12-4.16,1.67-6.38.83.07,7.61.63,10.61-.43,2.72-.96,5.92-2.95,6.84-5.86.9-2.85-.59-6.06-3.64-6.7-4.24-.88-9.91,4.48-11.82,7.84-.11.2-1.1,2.49-1.69,3.94.22-.91.45-1.79.66-2.72.44-1.85.82-3.71,1.24-5.71.17-.97.34-1.95.51-2.95.19-.98.27-2.04.41-3.07.28-2.39.44-4.83.55-7.29,1.62.38,7.4,1.65,10.25,1.11,2.84-.54,6.3-2.02,7.65-4.76,1.32-2.68.34-6.08-2.59-7.17-4.05-1.52-10.47,2.93-12.87,5.96-.15.19-1.63,2.56-2.41,3.87.06-1.48.12-2.96.13-4.45.02-4.33-.09-8.7-.18-13.07-.03-1.34-.04-2.67-.06-4.01.57.14,7.41,1.8,10.6,1.19,2.84-.54,6.3-2.02,7.65-4.76,1.32-2.68.33-6.08-2.59-7.17-4.05-1.52-10.47,2.93-12.87,5.96-.18.23-2.3,3.64-2.8,4.53-.04-2.94-.05-5.87.06-8.76.14-3.99.5-7.89,1.13-11.65.27.07,7.39,1.83,10.66,1.21,2.84-.54,6.3-2.02,7.65-4.76,1.33-2.68.33-6.08-2.59-7.17-4.06-1.52-10.47,2.93-12.87,5.96-.16.2-1.77,2.8-2.52,4.05-.13-.05-.1-.04-.23-.09.72-4.02,1.92-7.82,3.23-11.32.75-2.03,1.58-3.93,2.43-5.75,1.29.46,7.23,2.52,10.23,2.28,2.88-.23,6.48-1.31,8.13-3.89,1.61-2.52,1-6.01-1.78-7.41-3.86-1.95-10.73,1.76-13.45,4.51-.15.15-1.48,1.84-2.44,3.08.4-.82.79-1.67,1.18-2.45,1.48-2.92,3.01-5.51,4.38-7.78.79-1.29,1.53-2.44,2.24-3.51,1.51-.21,7.57-1.11,10.08-2.68,2.45-1.53,5.15-4.15,5.42-7.2.27-2.98-1.88-5.79-5-5.76-4.33.05-8.71,6.51-9.86,10.2-.1.32-1.07,5.49-.99,5.48,0,0,.07-.01.09-.01-.7,1.01-1.44,2.11-2.22,3.32-1.43,2.25-3.02,4.81-4.57,7.71-1.55,2.9-3.16,6.09-4.54,9.6-1.39,3.52-2.68,7.29-3.51,11.35,0,.05-.01.1-.02.14-.13-1.26-.6-4.78-.67-5.04-.95-3.75-4.98-10.43-9.3-10.71-3.11-.2-5.41,2.49-5.3,5.48.11,3.05,2.66,5.82,5.03,7.48,2.67,1.87,9.61,3.16,10.16,3.26-.75,3.87-1.2,7.91-1.44,12.02-.14,2.35-.2,4.72-.24,7.1-.14-1.09-.28-2.06-.32-2.19-.95-3.75-4.98-10.43-9.3-10.71-3.11-.2-5.41,2.49-5.3,5.48.11,3.05,2.66,5.82,5.03,7.48,2.4,1.68,8.3,2.9,9.86,3.2,0,.91-.02,1.82-.02,2.73,0,4.38.01,8.74-.1,13.03-.04,1.51-.13,3-.22,4.48-.13-.97-.25-1.78-.28-1.9-.95-3.75-4.98-10.43-9.3-10.71-3.11-.2-5.41,2.49-5.3,5.48.11,3.05,2.67,5.82,5.03,7.48,2.29,1.6,7.72,2.78,9.58,3.14-.14,1.52-.27,3.04-.47,4.51-.16,1-.25,1.97-.46,2.96-.19.99-.39,1.97-.58,2.93-.44,1.85-.87,3.77-1.34,5.56-.32,1.25-.64,2.44-.97,3.64.06-1.5.11-4.45.08-4.69-.24-2.56-1.64-6.59-3.79-9.29-.03-.38-.1-.75-.2-1.12-.82-2.88-3.84-4.73-6.73-3.58-4.02,1.6-5.79,9.21-5.53,13.06.02.23.46,2.68.76,4.22-.32-.88-.61-1.74-.95-2.64-.65-1.79-1.36-3.55-2.11-5.45-.4-.9-.79-1.82-1.2-2.74-.38-.92-.9-1.85-1.35-2.79-1.09-2.15-2.3-4.27-3.56-6.39,1.56-.58,7.08-2.7,9.16-4.73,2.07-2.02,4.14-5.16,3.76-8.19-.37-2.97-3.07-5.26-6.11-4.56-4.22.97-7.12,8.22-7.45,12.07-.02.24.05,3.03.13,4.56-.77-1.26-1.53-2.53-2.35-3.78-2.37-3.62-4.88-7.21-7.36-10.8-.76-1.1-1.51-2.21-2.26-3.31.56-.2,7.17-2.59,9.5-4.85,2.07-2.02,4.14-5.16,3.76-8.19-.37-2.97-3.07-5.26-6.11-4.56-4.22.97-7.12,8.22-7.45,12.07-.02.29.09,4.31.17,5.32-1.65-2.43-3.28-4.87-4.79-7.34-2.08-3.4-3.94-6.86-5.48-10.34.26-.09,7.17-2.55,9.56-4.87,2.07-2.02,4.14-5.16,3.76-8.19-.37-2.97-3.07-5.26-6.11-4.56-4.22.97-7.12,8.22-7.45,12.07-.02.25.06,3.31.14,4.77-.13.03-.11.02-.24.06-1.61-3.75-2.71-7.58-3.55-11.22-.49-2.11-.85-4.15-1.15-6.14,1.33-.33,7.42-1.88,9.79-3.74,2.28-1.78,4.68-4.67,4.64-7.73-.05-2.99-2.48-5.56-5.58-5.2-4.3.5-7.98,7.39-8.73,11.18-.04.21-.22,2.35-.33,3.91-.12-.9-.26-1.83-.36-2.7-.38-3.25-.53-6.25-.64-8.91-.05-1.51-.07-2.88-.07-4.16,1.14-1,5.7-5.1,6.93-7.79,1.2-2.63,2-6.3.55-8.99-1.42-2.63-4.76-3.79-7.35-2.04-3.58,2.43-3.67,10.24-2.59,13.95.09.32,2.13,5.17,2.19,5.12,0,0,.06-.05.07-.06-.02,1.23-.03,2.55-.02,4,.05,2.67.14,5.68.45,8.95.3,3.27.72,6.82,1.5,10.51.78,3.7,1.78,7.56,3.34,11.4.02.04.04.09.06.13-.8-.98-3.14-3.65-3.34-3.84-2.86-2.6-9.91-5.96-13.67-3.81-2.71,1.55-3.14,5.06-1.4,7.5,1.78,2.49,5.43,3.38,8.32,3.46,3.26.09,9.76-2.67,10.27-2.89,1.51,3.64,3.36,7.26,5.43,10.82,1.18,2.03,2.43,4.05,3.72,6.05-.72-.83-1.37-1.56-1.47-1.65-2.86-2.6-9.91-5.96-13.67-3.81-2.71,1.55-3.14,5.06-1.39,7.5,1.78,2.49,5.43,3.39,8.32,3.46,2.93.08,8.52-2.16,9.99-2.77.5.76.99,1.53,1.49,2.29,2.41,3.65,4.83,7.28,7.1,10.92.8,1.28,1.54,2.57,2.29,3.86-.64-.73-1.19-1.35-1.28-1.43-2.86-2.6-9.91-5.96-13.66-3.81-2.71,1.55-3.14,5.06-1.39,7.5,1.78,2.49,5.43,3.38,8.32,3.46,2.79.07,7.97-1.94,9.73-2.66Z"/><path class="cls-8" d="m357.52,375.77c3.24.98,10.77-.09,10.78-.09.08-.01-2.21-4.75-2.39-5.03-2.07-3.27-7.98-8.36-12.18-7.28-3.02.78-4.36,4.05-3.32,6.86,1.06,2.87,4.35,4.7,7.11,5.54Z"/><path class="cls-8" d="m434.04,368.35c.07.03.78-5.18.78-5.51.08-3.86-2.05-11.38-6.14-12.79-2.95-1.02-5.87.98-6.56,3.89-.7,2.98,1.03,6.32,2.88,8.54,2.17,2.61,9.03,5.87,9.04,5.87Z"/><path class="cls-8" d="m396.51,434.15c.72,1.34,1.45,2.69,2.09,4.02.42.92.88,1.78,1.25,2.73.38.93.76,1.85,1.14,2.77.66,1.78,1.35,3.62,1.95,5.38.43,1.22.81,2.39,1.2,3.56-.78-1.28-2.36-3.77-2.52-3.96-2.43-3.01-8.89-7.39-12.93-5.83-2.91,1.12-3.87,4.53-2.51,7.2,1.38,2.73,4.86,4.17,7.7,4.68,3.13.56,9.71-1.07,10.53-1.28.64,1.95,1.24,3.85,1.78,5.66.97,3.2,1.78,6.14,2.47,8.75h2.87c-.79-2.8-1.75-5.99-2.9-9.51-.64-1.98-1.36-4.09-2.13-6.24.48-.26,3.19-1.75,5.55-3.46,2.48,2.12,8.45,4.24,9.23,4.51-.54,1.98-1.09,3.9-1.64,5.7-1.01,3.35-1.99,6.37-2.88,9.01h2.9c.77-2.48,1.6-5.25,2.45-8.3.56-2.01,1.12-4.16,1.67-6.38.83.07,7.61.63,10.61-.43,2.72-.96,5.92-2.95,6.84-5.86.9-2.85-.59-6.06-3.64-6.7-4.24-.88-9.91,4.48-11.82,7.84-.11.2-1.1,2.49-1.69,3.94.22-.91.45-1.79.66-2.72.44-1.85.82-3.71,1.24-5.71.17-.97.34-1.95.51-2.95.19-.98.27-2.04.41-3.07.28-2.39.44-4.83.55-7.29,1.62.38,7.4,1.65,10.25,1.11,2.84-.54,6.3-2.02,7.65-4.76,1.32-2.68.34-6.08-2.59-7.17-4.05-1.52-10.47,2.93-12.87,5.96-.15.19-1.63,2.56-2.41,3.87.06-1.48.12-2.96.13-4.45.02-4.33-.09-8.7-.18-13.07-.03-1.34-.04-2.67-.06-4.01.57.14,7.41,1.8,10.6,1.19,2.84-.54,6.3-2.02,7.65-4.76,1.32-2.68.33-6.08-2.59-7.17-4.05-1.52-10.47,2.93-12.87,5.96-.18.23-2.3,3.64-2.8,4.53-.04-2.94-.05-5.87.06-8.76.14-3.99.5-7.89,1.13-11.65.27.07,7.39,1.83,10.66,1.21,2.84-.54,6.3-2.02,7.65-4.76,1.33-2.68.33-6.08-2.59-7.17-4.06-1.52-10.47,2.93-12.87,5.96-.16.2-1.77,2.8-2.52,4.05-.13-.05-.1-.04-.23-.09.72-4.02,1.92-7.82,3.23-11.32.75-2.03,1.58-3.93,2.43-5.75,1.29.46,7.23,2.52,10.23,2.28,2.88-.23,6.48-1.31,8.13-3.89,1.61-2.52,1-6.01-1.78-7.41-3.86-1.95-10.73,1.76-13.45,4.51-.15.15-1.48,1.84-2.44,3.08.4-.82.79-1.67,1.18-2.45,1.48-2.92,3.01-5.51,4.38-7.78.79-1.29,1.53-2.44,2.24-3.51,1.51-.21,7.57-1.11,10.08-2.68,2.45-1.53,5.15-4.15,5.42-7.2.27-2.98-1.88-5.79-5-5.76-4.33.05-8.71,6.51-9.86,10.2-.1.32-1.07,5.49-.99,5.48,0,0,.07-.01.09-.01-.7,1.01-1.44,2.11-2.22,3.32-1.43,2.25-3.02,4.81-4.57,7.71-1.55,2.9-3.16,6.09-4.54,9.6-1.39,3.52-2.68,7.29-3.51,11.35,0,.05-.01.1-.02.14-.13-1.26-.6-4.78-.67-5.04-.95-3.75-4.98-10.43-9.3-10.71-3.11-.2-5.41,2.49-5.3,5.48.11,3.05,2.66,5.82,5.03,7.48,2.67,1.87,9.61,3.16,10.16,3.26-.75,3.87-1.2,7.91-1.44,12.02-.14,2.35-.2,4.72-.24,7.1-.14-1.09-.28-2.06-.32-2.19-.95-3.75-4.98-10.43-9.3-10.71-3.11-.2-5.41,2.49-5.3,5.48.11,3.05,2.66,5.82,5.03,7.48,2.4,1.68,8.3,2.9,9.86,3.2,0,.91-.02,1.82-.02,2.73,0,4.38.01,8.74-.1,13.03-.04,1.51-.13,3-.22,4.48-.13-.97-.25-1.78-.28-1.9-.95-3.75-4.98-10.43-9.3-10.71-3.11-.2-5.41,2.49-5.3,5.48.11,3.05,2.67,5.82,5.03,7.48,2.29,1.6,7.72,2.78,9.58,3.14-.14,1.52-.27,3.04-.47,4.51-.16,1-.25,1.97-.46,2.96-.19.99-.39,1.97-.58,2.93-.44,1.85-.87,3.77-1.34,5.56-.32,1.25-.64,2.44-.97,3.64.06-1.5.11-4.45.08-4.69-.24-2.56-1.64-6.59-3.79-9.29-.03-.38-.1-.75-.2-1.12-.82-2.88-3.84-4.73-6.73-3.58-4.02,1.6-5.79,9.21-5.53,13.06.02.23.46,2.68.76,4.22-.32-.88-.61-1.74-.95-2.64-.65-1.79-1.36-3.55-2.11-5.45-.4-.9-.79-1.82-1.2-2.74-.38-.92-.9-1.85-1.35-2.79-1.09-2.15-2.3-4.27-3.56-6.39,1.56-.58,7.08-2.7,9.16-4.73,2.07-2.02,4.14-5.16,3.76-8.19-.37-2.97-3.07-5.26-6.11-4.56-4.22.97-7.12,8.22-7.45,12.07-.02.24.05,3.03.13,4.56-.77-1.26-1.53-2.53-2.35-3.78-2.37-3.62-4.88-7.21-7.36-10.8-.76-1.1-1.51-2.21-2.26-3.31.56-.2,7.17-2.59,9.5-4.85,2.07-2.02,4.14-5.16,3.76-8.19-.37-2.97-3.07-5.26-6.11-4.56-4.22.97-7.12,8.22-7.45,12.07-.02.29.09,4.31.17,5.32-1.65-2.43-3.28-4.87-4.79-7.34-2.08-3.4-3.94-6.86-5.48-10.34.26-.09,7.17-2.55,9.56-4.87,2.07-2.02,4.14-5.16,3.76-8.19-.37-2.97-3.07-5.26-6.11-4.56-4.22.97-7.12,8.22-7.45,12.07-.02.25.06,3.31.14,4.77-.13.03-.11.02-.24.06-1.61-3.75-2.71-7.58-3.55-11.22-.49-2.11-.85-4.15-1.15-6.14,1.33-.33,7.42-1.88,9.79-3.74,2.28-1.78,4.68-4.67,4.64-7.73-.05-2.99-2.48-5.56-5.58-5.2-4.3.5-7.98,7.39-8.73,11.18-.04.21-.22,2.35-.33,3.91-.12-.9-.26-1.83-.36-2.7-.38-3.25-.53-6.25-.64-8.91-.05-1.51-.07-2.88-.07-4.16,1.14-1,5.7-5.1,6.93-7.79,1.2-2.63,2-6.3.55-8.99-1.42-2.63-4.76-3.79-7.35-2.04-3.58,2.43-3.67,10.24-2.59,13.95.09.32,2.13,5.17,2.19,5.12,0,0,.06-.05.07-.06-.02,1.23-.03,2.55-.02,4,.05,2.67.14,5.68.45,8.95.3,3.27.72,6.82,1.5,10.51.78,3.7,1.78,7.56,3.34,11.4.02.04.04.09.06.13-.8-.98-3.14-3.65-3.34-3.84-2.86-2.6-9.91-5.96-13.67-3.81-2.71,1.55-3.14,5.06-1.4,7.5,1.78,2.49,5.43,3.38,8.32,3.46,3.26.09,9.76-2.67,10.27-2.89,1.51,3.64,3.36,7.26,5.43,10.82,1.18,2.03,2.43,4.05,3.72,6.05-.72-.83-1.37-1.56-1.47-1.65-2.86-2.6-9.91-5.96-13.67-3.81-2.71,1.55-3.14,5.06-1.39,7.5,1.78,2.49,5.43,3.39,8.32,3.46,2.93.08,8.52-2.16,9.99-2.77.5.76.99,1.53,1.49,2.29,2.41,3.65,4.83,7.28,7.1,10.92.8,1.28,1.54,2.57,2.29,3.86-.64-.73-1.19-1.35-1.28-1.43-2.86-2.6-9.91-5.96-13.66-3.81-2.71,1.55-3.14,5.06-1.39,7.5,1.78,2.49,5.43,3.38,8.32,3.46,2.79.07,7.97-1.94,9.73-2.66Z"/><path class="cls-7" d="m90.63,408.77s.46-3.07.46-3.27c.05-2.29-1.21-6.75-3.64-7.59-1.75-.6-3.49.58-3.89,2.31-.41,1.77.61,3.75,1.71,5.07,1.29,1.55,5.36,3.48,5.36,3.49Z"/><path class="cls-7" d="m45.2,413.17c1.93.58,6.39-.05,6.4-.05.05,0-1.31-2.82-1.42-2.99-1.23-1.94-4.74-4.96-7.23-4.32-1.79.46-2.59,2.41-1.97,4.07.63,1.7,2.58,2.79,4.22,3.29Z"/><path class="cls-7" d="m68.34,447.82c.43.8.86,1.59,1.24,2.39.25.55.52,1.06.74,1.62.23.55.45,1.1.68,1.64.39,1.06.8,2.15,1.16,3.19.25.72.48,1.42.71,2.12-.46-.76-1.4-2.24-1.49-2.35-1.44-1.79-5.28-4.39-7.68-3.46-1.73.67-2.3,2.69-1.49,4.27.82,1.62,2.88,2.47,4.57,2.78,1.86.33,5.77-.64,6.25-.76.38,1.16.74,2.29,1.06,3.36.57,1.9,1.06,3.65,1.47,5.19h1.71c-.47-1.66-1.04-3.56-1.72-5.65-.38-1.18-.81-2.43-1.26-3.71.28-.15,1.9-1.04,3.29-2.06,1.47,1.26,5.02,2.52,5.48,2.68-.32,1.17-.65,2.31-.97,3.38-.6,1.99-1.18,3.78-1.71,5.35h1.72c.46-1.47.95-3.11,1.45-4.93.33-1.19.66-2.47.99-3.79.49.04,4.51.37,6.3-.26,1.62-.57,3.51-1.75,4.06-3.48.54-1.69-.35-3.6-2.16-3.98-2.52-.53-5.88,2.66-7.02,4.66-.07.12-.65,1.48-1.01,2.34.13-.54.26-1.06.39-1.62.26-1.1.49-2.2.74-3.39.1-.58.2-1.16.3-1.75.11-.58.16-1.21.24-1.82.16-1.42.26-2.87.33-4.33.96.23,4.39.98,6.08.66,1.68-.32,3.74-1.2,4.54-2.82.79-1.59.2-3.61-1.54-4.26-2.41-.9-6.22,1.74-7.64,3.54-.09.11-.97,1.52-1.43,2.3.03-.88.07-1.75.07-2.64.01-2.57-.05-5.17-.11-7.76-.02-.79-.02-1.59-.04-2.38.34.08,4.4,1.07,6.29.71,1.68-.32,3.74-1.2,4.54-2.82.79-1.59.2-3.61-1.54-4.26-2.41-.9-6.22,1.74-7.64,3.54-.11.14-1.37,2.16-1.66,2.69-.02-1.75-.03-3.49.03-5.2.08-2.37.3-4.68.67-6.91.16.04,4.39,1.09,6.33.72,1.68-.32,3.74-1.2,4.54-2.82.79-1.59.2-3.61-1.54-4.26-2.41-.9-6.22,1.74-7.64,3.54-.09.12-1.05,1.66-1.49,2.4-.08-.03-.06-.02-.14-.05.43-2.38,1.14-4.64,1.92-6.72.45-1.2.94-2.33,1.44-3.42.77.28,4.29,1.5,6.07,1.36,1.71-.13,3.85-.78,4.83-2.31.96-1.5.59-3.57-1.06-4.4-2.29-1.16-6.37,1.05-7.98,2.68-.09.09-.88,1.09-1.45,1.83.24-.49.47-.99.7-1.45.88-1.73,1.79-3.27,2.6-4.62.47-.77.91-1.45,1.33-2.08.89-.12,4.49-.66,5.98-1.59,1.45-.91,3.06-2.47,3.22-4.27.16-1.77-1.12-3.44-2.97-3.42-2.57.03-5.17,3.86-5.85,6.06-.06.19-.64,3.26-.59,3.25,0,0,.04,0,.05,0-.42.6-.85,1.25-1.32,1.97-.85,1.34-1.79,2.86-2.71,4.58-.92,1.72-1.87,3.61-2.7,5.7-.83,2.09-1.59,4.33-2.08,6.74,0,.03,0,.06-.01.08-.08-.75-.36-2.84-.4-2.99-.56-2.23-2.95-6.19-5.52-6.36-1.85-.12-3.21,1.48-3.15,3.25.07,1.81,1.58,3.46,2.99,4.44,1.58,1.11,5.7,1.87,6.03,1.93-.45,2.3-.71,4.69-.85,7.13-.08,1.39-.12,2.8-.14,4.21-.09-.65-.17-1.22-.19-1.3-.56-2.23-2.95-6.19-5.52-6.36-1.85-.12-3.21,1.48-3.15,3.25.07,1.81,1.58,3.46,2.99,4.44,1.42,1,4.93,1.72,5.85,1.9,0,.54-.01,1.08-.01,1.62,0,2.6,0,5.19-.06,7.73-.02.9-.08,1.78-.13,2.66-.08-.57-.15-1.06-.17-1.13-.56-2.23-2.95-6.19-5.52-6.36-1.85-.12-3.21,1.48-3.15,3.25.07,1.81,1.58,3.46,2.99,4.44,1.36.95,4.58,1.65,5.69,1.87-.08.9-.16,1.81-.28,2.68-.1.59-.15,1.17-.27,1.76-.12.59-.23,1.17-.34,1.74-.26,1.1-.52,2.24-.8,3.3-.19.74-.38,1.45-.57,2.16.03-.89.06-2.64.05-2.79-.14-1.52-.98-3.91-2.25-5.52-.02-.22-.06-.45-.12-.66-.49-1.71-2.28-2.81-4-2.12-2.39.95-3.44,5.46-3.28,7.75,0,.14.27,1.59.45,2.5-.19-.52-.36-1.03-.56-1.57-.39-1.06-.81-2.11-1.25-3.23-.23-.54-.47-1.08-.71-1.63-.23-.55-.53-1.1-.8-1.65-.65-1.28-1.36-2.54-2.11-3.79.93-.34,4.2-1.6,5.44-2.81,1.23-1.2,2.46-3.06,2.23-4.86-.22-1.76-1.82-3.12-3.63-2.7-2.5.58-4.23,4.88-4.42,7.17-.01.14.03,1.8.07,2.71-.46-.75-.91-1.5-1.4-2.25-1.41-2.15-2.89-4.28-4.37-6.41-.45-.65-.9-1.31-1.34-1.96.33-.12,4.26-1.54,5.64-2.88,1.23-1.2,2.46-3.06,2.23-4.86-.22-1.76-1.82-3.12-3.63-2.7-2.5.58-4.23,4.88-4.42,7.17-.01.17.05,2.56.1,3.16-.98-1.44-1.95-2.89-2.84-4.36-1.24-2.02-2.34-4.07-3.26-6.14.15-.05,4.26-1.51,5.67-2.89,1.23-1.2,2.46-3.06,2.23-4.86-.22-1.76-1.83-3.12-3.63-2.7-2.5.58-4.23,4.88-4.42,7.17-.01.15.04,1.97.08,2.83-.08.02-.06.01-.14.03-.96-2.23-1.61-4.5-2.11-6.66-.29-1.25-.5-2.46-.68-3.65.79-.19,4.4-1.12,5.81-2.22,1.35-1.05,2.78-2.77,2.75-4.59-.03-1.78-1.47-3.3-3.31-3.09-2.55.3-4.74,4.39-5.18,6.64-.02.12-.13,1.39-.2,2.32-.07-.54-.16-1.09-.22-1.6-.23-1.93-.31-3.71-.38-5.29-.03-.9-.04-1.71-.04-2.47.68-.6,3.38-3.03,4.11-4.63.71-1.56,1.19-3.74.33-5.34-.84-1.56-2.83-2.25-4.36-1.21-2.13,1.44-2.18,6.08-1.54,8.28.06.19,1.27,3.07,1.3,3.04,0,0,.03-.03.04-.04-.01.73-.02,1.52-.01,2.37.03,1.58.08,3.37.27,5.31.18,1.94.43,4.05.89,6.24.46,2.2,1.06,4.49,1.98,6.77.01.03.02.05.03.08-.48-.58-1.86-2.17-1.98-2.28-1.7-1.55-5.88-3.54-8.11-2.26-1.61.92-1.86,3-.83,4.45,1.06,1.48,3.23,2.01,4.94,2.05,1.93.05,5.79-1.58,6.1-1.71.9,2.16,1.99,4.31,3.22,6.42.7,1.21,1.45,2.4,2.21,3.59-.43-.49-.81-.93-.88-.98-1.7-1.55-5.88-3.54-8.11-2.26-1.61.92-1.86,3-.83,4.45,1.06,1.48,3.23,2.01,4.94,2.05,1.74.05,5.06-1.28,5.93-1.64.3.45.59.91.89,1.36,1.43,2.17,2.87,4.32,4.22,6.48.47.76.91,1.53,1.36,2.29-.38-.44-.71-.8-.76-.85-1.7-1.55-5.88-3.54-8.11-2.26-1.61.92-1.86,3-.83,4.45,1.06,1.48,3.23,2.01,4.94,2.05,1.66.04,4.73-1.15,5.77-1.58Z"/><path class="cls-8" d="m45.2,413.17c1.93.58,6.39-.05,6.4-.05.05,0-1.31-2.82-1.42-2.99-1.23-1.94-4.74-4.96-7.23-4.32-1.79.46-2.59,2.41-1.97,4.07.63,1.7,2.58,2.79,4.22,3.29Z"/><path class="cls-8" d="m90.63,408.77s.46-3.07.46-3.27c.05-2.29-1.21-6.75-3.64-7.59-1.75-.6-3.49.58-3.89,2.31-.41,1.77.61,3.75,1.71,5.07,1.29,1.55,5.36,3.48,5.36,3.49Z"/><path class="cls-8" d="m68.34,447.82c.43.8.86,1.59,1.24,2.39.25.55.52,1.06.74,1.62.23.55.45,1.1.68,1.64.39,1.06.8,2.15,1.16,3.19.25.72.48,1.42.71,2.12-.46-.76-1.4-2.24-1.49-2.35-1.44-1.79-5.28-4.39-7.68-3.46-1.73.67-2.3,2.69-1.49,4.27.82,1.62,2.88,2.47,4.57,2.78,1.86.33,5.77-.64,6.25-.76.38,1.16.74,2.29,1.06,3.36.57,1.9,1.06,3.65,1.47,5.19h1.71c-.47-1.66-1.04-3.56-1.72-5.65-.38-1.18-.81-2.43-1.26-3.71.28-.15,1.9-1.04,3.29-2.06,1.47,1.26,5.02,2.52,5.48,2.68-.32,1.17-.65,2.31-.97,3.38-.6,1.99-1.18,3.78-1.71,5.35h1.72c.46-1.47.95-3.11,1.45-4.93.33-1.19.66-2.47.99-3.79.49.04,4.51.37,6.3-.26,1.62-.57,3.51-1.75,4.06-3.48.54-1.69-.35-3.6-2.16-3.98-2.52-.53-5.88,2.66-7.02,4.66-.07.12-.65,1.48-1.01,2.34.13-.54.26-1.06.39-1.62.26-1.1.49-2.2.74-3.39.1-.58.2-1.16.3-1.75.11-.58.16-1.21.24-1.82.16-1.42.26-2.87.33-4.33.96.23,4.39.98,6.08.66,1.68-.32,3.74-1.2,4.54-2.82.79-1.59.2-3.61-1.54-4.26-2.41-.9-6.22,1.74-7.64,3.54-.09.11-.97,1.52-1.43,2.3.03-.88.07-1.75.07-2.64.01-2.57-.05-5.17-.11-7.76-.02-.79-.02-1.59-.04-2.38.34.08,4.4,1.07,6.29.71,1.68-.32,3.74-1.2,4.54-2.82.79-1.59.2-3.61-1.54-4.26-2.41-.9-6.22,1.74-7.64,3.54-.11.14-1.37,2.16-1.66,2.69-.02-1.75-.03-3.49.03-5.2.08-2.37.3-4.68.67-6.91.16.04,4.39,1.09,6.33.72,1.68-.32,3.74-1.2,4.54-2.82.79-1.59.2-3.61-1.54-4.26-2.41-.9-6.22,1.74-7.64,3.54-.09.12-1.05,1.66-1.49,2.4-.08-.03-.06-.02-.14-.05.43-2.38,1.14-4.64,1.92-6.72.45-1.2.94-2.33,1.44-3.42.77.28,4.29,1.5,6.07,1.36,1.71-.13,3.85-.78,4.83-2.31.96-1.5.59-3.57-1.06-4.4-2.29-1.16-6.37,1.05-7.98,2.68-.09.09-.88,1.09-1.45,1.83.24-.49.47-.99.7-1.45.88-1.73,1.79-3.27,2.6-4.62.47-.77.91-1.45,1.33-2.08.89-.12,4.49-.66,5.98-1.59,1.45-.91,3.06-2.47,3.22-4.27.16-1.77-1.12-3.44-2.97-3.42-2.57.03-5.17,3.86-5.85,6.06-.06.19-.64,3.26-.59,3.25,0,0,.04,0,.05,0-.42.6-.85,1.25-1.32,1.97-.85,1.34-1.79,2.86-2.71,4.58-.92,1.72-1.87,3.61-2.7,5.7-.83,2.09-1.59,4.33-2.08,6.74,0,.03,0,.06-.01.08-.08-.75-.36-2.84-.4-2.99-.56-2.23-2.95-6.19-5.52-6.36-1.85-.12-3.21,1.48-3.15,3.25.07,1.81,1.58,3.46,2.99,4.44,1.58,1.11,5.7,1.87,6.03,1.93-.45,2.3-.71,4.69-.85,7.13-.08,1.39-.12,2.8-.14,4.21-.09-.65-.17-1.22-.19-1.3-.56-2.23-2.95-6.19-5.52-6.36-1.85-.12-3.21,1.48-3.15,3.25.07,1.81,1.58,3.46,2.99,4.44,1.42,1,4.93,1.72,5.85,1.9,0,.54-.01,1.08-.01,1.62,0,2.6,0,5.19-.06,7.73-.02.9-.08,1.78-.13,2.66-.08-.57-.15-1.06-.17-1.13-.56-2.23-2.95-6.19-5.52-6.36-1.85-.12-3.21,1.48-3.15,3.25.07,1.81,1.58,3.46,2.99,4.44,1.36.95,4.58,1.65,5.69,1.87-.08.9-.16,1.81-.28,2.68-.1.59-.15,1.17-.27,1.76-.12.59-.23,1.17-.34,1.74-.26,1.1-.52,2.24-.8,3.3-.19.74-.38,1.45-.57,2.16.03-.89.06-2.64.05-2.79-.14-1.52-.98-3.91-2.25-5.52-.02-.22-.06-.45-.12-.66-.49-1.71-2.28-2.81-4-2.12-2.39.95-3.44,5.46-3.28,7.75,0,.14.27,1.59.45,2.5-.19-.52-.36-1.03-.56-1.57-.39-1.06-.81-2.11-1.25-3.23-.23-.54-.47-1.08-.71-1.63-.23-.55-.53-1.1-.8-1.65-.65-1.28-1.36-2.54-2.11-3.79.93-.34,4.2-1.6,5.44-2.81,1.23-1.2,2.46-3.06,2.23-4.86-.22-1.76-1.82-3.12-3.63-2.7-2.5.58-4.23,4.88-4.42,7.17-.01.14.03,1.8.07,2.71-.46-.75-.91-1.5-1.4-2.25-1.41-2.15-2.89-4.28-4.37-6.41-.45-.65-.9-1.31-1.34-1.96.33-.12,4.26-1.54,5.64-2.88,1.23-1.2,2.46-3.06,2.23-4.86-.22-1.76-1.82-3.12-3.63-2.7-2.5.58-4.23,4.88-4.42,7.17-.01.17.05,2.56.1,3.16-.98-1.44-1.95-2.89-2.84-4.36-1.24-2.02-2.34-4.07-3.26-6.14.15-.05,4.26-1.51,5.67-2.89,1.23-1.2,2.46-3.06,2.23-4.86-.22-1.76-1.83-3.12-3.63-2.7-2.5.58-4.23,4.88-4.42,7.17-.01.15.04,1.97.08,2.83-.08.02-.06.01-.14.03-.96-2.23-1.61-4.5-2.11-6.66-.29-1.25-.5-2.46-.68-3.65.79-.19,4.4-1.12,5.81-2.22,1.35-1.05,2.78-2.77,2.75-4.59-.03-1.78-1.47-3.3-3.31-3.09-2.55.3-4.74,4.39-5.18,6.64-.02.12-.13,1.39-.2,2.32-.07-.54-.16-1.09-.22-1.6-.23-1.93-.31-3.71-.38-5.29-.03-.9-.04-1.71-.04-2.47.68-.6,3.38-3.03,4.11-4.63.71-1.56,1.19-3.74.33-5.34-.84-1.56-2.83-2.25-4.36-1.21-2.13,1.44-2.18,6.08-1.54,8.28.06.19,1.27,3.07,1.3,3.04,0,0,.03-.03.04-.04-.01.73-.02,1.52-.01,2.37.03,1.58.08,3.37.27,5.31.18,1.94.43,4.05.89,6.24.46,2.2,1.06,4.49,1.98,6.77.01.03.02.05.03.08-.48-.58-1.86-2.17-1.98-2.28-1.7-1.55-5.88-3.54-8.11-2.26-1.61.92-1.86,3-.83,4.45,1.06,1.48,3.23,2.01,4.94,2.05,1.93.05,5.79-1.58,6.1-1.71.9,2.16,1.99,4.31,3.22,6.42.7,1.21,1.45,2.4,2.21,3.59-.43-.49-.81-.93-.88-.98-1.7-1.55-5.88-3.54-8.11-2.26-1.61.92-1.86,3-.83,4.45,1.06,1.48,3.23,2.01,4.94,2.05,1.74.05,5.06-1.28,5.93-1.64.3.45.59.91.89,1.36,1.43,2.17,2.87,4.32,4.22,6.48.47.76.91,1.53,1.36,2.29-.38-.44-.71-.8-.76-.85-1.7-1.55-5.88-3.54-8.11-2.26-1.61.92-1.86,3-.83,4.45,1.06,1.48,3.23,2.01,4.94,2.05,1.66.04,4.73-1.15,5.77-1.58Z"/></g><g id="Plant_1"><g class="cls-10"><path d="m316.3,179.93c.21.1,2.25-14.99,2.27-15.96.22-11.19-5.92-32.94-17.77-37.02-8.53-2.94-17,2.82-18.98,11.26-2.02,8.61,2.99,18.29,8.33,24.72,6.27,7.55,26.14,16.99,26.16,17Z"/><path d="m94.8,201.39c9.39,2.84,31.18-.25,31.19-.25.23-.03-6.39-13.74-6.91-14.56-5.99-9.45-23.11-24.21-35.24-21.07-8.74,2.26-12.62,11.74-9.62,19.86,3.06,8.3,12.58,13.6,20.58,16.02Z"/><path d="m207.64,370.37c2.09,3.89,4.2,7.78,6.05,11.64,1.21,2.67,2.55,5.15,3.62,7.89,1.11,2.69,2.21,5.36,3.3,8,1.91,5.17,3.91,10.48,5.64,15.57,1.23,3.53,2.34,6.91,3.47,10.32-2.26-3.72-6.84-10.9-7.29-11.46-7.03-8.71-25.74-21.39-37.43-16.88-8.42,3.25-11.19,13.11-7.28,20.84,4,7.89,14.06,12.07,22.29,13.55,9.06,1.63,28.11-3.11,30.49-3.72,1.85,5.64,3.59,11.15,5.15,16.37,2.8,9.27,5.16,17.77,7.15,25.32h8.32c-2.3-8.09-5.07-17.35-8.38-27.53-1.85-5.74-3.95-11.83-6.16-18.07,1.38-.75,9.24-5.07,16.07-10.02,7.19,6.14,24.47,12.27,26.7,13.05-1.57,5.73-3.16,11.28-4.74,16.5-2.91,9.71-5.75,18.45-8.35,26.08h8.4c2.24-7.17,4.64-15.18,7.08-24.02,1.62-5.81,3.24-12.04,4.84-18.47,2.4.21,22.02,1.82,30.7-1.25,7.88-2.79,17.14-8.54,19.81-16.97,2.62-8.26-1.71-17.54-10.55-19.39-12.27-2.56-28.68,12.98-34.21,22.7-.33.57-3.17,7.19-4.9,11.4.64-2.63,1.29-5.17,1.91-7.88,1.27-5.35,2.39-10.74,3.6-16.52.49-2.81.98-5.66,1.48-8.53.56-2.84.78-5.9,1.19-8.88.8-6.93,1.28-13.98,1.6-21.11,4.69,1.1,21.41,4.78,29.66,3.21,8.21-1.57,18.23-5.84,22.15-13.77,3.84-7.77.97-17.6-7.49-20.76-11.74-4.39-30.31,8.48-37.26,17.26-.43.55-4.71,7.4-6.98,11.22.16-4.28.34-8.56.36-12.89.07-12.52-.26-25.2-.53-37.84-.09-3.87-.12-7.73-.17-11.6,1.66.41,21.44,5.21,30.68,3.45,8.21-1.56,18.23-5.84,22.15-13.77,3.84-7.77.97-17.6-7.49-20.76-11.74-4.39-30.32,8.48-37.26,17.26-.52.66-6.66,10.54-8.1,13.12-.11-8.51-.14-16.99.17-25.36.41-11.54,1.45-22.84,3.27-33.72.78.19,21.39,5.3,30.86,3.49,8.21-1.57,18.23-5.84,22.15-13.78,3.84-7.76.97-17.6-7.49-20.76-11.74-4.39-30.31,8.48-37.26,17.26-.46.58-5.14,8.09-7.28,11.72-.37-.14-.3-.11-.67-.25,2.09-11.62,5.57-22.62,9.34-32.76,2.17-5.87,4.58-11.37,7.04-16.66,3.74,1.34,20.92,7.3,29.61,6.61,8.33-.65,18.76-3.8,23.53-11.26,4.67-7.3,2.9-17.39-5.16-21.46-11.19-5.65-31.06,5.1-38.93,13.06-.43.43-4.29,5.31-7.05,8.91,1.15-2.37,2.29-4.84,3.43-7.09,4.27-8.46,8.71-15.94,12.69-22.53,2.3-3.73,4.44-7.06,6.48-10.15,4.36-.6,21.91-3.23,29.18-7.75,7.09-4.42,14.9-12.02,15.7-20.83.78-8.63-5.44-16.77-14.47-16.67-12.53.14-25.22,18.84-28.53,29.53-.28.92-3.1,15.88-2.88,15.86,0,0,.21-.03.26-.04-2.03,2.94-4.16,6.11-6.43,9.62-4.13,6.52-8.74,13.93-13.22,22.33-4.49,8.38-9.14,17.61-13.15,27.78-4.04,10.18-7.77,21.1-10.15,32.85-.03.13-.04.28-.06.41-.37-3.65-1.74-13.83-1.94-14.6-2.74-10.85-14.41-30.21-26.91-31.01-9.01-.58-15.65,7.21-15.34,15.87.32,8.84,7.71,16.85,14.56,21.64,7.72,5.41,27.82,9.14,29.42,9.43-2.17,11.21-3.49,22.89-4.17,34.78-.4,6.8-.59,13.66-.69,20.54-.42-3.15-.82-5.96-.92-6.35-2.74-10.85-14.41-30.2-26.91-31.01-9.01-.58-15.66,7.21-15.34,15.87.32,8.84,7.71,16.85,14.56,21.64,6.95,4.86,24.02,8.39,28.55,9.27-.01,2.64-.05,5.28-.05,7.92,0,12.67.04,25.31-.29,37.7-.12,4.37-.39,8.67-.65,12.97-.38-2.8-.72-5.15-.81-5.5-2.74-10.85-14.41-30.21-26.91-31.01-9.01-.58-15.65,7.21-15.34,15.87.32,8.84,7.72,16.85,14.56,21.64,6.63,4.64,22.36,8.04,27.73,9.1-.4,4.4-.79,8.8-1.37,13.05-.47,2.89-.71,5.7-1.34,8.58-.56,2.86-1.12,5.69-1.67,8.49-1.26,5.36-2.52,10.9-3.88,16.1-.92,3.62-1.86,7.06-2.8,10.52.17-4.35.31-12.87.24-13.58-.71-7.4-4.76-19.09-10.97-26.91-.1-1.09-.29-2.17-.59-3.23-2.37-8.33-11.1-13.69-19.49-10.35-11.65,4.63-16.76,26.65-16.01,37.81.04.66,1.32,7.75,2.2,12.21-.92-2.54-1.78-5.02-2.75-7.63-1.89-5.17-3.93-10.27-6.11-15.77-1.14-2.62-2.3-5.26-3.47-7.93-1.1-2.67-2.6-5.36-3.9-8.07-3.15-6.22-6.65-12.37-10.31-18.49,4.52-1.67,20.49-7.83,26.5-13.69,5.98-5.83,11.98-14.93,10.88-23.71-1.08-8.59-8.9-15.21-17.7-13.19-12.21,2.82-20.61,23.8-21.56,34.95-.06.7.16,8.77.36,13.21-2.23-3.66-4.43-7.33-6.81-10.95-6.85-10.48-14.12-20.87-21.32-31.27-2.21-3.19-4.37-6.38-6.54-9.58,1.62-.58,20.76-7.49,27.49-14.05,5.98-5.84,11.99-14.93,10.88-23.71-1.08-8.59-8.9-15.21-17.7-13.19-12.21,2.81-20.6,23.8-21.56,34.95-.07.84.26,12.46.49,15.41-4.79-7.04-9.5-14.09-13.85-21.24-6.03-9.85-11.39-19.85-15.88-29.92.75-.27,20.77-7.39,27.66-14.11,5.98-5.83,11.98-14.93,10.88-23.71-1.08-8.59-8.9-15.21-17.7-13.19-12.21,2.81-20.61,23.8-21.56,34.95-.06.73.18,9.59.39,13.8-.38.09-.31.07-.7.16-4.67-10.85-7.83-21.95-10.28-32.48-1.43-6.1-2.45-12.01-3.32-17.78,3.86-.94,21.47-5.45,28.35-10.82,6.59-5.14,13.55-13.53,13.42-22.37-.14-8.66-7.18-16.1-16.14-15.05-12.45,1.46-23.09,21.39-25.26,32.37-.12.6-.65,6.8-.97,11.32-.35-2.61-.76-5.3-1.05-7.81-1.1-9.41-1.53-18.1-1.85-25.8-.15-4.38-.19-8.34-.19-12.05,3.31-2.9,16.49-14.78,20.06-22.56,3.48-7.6,5.8-18.25,1.6-26.04-4.11-7.62-13.79-10.98-21.26-5.92-10.37,7.03-10.64,29.63-7.5,40.37.27.93,6.17,14.96,6.35,14.81,0,0,.16-.14.2-.18-.07,3.57-.1,7.39-.05,11.57.15,7.72.39,16.44,1.29,25.91.88,9.47,2.09,19.73,4.36,30.42,2.25,10.72,5.16,21.89,9.65,33,.05.12.12.25.17.37-2.32-2.84-9.08-10.57-9.67-11.11-8.27-7.54-28.68-17.24-39.56-11.02-7.84,4.49-9.08,14.65-4.04,21.7,5.15,7.19,15.73,9.8,24.08,10.02,9.42.25,28.24-7.72,29.74-8.36,4.37,10.55,9.72,21.01,15.71,31.31,3.42,5.89,7.05,11.72,10.76,17.51-2.09-2.39-3.97-4.52-4.27-4.79-8.27-7.54-28.68-17.24-39.56-11.02-7.84,4.48-9.08,14.65-4.04,21.7,5.15,7.2,15.73,9.8,24.08,10.02,8.48.22,24.66-6.25,28.92-8.02,1.45,2.21,2.87,4.43,4.32,6.63,6.98,10.57,14,21.08,20.55,31.61,2.32,3.71,4.46,7.44,6.62,11.17-1.86-2.12-3.44-3.9-3.71-4.14-8.27-7.54-28.68-17.25-39.56-11.02-7.84,4.49-9.08,14.65-4.04,21.7,5.15,7.19,15.73,9.8,24.08,10.02,8.09.21,23.08-5.63,28.15-7.71Z"/><path class="cls-11" d="m94.8,201.39c9.39,2.84,31.18-.25,31.19-.25.23-.03-6.39-13.74-6.91-14.56-5.99-9.45-23.11-24.21-35.24-21.07-8.74,2.26-12.62,11.74-9.62,19.86,3.06,8.3,12.58,13.6,20.58,16.02Z"/><path class="cls-11" d="m316.3,179.93c.21.1,2.25-14.99,2.27-15.96.22-11.19-5.92-32.94-17.77-37.02-8.53-2.94-17,2.82-18.98,11.26-2.02,8.61,2.99,18.29,8.33,24.72,6.27,7.55,26.14,16.99,26.16,17Z"/><path class="cls-11" d="m207.64,370.37c2.09,3.89,4.2,7.78,6.05,11.64,1.21,2.67,2.55,5.15,3.62,7.89,1.11,2.69,2.21,5.36,3.3,8,1.91,5.17,3.91,10.48,5.64,15.57,1.23,3.53,2.34,6.91,3.47,10.32-2.26-3.72-6.84-10.9-7.29-11.46-7.03-8.71-25.74-21.39-37.43-16.88-8.42,3.25-11.19,13.11-7.28,20.84,4,7.89,14.06,12.07,22.29,13.55,9.06,1.63,28.11-3.11,30.49-3.72,1.85,5.64,3.59,11.15,5.15,16.37,2.8,9.27,5.16,17.77,7.15,25.32h8.32c-2.3-8.09-5.07-17.35-8.38-27.53-1.85-5.74-3.95-11.83-6.16-18.07,1.38-.75,9.24-5.07,16.07-10.02,7.19,6.14,24.47,12.27,26.7,13.05-1.57,5.73-3.16,11.28-4.74,16.5-2.91,9.71-5.75,18.45-8.35,26.08h8.4c2.24-7.17,4.64-15.18,7.08-24.02,1.62-5.81,3.24-12.04,4.84-18.47,2.4.21,22.02,1.82,30.7-1.25,7.88-2.79,17.14-8.54,19.81-16.97,2.62-8.26-1.71-17.54-10.55-19.39-12.27-2.56-28.68,12.98-34.21,22.7-.33.57-3.17,7.19-4.9,11.4.64-2.63,1.29-5.17,1.91-7.88,1.27-5.35,2.39-10.74,3.6-16.52.49-2.81.98-5.66,1.48-8.53.56-2.84.78-5.9,1.19-8.88.8-6.93,1.28-13.98,1.6-21.11,4.69,1.1,21.41,4.78,29.66,3.21,8.21-1.57,18.23-5.84,22.15-13.77,3.84-7.77.97-17.6-7.49-20.76-11.74-4.39-30.31,8.48-37.26,17.26-.43.55-4.71,7.4-6.98,11.22.16-4.28.34-8.56.36-12.89.07-12.52-.26-25.2-.53-37.84-.09-3.87-.12-7.73-.17-11.6,1.66.41,21.44,5.21,30.68,3.45,8.21-1.56,18.23-5.84,22.15-13.77,3.84-7.77.97-17.6-7.49-20.76-11.74-4.39-30.32,8.48-37.26,17.26-.52.66-6.66,10.54-8.1,13.12-.11-8.51-.14-16.99.17-25.36.41-11.54,1.45-22.84,3.27-33.72.78.19,21.39,5.3,30.86,3.49,8.21-1.57,18.23-5.84,22.15-13.78,3.84-7.76.97-17.6-7.49-20.76-11.74-4.39-30.31,8.48-37.26,17.26-.46.58-5.14,8.09-7.28,11.72-.37-.14-.3-.11-.67-.25,2.09-11.62,5.57-22.62,9.34-32.76,2.17-5.87,4.58-11.37,7.04-16.66,3.74,1.34,20.92,7.3,29.61,6.61,8.33-.65,18.76-3.8,23.53-11.26,4.67-7.3,2.9-17.39-5.16-21.46-11.19-5.65-31.06,5.1-38.93,13.06-.43.43-4.29,5.31-7.05,8.91,1.15-2.37,2.29-4.84,3.43-7.09,4.27-8.46,8.71-15.94,12.69-22.53,2.3-3.73,4.44-7.06,6.48-10.15,4.36-.6,21.91-3.23,29.18-7.75,7.09-4.42,14.9-12.02,15.7-20.83.78-8.63-5.44-16.77-14.47-16.67-12.53.14-25.22,18.84-28.53,29.53-.28.92-3.1,15.88-2.88,15.86,0,0,.21-.03.26-.04-2.03,2.94-4.16,6.11-6.43,9.62-4.13,6.52-8.74,13.93-13.22,22.33-4.49,8.38-9.14,17.61-13.15,27.78-4.04,10.18-7.77,21.1-10.15,32.85-.03.13-.04.28-.06.41-.37-3.65-1.74-13.83-1.94-14.6-2.74-10.85-14.41-30.21-26.91-31.01-9.01-.58-15.65,7.21-15.34,15.87.32,8.84,7.71,16.85,14.56,21.64,7.72,5.41,27.82,9.14,29.42,9.43-2.17,11.21-3.49,22.89-4.17,34.78-.4,6.8-.59,13.66-.69,20.54-.42-3.15-.82-5.96-.92-6.35-2.74-10.85-14.41-30.2-26.91-31.01-9.01-.58-15.66,7.21-15.34,15.87.32,8.84,7.71,16.85,14.56,21.64,6.95,4.86,24.02,8.39,28.55,9.27-.01,2.64-.05,5.28-.05,7.92,0,12.67.04,25.31-.29,37.7-.12,4.37-.39,8.67-.65,12.97-.38-2.8-.72-5.15-.81-5.5-2.74-10.85-14.41-30.21-26.91-31.01-9.01-.58-15.65,7.21-15.34,15.87.32,8.84,7.72,16.85,14.56,21.64,6.63,4.64,22.36,8.04,27.73,9.1-.4,4.4-.79,8.8-1.37,13.05-.47,2.89-.71,5.7-1.34,8.58-.56,2.86-1.12,5.69-1.67,8.49-1.26,5.36-2.52,10.9-3.88,16.1-.92,3.62-1.86,7.06-2.8,10.52.17-4.35.31-12.87.24-13.58-.71-7.4-4.76-19.09-10.97-26.91-.1-1.09-.29-2.17-.59-3.23-2.37-8.33-11.1-13.69-19.49-10.35-11.65,4.63-16.76,26.65-16.01,37.81.04.66,1.32,7.75,2.2,12.21-.92-2.54-1.78-5.02-2.75-7.63-1.89-5.17-3.93-10.27-6.11-15.77-1.14-2.62-2.3-5.26-3.47-7.93-1.1-2.67-2.6-5.36-3.9-8.07-3.15-6.22-6.65-12.37-10.31-18.49,4.52-1.67,20.49-7.83,26.5-13.69,5.98-5.83,11.98-14.93,10.88-23.71-1.08-8.59-8.9-15.21-17.7-13.19-12.21,2.82-20.61,23.8-21.56,34.95-.06.7.16,8.77.36,13.21-2.23-3.66-4.43-7.33-6.81-10.95-6.85-10.48-14.12-20.87-21.32-31.27-2.21-3.19-4.37-6.38-6.54-9.58,1.62-.58,20.76-7.49,27.49-14.05,5.98-5.84,11.99-14.93,10.88-23.71-1.08-8.59-8.9-15.21-17.7-13.19-12.21,2.81-20.6,23.8-21.56,34.95-.07.84.26,12.46.49,15.41-4.79-7.04-9.5-14.09-13.85-21.24-6.03-9.85-11.39-19.85-15.88-29.92.75-.27,20.77-7.39,27.66-14.11,5.98-5.83,11.98-14.93,10.88-23.71-1.08-8.59-8.9-15.21-17.7-13.19-12.21,2.81-20.61,23.8-21.56,34.95-.06.73.18,9.59.39,13.8-.38.09-.31.07-.7.16-4.67-10.85-7.83-21.95-10.28-32.48-1.43-6.1-2.45-12.01-3.32-17.78,3.86-.94,21.47-5.45,28.35-10.82,6.59-5.14,13.55-13.53,13.42-22.37-.14-8.66-7.18-16.1-16.14-15.05-12.45,1.46-23.09,21.39-25.26,32.37-.12.6-.65,6.8-.97,11.32-.35-2.61-.76-5.3-1.05-7.81-1.1-9.41-1.53-18.1-1.85-25.8-.15-4.38-.19-8.34-.19-12.05,3.31-2.9,16.49-14.78,20.06-22.56,3.48-7.6,5.8-18.25,1.6-26.04-4.11-7.62-13.79-10.98-21.26-5.92-10.37,7.03-10.64,29.63-7.5,40.37.27.93,6.17,14.96,6.35,14.81,0,0,.16-.14.2-.18-.07,3.57-.1,7.39-.05,11.57.15,7.72.39,16.44,1.29,25.91.88,9.47,2.09,19.73,4.36,30.42,2.25,10.72,5.16,21.89,9.65,33,.05.12.12.25.17.37-2.32-2.84-9.08-10.57-9.67-11.11-8.27-7.54-28.68-17.24-39.56-11.02-7.84,4.49-9.08,14.65-4.04,21.7,5.15,7.19,15.73,9.8,24.08,10.02,9.42.25,28.24-7.72,29.74-8.36,4.37,10.55,9.72,21.01,15.71,31.31,3.42,5.89,7.05,11.72,10.76,17.51-2.09-2.39-3.97-4.52-4.27-4.79-8.27-7.54-28.68-17.24-39.56-11.02-7.84,4.48-9.08,14.65-4.04,21.7,5.15,7.2,15.73,9.8,24.08,10.02,8.48.22,24.66-6.25,28.92-8.02,1.45,2.21,2.87,4.43,4.32,6.63,6.98,10.57,14,21.08,20.55,31.61,2.32,3.71,4.46,7.44,6.62,11.17-1.86-2.12-3.44-3.9-3.71-4.14-8.27-7.54-28.68-17.25-39.56-11.02-7.84,4.49-9.08,14.65-4.04,21.7,5.15,7.19,15.73,9.8,24.08,10.02,8.09.21,23.08-5.63,28.15-7.71Z"/></g></g><g id="Clouds"><path class="cls-5" d="m105.43,38.66s-4.92-12.65-22.49-14.06c-17.57-1.41-19.68,17.57-23.2,20.38-3.51,2.81-10.54-4.92-17.57-2.11-7.03,2.81-9.84,9.14-9.84,9.14,0,0-6.33-2.81-10.54-2.11-4.22.7-9.14,7.03-9.14,7.03h118.79s0-11.95-8.43-16.17c-8.43-4.22-11.95,4.92-14.06,4.22s-3.51-6.33-3.51-6.33Z"/><path class="cls-5" d="m446.13,131.92s-4.19-10.76-19.13-11.96c-14.95-1.2-16.74,14.95-19.73,17.34-2.99,2.39-8.97-4.19-14.95-1.79-5.98,2.39-8.37,7.77-8.37,7.77,0,0-5.38-2.39-8.97-1.79-3.59.6-7.77,5.98-7.77,5.98h101.05s0-10.16-7.17-13.75c-7.17-3.59-10.16,4.19-11.96,3.59-1.79-.6-2.99-5.38-2.99-5.38Z"/><path class="cls-5" d="m113.29,329.43s-5.9-15.16-26.95-16.84c-21.05-1.68-23.58,21.05-27.79,24.42s-12.63-5.9-21.05-2.53c-8.42,3.37-11.79,10.95-11.79,10.95,0,0-7.58-3.37-12.63-2.53-5.05.84-10.95,8.42-10.95,8.42h142.33s0-14.32-10.11-19.37c-10.11-5.05-14.32,5.9-16.84,5.05-2.53-.84-4.21-7.58-4.21-7.58Z"/></g><g id="Icon_3"><circle class="cls-5" cx="418.92" cy="237.13" r="47.26"/><ellipse class="cls-5" cx="418.92" cy="237.13" rx="27.17" ry="47.26"/><line class="cls-5" x1="418.92" y1="189.87" x2="418.92" y2="284.39"/><line class="cls-5" x1="391.19" y1="199.06" x2="446.38" y2="199.06"/><line class="cls-5" x1="391.19" y1="275.77" x2="446.38" y2="275.77"/><line class="cls-5" x1="375.28" y1="217.93" x2="462.28" y2="217.93"/><line class="cls-5" x1="375.28" y1="255.65" x2="462.28" y2="255.65"/><line class="cls-5" x1="371.85" y1="236.79" x2="465.71" y2="236.79"/></g><g id="Icon_2"><rect class="cls-5" x="291.51" y="26.83" width="124.64" height="26.24" rx="6.97" ry="6.97"/><line class="cls-5" x1="385.76" y1="26.74" x2="385.76" y2="53.58"/><path class="cls-5" d="m413.27,47.48l-7.16-5.37c.6-1.16.94-2.48.94-3.87,0-4.7-3.83-8.53-8.53-8.53s-8.53,3.83-8.53,8.53,3.83,8.53,8.53,8.53c2.23,0,4.25-.87,5.77-2.27l7.17,5.38c.27.2.59.3.9.3.46,0,.91-.21,1.2-.6.5-.66.36-1.6-.3-2.1Zm-14.75-3.71c-3.05,0-5.53-2.48-5.53-5.53s2.48-5.53,5.53-5.53,5.53,2.48,5.53,5.53-2.48,5.53-5.53,5.53Z"/></g><g id="Icon_1"><path class="cls-5" d="m92.57,149.18l-28.3-21.23c2.36-4.6,3.71-9.8,3.71-15.31,0-18.6-15.14-33.74-33.74-33.74S.5,94.03.5,112.64s15.14,33.74,33.74,33.74c8.81,0,16.83-3.43,22.84-8.98l28.37,21.28c1.07.8,2.32,1.19,3.56,1.19,1.8,0,3.59-.82,4.75-2.37,1.97-2.62,1.43-6.34-1.19-8.31Zm-58.33-14.67c-12.06,0-21.87-9.81-21.87-21.87s9.81-21.87,21.87-21.87,21.87,9.81,21.87,21.87-9.81,21.87-21.87,21.87Z"/></g><g id="Question_Mark"><path class="cls-2" d="m232.53,182.59c-54.15,0-100.1,30.67-116.36,73.22-.3.79-.04,1.7.63,2.22l45.53,35.01c.34.26.75.4,1.17.4h7.3c1.1,0,1.97-.92,1.92-2.02-.02-.54-.04-1.08-.04-1.62,0-28.88,26.79-52.29,59.83-52.29s59.83,23.41,59.83,52.29-26.79,52.29-59.83,52.29c-5.22,0-10.27-.59-15.09-1.69-.46-.1-.93-.16-1.4-.16h0c-4.49,0-7.6,4.49-6.01,8.69l6.65,17.62v40.38h73.09v-16.69c0-3.33,1.83-6.43,4.8-7.95,36.27-18.62,60.62-53.07,60.62-92.49,0-59.2-54.91-107.2-122.65-107.2Z"/><rect class="cls-2" x="216.68" y="414.83" width="73.09" height="52.98"/><path class="cls-3" d="m345.19,289.79c0-59.2-54.91-107.2-122.65-107.2-54.09,0-100,30.61-116.31,73.09-.33.85,0,1.82.78,2.31l52.74,33.46c1.28.81,2.96-.11,2.96-1.63v-.04c0-28.88,26.79-52.29,59.83-52.29s59.83,23.41,59.83,52.29-26.79,52.29-59.83,52.29c-2.89,0-5.73-.18-8.51-.53-3.86-.48-7.27,2.48-7.27,6.36v18.63h-.07v40.38h73.09v-16.69c0-3.33,1.83-6.43,4.8-7.95,36.27-18.62,60.62-53.07,60.62-92.49Z"/><rect class="cls-3" x="206.68" y="414.83" width="73.09" height="52.98"/></g><g id="Character"><path class="cls-1" d="m216.11,79.14s-7.22,3.16-10.47,4.69c-3.25,1.53-5.78,2.17-5.78,2.17l5.5,2.89,15.52-2.44-4.78-7.31Z"/><path class="cls-5" d="m193.1,82.48s-1.71-1.62-2.44-3.34c-.72-1.71-2.17-.9-2.17.36s.81,3.25,1.17,3.43c.36.18,4.15.81,4.15.81l-.72-1.26Z"/><path class="cls-2" d="m218.99,90.13l1.53,8.66s-3.01,17.19-3.58,27.08-1,16.33-.43,18.91,8.02,27.65,8.02,27.65c0,0-1.29,1.58-1.29,2.01s-.14,2.01-.14,2.01c0,0-2.01,2.01-3.58,3.15-1.58,1.15-4.87,2.15-4.3,3.3s4.44,0,8.74,0,7.31.57,8.88-.57.14-5.44.14-5.44c0,0,.14-3.01.29-3.87.14-.86-1.86-5.3-1.72-6.59.14-1.29-3.44-27.08-3.44-27.08l7.16-26.51s11.75,29.8,13.18,31.23c1.43,1.43,20.77,26.08,20.77,26.08,0,0-1.29,1.43-.86,2.15.43.72,1.15,1.58,1.15,1.58,0,0-1.43,3.01-2.29,4.3-.86,1.29-3.3,2.01-2.87,2.87.43.86,4.87,1,6.02.72,1.15-.29,5.73-5.3,7.02-6.3,1.29-1,3.73-2.87,3.73-4.15s-2.44-2.87-2.58-3.3c-.14-.43-.43-2.29-1.29-2.87-.86-.57-2.01-1.15-2.58-1.43-.57-.29-14.9-25.22-14.9-25.22,0,0-6.45-38.4-8.17-42.84-1.72-4.44-11.49-17.21-11.49-17.21l-21.13,11.7Z"/><path class="cls-3" d="m203.4,66.36s1.89,8.68,4.28,10.94c2.39,2.26,7.17,2.89,7.17,2.89l4.15,9.94s15.09-4.65,21.13-11.7c0,0-7.04-11.19-12.2-18.36-5.16-7.17-3.02-8.43-10.31-12.7-7.29-4.28-13.21,1.63-13.21,1.63,0,0-5.53.25-1.01,17.36Z"/><path class="cls-2" d="m194.49,24.61s-1.47-2.98-11.03-1.47c-9.56,1.51-12.07,9.18-12.45,12.2-.38,3.02-.04,2.86-.92,3.61s-5.03.25-4.28,4.65,5.91,1.89,6.67,3.4c.75,1.51,1.89,2.52,4.02,2.64,2.14.13,4.15-2.39,4.4-3.4.25-1.01,2.39-1.89,6.16.38,3.77,2.26,8.8,6.29,14.09,1.89s-1.64-20-6.67-23.9Z"/><path class="cls-1" d="m174.73,43.37s.79,2.6,1.58,3.96c.79,1.36,3.74,2.6,3.85,4.64s-.57,3.4,0,3.74c.57.34,3.28-.45,3.28-.45,0,0,6,3.96,7.47,3.4,1.47-.57,4.3-4.53,4.3-4.53l6.42,4.56,1.76,7.67,2.26-3.65s-4.28-5.16-2.77-9.43l1.51-4.28s-9.64-1.33-10.89-2.91-3.51-5.55-5.55-6.11-2.83,2.26-2.6,2.94c.23.68-3.4.57-5.66-.34-2.26-.91-1.7-.68-2.26-.91s-2.72.68-2.72,1.7Z"/><path class="cls-5" d="m179.03,48.02s-.11-2.04,1.58-2.26"/><path class="cls-7" d="m182.14,48.7c.56.46.78,1.1.5,1.44-.28.34-.95.24-1.51-.21-.56-.46-.78-1.1-.5-1.44.28-.34.95-.24,1.51.21Z"/><path class="cls-5" d="m186.39,55.37s.68-.45.11-2.26"/><path class="cls-1" d="m191.14,42.69s1.58,1.7,1.02,2.6c-.57.91-1.13,1.25-1.13,1.25,0,0,1.47,1.47,1.58,2.38"/><path class="cls-2" d="m186.36,38.2s5.59,3.65,8.53,8.2c2.94,4.55,11.35,4.31,14.32,1.8,2.97-2.5,3.52-4.92,5.81-4.34,2.29.58,7.79,2.45,11.37-.18,3.59-2.63.89-7.87,4.54-6.91,3.65.95,8.04-.17,10.5-3.98,2.46-3.81,4.34-10.34-2.54-18.85-5.32-6.58-13.19-4.87-15.56-4.53-2.37.34-1.59-2.28-9.33-2.28s-11.77,6.82-12.29,8.71c-.53,1.9,1.64,3.19-4.55,1.07-6.18-2.12-9.21.23-9.1,3.41s-6.88,4.26-8.19,4.78"/><path class="cls-4" d="m257.76,103.74c-.29,0-.58-.03-.87-.1l-77.7-20.04c-1.37-.33-2.2-1.71-1.87-3.08.33-1.37,1.71-2.2,3.08-1.87l78.21,17.92c1.95.48,3.15,2.45,2.67,4.4-.41,1.66-1.89,2.77-3.53,2.77Z"/><path class="cls-1" d="m225.41,90.26l-2.39,1.76s-1.13,1.89-2.01,2.52c-.88.63-1.38,1.01-.5,1.38.88.38,3.02-.5,3.02-.5,0,0-.75,3.27-.13,3.52.63.25,2.01.38,2.39-.13s1.01-.75,1.01-.75c0,0,.38.5,2.64-.13,2.26-.63,2.39-4.53,2.64-6.29.25-1.76,10.31-23.9,10.94-26.79.63-2.89,0-4.65-.88-5.16s-26.03-8.3-29.05-8.55c-3.02-.25-6.29,4.02-4.53,8.18,1.76,4.15,8.8,5.53,10.69,5.79,1.89.25,12.95,1.63,12.95,1.63,0,0-2.26,11.45-2.77,15.6-.5,4.15-2.52,6.79-4.02,7.92Z"/><path class="cls-1" d="m189.22,84.37s-.45,3.25-.27,3.7c.18.45,1.62,1.26,1.99-.09.36-1.35.45-3.61-.18-3.97-.63-.36-.99-.54-1.53.36Z"/><path class="cls-1" d="m191.57,85.75s.21,3.27.48,3.68c.27.41,1.85.91,1.93-.49.08-1.4-.29-3.63-.98-3.85s-1.08-.33-1.43.66Z"/><path class="cls-1" d="m193.92,86.11s.21,3.27.48,3.68c.27.41,1.85.91,1.93-.49.08-1.4-.29-3.63-.98-3.85-.69-.23-1.08-.33-1.43.66Z"/><path class="cls-1" d="m196.49,86.6s.18,2.79.41,3.13c.23.35,1.57.77,1.64-.42.07-1.19-.24-3.09-.83-3.28-.59-.19-.92-.28-1.22.56Z"/><path class="cls-4" d="m182,84.59l.22-4.3-3-4.44c-1.96-5.45-14.65-10.09-23.67-12.3-9.02-2.21-19.7-.72-24.39,1.66-4.69,2.38-5.77,3.82-5.77,3.82l-.29,5.7c-1.28,6.47,10.4,14.24,26.1,17.35,15.7,3.11,29.46.38,30.74-6.09.09-.46.11-.93.07-1.4Zm-13.58.72c-9.21,1.37-17.62.36-24.94-2.84-5.53-2.41-10.82-6.26-13.07-7.99,1.95-4.51,12.74-6.22,25.01-3.79,11.62,2.3,20.58,7.53,21.58,12.25-1.5.77-4.09,1.7-8.57,2.37Z"/><path class="cls-1" d="m156.13,62.95c-15.7-3.11-29.46-.38-30.74,6.09s10.4,14.24,26.1,17.35c15.7,3.11,29.46.38,30.74-6.09,1.28-6.47-10.4-14.24-26.1-17.35Zm21.22,15.89c-1.01,5.08-12.32,7.12-25.27,4.55-12.95-2.56-22.63-8.76-21.62-13.84,1.01-5.08,12.32-7.12,25.27-4.55,12.95,2.56,22.63,8.76,21.62,13.84Z"/></g><g id="Floor"><line class="cls-5" x1="373.05" y1="467.81" x2="475.42" y2="467.81"/><line class="cls-5" x1="1.91" y1="467.81" x2="364.82" y2="467.81"/></g></svg>