<?xml version="1.0" encoding="UTF-8"?><svg id="Calque_2" width="745" height="486" xmlns="http://www.w3.org/2000/svg" viewBox="0 0 720.09 453.58"><defs><style>.cls-1,.cls-2,.cls-3{fill:#fff;}.cls-4{fill:#757575;}.cls-4,.cls-5,.cls-6,.cls-7,.cls-8,.cls-9,.cls-3,.cls-10,.cls-11,.cls-12,.cls-13,.cls-14,.cls-15,.cls-16,.cls-17,.cls-18,.cls-19,.cls-20,.cls-21,.cls-22{stroke:#263238;stroke-linejoin:round;}.cls-4,.cls-5,.cls-9,.cls-3,.cls-10,.cls-14,.cls-16,.cls-17,.cls-19,.cls-20{stroke-linecap:round;}.cls-5{fill:#b2b2b2;}.cls-23{fill:#d6d6d6;}.cls-6{stroke-dasharray:0 0 2.95 2.95;}.cls-6,.cls-7,.cls-8,.cls-11,.cls-12,.cls-13,.cls-14,.cls-15,.cls-16,.cls-21{fill:none;}.cls-6,.cls-7,.cls-8,.cls-11,.cls-12,.cls-13,.cls-14,.cls-15,.cls-21{stroke-width:2px;}.cls-2{opacity:.7;}.cls-24{opacity:.15;}.cls-7{stroke-dasharray:0 0 2.93 2.93;}.cls-9,.cls-25,.cls-18{fill:#92e3a9;}.cls-10{fill:#878787;}.cls-11{stroke-dasharray:0 0 3 3;}.cls-12{stroke-dasharray:0 0 2.97 2.97;}.cls-13{stroke-dasharray:0 0 3.03 3.03;}.cls-15{stroke-dasharray:0 0 3.01 3.01;}.cls-17{fill:#8c8c8c;}.cls-19,.cls-26,.cls-22{fill:#263238;}.cls-20{fill:#969696;}.cls-21{stroke-dasharray:0 0 3.06 3.06;}.cls-27{fill:#c4c4c4;}</style></defs><g id="Background_Simple"><path class="cls-25" d="m714.56,166.08s-16.4-88.14-133.64-142.58c-117.24-54.44-171.53-.27-230.48,22.33-58.94,22.6-90.92-8.51-189.31-23.2C62.75,7.94-22.52,153.98,5.36,268.04c27.88,114.07,89.37,154.68,223.83,180.6,134.46,25.92,213.99-59.62,309.1-44.07s208.25-71.72,176.28-238.5Z"/><path class="cls-2" d="m714.56,166.08s-16.4-88.14-133.64-142.58c-117.24-54.44-171.53-.27-230.48,22.33-58.94,22.6-90.92-8.51-189.31-23.2C62.75,7.94-22.52,153.98,5.36,268.04c27.88,114.07,89.37,154.68,223.83,180.6,134.46,25.92,213.99-59.62,309.1-44.07s208.25-71.72,176.28-238.5Z"/></g><g id="Plants"><path class="cls-26" d="m662.17,366.51c-.17-.07-.26-.26-.21-.45,4.9-15.03,17.51-26.61,32.9-30.21.19-.05.39.07.43.27.05.19-.07.39-.27.43-15.14,3.55-27.55,14.94-32.38,29.73-.06.19-.27.29-.45.23,0,0-.02,0-.03,0Z"/><path class="cls-26" d="m674.25,356.87c-3.4-2.81-8.78,1.85-8.7,2.02-.38.65-.75,1.32-1.1,2,.75-.69,3.21-1.08,6.46-.36,3.24.6,6.67-1.1,3.34-3.66Z"/><path class="cls-26" d="m664.07,349.21c-3.43-2.64-5.11,3.09-2.87,5.76,2.11,2.69,3.24,4.88,3.2,5.89.3-.7.62-1.39.96-2.08-.17-.02,1.87-6.95-1.29-9.57Z"/><path class="cls-26" d="m678.61,351.99c-2.88-3.33-8.92.3-8.87.47-.48.57-.95,1.16-1.4,1.76.85-.54,3.33-.49,6.39.79,3.08,1.16,6.73.08,3.87-3.01Z"/><path class="cls-26" d="m669.86,342.73c-2.94-3.17-5.52,2.15-3.76,5.14,1.63,2.99,2.39,5.33,2.18,6.3.41-.63.84-1.25,1.28-1.85-.16-.04,2.96-6.47.29-9.59Z"/><path class="cls-26" d="m683.7,347.93c-2.29-3.77-8.83-1.21-8.8-1.04-.57.48-1.12.97-1.66,1.48.92-.38,3.35.09,6.15,1.87,2.84,1.66,6.61,1.21,4.31-2.31Z"/><path class="cls-26" d="m676.63,337.34c-2.37-3.62-5.79,1.19-4.55,4.43,1.11,3.22,1.48,5.64,1.11,6.56.51-.55,1.03-1.08,1.56-1.6-.16-.06,3.98-5.87,1.87-9.39Z"/><path class="cls-26" d="m689.41,344.78c-1.63-4.09-8.52-2.66-8.51-2.49-.64.38-1.26.77-1.88,1.18.97-.22,3.28.65,5.75,2.87,2.52,2.11,6.32,2.3,4.64-1.56Z"/><path class="cls-26" d="m684.21,333.15c-1.73-3.97-5.93.21-5.24,3.61.56,3.36.51,5.81,0,6.65.59-.45,1.19-.89,1.8-1.32-.15-.09,4.91-5.12,3.43-8.95Z"/><path class="cls-26" d="m695.62,342.61c-.92-4.31-8.01-4.04-8.02-3.87-.7.27-1.38.55-2.06.86.99-.06,3.14,1.19,5.2,3.79,2.13,2.5,5.88,3.31,4.88-.77Z"/><path class="cls-26" d="m692.46,330.27c-1.04-4.2-5.93-.78-5.82,2.7-.02,3.41-.48,5.82-1.13,6.57.66-.35,1.33-.68,2.01-1-.14-.11,5.75-4.24,4.95-8.27Z"/><path class="cls-26" d="m691.62,337.1c-.1-.06,5.25-3.66,8.73-4.22,3.41-.66,4.71,1.74,4.14,3.15-.54,1.42-2.93,1.78-4.96,1.66-1.99-.28-7.89-.69-7.91-.59Z"/><path class="cls-26" d="m691.53,337.32s-.02,0-.03-.01c-.09-.05-.14-.16-.12-.26,0,0,0-.01,0-.02.02-.06.03-.11.12-.15.86-.82,5.81-3.76,8.8-4.25,1.68-.32,3.11.06,3.93,1.05.59.71.78,1.67.47,2.43-.73,1.92-4.16,1.88-5.2,1.81-1.94-.27-7.31-.64-7.82-.6-.06.02-.12.02-.17,0Zm11.32-4.07c-.57-.23-1.36-.35-2.45-.14-2.75.45-6.63,2.78-8.05,3.74.51.02,1.29.07,2.51.16,1.58.11,3.64.29,4.71.44,1.94.11,4.21-.22,4.7-1.51.24-.6.08-1.36-.4-1.94-.19-.24-.52-.53-1.03-.74Z"/><path class="cls-26" d="m662.43,366.22c-.17.08-.37.01-.47-.15-7.68-13.82-7.58-30.94.25-44.66.1-.17.32-.23.49-.13.17.1.23.32.13.49-7.71,13.51-7.8,30.35-.25,43.96.1.17.03.39-.14.49,0,0-.02,0-.02.01Z"/><path class="cls-26" d="m663.58,350.81c-4.37.58-4.62,7.69-4.44,7.75.22.72.46,1.45.72,2.16,0-1.02,1.4-3.09,4.13-4.97,2.65-1.97,3.73-5.64-.41-4.94Z"/><path class="cls-26" d="m651.04,353.05c-4.27.72-1.22,5.85,2.27,6.02,3.4.29,5.78.94,6.49,1.66-.31-.7-.6-1.41-.87-2.12-.13.11-3.82-6.1-7.89-5.57Z"/><path class="cls-26" d="m662.98,344.29c-4.4-.16-5.85,6.74-5.69,6.82.09.74.2,1.48.33,2.22.18-.99,1.91-2.77,4.93-4.15,2.94-1.47,4.64-4.88.43-4.89Z"/><path class="cls-26" d="m650.24,344.4c-4.33,0-2.18,5.51,1.21,6.25,3.3.84,5.53,1.87,6.1,2.69-.18-.73-.34-1.46-.49-2.2-.14.09-2.73-6.58-6.83-6.74Z"/><path class="cls-26" d="m663.47,337.8c-4.32-.89-6.9,5.65-6.75,5.74-.03.74-.05,1.48-.04,2.23.34-.93,2.35-2.39,5.56-3.24,3.15-.95,5.39-4.02,1.24-4.73Z"/><path class="cls-26" d="m650.89,335.77c-4.27-.73-3.07,5.05.15,6.34,3.12,1.38,5.14,2.76,5.57,3.65-.06-.74-.09-1.49-.11-2.23-.15.07-1.59-6.91-5.61-7.76Z"/><path class="cls-26" d="m665.04,331.46c-4.11-1.59-7.75,4.43-7.62,4.54-.16.72-.29,1.45-.41,2.19.5-.86,2.71-1.96,6.02-2.26,3.26-.41,5.98-3.07,2.02-4.47Z"/><path class="cls-26" d="m652.98,327.36c-4.09-1.43-3.88,4.49-.92,6.3,2.84,1.88,4.61,3.58,4.88,4.53.07-.74.16-1.48.26-2.22-.17.05-.41-7.09-4.23-8.61Z"/><path class="cls-26" d="m667.68,325.44c-3.79-2.26-8.41,3.12-8.3,3.24-.28.69-.54,1.39-.78,2.09.63-.77,3.01-1.49,6.32-1.24,3.29.14,6.43-2.05,2.76-4.1Z"/><path class="cls-26" d="m656.49,319.36c-3.79-2.1-4.61,3.82-1.99,6.1,2.48,2.34,3.94,4.31,4.05,5.3.19-.72.4-1.44.63-2.15-.18.03.8-7.1-2.69-9.25Z"/><path class="cls-26" d="m660.92,324.62c-.11.03.89-6.33,2.85-9.27,1.84-2.94,4.48-2.26,5.13-.89.67,1.37-.69,3.36-2.16,4.77-1.56,1.27-5.87,5.31-5.82,5.4Z"/><path class="cls-26" d="m661.02,324.84s-.02,0-.03.01c-.1.03-.21,0-.27-.09,0,0,0-.01-.01-.02-.03-.06-.06-.1-.02-.19-.02-1.19,1.2-6.81,2.88-9.34.9-1.45,2.16-2.24,3.45-2.17.93.05,1.75.57,2.1,1.3.91,1.85-1.46,4.33-2.21,5.04-1.52,1.24-5.45,4.92-5.76,5.32-.02.05-.07.1-.12.12Zm4.72-11.06c-.56.26-1.18.76-1.77,1.7-1.54,2.32-2.47,6.75-2.74,8.44.36-.36.93-.9,1.83-1.73,1.16-1.08,2.69-2.47,3.53-3.15,1.4-1.34,2.7-3.24,2.09-4.47-.28-.59-.94-.99-1.69-1.03-.31-.02-.75.02-1.24.25Z"/><path class="cls-26" d="m66.82,366.52c.14-.06.22-.22.17-.36-4.01-12.29-14.31-21.75-26.89-24.69-.16-.04-.32.06-.35.22-.04.16.06.32.22.35,12.38,2.9,22.52,12.21,26.47,24.3.05.15.22.24.37.19,0,0,.01,0,.02,0Z"/><path class="cls-26" d="m56.94,358.63c2.78-2.3,7.18,1.51,7.11,1.65.31.54.61,1.08.9,1.64-.61-.56-2.63-.88-5.28-.29-2.65.49-5.45-.9-2.73-2.99Z"/><path class="cls-26" d="m65.26,352.37c2.81-2.16,4.18,2.52,2.35,4.71-1.72,2.2-2.65,3.99-2.61,4.82-.25-.57-.51-1.14-.79-1.7.14-.02-1.53-5.68,1.05-7.82Z"/><path class="cls-26" d="m53.38,354.65c2.36-2.73,7.3.24,7.25.38.39.47.77.95,1.14,1.44-.69-.44-2.72-.4-5.23.64-2.52.94-5.5.06-3.17-2.46Z"/><path class="cls-26" d="m60.53,347.08c2.4-2.59,4.52,1.76,3.07,4.2-1.33,2.45-1.96,4.36-1.79,5.15-.34-.51-.69-1.02-1.05-1.52.13-.03-2.42-5.29-.24-7.84Z"/><path class="cls-26" d="m49.21,351.33c1.87-3.08,7.22-.99,7.19-.85.46.39.91.8,1.36,1.21-.75-.31-2.74.08-5.03,1.53-2.32,1.36-5.4.99-3.52-1.89Z"/><path class="cls-26" d="m55,342.67c1.94-2.96,4.74.97,3.72,3.62-.91,2.63-1.21,4.61-.91,5.36-.41-.45-.84-.88-1.28-1.31.13-.05-3.25-4.8-1.53-7.68Z"/><path class="cls-26" d="m44.54,348.75c1.33-3.35,6.96-2.18,6.96-2.04.52.31,1.03.63,1.54.97-.79-.18-2.68.53-4.7,2.35-2.06,1.73-5.17,1.88-3.8-1.28Z"/><path class="cls-26" d="m48.8,339.24c1.42-3.24,4.85.17,4.28,2.95-.46,2.75-.42,4.75,0,5.44-.48-.37-.97-.73-1.47-1.08.12-.07-4.01-4.19-2.8-7.32Z"/><path class="cls-26" d="m39.47,346.98c.75-3.53,6.54-3.3,6.56-3.17.57.22,1.13.45,1.69.7-.81-.05-2.56.97-4.25,3.1-1.74,2.05-4.81,2.71-3.99-.63Z"/><path class="cls-26" d="m42.05,336.89c.85-3.44,4.85-.63,4.76,2.2.02,2.79.39,4.76.92,5.37-.54-.29-1.09-.56-1.64-.82.11-.09-4.7-3.47-4.04-6.76Z"/><path class="cls-26" d="m42.74,342.48c.08-.05-4.29-2.99-7.14-3.45-2.78-.54-3.85,1.43-3.39,2.57.44,1.16,2.4,1.46,4.05,1.36,1.63-.23,6.45-.57,6.47-.48Z"/><path class="cls-26" d="m42.81,342.66s.02,0,.02-.01c.07-.04.11-.13.1-.21,0,0,0-.01,0-.02-.01-.05-.03-.09-.1-.12-.7-.67-4.75-3.07-7.2-3.47-1.37-.27-2.54.05-3.21.86-.48.58-.63,1.36-.39,1.98.6,1.57,3.4,1.53,4.25,1.48,1.59-.22,5.97-.53,6.39-.49.05.02.1.02.14,0Zm-9.25-3.33c.46-.19,1.11-.29,2-.12,2.25.37,5.42,2.27,6.58,3.06-.41.02-1.05.06-2.05.13-1.29.09-2.98.24-3.85.36-1.59.09-3.44-.18-3.84-1.24-.2-.49-.07-1.11.32-1.59.16-.19.43-.44.84-.61Z"/><path class="cls-26" d="m66.6,366.28c.14.06.31.01.38-.12,6.27-11.3,6.2-25.29-.21-36.51-.08-.14-.26-.19-.4-.11-.14.08-.19.26-.11.4,6.3,11.04,6.38,24.81.2,35.93-.08.14-.03.32.11.4,0,0,.01,0,.02,0Z"/><path class="cls-26" d="m65.66,353.68c3.58.47,3.78,6.29,3.63,6.33-.18.59-.38,1.18-.59,1.77,0-.83-1.14-2.53-3.38-4.07-2.16-1.61-3.05-4.61.34-4.04Z"/><path class="cls-26" d="m75.91,355.51c3.49.59.99,4.78-1.85,4.92-2.78.23-4.73.77-5.31,1.36.25-.57.49-1.15.71-1.73.11.09,3.13-4.99,6.45-4.55Z"/><path class="cls-26" d="m66.16,348.35c3.6-.13,4.79,5.51,4.65,5.57-.08.61-.17,1.21-.27,1.81-.15-.81-1.56-2.26-4.03-3.39-2.41-1.2-3.79-3.99-.35-3.99Z"/><path class="cls-26" d="m76.57,348.44c3.54,0,1.79,4.5-.99,5.11-2.7.69-4.52,1.53-4.99,2.2.15-.6.28-1.2.4-1.8.12.07,2.23-5.38,5.58-5.51Z"/><path class="cls-26" d="m65.75,343.04c3.53-.72,5.64,4.62,5.52,4.69.03.61.04,1.21.04,1.82-.28-.76-1.92-1.95-4.54-2.65-2.58-.78-4.4-3.28-1.01-3.86Z"/><path class="cls-26" d="m76.03,341.39c3.49-.59,2.51,4.13-.12,5.19-2.55,1.13-4.2,2.25-4.55,2.98.05-.61.08-1.22.09-1.82.13.06,1.3-5.65,4.58-6.34Z"/><path class="cls-26" d="m64.47,337.87c3.36-1.3,6.33,3.62,6.23,3.71.13.59.24,1.19.34,1.79-.4-.7-2.22-1.6-4.92-1.85-2.67-.33-4.89-2.51-1.65-3.65Z"/><path class="cls-26" d="m74.32,334.51c3.34-1.17,3.17,3.67.75,5.15-2.32,1.54-3.77,2.92-3.99,3.7-.06-.6-.13-1.21-.22-1.81.14.04.34-5.79,3.45-7.03Z"/><path class="cls-26" d="m62.31,332.94c3.09-1.85,6.87,2.55,6.78,2.65.23.57.44,1.14.64,1.71-.52-.63-2.46-1.22-5.16-1.01-2.69.11-5.26-1.68-2.25-3.35Z"/><path class="cls-26" d="m71.46,327.97c3.1-1.71,3.77,3.12,1.62,4.99-2.03,1.91-3.22,3.53-3.31,4.33-.16-.59-.33-1.17-.52-1.76.14.02-.66-5.8,2.2-7.56Z"/><path class="cls-26" d="m67.83,332.27c.09.03-.73-5.18-2.33-7.58-1.5-2.41-3.66-1.85-4.19-.73-.55,1.12.56,2.75,1.76,3.9,1.28,1.04,4.8,4.34,4.76,4.41Z"/><path class="cls-26" d="m67.75,332.45s.02,0,.02,0c.08.02.17,0,.22-.07,0,0,0-.01,0-.02.03-.05.05-.08.02-.15.02-.97-.98-5.57-2.35-7.63-.74-1.18-1.77-1.83-2.82-1.77-.76.04-1.43.46-1.72,1.07-.75,1.51,1.19,3.54,1.8,4.12,1.24,1.01,4.45,4.02,4.71,4.35.02.04.05.08.1.1Zm-3.86-9.04c.46.21.97.62,1.45,1.39,1.26,1.9,2.02,5.52,2.24,6.9-.29-.29-.76-.73-1.49-1.42-.95-.88-2.2-2.02-2.88-2.58-1.15-1.1-2.21-2.65-1.71-3.66.23-.48.77-.81,1.38-.84.25-.01.61.01,1.02.2Z"/></g><g id="Floor"><line class="cls-16" x1="705.66" y1="366.54" x2="21.84" y2="366.54"/></g><g id="Map"><rect class="cls-1" x="150.06" y="6.65" width="428.91" height="248.43" rx="39.9" ry="39.9"/><path class="cls-23" d="m539.19,12.51H189.44c-19.37,0-35.07,15.71-35.07,35.08v61h0v46.71h0v58.64c0,19.37,15.7,35.08,35.07,35.08h349.75c19.38,0,35.08-15.71,35.08-35.08V47.58c0-19.37-15.7-35.08-35.08-35.08Z"/><path class="cls-1" d="m410.54,103.99h-110.67v-50.8c0-.9-.52-1.72-1.34-2.09L214.17,12.51h-11.05l92.16,42.15v49.33h-140.9v4.6h56.66c-4.53,45.88,17.11,72.76,36.28,87.28,16.55,12.53,33.7,18.1,40.73,20.01l-21.05,33.15h5.45l37.69-59.36v.04h67.24l-10.82,59.33h4.67l25.61-140.43h12.6l112.18,140.43h5.88l-50.73-63.51,65.49-48.4c.6-.44.93-1.13.93-1.85,0-.19-.02-.38-.07-.57l-19.54-76.3h50.7v-4.6h-95.18c-.87,0-1.66.49-2.05,1.26l-8.67,17.14-31.95-29.29,11.68-30.38h-4.92l-11.61,30.19c-.34.88-.11,1.88.59,2.52l34.06,31.22-29.69,58.69-24.19-30.28c-.44-.55-1.1-.86-1.8-.86Zm69.96-45.61h38.32l19.45,75.95-64.38,47.59-34.21-42.83,40.83-80.7Zm-88.35,50.21l-13.95,76.51h-65.18l48.58-76.51h30.56Zm-36.01,0l-65.52,103.2c-5.41-1.38-23.5-6.69-40.54-19.59-26.51-20.07-38.08-48.2-34.44-83.61h140.51Z"/><polygon class="cls-27" points="363.23 12.51 363.23 19.39 406.68 36.77 406.68 71.53 364.19 53.18 364.19 80.21 322.68 80.21 322.68 39.67 269.96 12.51 363.23 12.51"/><rect class="cls-27" x="192.1" y="208.52" width="34.48" height="28.73" transform="translate(-13.54 432.23) rotate(-90)"/><rect class="cls-27" x="192.91" y="177.14" width="24.83" height="20.69" transform="translate(17.84 392.81) rotate(-90)"/><path class="cls-27" d="m286.49,201.41l55.11-85.33h-115.55s-5.93,61.04,60.44,85.33Z"/><rect class="cls-27" x="193.64" y="152.96" width="16.09" height="13.41" transform="translate(42.01 361.35) rotate(-90)"/><polygon class="cls-27" points="465.08 121.74 486.91 152.77 519.1 135.53 515.65 73.47 485.76 70.02 475.42 94.16 491.51 104.5 485.76 114.84 468.52 105.65 465.08 121.74"/><polygon class="cls-27" points="400.25 221.18 462.33 221.18 476.49 249.02 398.94 249.02 400.25 221.18"/><polygon class="cls-27" points="438.78 174.84 402.42 174.84 400.61 213.46 458.41 213.46 438.78 174.84"/><polygon class="cls-27" points="402.69 169.05 435.84 169.05 424.06 145.87 403.78 145.87 402.69 169.05"/></g><g id="Location_2"><line class="cls-8" x1="214.77" y1="14.72" x2="216.13" y2="15.35"/><line class="cls-13" x1="218.88" y1="16.62" x2="294.6" y2="51.64"/><polyline class="cls-8" points="295.98 52.27 297.34 52.9 297.34 54.4"/><line class="cls-6" x1="297.34" y1="57.35" x2="297.34" y2="103.08"/><polyline class="cls-8" points="297.34 104.55 297.34 106.05 295.84 106.05"/><line class="cls-11" x1="292.84" y1="106.05" x2="216.39" y2="106.05"/><path class="cls-8" d="m214.89,106.05h-1.5s-.12.51-.29,1.47"/><path class="cls-12" d="m212.66,110.45c-1.56,12.12-3.05,46.91,25.15,74.55,19.58,19.19,43.31,26.52,51.45,28.58"/><path class="cls-8" d="m290.71,213.93c.95.22,1.46.32,1.46.32l.8-1.27"/><line class="cls-21" x1="294.61" y1="210.4" x2="359.35" y2="108.44"/><polyline class="cls-8" points="360.17 107.15 360.97 105.88 362.47 105.88"/><line class="cls-15" x1="365.48" y1="105.88" x2="406.13" y2="105.88"/><polyline class="cls-8" points="407.64 105.88 409.14 105.88 410.07 107.05"/><line class="cls-7" x1="411.91" y1="109.34" x2="480.68" y2="195.22"/><line class="cls-8" x1="481.6" y1="196.37" x2="482.53" y2="197.54"/><path class="cls-3" d="m215.07,111.03l-11.82,8.59-10.77-8.33h-.01c-4.87-3.48-8.06-9.17-8.06-15.62,0-10.57,8.57-19.13,19.13-19.13s19.13,8.56,19.13,19.13c0,6.34-2.86,11.88-7.61,15.36Z"/><path class="cls-18" d="m186.76,95.55c0,4.08,1.45,7.82,3.87,10.74,3.09,3.72,7.75,6.09,12.96,6.09,4.81,0,9.14-2.01,12.21-5.24,2.87-3.02,4.62-7.11,4.62-11.59,0-9.3-7.53-16.83-16.83-16.83s-16.83,7.54-16.83,16.83Z"/><path class="cls-22" d="m203.59,112.38c4.15,0,7.95-1.5,10.89-4-.55-5.69-5.34-10.14-11.18-10.14s-10.35,4.21-11.11,9.68c3,2.76,7,4.45,11.4,4.45Z"/><circle class="cls-22" cx="203.3" cy="90.65" r="7.42" transform="translate(81.26 276.8) rotate(-80.78)"/><path class="cls-3" d="m350.79,160.88l-11.82,8.59-10.77-8.33h-.01c-4.87-3.48-8.06-9.17-8.06-15.62,0-10.57,8.57-19.13,19.13-19.13s19.13,8.56,19.13,19.13c0,6.34-2.86,11.88-7.61,15.36Z"/><path class="cls-18" d="m322.48,145.39c0,4.08,1.45,7.82,3.87,10.74,3.09,3.72,7.75,6.09,12.96,6.09,4.81,0,9.14-2.01,12.21-5.24,2.87-3.02,4.62-7.11,4.62-11.59,0-9.3-7.53-16.83-16.83-16.83s-16.83,7.54-16.83,16.83Z"/><path class="cls-22" d="m339.31,162.23c4.15,0,7.95-1.5,10.89-4-.55-5.69-5.34-10.14-11.18-10.14s-10.35,4.21-11.11,9.68c3,2.76,7,4.45,11.4,4.45Z"/><circle class="cls-22" cx="339.02" cy="140.49" r="7.42"/><path class="cls-19" d="m435.96,155.43c-1.08,1.16-1.97,2.55-1.96,3,0,.46,5.55,8.09,6.32,9.03.77.94,2.88,2.71,2.88,2.71l15.2,18.47c-.5.22-1.77.77-2.02.91-.32.17.39.7,1.19.77.8.08,2-.26,2-.26l9.06,10.56s2.8.93,4.95.18c2.15-.75,5.89-3.18,8.95-6.08,3.07-2.9,4.02-3.77,4.02-3.77,0,0,.62-.6.75-.89.13-.29,1.2-5.05.7-6.12-.51-1.06-.99-1.31-.99-1.31,0,0-6.97-8.59-7.34-9.03-.01-.01-.02-.03-.04-.04.2-.39.81-1.59.85-2.01.05-.5-.43-1.31-.65-1.13-.2.16-1.19,1.5-1.4,1.78l-15.57-19.14s-1.9-2.87-3.13-4.36c-1.22-1.49-5.4-6-6.24-6.23-.84-.23-1.54.16-1.7.29-.17.14-5.41,3.53-7.21,4.83-1.8,1.3-7.54,6.67-8.62,7.83Z"/><path class="cls-1" d="m476.05,172.81l1.17-.04-8.65-10.62-2.76.8s8.44,9.13,10.25,9.87Z"/><path class="cls-1" d="m464.34,161.28l2.45-1.18-9.29-10.28s.73,3.92,1.1,4.36c.36.44,5.75,7.1,5.75,7.1Z"/><path class="cls-1" d="m439.47,160.03s.78-1.75,2.44-3.21c1.66-1.46,9.34-7.96,10.13-8.24.79-.28,2.49-.11,2.49-.11,0,0-.93-2.47-1.76-3.26-.84-.79-2.07-.61-2.39-.43-.32.17-7.03,5.05-8.77,6.75-1.74,1.71-4.71,4.61-4.9,5.05-.19.44.21,2.05.62,2.44.42.4,2.13,1.02,2.13,1.02Z"/><path class="cls-1" d="m440.6,163.54s2.95,1.45,3.42,1.8,6.39,7.31,6.39,7.31l-1.78,2.11-5.96-7.57-2.08-3.65Z"/><path class="cls-1" d="m450.38,176.65l1.39-2.35s3.36,4.53,4.1,5.77c.74,1.24,3.66,6.13,3.66,6.13l-.28,1.34-8.88-10.9Z"/><path class="cls-1" d="m457.54,180.74s9.66-6.56,13.14-11.09l8.71,7.89s1.09,1.32,1.11,1.58c.03.26.01.91.01.91,0,0-2.2,4.96-5.23,7.35-3.02,2.39-8.11,4.64-8.67,4.73-.57.1-1.5-.25-1.5-.25l-1.39-.79-6.2-10.33Z"/><path class="cls-1" d="m483.17,180.9s1.86,4.39,1.94,6.17c.08,1.78-.22,2.77-.22,2.77,0,0,1.43-1.64,1.52-2.64.1-1,.05-2.07-.28-2.82s-2.96-3.48-2.96-3.48Z"/><path class="cls-1" d="m466.15,194.91s3.75,2.65,4.92,3.06c1.18.42,3.2.41,3.2.41,0,0-1.81.94-2.43.98-.61.04-2.96-.79-3.44-1.14-.47-.35-2.2-2.9-2.26-3.31Z"/></g><g id="Characters_2"><path class="cls-4" d="m326.67,255.71s-9.61,24.52-11.89,32.3c-2.29,7.77-3.2,19.66-3.2,19.66l73.33,7.42s12.62-3.31,11.71-10.16c-.91-6.86-9.14-19.62-20.57-30.63-11.43-11.01-28.8-20.12-34.29-20.12s-15.08,1.53-15.08,1.53Z"/><polygon class="cls-19" points="583.8 281.94 588.11 301.59 571.82 304.94 583.8 281.94"/><path class="cls-9" d="m633.04,303.11c-3.16-8.96-7.9-9.48-7.9-9.48l-13.7-35.29s-15.28,2.11-21.6,7.37c-6.32,5.27-21.07,38.98-21.07,38.98l11.59,73.22s47.94-10.01,49.52-11.06c1.58-1.05,3.16-11.06,3.69-17.38.53-6.32,2.63-37.4-.53-46.36Zm-58.35-1.29s12.46-26.83,15.33-30.67,7.67-5.99,7.67-5.99l9.91-2.26,9.98,31.97-42.89,6.95Z"/><path class="cls-19" d="m574.22,303.98l13.9-2.4s5.51-10.54,7.19-11.98c1.68-1.44,4.07-2.88,8.15-1.92,4.07.96,12.7,5.75,12.22,8.86s-1.2,4.07-5.75,4.79c-4.55.72-16.53.72-16.53.72,0,0-3.11,5.03-3.83,5.99-.72.96-12.46,4.79-12.46,4.79,0,0-1.44-3.83-2.88-8.86Z"/><path class="cls-3" d="m527.1,411.12s-2.85,2.55-4.2,3.6c-1.35,1.05-3.6,3-5.84,3.75-2.25.75-3.45,1.2-3.3,2.4.15,1.2.15,2.4.9,2.55.75.15,27.72,0,27.72,0,0,0,.75-1.2.6-3.9-.15-2.7-1.05-4.8-1.05-4.8,0,0-6.89-1.95-9.89-3.6-3-1.65-4.95,0-4.95,0Z"/><path class="cls-3" d="m542.83,422.06h-28.93c.1.7.27,1.25.76,1.35.75.15,27.72,0,27.72,0,0,0,.26-.44.45-1.35Z"/><path class="cls-17" d="m518.25,308.91s-1.95,12.59,0,25.63c1.95,13.04,4.05,22.33,4.05,22.33,0,0,3,13.04,3.3,17.23.3,4.2,3.15,26.38,3,26.82-.15.45-.45,1.5-.45,2.25s-1.95,1.8-1.65,2.7c.3.9.6,5.25.6,5.25,0,0,3.45-.6,4.95,0s8.24,3,8.24,3l1.65.6s1.8-1.35,1.8-3.45-2.7-4.5-2.7-4.5c0,0,1.8-.75,1.95-1.5.15-.75-.75-3.45-.75-3.9s-.3-4.95-.3-5.84.15-12.29.15-13.64-1.35-22.03-1.35-22.03l-1.5-14.99s3.6,16.93,5.1,22.33c1.5,5.39,5.84,28.02,5.99,28.77.15.75.75,6.59.6,7.04-.15.45-1.8,1.5-1.65,2.1.15.6,1.2,8.09,1.2,8.09l10.79.9s1.2-2.25,1.8-3.9c.6-1.65-.45-3.15-.45-3.75s.9-.45.6-2.85c-.3-2.4-.6-4.35-.6-4.35,0,0-.75-1.2-.9-5.39-.15-4.2,2.25-15.74.6-22.33-1.65-6.59-3.6-12.14-3.75-19.33-.15-7.19-.15-20.68-.75-24.28-.6-3.6-1.56-14.85-1.56-14.85l-.39-1.64-37.61-2.55Z"/><polyline class="cls-16" points="531.14 329.59 536.84 332.29 538.79 343.23"/><path class="cls-3" d="m551.67,410.97s-1.05,3.75-2.1,5.54c-1.05,1.8-2.7,2.85-3.15,3.9-.45,1.05-.3,3-.3,3h16.03s1.2-1.5,1.2-5.1-1.35-5.39-2.55-7.49c-1.2-2.1-5.25-3.6-9.14.15Z"/><path class="cls-3" d="m563.01,421.37l-.25-.06h-16.57c-.15.99-.07,2.1-.07,2.1h16.03s.5-.63.85-2.04Z"/><path class="cls-9" d="m528.56,244.49s-2.96,3.05-5.31,4.34c-2.35,1.29-6.23,2.47-6.93,3.88-.7,1.41-1.53,11.16-.47,16.21,1.06,5.05,2.35,8.58,2.35,8.58l.82,18.68-1.29,14.33s14.22,1.88,23.26,2.94,15.27-.35,15.27-.35c0,0,.47-8.58.59-13.04.12-4.46.35-25.5.35-25.5l7.17,11.98s4.99,3.23,13.07-1.99c2.28-1.47-6.48-10.86-7.07-13.8-.59-2.94-4.36-9.24-4.36-9.24,0,0-3.05-9.16-5.4-11.51s-5.52-2.94-8.93-3.41c-3.41-.47-9.03-2.79-9.03-2.79l-14.1.69Z"/><path class="cls-16" d="m569.69,274.12s-3.7.5-4.71,6.9"/><path class="cls-16" d="m562.62,276.65s2.52-2.52,5.39-2.52"/><path class="cls-3" d="m518.57,221.19s.29,10.18.69,11.84c.39,1.66,3.13,5.09,4.31,6.66,1.17,1.57,3.62,1.96,3.92,1.96s1.08,1.17,1.08,2.84-.69,1.96-.59,6.75c.1,4.8.78,8.91.78,8.91,0,0,2.84-1.86,7.73-7.15,4.89-5.29,6.17-9.2,6.17-9.2,0,0-2.15-1.96-2.84-4.21-.69-2.25-.59-7.93-.59-7.93,0,0,3.52-2.74,3.72-4.31.2-1.57-1.27-4.5-1.27-4.5,0,0-1.66-5.87-3.52-8.81-1.86-2.94-2.15-4.4-8.32-2.74-6.17,1.66-8.32,2.06-10.28,3.52-1.96,1.47-2.25,3.23-2.25,3.23l1.27,3.13Z"/><path class="cls-19" d="m527.48,241.65s1.86-.2,2.94-.49c1.08-.29,2.54-.88,2.54-.88l-4.4,4.21-1.08-2.84Z"/><path class="cls-16" d="m522.14,232.33s.69,1.08,1.66.69c.98-.39,1.53-.66,1.53-.66"/><path class="cls-16" d="m524.84,235.19s3.52.49,5.58-2.45"/><path class="cls-16" d="m526.11,224.62s3.13-.88,4.8,0"/><path class="cls-16" d="m522,225.01s-1.66-1.08-2.64.2"/><path class="cls-26" d="m521.05,227.37c.08.65-.14,1.2-.48,1.25-.34.04-.69-.45-.76-1.1-.08-.65.14-1.2.48-1.25.34-.04.69.45.76,1.1Z"/><path class="cls-26" d="m528.05,227.1c.08.65-.14,1.2-.48,1.25-.34.04-.69-.45-.76-1.1-.08-.65.14-1.2.48-1.25.34-.04.69.45.76,1.1Z"/><path class="cls-19" d="m532.76,215.13s-3.33,2.54-4.4,2.74c-1.08.2-4.89-1.08-6.26-1.17-1.37-.1-3.92,1.96-3.92,1.96l.39,2.55s-3.72-.88-4.5-2.35c-.78-1.47,1.86-3.43,1.76-3.92-.1-.49-1.47-2.35-.49-2.94.98-.59,5.29-1.96,5.29-1.96,0,0,2.25-4.7,3.82-4.8,1.57-.1,4.5.49,4.5.49,0,0,1.57-1.47,3.43-1.17,1.86.29,4.6,3.72,4.6,3.72,0,0,4.11-.39,4.89,1.37.78,1.76,1.57,4.11.98,5.97s-1.17,5.78-1.17,5.78v1.47s-1.66.29-2.45.98c-.78.69-.69,1.27-1.27,1.76-.59.49-.88.49-1.27.29s-.59-.78-.78-1.96c-.2-1.17-.39-1.47-1.17-1.76-.78-.29-1.86-.88-2.64-1.76-.78-.88-1.76-1.66-1.17-2.45.59-.78,1.86-2.84,1.86-2.84Z"/><polyline class="cls-16" points="552.85 268.45 557.2 274.56 549.91 272.1"/><path class="cls-5" d="m357.88,311.56c-.37-1.17,11.62.68,11.62.68,0,0,3.79-16.74,2.74-18.55-1.06-1.81-10.85-5.24-10.85-5.24l-22.76-1.21s-9.8,4.15-9.95,5.2c-.08.56-6.47,8.47-9.19,14.73l38.39,4.4Z"/><path class="cls-3" d="m343.36,286.36s-1.43,1.43-1.43,5.47,2.62,9.28,2.62,9.28l9.04-4.76,10.5,5.38s1.05-10.01-2.71-13.29c-3.75-3.27-15.89-4.94-18.03-2.08Z"/><path class="cls-3" d="m344.94,288.18s1.92,5.5,3.91,9.24c1.99,3.74,6.47,6.47,6.47,6.47,0,0,2.24-7.47,2.49-11.21.25-3.74-.25-5.73-.25-5.73l-12.63,1.22Z"/><path class="cls-3" d="m338.03,278.17s.83,8.22,1.67,8.94c.83.71,5.24,1.07,5.24,1.07l9.53.6c.95-1.79,1.55-12.03-1.79-19.9-3.34-7.86-7.51-9.17-8.34-7.74,0,0-4.89,6.67-4.65,8.1.24,1.43.71,2.14.48,2.86-.24.71-3.1,2.03-3.46,3.34-.36,1.31,1.31,2.74,1.31,2.74Z"/><path class="cls-16" d="m340.29,279.72s2.62,0,3.93-1.19"/><path class="cls-16" d="m342.32,272.33s1.31-.36,2.14.48"/><path class="cls-16" d="m341.49,269.71s2.26-2.14,3.57.71"/><path class="cls-19" d="m344.34,261.13s.95,8.1,3.69,13.94c2.74,5.84,4.05,7.63,4.05,7.63,0,0,0,4.65-1.43,5.96-1.43,1.31-2.98,1.19-2.98,1.19,0,0-1.67,2.38,3.69,3.1s6.79-1.79,8.7-2.03c1.91-.24,2.86.12,2.86.12,0,0,.48-1.43.12-2.98-.36-1.55-.6-2.74-.6-2.74,0,0,3.57-4.17,3.46-8.94s1.31-7.51-1.31-13.11-16.44-6.55-19.06-6.67c-2.62-.12-2.98.12-4.17,2.03-1.19,1.91-4.65,4.77-4.65,6.91s3.46,6.55,3.46,6.55l-.48-2.86s2.86-4.89,4.65-8.1Z"/><path class="cls-19" d="m431.28,395.17c-112.52-3.57-203.73,5.02-203.73,19.19,0,5.98,16.25,12,43.49,17.23-24.62.5-42.58,2.04-42.58,3.87,0,2.23,26.75,4.04,59.74,4.04,11.94,0,23.05-.24,32.38-.65,31.87,3.61,69.88,6.33,110.69,7.63,112.52,3.57,203.73-5.02,203.73-19.19s-91.21-28.55-203.73-32.13Z"/><path class="cls-19" d="m232.7,376.84s2.48,5.37,4.25,7.2c1.77,1.83,33.73,9.74,33.73,9.74l103.56,22.67,12.55-1.34,43.86,1.4s8.75-21.41-.8-42.5c-9.56-21.09-57.34-29.33-70.85-25.05-13.51,4.28-45.15,18.12-67.89,10.55-22.74-7.58-40.86-22.41-48.44-20.43-7.58,1.98-11.2,14.17-11.2,19.44s1.24,18.32,1.24,18.32Z"/><path class="cls-19" d="m455.35,406.17c-.9-21.77-15.46-39.45-32.52-39.49h-18.49l.32,7.8c-7.23,7.17-11.62,18.62-11.08,31.54.54,12.92,5.88,24.39,13.7,31.6l.33,7.89h18.49c17.06.04,30.16-17.57,29.25-39.34Z"/><ellipse class="cls-10" cx="405.96" cy="406.09" rx="30.81" ry="39.51" transform="translate(-42.22 47.14) rotate(-6.32)"/><path class="cls-3" d="m429.86,419.5s0,0,0,0c.3-.97.57-1.97.79-3,0,0,0,0,0,0,.23-1.02.41-2.07.56-3.13,0,0,0,0,0,0,.31-2.32.44-4.73.34-7.22-.22-5.29-1.42-10.28-3.35-14.7-.02-.04-.04-.08-.05-.12-.43-.98-.9-1.93-1.4-2.85-.03-.06-.06-.11-.09-.17-.5-.91-1.04-1.79-1.6-2.63-.03-.04-.06-.09-.09-.14-5-7.37-12.34-12.09-20.35-12.11-6.86-.02-12.94,3.42-17.3,9.01h0c-.29.37-.57.75-.84,1.14,0,0,0,0,0,0-.27.39-.54.78-.79,1.19,0,0,0,0,0,0-.25.4-.5.81-.73,1.22,0,.01-.01.02-.02.03-.23.41-.45.82-.67,1.25-.01.02-.02.04-.03.06-.21.41-.41.83-.6,1.26-.02.03-.03.07-.05.1-.19.41-.36.83-.53,1.26-.02.05-.04.1-.06.15-.16.41-.32.83-.47,1.25-.02.06-.05.13-.07.19-.14.41-.27.82-.4,1.24-.03.08-.05.17-.08.25-.12.4-.23.8-.34,1.21-.03.1-.06.21-.08.31-.1.39-.19.79-.28,1.18-.03.12-.06.25-.08.37-.08.38-.15.77-.22,1.15-.03.14-.05.29-.08.43-.06.37-.11.75-.16,1.13-.02.16-.05.32-.07.49-.04.37-.08.74-.11,1.11-.02.18-.04.35-.05.53-.03.37-.05.74-.07,1.11,0,.19-.02.37-.03.56-.02.39-.02.79-.02,1.18,0,.17,0,.33,0,.5,0,.56.01,1.13.04,1.71.03.69.08,1.38.14,2.06.01.16.03.33.05.49.06.59.13,1.17.22,1.75.01.09.02.18.04.27.22,1.43.51,2.84.86,4.21,0,0,0,0,0,0h0c1.76,6.8,5.17,12.71,9.58,16.96.05.05.11.11.16.16.54.51,1.09,1,1.66,1.46.04.03.08.06.12.09,4.14,3.32,8.98,5.26,14.11,5.27,5.16.01,9.87-1.93,13.75-5.27,0,0,0,0,0,0h0c3.94-3.39,7.01-8.24,8.79-13.96Z"/><path class="cls-19" d="m428.62,407.15c-.16-3.8-.92-7.42-2.15-10.71l-10.16,6.37c.44,1.35.72,2.8.78,4.32,0,.22,0,.43,0,.64l11.54,1.88c.02-.82.03-1.66,0-2.5Z"/><path class="cls-19" d="m410.61,395.47c1.06.58,2.02,1.37,2.88,2.33l7.16-11.01c-2.49-2.72-5.42-4.77-8.62-5.94l-1.41,14.62Z"/><path class="cls-19" d="m415.63,414.29c-.52,1.04-1.16,1.96-1.9,2.75l5.88,13.15c2.82-2.36,5.12-5.59,6.69-9.39l-10.67-6.51Z"/><path class="cls-19" d="m398.34,400.28l-10.36-7.21c-1.52,3.54-2.4,7.6-2.48,11.95l11.59.33c.12-1.85.56-3.57,1.25-5.07Z"/><path class="cls-19" d="m401.87,395.89c.85-.59,1.78-1.03,2.77-1.27l-1.7-14.62c-3.67.65-6.98,2.48-9.72,5.2l8.65,10.69Z"/><path class="cls-19" d="m408.69,419.74c-.36.05-.73.08-1.1.08-1.06,0-2.08-.22-3.06-.6l-5.68,12.6c2.87,1.69,6.04,2.65,9.34,2.65.9,0,1.79-.08,2.65-.21l-2.16-14.52Z"/><path class="cls-19" d="m398.26,412.54l-11.46,2.56c1.18,4.19,3.12,7.95,5.59,11.02l7.36-10.85c-.58-.83-1.08-1.75-1.49-2.73Z"/><path class="cls-19" d="m281.9,384.16c-.42-18.24-7.26-33.06-15.26-33.09h-18.45l1.53,66.05h18.45c8,.04,14.15-14.72,13.73-32.96Z"/><path class="cls-10" d="m263.45,384.16c.42,18.24-5.72,33-13.73,32.96-8-.04-14.84-14.85-15.26-33.09-.42-18.24,5.72-33,13.73-32.96,8,.04,14.84,14.85,15.26,33.09Z"/><path class="cls-3" d="m260.17,395.33s0,0,0,0c.14-.82.27-1.65.37-2.51,0,0,0,0,0,0,.11-.86.19-1.73.26-2.62h0c.15-1.95.21-3.97.16-6.05-.1-4.43-.66-8.61-1.57-12.32,0-.03-.02-.07-.03-.1-.2-.82-.42-1.62-.66-2.38-.01-.05-.03-.1-.04-.14-.24-.76-.49-1.5-.75-2.2-.01-.04-.03-.08-.04-.11-2.34-6.17-5.79-10.13-9.55-10.15-3.22-.01-6.07,2.86-8.12,7.55h0c-.14.31-.27.63-.4.95,0,0,0,0,0,0-.13.32-.25.66-.37,1,0,0,0,0,0,0-.12.33-.23.68-.34,1.03,0,0,0,.02,0,.03-.11.34-.21.69-.31,1.04,0,.02,0,.03-.01.05-.1.35-.19.7-.28,1.05,0,.03-.01.06-.02.08-.09.35-.17.7-.25,1.05,0,.04-.02.08-.03.12-.08.34-.15.69-.22,1.05-.01.05-.02.11-.03.16-.07.34-.13.69-.19,1.04-.01.07-.02.14-.04.21-.06.33-.11.67-.16,1.02-.01.09-.03.17-.04.26-.05.33-.09.66-.13.99-.01.1-.03.21-.04.31-.04.32-.07.64-.1.97-.01.12-.03.24-.04.36-.03.31-.05.63-.08.95-.01.14-.02.27-.03.41-.02.31-.04.62-.05.93,0,.15-.02.3-.02.44-.01.31-.02.62-.03.93,0,.16-.01.31-.02.47,0,.33,0,.66-.01.99,0,.14,0,.28,0,.42,0,.47,0,.95.02,1.43.01.58.04,1.16.07,1.73,0,.14.02.27.02.41.03.49.06.98.1,1.46,0,.07.01.15.02.22.1,1.2.24,2.38.4,3.52,0,0,0,0,0,0h0c.83,5.7,2.43,10.65,4.5,14.21.03.04.05.09.08.13.25.43.51.84.78,1.22.02.03.04.05.05.08,1.94,2.78,4.22,4.41,6.62,4.42,2.42.01,4.63-1.62,6.45-4.41,0,0,0,0,0,0h0c1.85-2.84,3.29-6.9,4.12-11.7Z"/><path class="cls-19" d="m633.46,393.56c-.9-21.77-15.46-39.45-32.52-39.49h-18.49c-17.06-.04-30.16,17.57-29.25,39.34.9,21.77,15.46,39.45,32.52,39.49h18.49c17.06.04,30.16-17.57,29.25-39.34Z"/><path class="cls-9" d="m640.8,379.6s-.69-13.78-2.41-18.6c-1.72-4.82-6.89-12.05-6.89-12.05,0,0-5.17-12.05-13.78-19.63-8.61-7.58-22.73-15.15-26.17-16.88-3.44-1.72-7.92-2.76-14.46-7.23-6.54-4.48-47.18-32.72-59.92-40.29-12.74-7.58-40.29-11.36-45.8-12.4-5.51-1.03-68.88-5.51-90.92-5.51s-67.5,1.03-92.64,10.68c0,0-8.27,2.41-9.3,4.82-1.03,2.41-1.72,4.13-1.72,4.13l-24.8,36.16s-8.95-.69-11.71,6.89c-2.76,7.58-1.72,17.91-1.72,17.91,0,0-6.54,16.19-6.89,28.24-.34,12.05,1.03,21.01,1.03,21.01,0,0-1.72-22.04,3.44-28.93,5.17-6.89,15.84-1.72,19.97,10.68,4.13,12.4,8.95,35.47,8.95,35.47l109.17,22.39s-5.51-28.93,1.72-45.46c7.23-16.53,40.98-15.5,47.18,14.46,6.2,29.96,4.13,35.47,4.13,35.47,0,0,23.07,4.82,93.33,3.79,70.26-1.03,108.83-9.3,119.16-12.05,0,0,2.41-12.74,3.1-20.32.69-7.58-2.07-12.74-2.07-12.74Zm-250.37-69.22c-.69,1.72-2.07,2.76-2.07,2.76-2.76,2.75-10.33,0-10.33,0,0,0-32.77-5.21-62.07-9.78,1.77-18.82,10.49-36.96,15.84-46.55,5.56.45,17.57,1.96,31.42,11.9,15.84,11.36,27.9,39.95,27.21,41.67Z"/><path class="cls-5" d="m328.68,292.44s-13.45,15.69-13.95,17.43c-.5,1.74.75,7.47,5.48,7.72,4.73.25,30.85-9.2,30.85-9.2l-15.98-2.14,1.31-3.86"/><line class="cls-16" x1="321.46" y1="305.14" x2="335.09" y2="306.26"/><path class="cls-24" d="m642.87,392.34c.69-7.58-2.07-12.74-2.07-12.74,0,0-.22-4.41-.72-9.11-43.09,12.71-120.2,13.57-141.7,11.68-24.7-2.18-68.53-8.15-70.47-15.26-1.94-7.1-18.89-23.25-30.51-27.61-9.96-3.74-125.61-19.75-158.44-24.25-1.01,6.33-.39,12.54-.39,12.54,0,0-6.54,16.19-6.89,28.24-.34,12.05,1.03,21.01,1.03,21.01,0,0-1.72-22.04,3.44-28.93,5.17-6.89,15.84-1.72,19.97,10.68,4.13,12.4,8.95,35.47,8.95,35.47l109.17,22.39s-5.51-28.93,1.72-45.46c7.23-16.53,40.98-15.5,47.18,14.46,6.2,29.96,4.13,35.47,4.13,35.47,0,0,23.07,4.82,93.33,3.79,70.26-1.03,108.83-9.3,119.16-12.05,0,0,2.41-12.74,3.1-20.32Z"/><path class="cls-19" d="m370.03,305.45c1.47-7.6,6.37-21.81,6.37-21.81,0,0,8.16,11.56,11.87,19.65,3.71,8.09,0,11.12-3.37,11.8-3.37.67-16.52-3.71-16.52-3.71l1.65-5.93"/><path class="cls-4" d="m322.37,256.77c-6.73.39-16.2,1.38-23.54,2.98-7.92,1.72-10.68,2.07-12.05,3.44-1.38,1.38-14.81,18.25-19.63,30.31,0,0,.69,3.1,3.79,3.1,1.13,0,15.59,2.19,33.54,4.97,3-10.69,9.04-29.52,17.89-44.79Z"/><path class="cls-16" d="m316.28,319.6l-9.8-1.77s-2.4.76-1.67,3.16c.73,2.4,2.02,2.14,2.02,2.14l8.16,1.31s1.94.21,2.36-1.73c.42-1.93.97-2.18-1.07-3.12Z"/><path class="cls-16" d="m266.75,311.06l-7.48-1.44s-1.83.62-1.28,2.57c.55,1.95,1.54,1.74,1.54,1.74l6.23,1.07s1.48.17,1.8-1.4c.32-1.57.74-1.77-.82-2.53Z"/><path class="cls-16" d="m326.67,255.71s-13.97,25.97-16.42,47.53"/><path class="cls-16" d="m307.07,307.65s-6.37,10.78-6.62,14.46c-.25,3.68.49,47.78,1.72,55.86"/><path class="cls-16" d="m374.44,323.09s-5.39,17.89-5.64,31.36-.49,38.71-.49,38.71"/><path class="cls-16" d="m266.39,298.34s-11.52,10.54-12.5,13.97c-.98,3.43.24,32.83.24,32.83"/><path class="cls-16" d="m268.6,378.46s1.72,4.9,5.39,6.13c3.68,1.23,92.86,18.38,92.86,18.38"/><path class="cls-19" d="m526.96,394.01s68.3.94,93.67-6.89c0,0-2.51,16.92-7.21,20.36-4.7,3.45-38.85,6.97-55.45,7.52-18.8.63-29.45-1.25-29.45-1.25l-1.57-19.74Z"/><path class="cls-19" d="m514.75,351.4l6.89,14.1s38.53.94,42.92,1.25c4.39.31,9.09,2.51,14.1,0,5.01-2.51,26.63-5.33,29.14-5.33s5.64,2.19,5.64,2.19c0,0-5.64-14.1-7.83-15.35-2.19-1.25-4.39-.94-5.33-.94s-46.68-3.45-85.53,4.07Z"/><path class="cls-3" d="m442.12,323.26s-16.38-2.52-22.69-.32c-6.3,2.21-3.15,10.71,7.56,18.59s19.54,15.44,30.56,16.7c11.03,1.26,29.93,5.36,30.88,1.89.95-3.47-2.52-16.07-15.12-25.21-12.6-9.14-31.19-11.66-31.19-11.66Z"/><path class="cls-3" d="m573.82,305.3l-3.15.95s-5.84.18-15.2.43c-8.02.23-18.6.53-30.3.83-16.15.43-34.41.88-50.9,1.23-25.21.53-46.31.8-49.48.33-5.45-.8-11.54-2.77-17.19-7.72-3.18-2.77-6.23-6.49-8.95-11.49-7.57-13.87-26.78-30.88-26.78-30.88,30.25-3.47,102.4-2.21,110.59-1.89,2.04.07,4.66.39,7.57.92,8.74,1.55,20.15,4.99,26.77,9.48,1.17.8,3.06,2.05,5.43,3.64,5.54,3.7,13.76,9.14,22.01,14.61,4.98,3.29,9.96,6.58,14.39,9.52,8.68,5.73,15.2,10.03,15.2,10.03Z"/><path class="cls-19" d="m516.79,267.49c1.17.8,3.06,2.05,5.43,3.64l-47.96,37.62c-25.21.53-46.31.8-49.48.33-5.45-.8-11.54-2.77-17.19-7.72l82.43-43.34c8.74,1.55,20.15,4.99,26.77,9.48Z"/><path class="cls-19" d="m558.62,295.26l-3.15,11.42c-8.02.23-18.6.53-30.3.83l19.06-21.77c4.98,3.29,9.96,6.58,14.39,9.52Z"/><path class="cls-16" d="m505.9,341.97c1.92,1.94,3.77,4,5.53,6.18"/><path class="cls-16" d="m459.45,314.12s23.85,7.01,43.15,24.67"/><path class="cls-16" d="m612.19,347.59c2.38,4.49,4.29,9.5,5.43,15.05"/><path class="cls-16" d="m575.71,315.38s21.13,8.18,33.79,27.66"/><path class="cls-3" d="m478.35,400.14c0,3.65-3.53,6.62-7.88,6.62s-7.88-2.96-7.88-6.62,3.53-6.62,7.88-6.62,7.88,2.96,7.88,6.62Z"/><path class="cls-3" d="m641.49,389.39c-.67,3.15-2.79,5.37-4.75,4.95-1.96-.41-3.01-3.3-2.34-6.45.67-3.15,2.79-5.37,4.75-4.95,1.96.41,3.01,3.3,2.34,6.45Z"/><path class="cls-19" d="m373.06,311.57s-5.5-9.26-8.97-9.84c-3.47-.58-18.23-1.16-21.41.87-3.18,2.02-2.31,8.68-1.16,10.41,1.16,1.74,5.79,2.6,9.84,2.31,4.05-.29,17.65.87,17.65.87,0,0,8.1,5.79,10.99,5.21,2.89-.58,6.65-6.94,4.05-10.41-2.6-3.47-6.65-2.6-10.99.58Z"/><line class="cls-16" x1="373.06" y1="311.57" x2="382.61" y2="313.59"/><path class="cls-16" d="m287.81,257.68s-8.27,2.41-9.3,4.82c-1.03,2.41-1.72,4.13-1.72,4.13l-24.8,36.16s-8.95-.69-11.71,6.89c-2.76,7.58-1.72,17.91-1.72,17.91,0,0-6.54,16.19-6.89,28.24-.34,12.05,1.03,21.01,1.03,21.01,0,0-1.72-22.04,3.44-28.93,5.17-6.89,15.84-1.72,19.97,10.68,4.13,12.4,8.95,35.47,8.95,35.47l109.17,22.39s-5.51-28.93,1.72-45.46c7.23-16.53,40.98-15.5,47.18,14.46,6.2,29.96,4.13,35.47,4.13,35.47,0,0,23.07,4.82,93.33,3.79,70.26-1.03,108.83-9.3,119.16-12.05,0,0,2.41-12.74,3.1-20.32.69-7.58-2.07-12.74-2.07-12.74,0,0-.69-13.78-2.41-18.6-1.72-4.82-6.89-12.05-6.89-12.05,0,0-5.17-12.05-13.78-19.63-8.61-7.58-22.73-15.15-26.17-16.88-3.44-1.72-7.92-2.76-14.46-7.23-6.54-4.48-47.18-32.72-59.92-40.29-12.74-7.58-40.29-11.36-45.8-12.4-5.51-1.03-68.88-5.51-90.92-5.51s-67.5,1.03-92.64,10.68Z"/><path class="cls-3" d="m605.33,320.42s-6.93,2.52-5.04,5.04c1.89,2.52,12.29,9.14,17.01,17.33,4.73,8.19,5.67,12.29,7.88,12.29s6.98-4.08,6.32-6.14c-.65-2.06-4.12-20.64-26.17-28.52Z"/><path class="cls-19" d="m258.64,383.56c-.07-3.39-.42-6.61-.99-9.55l-4.66,5.68c.2,1.2.33,2.5.36,3.85,0,.19,0,.38,0,.57l5.29,1.68c.01-.73.01-1.48,0-2.23Z"/><path class="cls-19" d="m250.38,373.14c.48.51.93,1.22,1.32,2.08l3.28-9.82c-1.14-2.42-2.49-4.26-3.95-5.3l-.65,13.04Z"/><path class="cls-19" d="m252.69,389.93c-.24.93-.53,1.75-.87,2.45l2.69,11.73c1.29-2.1,2.35-4.98,3.07-8.38l-4.89-5.8Z"/><path class="cls-19" d="m244.76,377.43l-4.75-6.43c-.7,3.16-1.1,6.78-1.13,10.66l5.31.3c.06-1.65.26-3.18.57-4.52Z"/><path class="cls-19" d="m246.38,373.52c.39-.53.81-.91,1.27-1.13l-.78-13.03c-1.68.58-3.2,2.22-4.45,4.64l3.96,9.53Z"/><path class="cls-19" d="m249.51,394.79c-.17.04-.33.07-.5.07-.48,0-.95-.19-1.4-.54l-2.6,11.23c1.31,1.51,2.77,2.36,4.28,2.37.41,0,.82-.07,1.22-.19l-.99-12.95Z"/><path class="cls-19" d="m244.72,388.36l-5.25,2.29c.54,3.74,1.43,7.09,2.56,9.83l3.37-9.68c-.27-.74-.49-1.56-.68-2.43Z"/><path class="cls-3" d="m233.48,286.37s58.14,3.25,63.25,5.38c5.11,2.13,6.39,7.24,6.39,7.24l-72.86-2.56,3.21-10.07Z"/><path class="cls-3" d="m275.99,257.74s-33.15,24.11-45.71,38.69l-12.78-2.56,35.45-34.01,23.04-2.12Z"/><path class="cls-9" d="m310.25,303.24s6.26-30.56,16.42-47.53c0,0-35.59-4.79-74.36,1.18-2.25.35-37.38,29.75-37.38,29.75,0,0-20.5,17.5-20.88,20.88,0,0,12.72,44.29,59.01,74.53l50.28,8.13s-3.37-54.6-2.88-66.38c.3-7.13,9.78-20.55,9.78-20.55Zm-84.24-11.07c-5.11-1.7,0-6.82,0-6.82l30.34-24.21c20.88-3.41,58.7.36,58.7.36-2.56,4.69-11.93,37.49-11.93,37.49,0,0-72-5.11-77.12-6.82Z"/><path class="cls-19" d="m209.82,304.24l-6.43-.56s-2.52.28-2.52,2.52,1.96,2.52,1.96,2.52l12.46,1.13s-.29-3.77,1.66-4.89l-7.13-.71Z"/><path class="cls-9" d="m201.18,309.45s2.05,2.66,4.1,2.66,9.83.82,9.83.82"/><polygon class="cls-19" points="607.6 262.9 610.08 262.71 620.55 294.5 617.58 294.88 607.6 262.9"/><path class="cls-3" d="m590.56,261.33s3.7-2.02,4.54-2.02,3.87,4.04,3.87,4.04c0,0-4.21,2.36-4.71,2.52-.5.17-3.37-1.18-3.37-1.18,0,0-2.86,2.19-4.21,4.71-1.35,2.52-6.9,11.78-6.9,11.78,0,0-3.03,4.38-6.23,2.52-3.2-1.85-4.38-6.23-3.03-8.08,1.35-1.85,20.03-14.3,20.03-14.3Z"/><path class="cls-3" d="m587.7,266.04s1.01,1.18,2.02,1.35c1.01.17,3.87.17,3.87.17,0,0,3.2-.34.67-1.68-2.52-1.35-4.54-2.02-4.54-2.02"/></g><g id="Location_1"><path class="cls-3" d="m126.96,185.19l-13.51,9.82-12.31-9.53h-.02c-5.57-3.98-9.21-10.49-9.21-17.86,0-12.08,9.8-21.88,21.88-21.88s21.88,9.79,21.88,21.88c0,7.25-3.27,13.58-8.71,17.57Z"/><path class="cls-18" d="m94.58,167.48c0,4.67,1.66,8.95,4.42,12.28,3.53,4.26,8.86,6.97,14.82,6.97,5.5,0,10.45-2.3,13.96-5.99,3.28-3.45,5.29-8.13,5.29-13.26,0-10.63-8.61-19.25-19.25-19.25s-19.25,8.62-19.25,19.25Z"/><path class="cls-22" d="m113.83,186.73c4.75,0,9.09-1.72,12.45-4.57-.63-6.51-6.11-11.6-12.78-11.6s-11.84,4.82-12.71,11.07c3.43,3.16,8.01,5.1,13.04,5.1Z"/><circle class="cls-22" cx="113.5" cy="161.87" r="8.48" transform="translate(-74.32 223.6) rotate(-73.15)"/><path class="cls-3" d="m361.74,246.53l-13.51,9.82-12.31-9.53h-.02c-5.57-3.98-9.21-10.49-9.21-17.86,0-12.08,9.8-21.88,21.88-21.88s21.88,9.79,21.88,21.88c0,7.25-3.27,13.58-8.71,17.57Z"/><path class="cls-18" d="m329.36,228.83c0,4.67,1.66,8.95,4.42,12.28,3.53,4.26,8.86,6.97,14.82,6.97,5.5,0,10.45-2.3,13.96-5.99,3.28-3.45,5.29-8.13,5.29-13.26,0-10.63-8.61-19.25-19.25-19.25s-19.25,8.62-19.25,19.25Z"/><path class="cls-22" d="m348.61,248.08c4.75,0,9.09-1.72,12.45-4.57-.63-6.51-6.11-11.6-12.78-11.6s-11.84,4.82-12.71,11.07c3.43,3.16,8.01,5.1,13.04,5.1Z"/><circle class="cls-22" cx="348.28" cy="223.22" r="8.48" transform="translate(50.76 510.64) rotate(-76.67)"/></g><g id="Character_1"><ellipse class="cls-19" cx="118.1" cy="430.3" rx="50.52" ry="4.98"/><path class="cls-3" d="m145.74,403.55l5.2,16.03s7.68,1.75,9.57,1.52,8.8-1.64,8.96-.32c.16,1.32-2.04,2.16-2.72,2.82s-5.48,3.73-7.3,4.52c-1.82.8-7.37,2.43-9,3.2-1.63.77-3.57,2.16-4.83-.37s-1.84-5.71-2.05-7.41-8.55-15.24-8.55-15.24l10.72-4.75Z"/><path class="cls-9" d="m160.51,421.1c-.33.04-.8.02-1.32-.05l.44,2.26s-10.05,3.66-15.07,4.92c.28.92.63,1.86,1.06,2.71,1.26,2.53,3.2,1.14,4.83.37,1.63-.77,7.18-2.4,9-3.2,1.82-.8,6.62-3.87,7.3-4.52.69-.66,2.88-1.5,2.72-2.82-.16-1.32-7.08.09-8.96.32Z"/><path class="cls-3" d="m179.18,248.11s3.11-.65,2.79.06c-.32.71-2.53,1.23-2.53,1.23,0,0,2.4.06,1.94.58s-1.75.65-1.75.65l-1.04,1.04s-.97.91-1.23,1.17c-.26.26-2.33,1.88-2.79,1.04-.45-.84,0-2.59.45-2.98.45-.39,4.15-2.79,4.15-2.79Z"/><path class="cls-3" d="m123.05,258.26l16.67,9.09,29.31-10.51s1.28-1.93,3.15-4.97c1.87-3.04,5.18-4.47,6.62-5.36,1.44-.89,2.68-.47,2.26.42-.41.89-3.09,1.71-3.64,2.32-.55.62-3.31,4.38-3.31,4.38,0,0,4.95-2.45,5.77-2.52.82-.07,1.3.55.13,1.3-1.17.75-3.16,1.91-3.57,2.46-.41.55-1.38,1.71-2.13,2.26-.76.55-1.99,1.16-1.99,1.16,0,0-28.34,18.99-29.87,19.76s-4.76.77-4.76.77l-15.34-6.29.69-14.27Z"/><path class="cls-9" d="m143.66,265.97l-3.93,1.38-16.67-9.09-.69,14.27,15.34,6.29s3.22,0,4.76-.77c.35-.18,2.33-1.37,5.16-3.1l-3.96-8.99Z"/><path class="cls-3" d="m78.57,399.84l-4.93,11.71s-7.05,6.83-6.97,7.8,1.17,3.3,3.17,4.33,5.1,2.71,5.1,2.71c0,0,4.79,3.14,7.8,3.85,3.01.71,6.18,1.92,6.67.31.49-1.6-5.24-4.89-5.24-4.89,0,0-2.59-4.96-3.08-6.47-.49-1.51-.21-4.83-.21-4.83l9-10.12-11.32-4.39Z"/><path class="cls-9" d="m84.17,425.66s-1.91-.06-3.28-.51c-1.37-.45-4.52-3.34-7.56-6.93-1.07-1.26-2.16-2.34-3.12-3.22-1.78,1.85-3.57,3.85-3.53,4.35.09.97,1.17,3.3,3.17,4.33,2,1.03,5.1,2.71,5.1,2.71,0,0,4.79,3.14,7.8,3.85,3.01.71,6.18,1.92,6.67.31s-5.24-4.89-5.24-4.89Z"/><polygon class="cls-3" points="93.55 326.59 93.49 362.7 74.93 399.07 91.68 409.06 111.75 370.78 116.63 343.9 93.55 326.59"/><path class="cls-3" d="m92.39,306.98s-4.23,13.85-3.46,16.92c.77,3.08,23.99,49.77,23.99,49.77l18.7,38.31,20.77-6.15-17.69-50-13.08-30.77v-16.54l-29.23-1.54Z"/><polygon class="cls-3" points="121.47 239.76 119.6 244.68 114.75 242.15 115.33 236.87 121.47 239.76"/><path class="cls-9" d="m122.61,245.93s-2.9.87-2.59,3.7c.31,2.83,4.79,13.71,5.89,19.5,1.1,5.79.17,7.11.37,9.65s-.97,26.2-.63,30.33-1.27,4.43-12.11,4.19c-10.84-.24-16.98-1.69-20.4-3.64-3.41-1.95-1.83-4.92-.62-7.31,1.21-2.39,6.19-33.66,8.79-41.57,2.6-7.91,3.07-10.85,7.32-13.69,4.25-2.84,4.82-2.31,5.11-3.54.29-1.23.96-3.05.96-3.05l7.91,5.43Z"/><path class="cls-16" d="m113.11,276.34s2.9,3.16,6.91,3.59"/><path class="cls-16" d="m111.59,287.06c.38.5.78.97,1.21,1.42"/><path class="cls-16" d="m106.76,276.86s1.2,4.52,3.68,8.51"/><path class="cls-3" d="m131.69,217.59s1.4,3.1.28,6.4c-1.12,3.3-1.41,4.9-.53,6.2s1.26,2.91-.17,3.7c-1.43.79-2.31.83-2.31.83,0,0-2.53,6.2-4.21,6.81-1.68.61-7.14-1.49-8.89-2.65-1.75-1.16-.32-13.4.89-15.49,1.21-2.09,14.94-5.8,14.94-5.8Z"/><path class="cls-16" d="m126.81,234.72c-1.88.09-2.67-2.01-2.67-2.01,0,0-1.18,3.47.26,3.96,1.45.48,2.4-1.95,2.4-1.95Z"/><path class="cls-26" d="m129.76,227.79c-.17.85-.67,1.46-1.11,1.37-.44-.09-.66-.85-.48-1.69.17-.85.67-1.46,1.11-1.37.44.09.66.85.48,1.69Z"/><path class="cls-19" d="m136.05,211.64s.08,4.54-3.31,6.88c-3.39,2.34-12.09,4.89-13.41,5.66-1.32.77-1.3,2.22-1.3,2.22,0,0-1.24,7.99-1.23,11.43s3.15,6.26,2.01,8.79c-1.14,2.52-4.78,2.68-7.11,2.73-2.33.05-1.66,3.39-5.76,5.51-4.1,2.12-7.38,1.11-9.57-2.09-2.2-3.2-1.13-4.82-3.02-5.5s-4.98.82-7.19-4.48c-2.21-5.31-.2-9.31,1.4-10.35,1.61-1.04,7.67-.71,7.35-7.33-.31-6.62,5.29-17.11,13.59-21.37,8.3-4.26,21.65,3.87,23.45,4.69s4.15,1.54,4.09,3.22Z"/><path class="cls-14" d="m128.08,299.77s-4.67-35.16-8.48-43.61c-3.8-8.45-7.77-12.5-13.78-5.13-6,7.38-8.82,50.55-8.82,50.55"/><path class="cls-9" d="m115.68,261.41s-13.9,32.44-16,34.52c-2.1,2.08-9.96,6.46-11.97,1.32-2.01-5.14,14.78-43.09,18.51-46.92,3.73-3.83,10.83-2.28,11,4.52"/><path class="cls-3" d="m116.87,292.72s2.9-.63,4.49-2.19c1.59-1.56,3.54-2.13,5.25-1.95,1.71.19,4.08.13,4.21,1.88s-1.08,2.72-1.58,2.98c-.5.26-.99,6.19-2.34,6.99-1.35.8-6.55-.56-8.41-.92s-13.55,1.51-19.47.87c-5.92-.65-11.24-.91-11.32-3.12s2.78-8.2,9.42-8.42c6.64-.22,12.18,3.85,19.74,3.89Z"/><path class="cls-20" d="m128.08,299.77s-2.87,1.74-16.29,2c-13.42.27-14.79-.19-14.79-.19,0,0-3.99,17.21-2.56,19.1,2.62,3.44,29.63,2.76,32.27.21,2.64-2.55,1.36-21.12,1.36-21.12Z"/><path class="cls-16" d="m127.87,224.95s.91-1.42,2.63-.68"/></g></svg>