<?xml version="1.0" encoding="UTF-8"?><svg id="Calque_2" xmlns="http://www.w3.org/2000/svg" viewBox="0 0 729.72 453.8"><defs><style>.cls-1,.cls-2,.cls-3,.cls-4,.cls-5{fill:#fff;}.cls-1,.cls-6,.cls-7,.cls-8,.cls-9,.cls-10{stroke:#263238;}.cls-1,.cls-6,.cls-7,.cls-8,.cls-9,.cls-10,.cls-11{stroke-miterlimit:10;}.cls-6{fill:#5c5c5c;}.cls-3{opacity:.38;}.cls-7{fill:#263238;}.cls-8,.cls-12{fill:#92e3a9;}.cls-4{opacity:.62;}.cls-5{opacity:.7;}.cls-13{fill:#787878;}.cls-9,.cls-11{fill:none;}.cls-10{fill:#878787;}.cls-11{stroke:#878787;}</style></defs><g id="Background_Simple"><path class="cls-12" d="m727.5,189.39c-2.74-40.59-28.08-79.3-65.31-108.81-21.78-17.26-47.73-32.25-75.83-43.75-29.16-11.94-60.88-25.32-95.47-26.75-8.54-.35-17.25.08-25.57,1.96-31.86,7.17,32.85,29.01,41.33,32.23C416.5,20.32,323.22-3.96,226.1.54c-18.73.87-38.1,2.99-54.25,10.39-16.16,7.4-28.29,21.28-25.21,34.72,2.54,11.11,14.23,23.33,4.21,32.27-2.86,2.55-7.02,4.12-11.1,5.48-20.97,7.01-43.77,10.93-63.54,19.7-30.61,13.58-50.8,37.79-59.52,62.99-8.72,25.2-7.03,51.46-1.98,76.81,9.5,47.7,31.53,94.76,73.37,131.14,59.77,51.96,154.99,77.07,249.32,79.56,114.14,3.02,236.31-27.85,308.6-94.88,10.72-9.94,20.47-20.91,23.97-33.17,3.5-12.26-.36-26.07-13.23-33.8-3.47-2.08-7.91-4.28-7.7-7.63.29-4.54,8.23-6.23,14.3-7.31,39.8-7.07,61.2-40.53,63.97-70.27.53-5.74.59-11.46.21-17.15Z"/><path class="cls-5" d="m727.5,189.39c-2.74-40.59-28.08-79.3-65.31-108.81-21.78-17.26-47.73-32.25-75.83-43.75-29.16-11.94-60.88-25.32-95.47-26.75-8.54-.35-17.25.08-25.57,1.96-31.86,7.17,32.85,29.01,41.33,32.23C416.5,20.32,323.22-3.96,226.1.54c-18.73.87-38.1,2.99-54.25,10.39-16.16,7.4-28.29,21.28-25.21,34.72,2.54,11.11,14.23,23.33,4.21,32.27-2.86,2.55-7.02,4.12-11.1,5.48-20.97,7.01-43.77,10.93-63.54,19.7-30.61,13.58-50.8,37.79-59.52,62.99-8.72,25.2-7.03,51.46-1.98,76.81,9.5,47.7,31.53,94.76,73.37,131.14,59.77,51.96,154.99,77.07,249.32,79.56,114.14,3.02,236.31-27.85,308.6-94.88,10.72-9.94,20.47-20.91,23.97-33.17,3.5-12.26-.36-26.07-13.23-33.8-3.47-2.08-7.91-4.28-7.7-7.63.29-4.54,8.23-6.23,14.3-7.31,39.8-7.07,61.2-40.53,63.97-70.27.53-5.74.59-11.46.21-17.15Z"/></g><g id="Clouds"><path class="cls-9" d="m207.5,78.03c2.89-1.7,5.33-5.1,8.1-7.27,7.06-5.52,15.7-8.81,24.72-8.62,20.69.42,29.13,22.8,31.66,23.64,2.53.84,8.02-8.02,17.31-6.33s10.98,9.29,13.93,11.4c2.96,2.11,10.98-3.8,16.04-2.11,5.07,1.69,4.22,7.18,9.29,7.6,5.07.42,8.02-2.11,11.82-1.27,3.8.84,6.33,4.64,6.33,4.64-58.69,0-117.39-.01-176.08,0-42.91,0-85.82,0-128.73,0,4.63-7.83,11.09-15.06,19.66-18.12,13.07-4.66,27.21,1.29,40.9,3.53,1.37.22,2.85.39,4.08-.25,1.65-.87,2.27-2.88,2.7-4.7,2.45-10.37,3.8-21.34,9.53-30.32,8.94-14.03,28.63-20.01,43.86-13.33,14.31,6.27,22.65,20.94,31.03,34.13,1.68,2.65,3.48,5.35,6.12,7.04,3.07,1.97,5.53,1.65,7.73.35Z"/><path class="cls-9" d="m474.15,126.15c1.66-.98,3.06-2.93,4.66-4.18,4.06-3.18,9.03-5.06,14.22-4.96,11.9.24,16.75,13.11,18.21,13.6,1.46.49,4.61-4.61,9.95-3.64,5.34.97,6.31,5.34,8.01,6.56,1.7,1.21,6.31-2.19,9.23-1.21,2.91.97,2.43,4.13,5.34,4.37,2.91.24,4.61-1.21,6.8-.73,2.19.49,3.64,2.67,3.64,2.67-33.76,0-67.51,0-101.27,0-24.68,0-49.36,0-74.04,0,2.66-4.5,6.38-8.66,11.3-10.42,7.51-2.68,15.65.74,23.52,2.03.79.13,1.64.23,2.35-.15.95-.5,1.31-1.66,1.55-2.7,1.41-5.96,2.19-12.27,5.48-17.44,5.14-8.07,16.46-11.51,25.23-7.67,8.23,3.61,13.03,12.04,17.85,19.63.97,1.52,2,3.08,3.52,4.05,1.77,1.13,3.18.95,4.45.2Z"/><path class="cls-9" d="m621.18,42.65c1.4-.82,2.57-2.46,3.91-3.51,3.41-2.67,7.59-4.25,11.95-4.17,9.99.2,14.07,11.01,15.3,11.42,1.22.41,3.88-3.88,8.36-3.06,4.49.82,5.3,4.49,6.73,5.51,1.43,1.02,5.3-1.84,7.75-1.02,2.45.82,2.04,3.47,4.49,3.67,2.45.2,3.88-1.02,5.71-.61,1.84.41,3.06,2.24,3.06,2.24-28.36,0-56.72,0-85.08,0-20.73,0-41.47,0-62.2,0,2.24-3.78,5.36-7.28,9.5-8.76,6.31-2.25,13.15.62,19.76,1.7.66.11,1.38.19,1.97-.12.8-.42,1.1-1.39,1.31-2.27,1.19-5.01,1.84-10.31,4.6-14.65,4.32-6.78,13.83-9.67,21.19-6.44,6.91,3.03,10.94,10.12,14.99,16.49.81,1.28,1.68,2.58,2.96,3.4,1.48.95,2.67.8,3.74.17Z"/></g><g id="Mountains"><path class="cls-9" d="m716.07,304.35c5.13,4.55,8.06,7.18,8.06,7.18"/><path class="cls-9" d="m556.9,175.11c43.24,28.04,121.62,96.1,153.34,124.09"/><path class="cls-9" d="m248.8,195.49c59.08,17.65,143.92,55.32,143.92,55.32,0,0,114.53-81.5,136.67-87.89,3.47-1,10.64,1.96,20.26,7.67"/><path class="cls-9" d="m.25,287.56s164.16-95.08,200.05-100.67c8.59-1.34,24.09,1.62,42.69,6.91"/></g><g id="Trees"><path class="cls-12" d="m666.58,169.89c0,36.93-21.85,66.87-48.79,66.87s-48.79-29.94-48.79-66.87S590.84,6.04,617.78,6.04s48.79,126.92,48.79,163.85Z"/><path class="cls-3" d="m666.58,169.89c0,36.93-21.85,66.87-48.79,66.87s-48.79-29.94-48.79-66.87S590.84,6.04,617.78,6.04s48.79,126.92,48.79,163.85Z"/><polygon class="cls-13" points="591.43 173.21 606.99 178.64 614.7 189.12 613.35 221.21 604.38 215.12 613.07 227.85 610.43 419.02 622.21 419.02 619.3 203.46 645.14 189.21 630.37 194.68 633.33 185.78 626.27 196.19 619.22 198.8 618.71 169.6 644.38 135.49 630.63 149.25 632.95 139.68 626.37 153.5 618.57 161.31 617.78 115.68 614.99 182.23 590.66 156.45 604.02 174.61 591.43 173.21"/><path class="cls-2" d="m644.63,115.82s.45,4.48-2,7.77c-2.45,3.29-6.87,4.14-6.87,4.14,0,0-.45-4.48,2-7.77,2.45-3.29,6.87-4.14,6.87-4.14Z"/><path class="cls-2" d="m659.33,136.48s.45,4.48-2,7.77c-2.45,3.29-6.87,4.14-6.87,4.14,0,0-.45-4.48,2-7.77,2.45-3.29,6.87-4.14,6.87-4.14Z"/><path class="cls-2" d="m659.33,176.71s-1.08,4.37-4.5,6.65c-3.41,2.27-7.87,1.59-7.87,1.59,0,0,1.08-4.37,4.5-6.65,3.41-2.27,7.87-1.59,7.87-1.59Z"/><path class="cls-2" d="m578.56,176.71s1.08,4.37,4.5,6.65c3.42,2.27,7.87,1.59,7.87,1.59,0,0-1.08-4.37-4.5-6.65-3.42-2.27-7.87-1.59-7.87-1.59Z"/><path class="cls-2" d="m642.34,160.01s.45,4.48-2,7.77c-2.45,3.29-6.87,4.14-6.87,4.14,0,0-.45-4.48,2-7.77,2.45-3.29,6.87-4.14,6.87-4.14Z"/><path class="cls-2" d="m638.53,93.34s.45,4.48-2,7.77c-2.45,3.29-6.87,4.14-6.87,4.14,0,0-.45-4.48,2-7.77,2.45-3.29,6.87-4.14,6.87-4.14Z"/><path class="cls-2" d="m629.77,110.49s.45,4.48-2,7.77-6.87,4.14-6.87,4.14c0,0-.45-4.48,2-7.77,2.45-3.29,6.87-4.14,6.87-4.14Z"/><path class="cls-2" d="m650.57,98s.45,4.48-2,7.77c-2.45,3.29-6.87,4.14-6.87,4.14,0,0-.45-4.48,2-7.77,2.45-3.29,6.87-4.14,6.87-4.14Z"/><path class="cls-2" d="m582.97,98s-.45,4.48,2,7.77c2.45,3.29,6.87,4.14,6.87,4.14,0,0,.45-4.48-2-7.77-2.45-3.29-6.87-4.14-6.87-4.14Z"/><path class="cls-2" d="m640.44,72.39s.45,4.48-2,7.77c-2.45,3.29-6.87,4.14-6.87,4.14,0,0-.45-4.48,2-7.77,2.45-3.29,6.87-4.14,6.87-4.14Z"/><path class="cls-2" d="m636.13,50.13s1.56,4.23.02,8.03c-1.54,3.8-5.61,5.74-5.61,5.74,0,0-1.56-4.23-.02-8.03,1.55-3.8,5.61-5.74,5.61-5.74Z"/><path class="cls-2" d="m605.27,44.31s3.99,2.09,5.39,5.95c1.4,3.86-.32,8.02-.32,8.02,0,0-3.99-2.09-5.39-5.95-1.4-3.86.32-8.02.32-8.02Z"/><path class="cls-2" d="m619.66,70.93s2.84,3.5,2.61,7.59c-.24,4.1-3.46,7.24-3.46,7.24,0,0-2.84-3.5-2.61-7.59.24-4.1,3.46-7.24,3.46-7.24Z"/><path class="cls-2" d="m618.9,31.31s2.84,3.5,2.61,7.59c-.24,4.1-3.46,7.24-3.46,7.24,0,0-2.84-3.5-2.61-7.59.24-4.1,3.46-7.24,3.46-7.24Z"/><path class="cls-2" d="m586.61,115.82s-.45,4.48,2,7.77,6.87,4.14,6.87,4.14c0,0,.45-4.48-2-7.77-2.45-3.29-6.87-4.14-6.87-4.14Z"/><path class="cls-2" d="m578.23,140.2s-.45,4.48,2,7.77c2.45,3.29,6.87,4.14,6.87,4.14,0,0,.45-4.48-2-7.77-2.45-3.29-6.87-4.14-6.87-4.14Z"/><path class="cls-2" d="m600.47,149.06s-.45,4.48,2,7.77c2.45,3.29,6.87,4.14,6.87,4.14,0,0,.45-4.48-2-7.77-2.45-3.29-6.87-4.14-6.87-4.14Z"/><path class="cls-2" d="m606.56,115.27s-1.72,4.17-.31,8.02c1.41,3.86,5.4,5.94,5.4,5.94,0,0,1.72-4.17.31-8.02-1.41-3.85-5.4-5.94-5.4-5.94Z"/><path class="cls-2" d="m590.8,205.17s4.5.08,7.58-2.63c3.08-2.71,3.57-7.19,3.57-7.19,0,0-4.5-.08-7.58,2.63-3.08,2.71-3.57,7.19-3.57,7.19Z"/><path class="cls-2" d="m634.03,200.24s1.22,4.34,4.71,6.5c3.49,2.16,7.91,1.33,7.91,1.33,0,0-1.22-4.34-4.71-6.5-3.49-2.16-7.91-1.33-7.91-1.33Z"/><path class="cls-2" d="m595.83,93.34s-.45,4.48,2,7.77c2.45,3.29,6.87,4.14,6.87,4.14,0,0,.45-4.48-2-7.77-2.45-3.29-6.87-4.14-6.87-4.14Z"/><path class="cls-2" d="m595.75,73.53s-.45,4.48,2,7.77c2.45,3.29,6.87,4.14,6.87,4.14,0,0,.45-4.48-2-7.77-2.45-3.29-6.87-4.14-6.87-4.14Z"/><path class="cls-12" d="m148.25,216.09c0,30.08-17.8,54.47-39.75,54.47s-39.75-24.39-39.75-54.47,17.8-133.47,39.75-133.47,39.75,103.39,39.75,133.47Z"/><path class="cls-3" d="m148.25,216.09c0,30.08-17.8,54.47-39.75,54.47s-39.75-24.39-39.75-54.47,17.8-133.47,39.75-133.47,39.75,103.39,39.75,133.47Z"/><polygon class="cls-13" points="87.03 218.79 99.71 223.22 105.99 231.75 104.89 257.89 97.58 252.93 104.66 263.3 102.51 419.02 112.11 419.02 109.73 243.43 130.79 231.83 118.75 236.28 121.17 229.03 115.41 237.51 109.67 239.64 109.26 215.85 130.17 188.07 118.96 199.28 120.86 191.48 115.5 202.74 109.14 209.09 108.5 171.93 106.22 226.14 86.41 205.14 97.29 219.93 87.03 218.79"/><path class="cls-2" d="m130.37,172.04s.37,3.65-1.63,6.33c-2,2.68-5.6,3.38-5.6,3.38,0,0-.37-3.65,1.63-6.33,2-2.68,5.6-3.38,5.6-3.38Z"/><path class="cls-2" d="m142.35,188.88s.37,3.65-1.63,6.33c-2,2.68-5.6,3.38-5.6,3.38,0,0-.37-3.65,1.63-6.33,2-2.68,5.6-3.38,5.6-3.38Z"/><path class="cls-2" d="m142.34,221.65s-.88,3.56-3.66,5.41c-2.78,1.85-6.41,1.29-6.41,1.29,0,0,.88-3.56,3.66-5.41,2.78-1.85,6.41-1.29,6.41-1.29Z"/><path class="cls-2" d="m76.55,221.65s.88,3.56,3.66,5.41c2.78,1.85,6.41,1.29,6.41,1.29,0,0-.88-3.56-3.67-5.41-2.78-1.85-6.41-1.29-6.41-1.29Z"/><path class="cls-2" d="m128.51,208.04s.37,3.65-1.63,6.33c-2,2.68-5.6,3.38-5.6,3.38,0,0-.37-3.65,1.63-6.33,2-2.68,5.6-3.38,5.6-3.38Z"/><path class="cls-2" d="m125.4,153.73s.37,3.65-1.63,6.33c-2,2.68-5.6,3.38-5.6,3.38,0,0-.37-3.65,1.63-6.33,2-2.68,5.6-3.38,5.6-3.38Z"/><path class="cls-2" d="m118.26,167.7s.37,3.65-1.63,6.33c-2,2.68-5.6,3.38-5.6,3.38,0,0-.37-3.65,1.63-6.33,2-2.68,5.6-3.38,5.6-3.38Z"/><path class="cls-2" d="m135.21,157.53s.37,3.65-1.63,6.33-5.6,3.38-5.6,3.38c0,0-.37-3.65,1.63-6.33,2-2.68,5.6-3.38,5.6-3.38Z"/><path class="cls-2" d="m80.15,157.53s-.37,3.65,1.63,6.33c2,2.68,5.6,3.38,5.6,3.38,0,0,.37-3.65-1.63-6.33-2-2.68-5.6-3.38-5.6-3.38Z"/><path class="cls-2" d="m126.95,136.67s.37,3.65-1.63,6.33c-2,2.68-5.6,3.38-5.6,3.38,0,0-.37-3.65,1.63-6.33,2-2.68,5.6-3.38,5.6-3.38Z"/><path class="cls-2" d="m123.45,118.53s1.27,3.44.01,6.54c-1.26,3.1-4.57,4.67-4.57,4.67,0,0-1.27-3.44-.01-6.54,1.26-3.1,4.57-4.67,4.57-4.67Z"/><path class="cls-2" d="m98.31,113.8s3.25,1.7,4.39,4.84c1.14,3.14-.26,6.53-.26,6.53,0,0-3.25-1.7-4.39-4.84-1.14-3.14.26-6.53.26-6.53Z"/><path class="cls-2" d="m110.03,135.48s2.32,2.85,2.12,6.18c-.19,3.34-2.82,5.9-2.82,5.9,0,0-2.32-2.85-2.12-6.18s2.82-5.9,2.82-5.9Z"/><path class="cls-2" d="m109.41,103.2s2.32,2.85,2.12,6.18c-.19,3.34-2.82,5.9-2.82,5.9,0,0-2.32-2.85-2.12-6.18.19-3.34,2.82-5.9,2.82-5.9Z"/><path class="cls-2" d="m83.11,172.04s-.37,3.65,1.63,6.33c2,2.68,5.6,3.38,5.6,3.38,0,0,.37-3.65-1.63-6.33-2-2.68-5.6-3.38-5.6-3.38Z"/><path class="cls-2" d="m76.28,191.91s-.37,3.65,1.63,6.33c2,2.68,5.6,3.38,5.6,3.38,0,0,.37-3.65-1.63-6.33-2-2.68-5.6-3.38-5.6-3.38Z"/><path class="cls-2" d="m94.4,199.12s-.37,3.65,1.63,6.33c2,2.68,5.6,3.38,5.6,3.38,0,0,.37-3.65-1.63-6.33-2-2.68-5.6-3.38-5.6-3.38Z"/><path class="cls-2" d="m99.36,171.6s-1.4,3.39-.25,6.53c1.14,3.14,4.4,4.84,4.4,4.84,0,0,1.4-3.39.25-6.53-1.14-3.14-4.4-4.84-4.4-4.84Z"/><path class="cls-2" d="m86.52,244.83s3.67.07,6.18-2.14c2.51-2.21,2.9-5.86,2.9-5.86,0,0-3.67-.07-6.18,2.14-2.51,2.21-2.91,5.86-2.91,5.86Z"/><path class="cls-2" d="m121.73,240.81s1,3.53,3.84,5.29c2.84,1.76,6.45,1.09,6.45,1.09,0,0-1-3.53-3.84-5.29-2.84-1.76-6.45-1.09-6.45-1.09Z"/><path class="cls-2" d="m90.62,153.73s-.37,3.65,1.63,6.33c2,2.68,5.6,3.38,5.6,3.38,0,0,.37-3.65-1.63-6.33-2-2.68-5.6-3.38-5.6-3.38Z"/><path class="cls-2" d="m90.55,137.6s-.37,3.65,1.63,6.33c2,2.68,5.6,3.38,5.6,3.38,0,0,.37-3.65-1.63-6.33-2-2.68-5.6-3.38-5.6-3.38Z"/><path class="cls-12" d="m462.85,197.32c0,32.86-19.44,59.51-43.42,59.51s-43.42-26.64-43.42-59.51,19.44-145.82,43.42-145.82,43.42,112.95,43.42,145.82Z"/><path class="cls-3" d="m462.85,197.32c0,32.86-19.44,59.51-43.42,59.51s-43.42-26.64-43.42-59.51,19.44-145.82,43.42-145.82,43.42,112.95,43.42,145.82Z"/><polygon class="cls-13" points="395.97 200.27 409.82 205.1 416.68 214.43 415.48 242.98 407.49 237.56 415.23 248.89 412.88 419.02 423.36 419.02 420.77 227.19 443.77 214.51 430.62 219.37 433.26 211.46 426.98 220.72 420.7 223.04 420.25 197.05 443.09 166.7 430.85 178.95 432.92 170.43 427.07 182.73 420.12 189.67 419.42 149.07 416.94 208.29 395.29 185.35 407.18 201.52 395.97 200.27"/><path class="cls-2" d="m443.31,149.2s.4,3.99-1.78,6.92c-2.18,2.93-6.12,3.69-6.12,3.69,0,0-.4-3.99,1.78-6.92,2.18-2.93,6.12-3.69,6.12-3.69Z"/><path class="cls-2" d="m456.4,167.58s.4,3.99-1.78,6.92c-2.18,2.93-6.12,3.69-6.12,3.69,0,0-.4-3.99,1.78-6.92,2.18-2.93,6.12-3.69,6.12-3.69Z"/><path class="cls-2" d="m456.4,203.39s-.96,3.89-4,5.92c-3.04,2.02-7,1.41-7,1.41,0,0,.96-3.89,4-5.92,3.04-2.02,7-1.41,7-1.41Z"/><path class="cls-2" d="m384.52,203.39s.96,3.89,4,5.92c3.04,2.02,7,1.41,7,1.41,0,0-.96-3.89-4-5.92-3.04-2.02-7-1.41-7-1.41Z"/><path class="cls-2" d="m441.28,188.52s.4,3.99-1.78,6.92c-2.18,2.93-6.12,3.69-6.12,3.69,0,0-.4-3.99,1.78-6.92,2.18-2.93,6.12-3.69,6.12-3.69Z"/><path class="cls-2" d="m437.89,129.19s.4,3.99-1.78,6.92c-2.18,2.93-6.12,3.69-6.12,3.69,0,0-.4-3.99,1.78-6.92,2.18-2.93,6.12-3.69,6.12-3.69Z"/><path class="cls-2" d="m430.09,144.45s.4,3.99-1.78,6.92c-2.18,2.93-6.12,3.69-6.12,3.69,0,0-.4-3.99,1.78-6.92,2.18-2.93,6.12-3.69,6.12-3.69Z"/><path class="cls-2" d="m448.6,133.34s.4,3.99-1.78,6.92c-2.18,2.93-6.12,3.69-6.12,3.69,0,0-.4-3.99,1.78-6.92,2.18-2.93,6.12-3.69,6.12-3.69Z"/><path class="cls-2" d="m388.45,133.34s-.4,3.99,1.78,6.92c2.18,2.93,6.12,3.69,6.12,3.69,0,0,.4-3.99-1.78-6.92-2.18-2.93-6.12-3.69-6.12-3.69Z"/><path class="cls-2" d="m439.58,110.54s.4,3.99-1.78,6.92c-2.18,2.93-6.12,3.69-6.12,3.69,0,0-.4-3.99,1.78-6.92,2.18-2.93,6.12-3.69,6.12-3.69Z"/><path class="cls-2" d="m435.75,90.74s1.39,3.76.02,7.14c-1.37,3.38-5,5.11-5,5.11,0,0-1.39-3.76-.02-7.14,1.38-3.38,5-5.11,5-5.11Z"/><path class="cls-2" d="m408.29,85.56s3.55,1.86,4.8,5.29c1.24,3.43-.29,7.14-.29,7.14,0,0-3.55-1.86-4.8-5.29-1.25-3.43.29-7.14.29-7.14Z"/><path class="cls-2" d="m421.1,109.25s2.53,3.11,2.32,6.76c-.21,3.65-3.08,6.45-3.08,6.45,0,0-2.53-3.11-2.32-6.76.21-3.65,3.08-6.45,3.08-6.45Z"/><path class="cls-2" d="m420.42,73.99s2.53,3.11,2.32,6.76c-.21,3.65-3.08,6.44-3.08,6.44,0,0-2.53-3.11-2.32-6.76s3.08-6.45,3.08-6.45Z"/><path class="cls-2" d="m391.68,149.2s-.4,3.99,1.78,6.92c2.18,2.93,6.12,3.69,6.12,3.69,0,0,.4-3.99-1.78-6.92-2.18-2.93-6.12-3.69-6.12-3.69Z"/><path class="cls-2" d="m384.22,170.89s-.4,3.99,1.78,6.92c2.18,2.93,6.12,3.69,6.12,3.69,0,0,.4-3.99-1.78-6.92-2.18-2.93-6.12-3.69-6.12-3.69Z"/><path class="cls-2" d="m404.02,178.77s-.4,3.99,1.78,6.92c2.18,2.93,6.12,3.69,6.12,3.69,0,0,.4-3.99-1.78-6.92-2.18-2.93-6.12-3.69-6.12-3.69Z"/><path class="cls-2" d="m409.43,148.71s-1.53,3.71-.28,7.14c1.25,3.43,4.81,5.29,4.81,5.29,0,0,1.53-3.71.28-7.14-1.25-3.43-4.81-5.28-4.81-5.28Z"/><path class="cls-2" d="m395.41,228.71s4.01.07,6.75-2.34c2.74-2.41,3.17-6.4,3.17-6.4,0,0-4.01-.07-6.75,2.34-2.74,2.41-3.17,6.4-3.17,6.4Z"/><path class="cls-2" d="m433.88,224.33s1.09,3.86,4.19,5.78c3.1,1.93,7.04,1.19,7.04,1.19,0,0-1.09-3.86-4.19-5.78-3.1-1.93-7.04-1.19-7.04-1.19Z"/><path class="cls-2" d="m399.89,129.19s-.4,3.99,1.78,6.92c2.18,2.93,6.12,3.69,6.12,3.69,0,0,.4-3.99-1.78-6.92-2.18-2.93-6.12-3.69-6.12-3.69Z"/><path class="cls-2" d="m399.82,111.56s-.4,3.99,1.78,6.92c2.18,2.93,6.12,3.69,6.12,3.69,0,0,.4-3.99-1.78-6.92-2.18-2.93-6.12-3.69-6.12-3.69Z"/><path class="cls-12" d="m257.87,249.66c0,25.11-14.85,45.46-33.17,45.46s-33.17-20.35-33.17-45.46,14.85-111.39,33.17-111.39,33.17,86.29,33.17,111.39Z"/><path class="cls-3" d="m257.87,249.66c0,25.11-14.85,45.46-33.17,45.46s-33.17-20.35-33.17-45.46,14.85-111.39,33.17-111.39,33.17,86.29,33.17,111.39Z"/><polygon class="cls-13" points="206.78 251.91 217.36 255.6 222.6 262.73 221.69 284.54 215.59 280.4 221.5 289.06 219.7 419.02 227.71 419.02 225.73 272.48 243.3 262.79 233.26 266.51 235.27 260.46 230.47 267.54 225.68 269.31 225.33 249.46 242.78 226.27 233.43 235.62 235.01 229.12 230.54 238.52 225.24 243.82 224.7 212.8 222.8 258.04 206.26 240.52 215.35 252.86 206.78 251.91"/><path class="cls-2" d="m242.95,212.9s.31,3.05-1.36,5.28c-1.67,2.24-4.67,2.82-4.67,2.82,0,0-.31-3.05,1.36-5.28,1.67-2.24,4.67-2.82,4.67-2.82Z"/><path class="cls-2" d="m252.95,226.94s.31,3.05-1.36,5.29c-1.67,2.24-4.67,2.82-4.67,2.82,0,0-.31-3.05,1.36-5.28,1.67-2.24,4.67-2.82,4.67-2.82Z"/><path class="cls-2" d="m252.94,254.29s-.74,2.97-3.06,4.52c-2.32,1.55-5.35,1.08-5.35,1.08,0,0,.74-2.97,3.06-4.52,2.32-1.55,5.35-1.08,5.35-1.08Z"/><path class="cls-2" d="m198.04,254.29s.74,2.97,3.06,4.52c2.32,1.55,5.35,1.08,5.35,1.08,0,0-.74-2.97-3.06-4.52-2.32-1.55-5.35-1.08-5.35-1.08Z"/><path class="cls-2" d="m241.4,242.94s.31,3.05-1.36,5.28c-1.67,2.24-4.67,2.82-4.67,2.82,0,0-.31-3.05,1.36-5.28s4.67-2.82,4.67-2.82Z"/><path class="cls-2" d="m238.81,197.62s.31,3.05-1.36,5.28c-1.67,2.24-4.67,2.82-4.67,2.82,0,0-.31-3.05,1.36-5.28,1.67-2.24,4.67-2.82,4.67-2.82Z"/><path class="cls-2" d="m232.85,209.27s.31,3.05-1.36,5.28c-1.67,2.24-4.67,2.82-4.67,2.82,0,0-.31-3.05,1.36-5.28,1.67-2.24,4.67-2.82,4.67-2.82Z"/><path class="cls-2" d="m246.99,200.78s.31,3.05-1.36,5.28c-1.67,2.24-4.67,2.82-4.67,2.82,0,0-.31-3.05,1.36-5.28,1.67-2.24,4.67-2.82,4.67-2.82Z"/><path class="cls-2" d="m201.04,200.78s-.31,3.05,1.36,5.28c1.67,2.24,4.67,2.82,4.67,2.82,0,0,.31-3.05-1.36-5.28-1.67-2.24-4.67-2.82-4.67-2.82Z"/><path class="cls-2" d="m240.1,183.37s.31,3.05-1.36,5.28c-1.67,2.24-4.67,2.82-4.67,2.82,0,0-.31-3.05,1.36-5.28,1.67-2.24,4.67-2.82,4.67-2.82Z"/><path class="cls-2" d="m237.17,168.24s1.06,2.87.01,5.46c-1.05,2.58-3.82,3.9-3.82,3.9,0,0-1.06-2.87-.01-5.46,1.05-2.58,3.82-3.9,3.82-3.9Z"/><path class="cls-2" d="m216.2,164.28s2.71,1.42,3.66,4.04c.95,2.62-.22,5.45-.22,5.45,0,0-2.71-1.42-3.66-4.04-.95-2.62.22-5.45.22-5.45Z"/><path class="cls-2" d="m225.98,182.38s1.93,2.38,1.77,5.16c-.16,2.78-2.35,4.92-2.35,4.92,0,0-1.93-2.38-1.77-5.16.16-2.78,2.35-4.92,2.35-4.92Z"/><path class="cls-2" d="m225.46,155.44s1.93,2.38,1.77,5.16c-.16,2.78-2.35,4.92-2.35,4.92,0,0-1.93-2.38-1.77-5.16s2.35-4.92,2.35-4.92Z"/><path class="cls-2" d="m203.51,212.9s-.31,3.05,1.36,5.28c1.67,2.24,4.67,2.82,4.67,2.82,0,0,.31-3.05-1.36-5.28-1.67-2.24-4.67-2.82-4.67-2.82Z"/><path class="cls-2" d="m197.81,229.47s-.31,3.05,1.36,5.28c1.67,2.24,4.67,2.82,4.67,2.82,0,0,.31-3.05-1.36-5.28-1.67-2.24-4.67-2.82-4.67-2.82Z"/><path class="cls-2" d="m212.93,235.49s-.31,3.05,1.36,5.28c1.67,2.24,4.67,2.82,4.67,2.82,0,0,.31-3.05-1.36-5.29-1.67-2.24-4.67-2.82-4.67-2.82Z"/><path class="cls-2" d="m217.07,212.52s-1.17,2.83-.21,5.45c.96,2.62,3.67,4.04,3.67,4.04,0,0,1.17-2.83.21-5.45-.96-2.62-3.67-4.04-3.67-4.04Z"/><path class="cls-2" d="m206.36,273.64s3.06.06,5.16-1.79c2.09-1.84,2.42-4.89,2.42-4.89,0,0-3.06-.06-5.16,1.79-2.09,1.84-2.42,4.89-2.42,4.89Z"/><path class="cls-2" d="m235.75,270.29s.83,2.95,3.2,4.42c2.37,1.47,5.38.91,5.38.91,0,0-.83-2.95-3.2-4.42-2.37-1.47-5.38-.91-5.38-.91Z"/><path class="cls-2" d="m209.78,197.62s-.31,3.05,1.36,5.28c1.67,2.24,4.67,2.82,4.67,2.82,0,0,.31-3.05-1.36-5.28-1.67-2.24-4.67-2.82-4.67-2.82Z"/><path class="cls-2" d="m209.72,184.15s-.31,3.05,1.36,5.28c1.67,2.24,4.67,2.82,4.67,2.82,0,0,.31-3.05-1.36-5.28-1.67-2.24-4.67-2.82-4.67-2.82Z"/></g><g id="Plants"><path class="cls-13" d="m656.81,403.82c-8.26,1.94-15.17,7.73-18.6,15.4h.47c3.41-7.47,10.16-13.1,18.23-14.99.12-.03.19-.14.16-.26-.03-.12-.14-.19-.26-.16Z"/><path class="cls-13" d="m644.52,416.36c-2.03-1.68-5.24,1.1-5.19,1.2-.23.39-.44.79-.65,1.19.45-.41,1.92-.64,3.85-.21,1.93.36,3.98-.66,1.99-2.18Z"/><path class="cls-13" d="m638.44,411.79c-2.05-1.57-3.05,1.84-1.71,3.44,1.26,1.6,1.94,2.91,1.91,3.51.18-.42.37-.83.57-1.24-.1-.01,1.11-4.15-.77-5.71Z"/><path class="cls-13" d="m647.12,413.45c-1.72-1.99-5.32.18-5.29.28-.29.34-.56.69-.83,1.05.5-.32,1.99-.29,3.82.47,1.84.69,4.02.05,2.31-1.8Z"/><path class="cls-13" d="m641.9,407.92c-1.76-1.89-3.3,1.28-2.24,3.07.97,1.79,1.43,3.18,1.3,3.76.25-.38.5-.74.76-1.11-.1-.03,1.77-3.86.17-5.72Z"/><path class="cls-13" d="m650.16,411.03c-1.36-2.25-5.27-.72-5.25-.62-.34.29-.67.58-.99.89.55-.23,2,.06,3.67,1.11,1.69.99,3.94.72,2.57-1.38Z"/><path class="cls-13" d="m645.94,404.71c-1.41-2.16-3.46.71-2.71,2.64.66,1.92.88,3.37.66,3.91.3-.33.61-.64.93-.95-.09-.04,2.37-3.5,1.12-5.6Z"/><path class="cls-13" d="m653.56,409.14c-.97-2.44-5.08-1.59-5.08-1.49-.38.23-.75.46-1.12.71.58-.13,1.96.39,3.43,1.71,1.5,1.26,3.77,1.37,2.77-.93Z"/><path class="cls-13" d="m650.46,402.2c-1.03-2.37-3.54.13-3.12,2.16.33,2.01.31,3.47,0,3.97.35-.27.71-.53,1.08-.78-.09-.05,2.93-3.06,2.05-5.34Z"/><path class="cls-13" d="m657.27,407.85c-.55-2.57-4.78-2.41-4.79-2.31-.41.16-.83.33-1.23.51.59-.04,1.87.71,3.1,2.26,1.27,1.49,3.51,1.98,2.91-.46Z"/><path class="cls-13" d="m655.38,400.49c-.62-2.51-3.54-.46-3.48,1.61-.01,2.03-.29,3.47-.67,3.92.39-.21.79-.41,1.2-.6-.08-.07,3.43-2.53,2.95-4.93Z"/><path class="cls-13" d="m654.88,404.56c-.06-.03,3.13-2.18,5.21-2.52,2.03-.39,2.81,1.04,2.47,1.88-.32.85-1.75,1.06-2.96.99-1.19-.17-4.7-.41-4.72-.35Z"/><path class="cls-13" d="m654.83,404.7s-.01,0-.02,0c-.05-.03-.08-.09-.07-.15,0,0,0,0,0-.01.01-.04.02-.07.07-.09.51-.49,3.47-2.24,5.25-2.53,1-.19,1.86.03,2.35.63.35.43.46.99.28,1.45-.44,1.15-2.48,1.12-3.1,1.08-1.16-.16-4.36-.38-4.67-.36-.03.01-.07.01-.1,0Zm6.75-2.43c-.34-.14-.81-.21-1.46-.08-1.64.27-3.95,1.66-4.8,2.23.3.01.77.04,1.5.1.94.07,2.17.17,2.81.26,1.16.07,2.51-.13,2.8-.9.14-.36.05-.81-.24-1.16-.12-.14-.31-.32-.61-.44Z"/><path class="cls-13" d="m636.4,419.23c-3.27-7.64-2.84-16.53,1.31-23.81.06-.1.02-.23-.08-.29-.1-.06-.23-.02-.29.08-4.19,7.34-4.66,16.31-1.41,24.03h.47Z"/><path class="cls-13" d="m638.15,412.74c-2.61.34-2.76,4.59-2.65,4.62.13.43.27.86.43,1.29,0-.61.83-1.84,2.47-2.97,1.58-1.17,2.23-3.36-.25-2.95Z"/><path class="cls-13" d="m630.67,414.08c-2.55.43-.72,3.49,1.35,3.59,2.03.17,3.45.56,3.87.99-.18-.42-.36-.84-.52-1.26-.08.07-2.28-3.64-4.71-3.32Z"/><path class="cls-13" d="m637.79,408.85c-2.63-.09-3.49,4.02-3.4,4.07.06.44.12.88.2,1.32.11-.59,1.14-1.65,2.94-2.48,1.76-.88,2.77-2.91.26-2.91Z"/><path class="cls-13" d="m630.19,408.92c-2.58,0-1.3,3.29.72,3.73,1.97.5,3.3,1.12,3.64,1.6-.11-.44-.2-.87-.29-1.31-.09.05-1.63-3.92-4.07-4.02Z"/><path class="cls-13" d="m638.08,404.98c-2.57-.53-4.11,3.37-4.03,3.42-.02.44-.03.89-.03,1.33.21-.56,1.4-1.43,3.31-1.93,1.88-.57,3.21-2.4.74-2.82Z"/><path class="cls-13" d="m630.58,403.77c-2.54-.43-1.83,3.02.09,3.79,1.86.82,3.07,1.65,3.32,2.18-.03-.44-.05-.89-.07-1.33-.09.04-.95-4.12-3.34-4.63Z"/><path class="cls-13" d="m639.02,401.2c-2.45-.95-4.62,2.64-4.55,2.71-.09.43-.18.87-.25,1.3.3-.51,1.62-1.17,3.59-1.35,1.95-.24,3.57-1.83,1.2-2.66Z"/><path class="cls-13" d="m631.83,398.75c-2.44-.85-2.31,2.68-.55,3.76,1.7,1.12,2.75,2.13,2.91,2.7.04-.44.09-.88.16-1.32-.1.03-.25-4.23-2.52-5.13Z"/><path class="cls-13" d="m640.6,397.61c-2.26-1.35-5.02,1.86-4.95,1.93-.16.41-.32.83-.46,1.25.38-.46,1.79-.89,3.77-.74,1.96.08,3.84-1.23,1.65-2.45Z"/><path class="cls-13" d="m633.92,393.98c-2.26-1.25-2.75,2.28-1.19,3.64,1.48,1.39,2.35,2.57,2.41,3.16.11-.43.24-.86.38-1.28-.11.02.48-4.24-1.61-5.52Z"/><path class="cls-13" d="m636.57,397.12c-.07.02.53-3.78,1.7-5.53,1.1-1.76,2.67-1.35,3.06-.53.4.81-.41,2.01-1.29,2.84-.93.76-3.5,3.17-3.47,3.22Z"/><path class="cls-13" d="m636.63,397.25s-.01,0-.02,0c-.06.02-.12,0-.16-.05,0,0,0,0,0-.01-.02-.03-.04-.06-.01-.11-.01-.71.71-4.07,1.72-5.57.54-.86,1.29-1.34,2.06-1.29.55.03,1.04.34,1.25.78.54,1.1-.87,2.58-1.32,3.01-.91.74-3.25,2.93-3.44,3.17-.01.03-.04.06-.07.07Zm2.82-6.6c-.33.15-.71.45-1.06,1.01-.92,1.38-1.47,4.03-1.63,5.04.21-.21.55-.53,1.09-1.03.69-.64,1.61-1.47,2.1-1.88.84-.8,1.61-1.93,1.25-2.67-.17-.35-.56-.59-1.01-.62-.18-.01-.44.01-.74.15Z"/><path class="cls-13" d="m82.11,403.82c-8.26,1.94-15.17,7.73-18.6,15.4h.47c3.41-7.47,10.16-13.1,18.23-14.99.12-.03.19-.14.16-.26-.03-.12-.14-.19-.26-.16Z"/><path class="cls-13" d="m69.81,416.36c-2.03-1.68-5.24,1.1-5.19,1.2-.23.39-.44.79-.65,1.19.45-.41,1.92-.64,3.85-.21,1.93.36,3.98-.66,1.99-2.18Z"/><path class="cls-13" d="m63.74,411.79c-2.05-1.57-3.05,1.84-1.71,3.44,1.26,1.6,1.94,2.91,1.91,3.51.18-.42.37-.83.57-1.24-.1-.01,1.11-4.15-.77-5.71Z"/><path class="cls-13" d="m72.41,413.45c-1.72-1.99-5.32.18-5.29.28-.29.34-.56.69-.83,1.05.5-.32,1.99-.29,3.82.47,1.84.69,4.02.05,2.31-1.8Z"/><path class="cls-13" d="m67.19,407.92c-1.76-1.89-3.3,1.28-2.24,3.07.97,1.79,1.43,3.18,1.3,3.76.25-.38.5-.74.76-1.11-.1-.03,1.77-3.86.17-5.72Z"/><path class="cls-13" d="m75.45,411.03c-1.36-2.25-5.27-.72-5.25-.62-.34.29-.67.58-.99.89.55-.23,2,.06,3.67,1.11,1.69.99,3.94.72,2.57-1.38Z"/><path class="cls-13" d="m71.23,404.71c-1.41-2.16-3.46.71-2.71,2.64.66,1.92.88,3.37.66,3.91.3-.33.61-.64.93-.95-.09-.04,2.37-3.5,1.12-5.6Z"/><path class="cls-13" d="m78.86,409.14c-.97-2.44-5.08-1.59-5.08-1.49-.38.23-.75.46-1.12.71.58-.13,1.96.39,3.43,1.71,1.5,1.26,3.77,1.37,2.77-.93Z"/><path class="cls-13" d="m75.76,402.2c-1.03-2.37-3.54.13-3.12,2.16.33,2.01.31,3.47,0,3.97.35-.27.71-.53,1.08-.78-.09-.05,2.93-3.06,2.05-5.34Z"/><path class="cls-13" d="m82.56,407.85c-.55-2.57-4.78-2.41-4.79-2.31-.41.16-.83.33-1.23.51.59-.04,1.87.71,3.1,2.26,1.27,1.49,3.51,1.98,2.91-.46Z"/><path class="cls-13" d="m80.68,400.49c-.62-2.51-3.54-.46-3.48,1.61-.01,2.03-.29,3.47-.67,3.92.39-.21.79-.41,1.2-.6-.08-.07,3.43-2.53,2.95-4.93Z"/><path class="cls-13" d="m80.18,404.56c-.06-.03,3.13-2.18,5.21-2.52,2.03-.39,2.81,1.04,2.47,1.88-.32.85-1.75,1.06-2.96.99-1.19-.17-4.7-.41-4.72-.35Z"/><path class="cls-13" d="m80.12,404.7s-.01,0-.02,0c-.05-.03-.08-.09-.07-.15,0,0,0,0,0-.01.01-.04.02-.07.07-.09.51-.49,3.47-2.24,5.25-2.53,1-.19,1.86.03,2.35.63.35.43.46.99.28,1.45-.44,1.15-2.48,1.12-3.1,1.08-1.16-.16-4.36-.38-4.67-.36-.03.01-.07.01-.1,0Zm6.75-2.43c-.34-.14-.81-.21-1.46-.08-1.64.27-3.95,1.66-4.8,2.23.3.01.77.04,1.5.1.94.07,2.17.17,2.81.26,1.16.07,2.51-.13,2.8-.9.14-.36.05-.81-.24-1.16-.12-.14-.31-.32-.61-.44Z"/><path class="cls-13" d="m61.69,419.23c-3.27-7.64-2.84-16.53,1.31-23.81.06-.1.02-.23-.08-.29-.1-.06-.23-.02-.29.08-4.19,7.34-4.66,16.31-1.41,24.03h.47Z"/><path class="cls-13" d="m63.45,412.74c-2.61.34-2.76,4.59-2.65,4.62.13.43.27.86.43,1.29,0-.61.83-1.84,2.47-2.97,1.58-1.17,2.23-3.36-.25-2.95Z"/><path class="cls-13" d="m55.97,414.08c-2.55.43-.73,3.49,1.35,3.59,2.03.17,3.45.56,3.87.99-.18-.42-.36-.84-.52-1.26-.08.07-2.28-3.64-4.71-3.32Z"/><path class="cls-13" d="m63.09,408.85c-2.63-.09-3.49,4.02-3.4,4.07.06.44.12.88.2,1.32.11-.59,1.14-1.65,2.94-2.48,1.76-.88,2.77-2.91.26-2.91Z"/><path class="cls-13" d="m55.49,408.92c-2.58,0-1.3,3.29.72,3.73,1.97.5,3.3,1.12,3.64,1.6-.11-.44-.2-.87-.29-1.31-.09.05-1.63-3.92-4.07-4.02Z"/><path class="cls-13" d="m63.38,404.98c-2.57-.53-4.11,3.37-4.03,3.42-.02.44-.03.89-.03,1.33.21-.56,1.4-1.43,3.31-1.93,1.88-.57,3.21-2.4.74-2.82Z"/><path class="cls-13" d="m55.88,403.77c-2.54-.43-1.83,3.02.09,3.79,1.86.82,3.07,1.65,3.32,2.18-.03-.44-.06-.89-.07-1.33-.09.04-.95-4.12-3.34-4.63Z"/><path class="cls-13" d="m64.32,401.2c-2.45-.95-4.62,2.64-4.55,2.71-.09.43-.18.87-.25,1.3.3-.51,1.62-1.17,3.59-1.35,1.95-.24,3.57-1.83,1.2-2.66Z"/><path class="cls-13" d="m57.12,398.75c-2.44-.85-2.31,2.68-.55,3.76,1.7,1.12,2.75,2.13,2.91,2.7.04-.44.09-.88.16-1.32-.1.03-.25-4.23-2.52-5.13Z"/><path class="cls-13" d="m65.89,397.61c-2.26-1.35-5.02,1.86-4.95,1.93-.16.41-.32.83-.46,1.25.38-.46,1.79-.89,3.77-.74,1.96.08,3.84-1.23,1.65-2.45Z"/><path class="cls-13" d="m59.21,393.98c-2.26-1.25-2.75,2.28-1.19,3.64,1.48,1.39,2.35,2.57,2.41,3.16.11-.43.24-.86.38-1.28-.11.02.48-4.24-1.61-5.52Z"/><path class="cls-13" d="m61.86,397.12c-.07.02.53-3.78,1.7-5.53,1.1-1.76,2.67-1.35,3.06-.53.4.81-.41,2.01-1.29,2.84-.93.76-3.5,3.17-3.47,3.22Z"/><path class="cls-13" d="m61.92,397.25s-.01,0-.02,0c-.06.02-.12,0-.16-.05,0,0,0,0,0-.01-.02-.03-.04-.06-.01-.11-.01-.71.71-4.07,1.72-5.57.54-.86,1.29-1.34,2.06-1.29.55.03,1.04.34,1.25.78.54,1.1-.87,2.58-1.32,3.01-.91.74-3.25,2.93-3.44,3.17-.01.03-.04.06-.07.07Zm2.82-6.6c-.33.15-.71.45-1.06,1.01-.92,1.38-1.47,4.03-1.63,5.04.21-.21.55-.53,1.09-1.03.69-.64,1.61-1.47,2.1-1.88.84-.8,1.61-1.93,1.25-2.67-.17-.35-.56-.59-1.01-.62-.18-.01-.44.01-.74.15Z"/><path class="cls-13" d="m399.81,403.82c-8.26,1.94-15.17,7.73-18.6,15.4h.47c3.41-7.47,10.16-13.1,18.23-14.99.12-.03.19-.14.16-.26-.03-.12-.14-.19-.26-.16Z"/><path class="cls-13" d="m387.51,416.36c-2.03-1.68-5.24,1.1-5.19,1.2-.23.39-.44.79-.65,1.19.45-.41,1.92-.64,3.85-.21,1.93.36,3.98-.66,1.99-2.18Z"/><path class="cls-13" d="m381.44,411.79c-2.05-1.57-3.05,1.84-1.71,3.44,1.26,1.6,1.94,2.91,1.91,3.51.18-.42.37-.83.57-1.24-.1-.01,1.11-4.15-.77-5.71Z"/><path class="cls-13" d="m390.12,413.45c-1.72-1.99-5.32.18-5.29.28-.29.34-.56.69-.83,1.05.5-.32,1.99-.29,3.82.47,1.84.69,4.02.05,2.31-1.8Z"/><path class="cls-13" d="m384.9,407.92c-1.76-1.89-3.3,1.28-2.24,3.07.97,1.79,1.43,3.18,1.3,3.76.25-.38.5-.74.76-1.11-.1-.03,1.77-3.86.17-5.72Z"/><path class="cls-13" d="m393.15,411.03c-1.36-2.25-5.27-.72-5.25-.62-.34.29-.67.58-.99.89.55-.23,2,.06,3.67,1.11,1.69.99,3.94.72,2.57-1.38Z"/><path class="cls-13" d="m388.93,404.71c-1.41-2.16-3.46.71-2.71,2.64.66,1.92.88,3.37.66,3.91.3-.33.61-.64.93-.95-.09-.04,2.37-3.5,1.12-5.6Z"/><path class="cls-13" d="m396.56,409.14c-.97-2.44-5.08-1.59-5.08-1.49-.38.23-.75.46-1.12.71.58-.13,1.96.39,3.43,1.71,1.5,1.26,3.77,1.37,2.77-.93Z"/><path class="cls-13" d="m393.46,402.2c-1.03-2.37-3.54.13-3.12,2.16.33,2.01.31,3.47,0,3.97.35-.27.71-.53,1.08-.78-.09-.05,2.93-3.06,2.05-5.34Z"/><path class="cls-13" d="m400.27,407.85c-.55-2.57-4.78-2.41-4.79-2.31-.41.16-.83.33-1.23.51.59-.04,1.87.71,3.1,2.26,1.27,1.49,3.51,1.98,2.91-.46Z"/><path class="cls-13" d="m398.38,400.49c-.62-2.51-3.54-.46-3.48,1.61-.01,2.03-.29,3.47-.67,3.92.39-.21.79-.41,1.2-.6-.08-.07,3.43-2.53,2.95-4.93Z"/><path class="cls-13" d="m397.88,404.56c-.06-.03,3.13-2.18,5.21-2.52,2.03-.39,2.81,1.04,2.47,1.88-.32.85-1.75,1.06-2.96.99-1.19-.17-4.7-.41-4.72-.35Z"/><path class="cls-13" d="m397.83,404.7s-.01,0-.02,0c-.05-.03-.08-.09-.07-.15,0,0,0,0,0-.01.01-.04.02-.07.07-.09.51-.49,3.47-2.24,5.25-2.53,1-.19,1.86.03,2.35.63.35.43.46.99.28,1.45-.44,1.15-2.48,1.12-3.1,1.08-1.16-.16-4.36-.38-4.67-.36-.03.01-.07.01-.1,0Zm6.75-2.43c-.34-.14-.81-.21-1.46-.08-1.64.27-3.95,1.66-4.8,2.23.3.01.77.04,1.5.1.94.07,2.17.17,2.81.26,1.16.07,2.51-.13,2.8-.9.14-.36.05-.81-.24-1.16-.12-.14-.31-.32-.61-.44Z"/><path class="cls-13" d="m379.39,419.23c-3.27-7.64-2.84-16.53,1.31-23.81.06-.1.02-.23-.08-.29-.1-.06-.23-.02-.29.08-4.19,7.34-4.66,16.31-1.41,24.03h.47Z"/><path class="cls-13" d="m381.15,412.74c-2.61.34-2.76,4.59-2.65,4.62.13.43.27.86.43,1.29,0-.61.83-1.84,2.47-2.97,1.58-1.17,2.23-3.36-.25-2.95Z"/><path class="cls-13" d="m373.67,414.08c-2.55.43-.72,3.49,1.35,3.59,2.03.17,3.45.56,3.87.99-.18-.42-.36-.84-.52-1.26-.08.07-2.28-3.64-4.71-3.32Z"/><path class="cls-13" d="m380.79,408.85c-2.63-.09-3.49,4.02-3.4,4.07.06.44.12.88.2,1.32.11-.59,1.14-1.65,2.94-2.48,1.76-.88,2.77-2.91.26-2.91Z"/><path class="cls-13" d="m373.19,408.92c-2.58,0-1.3,3.29.72,3.73,1.97.5,3.3,1.12,3.64,1.6-.11-.44-.2-.87-.29-1.31-.09.05-1.63-3.92-4.07-4.02Z"/><path class="cls-13" d="m381.08,404.98c-2.57-.53-4.11,3.37-4.03,3.42-.02.44-.03.89-.03,1.33.21-.56,1.4-1.43,3.31-1.93,1.88-.57,3.21-2.4.74-2.82Z"/><path class="cls-13" d="m373.58,403.77c-2.54-.43-1.83,3.02.09,3.79,1.86.82,3.07,1.65,3.32,2.18-.03-.44-.05-.89-.07-1.33-.09.04-.95-4.12-3.34-4.63Z"/><path class="cls-13" d="m382.02,401.2c-2.45-.95-4.62,2.64-4.55,2.71-.09.43-.18.87-.25,1.3.3-.51,1.62-1.17,3.59-1.35,1.95-.24,3.57-1.83,1.2-2.66Z"/><path class="cls-13" d="m374.83,398.75c-2.44-.85-2.31,2.68-.55,3.76,1.7,1.12,2.75,2.13,2.91,2.7.04-.44.09-.88.16-1.32-.1.03-.25-4.23-2.52-5.13Z"/><path class="cls-13" d="m383.6,397.61c-2.26-1.35-5.02,1.86-4.95,1.93-.16.41-.32.83-.46,1.25.38-.46,1.79-.89,3.77-.74,1.96.08,3.84-1.23,1.65-2.45Z"/><path class="cls-13" d="m376.92,393.98c-2.26-1.25-2.75,2.28-1.19,3.64,1.48,1.39,2.35,2.57,2.41,3.16.11-.43.24-.86.38-1.28-.11.02.48-4.24-1.61-5.52Z"/><path class="cls-13" d="m379.57,397.12c-.07.02.53-3.78,1.7-5.53,1.1-1.76,2.67-1.35,3.06-.53.4.81-.41,2.01-1.29,2.84-.93.76-3.5,3.17-3.47,3.22Z"/><path class="cls-13" d="m379.63,397.25s-.01,0-.02,0c-.06.02-.12,0-.16-.05,0,0,0,0,0-.01-.02-.03-.04-.06-.01-.11-.01-.71.71-4.07,1.72-5.57.54-.86,1.29-1.34,2.06-1.29.55.03,1.04.34,1.25.78.54,1.1-.87,2.58-1.32,3.01-.91.74-3.25,2.93-3.44,3.17-.01.03-.04.06-.07.07Zm2.82-6.6c-.33.15-.71.45-1.06,1.01-.92,1.38-1.47,4.03-1.63,5.04.21-.21.55-.53,1.09-1.03.69-.64,1.61-1.47,2.1-1.88.84-.8,1.61-1.93,1.25-2.67-.17-.35-.56-.59-1.01-.62-.18-.01-.44.01-.74.15Z"/><path class="cls-13" d="m344.93,403.82c8.26,1.94,15.17,7.73,18.6,15.4h-.47c-3.41-7.47-10.16-13.1-18.23-14.99-.12-.03-.19-.14-.16-.26.03-.12.14-.19.26-.16Z"/><path class="cls-13" d="m357.23,416.36c2.03-1.68,5.24,1.1,5.19,1.2.23.39.44.79.65,1.19-.45-.41-1.92-.64-3.85-.21-1.93.36-3.98-.66-1.99-2.18Z"/><path class="cls-13" d="m363.3,411.79c2.05-1.57,3.05,1.84,1.71,3.44-1.26,1.6-1.94,2.91-1.91,3.51-.18-.42-.37-.83-.57-1.24.1-.01-1.11-4.15.77-5.71Z"/><path class="cls-13" d="m354.62,413.45c1.72-1.99,5.32.18,5.29.28.29.34.56.69.83,1.05-.5-.32-1.99-.29-3.82.47-1.84.69-4.02.05-2.31-1.8Z"/><path class="cls-13" d="m359.84,407.92c1.76-1.89,3.3,1.28,2.24,3.07-.97,1.79-1.43,3.18-1.3,3.76-.25-.38-.5-.74-.76-1.11.1-.03-1.77-3.86-.17-5.72Z"/><path class="cls-13" d="m351.58,411.03c1.36-2.25,5.27-.72,5.25-.62.34.29.67.58.99.89-.55-.23-2,.06-3.67,1.11-1.69.99-3.94.72-2.57-1.38Z"/><path class="cls-13" d="m355.81,404.71c1.41-2.16,3.46.71,2.71,2.64-.66,1.92-.88,3.37-.66,3.91-.3-.33-.61-.64-.93-.95.09-.04-2.37-3.5-1.12-5.6Z"/><path class="cls-13" d="m348.18,409.14c.97-2.44,5.08-1.59,5.08-1.49.38.23.75.46,1.12.71-.58-.13-1.96.39-3.43,1.71-1.5,1.26-3.77,1.37-2.77-.93Z"/><path class="cls-13" d="m351.28,402.2c1.03-2.37,3.54.13,3.12,2.16-.33,2.01-.31,3.47,0,3.97-.35-.27-.71-.53-1.08-.78.09-.05-2.93-3.06-2.05-5.34Z"/><path class="cls-13" d="m344.47,407.85c.55-2.57,4.78-2.41,4.79-2.31.41.16.83.33,1.23.51-.59-.04-1.87.71-3.1,2.26-1.27,1.49-3.51,1.98-2.91-.46Z"/><path class="cls-13" d="m346.36,400.49c.62-2.51,3.54-.46,3.48,1.61.01,2.03.29,3.47.67,3.92-.39-.21-.79-.41-1.2-.6.08-.07-3.43-2.53-2.95-4.93Z"/><path class="cls-13" d="m346.86,404.56c.06-.03-3.13-2.18-5.21-2.52-2.03-.39-2.81,1.04-2.47,1.88.32.85,1.75,1.06,2.96.99,1.19-.17,4.7-.41,4.72-.35Z"/><path class="cls-13" d="m346.91,404.7s.01,0,.02,0c.05-.03.08-.09.07-.15,0,0,0,0,0-.01-.01-.04-.02-.07-.07-.09-.51-.49-3.47-2.24-5.25-2.53-1-.19-1.86.03-2.35.63-.35.43-.46.99-.28,1.45.44,1.15,2.48,1.12,3.1,1.08,1.16-.16,4.36-.38,4.67-.36.03.01.07.01.1,0Zm-6.75-2.43c.34-.14.81-.21,1.46-.08,1.64.27,3.95,1.66,4.8,2.23-.3.01-.77.04-1.5.1-.94.07-2.17.17-2.81.26-1.16.07-2.51-.13-2.8-.9-.14-.36-.05-.81.24-1.16.12-.14.31-.32.61-.44Z"/><path class="cls-13" d="m365.35,419.23c3.27-7.64,2.84-16.53-1.31-23.81-.06-.1-.02-.23.08-.29.1-.06.23-.02.29.08,4.19,7.34,4.66,16.31,1.41,24.03h-.47Z"/><path class="cls-13" d="m363.59,412.74c2.61.34,2.76,4.59,2.65,4.62-.13.43-.27.86-.43,1.29,0-.61-.83-1.84-2.47-2.97-1.58-1.17-2.23-3.36.25-2.95Z"/><path class="cls-13" d="m371.07,414.08c2.55.43.72,3.49-1.35,3.59-2.03.17-3.45.56-3.87.99.18-.42.36-.84.52-1.26.08.07,2.28-3.64,4.71-3.32Z"/><path class="cls-13" d="m363.95,408.85c2.63-.09,3.49,4.02,3.4,4.07-.06.44-.12.88-.2,1.32-.11-.59-1.14-1.65-2.94-2.48-1.76-.88-2.77-2.91-.26-2.91Z"/><path class="cls-13" d="m371.55,408.92c2.58,0,1.3,3.29-.72,3.73-1.97.5-3.3,1.12-3.64,1.6.11-.44.2-.87.29-1.31.09.05,1.63-3.92,4.07-4.02Z"/><path class="cls-13" d="m363.66,404.98c2.57-.53,4.11,3.37,4.03,3.42.02.44.03.89.03,1.33-.21-.56-1.4-1.43-3.31-1.93-1.88-.57-3.21-2.4-.74-2.82Z"/><path class="cls-13" d="m371.16,403.77c2.54-.43,1.83,3.02-.09,3.79-1.86.82-3.07,1.65-3.32,2.18.03-.44.05-.89.07-1.33.09.04.95-4.12,3.34-4.63Z"/><path class="cls-13" d="m362.72,401.2c2.45-.95,4.62,2.64,4.55,2.71.09.43.18.87.25,1.3-.3-.51-1.62-1.17-3.59-1.35-1.95-.24-3.57-1.83-1.2-2.66Z"/><path class="cls-13" d="m369.91,398.75c2.44-.85,2.31,2.68.55,3.76-1.7,1.12-2.75,2.13-2.91,2.7-.04-.44-.09-.88-.16-1.32.1.03.25-4.23,2.52-5.13Z"/><path class="cls-13" d="m361.14,397.61c2.26-1.35,5.02,1.86,4.95,1.93.16.41.32.83.46,1.25-.38-.46-1.79-.89-3.77-.74-1.96.08-3.84-1.23-1.65-2.45Z"/><path class="cls-13" d="m367.82,393.98c2.26-1.25,2.75,2.28,1.19,3.64-1.48,1.39-2.35,2.57-2.41,3.16-.11-.43-.24-.86-.38-1.28.11.02-.48-4.24,1.61-5.52Z"/><path class="cls-13" d="m365.17,397.12c.07.02-.53-3.78-1.7-5.53-1.1-1.76-2.67-1.35-3.06-.53-.4.81.41,2.01,1.29,2.84.93.76,3.5,3.17,3.47,3.22Z"/><path class="cls-13" d="m365.11,397.25s.01,0,.02,0c.06.02.12,0,.16-.05,0,0,0,0,0-.01.02-.03.04-.06.01-.11.01-.71-.71-4.07-1.72-5.57-.54-.86-1.29-1.34-2.06-1.29-.55.03-1.04.34-1.25.78-.54,1.1.87,2.58,1.32,3.01.91.74,3.25,2.93,3.44,3.17.01.03.04.06.07.07Zm-2.82-6.6c.33.15.71.45,1.06,1.01.92,1.38,1.47,4.03,1.63,5.04-.21-.21-.55-.53-1.09-1.03-.69-.64-1.61-1.47-2.1-1.88-.84-.8-1.61-1.93-1.25-2.67.17-.35.56-.59,1.01-.62.18-.01.44.01.74.15Z"/></g><g id="Car"><path class="cls-7" d="m602.31,377.81s58.44-5.45,60.13-6.39c1.69-.94,4.13-2.82,4.13-2.82l28.38.38.38-6.76-24.43-.38-40.03,4.13v-4.32s-1.88-27.25-22.17-43.78-31.76-18.79-59.57-17.85c-27.81.94-58.82,43.41-63.33,51.68-4.51,8.27-6.39,9.77-6.39,9.77H203.37l-.24-8.37c-.75-25.83-18.6-48-43.68-54.24h0c-11.42-2.84-23.44-2.12-34.43,2.08l-11.67,4.45c-24.97,9.52-40.3,34.97-36.66,61.44,1.05,7.61.93,12.61-1.66,10.8-8.08-5.64-.19,5.07,6.58,6.76,6.76,1.69,14.66,2.44,14.66,2.44h129.29l274.08-.63,102.69-8.39Z"/><path class="cls-8" d="m307.38,203.13s-95.76,63.47-98.33,63.47-4.04-1.1-5.87.37c-1.83,1.47-3.67,2.2-3.67,2.2l-102.36,12.11s-36.69,7.34-44.03,9.54c-7.34,2.2-13.57,9.17-13.21,12.11s4.04,27.88,4.04,27.88l4.04,31.92s-2.2,11.37-.37,12.84c1.83,1.47,10.27,4.4,14.68,5.5,4.4,1.1,16.88,1.1,16.88,1.1,0,0,1.1-20.55,5.14-36.69,4.04-16.14,16.1-34.9,53.57-36.69,38.52-1.83,55.77,43.66,55.77,43.66l7.7,28.62,14.68,5.14h283.6s-1.1-31.92,5.14-44.76c6.24-12.84,23.11-27.15,43.66-29.72,20.55-2.57,37.79,3.67,46.96,7.34,9.17,3.67,19.81,28.62,21.28,36.69,1.47,8.07,3.3,8.44,3.3,8.44,0,0,66.41-3.67,70.44-6.97,4.04-3.3,9.54-18.34,10.64-39.26,1.1-20.91-.37-40.72-2.57-44.03-2.2-3.3-6.97-3.67-6.97-3.67l-83.28-5.5s-76.31-62.37-80.72-63.47c-1.82-.45-4.44-1.09-6.9-1.69-4.41-1.07-8.92-1.69-13.46-1.86l-43.11-1.58-60.17.37s-61.64-.73-96.49,6.6Z"/><polygon class="cls-4" points="685.77 287.56 182.42 287.56 63.37 294.75 685.77 294.75 685.77 287.56"/><path class="cls-7" d="m613.73,341.81h96.21c1.78,0,3.22-1.44,3.22-3.22v-8.6c0-1.78-1.44-3.22-3.22-3.22h-102.81l6.6,15.04Z"/><path class="cls-7" d="m81.41,348.05h-45.07c-2.28,0-4.13-1.85-4.13-4.13v-6.79c0-2.28,1.85-4.13,4.13-4.13h50.17l-5.1,15.04Z"/><rect class="cls-7" x="189.97" y="329.33" width="38.16" height="6.98"/><rect class="cls-7" x="231.07" y="329.33" width="156.66" height="6.98"/><polygon class="cls-7" points="390.66 329.33 390.66 336.31 495.96 336.31 499.63 329.33 390.66 329.33"/><path class="cls-7" d="m62.3,381.07c4.4,1.1,16.88,1.1,16.88,1.1,0,0,.43-8.02,1.74-17.98h-33.18c-.52,3.12-1.53,10.23-.11,11.37,1.83,1.47,10.27,4.4,14.68,5.5Z"/><path class="cls-7" d="m499.77,370.43H198.48l2.86,10.64,14.68,5.14h283.6s-.24-7.01.14-15.78Z"/><rect class="cls-7" x="356.54" y="286.05" width="25.68" height="4.77"/><rect class="cls-7" x="502.19" y="286.05" width="25.68" height="4.77"/><path class="cls-10" d="m230.7,269.17c7.34-2.57,77.41-57.23,78.88-62.74.42-1.59.47-2.83.34-3.81-.86.17-1.71.33-2.54.51,0,0-95.76,63.47-98.33,63.47,0,0,14.31,5.14,21.65,2.57Z"/><path class="cls-10" d="m601.25,264.77c1.47.37,10.27.37,10.27.37l-.11-.16-3.19-.21s-76.31-62.37-80.72-63.47c0,0,5.14,5.14,9.17,8.44,4.04,3.3,63.1,54.67,64.57,55.03Z"/><path class="cls-1" d="m698.09,286.69c-2.52-.19-4.71,1.7-4.89,4.22l-1.14,15.4c-.19,2.52,1.7,4.71,4.22,4.89l3.33.25c.6.04,1.17-.04,1.71-.21.25-9.12.04-17.69-.49-24.35l-2.74-.2Z"/><circle class="cls-7" cx="136.1" cy="370" r="49.22" transform="translate(-257.82 354.15) rotate(-67.5)"/><circle class="cls-1" cx="136.1" cy="370" r="30.53" transform="translate(-241.99 258.33) rotate(-53.35)"/><circle class="cls-1" cx="136.1" cy="370" r="18.01" transform="translate(-57.51 26.58) rotate(-9.22)"/><path class="cls-7" d="m139.63,363.14c0-1.46-1.18-2.65-2.65-2.65s-2.65,1.18-2.65,2.65,1.18,2.65,2.65,2.65,2.65-1.18,2.65-2.65Z"/><path class="cls-7" d="m130.65,370.36c0-1.46-1.18-2.65-2.65-2.65s-2.65,1.18-2.65,2.65,1.18,2.65,2.65,2.65,2.65-1.18,2.65-2.65Z"/><path class="cls-7" d="m146.1,372.78c0-1.46-1.18-2.65-2.65-2.65s-2.65,1.18-2.65,2.65,1.18,2.65,2.65,2.65,2.65-1.18,2.65-2.65Z"/><circle class="cls-7" cx="134.84" cy="378.58" r="2.65"/><circle class="cls-7" cx="557.43" cy="370" r="49.22" transform="translate(-71.49 141.78) rotate(-13.63)"/><circle class="cls-1" cx="557.43" cy="370" r="30.53" transform="translate(-71.83 142.72) rotate(-13.72)"/><circle class="cls-1" cx="557.43" cy="370" r="18.01" transform="translate(-51.82 93.52) rotate(-9.17)"/><path class="cls-7" d="m560.96,363.14c0-1.46-1.18-2.65-2.65-2.65s-2.65,1.18-2.65,2.65,1.18,2.65,2.65,2.65,2.65-1.18,2.65-2.65Z"/><path class="cls-7" d="m551.98,370.36c0-1.46-1.18-2.65-2.65-2.65s-2.65,1.18-2.65,2.65,1.18,2.65,2.65,2.65,2.65-1.18,2.65-2.65Z"/><circle class="cls-7" cx="564.79" cy="372.78" r="2.65"/><path class="cls-7" d="m558.82,378.58c0-1.46-1.18-2.65-2.65-2.65s-2.65,1.18-2.65,2.65,1.18,2.65,2.65,2.65,2.65-1.18,2.65-2.65Z"/><path class="cls-6" d="m322.46,211.94s-77,59.51-76.03,60.73,5.1.73,5.1.73l288.1-7.04s6.07-8.5,5.83-13.12c-.24-4.62-7.29-12.39-7.29-12.39,0,0-28.42-31.58-35.95-33.77-7.53-2.19-112.47-.73-112.47-.73l-59.03,3.64s-5.34.73-8.26,1.94Z"/><path class="cls-7" d="m381.07,270.23l27.4-.67,11.28-63.52c-9.17.07-17.12.16-22.54.22l-16.15,63.97Z"/><line class="cls-11" x1="409.18" y1="208.78" x2="397.76" y2="266.11"/><path class="cls-7" d="m495.97,206.46l6.73,44.59-2.85,16.28,8.75-.21-7.36-60.22c-1.14-.17-2.94-.31-5.28-.43Z"/><path class="cls-10" d="m270.96,257.85l-8.26,14.09s1.7,2.19,4.13.73c2.43-1.46,9.96-8.02,9.96-8.02l-5.83-6.8Z"/><path class="cls-10" d="m274.02,247.61h4.2v19.43h-4.2c-1.97,0-3.58-1.6-3.58-3.58v-12.28c0-1.97,1.6-3.58,3.58-3.58Z" transform="translate(-38.39 48.33) rotate(-9.41)"/><path class="cls-9" d="m350.15,203.7c-11.96.94-23.3,2.2-27.73,3.83-11.01,4.04-81.45,65.67-81.45,65.67"/><path class="cls-9" d="m532.23,300.19c2.01-1.58,3.54-3.15,4.45-4.98,3.3-6.6,7.34-26.78,7.34-26.78,0,0,9.54-11.74,3.67-23.85-5.87-12.11-28.62-33.39-34.12-37.06-5.5-3.67-15.41-5.5-18.34-5.5s-108.23-.37-108.23-.37c0,0-13.88.48-28.96,1.47"/><path class="cls-9" d="m455.18,364.19h36.37s4.77-34.85,17.61-46.96c7.08-6.67,13.71-10.67,18.79-14.02"/><line class="cls-9" x1="240.54" y1="364.19" x2="448.64" y2="364.19"/><path class="cls-9" d="m229.1,297.77c-.62,14.43.01,40.67.87,48.08,1.1,9.54,2.57,18.34,2.57,18.34h3.53"/><path class="cls-9" d="m235.83,277.97s-4.04,4.4-5.87,11.01"/><path class="cls-9" d="m389.11,319.78c-.48,17.47-.65,42.21-.65,42.21"/><path class="cls-9" d="m397.27,272.47s-6.24,24.21-7.34,31.19c-.25,1.6-.47,5.53-.65,10.64"/><line class="cls-9" x1="204.49" y1="276.36" x2="219.41" y2="274.94"/><line class="cls-9" x1="53.13" y1="290.82" x2="195.33" y2="277.24"/></g><g id="Floor"><line class="cls-9" x1="7.44" y1="419.23" x2="729.72" y2="419.23"/></g></svg>