<svg width="68" height="67" viewBox="0 0 68 67" fill="none" xmlns="http://www.w3.org/2000/svg">
<path d="M27.1725 44.7634C27.1725 38.9839 29.8955 33.8712 34.0912 30.5647H14.3631L18.531 18.061H49.0957L52.4856 28.2307C54.8196 29.2587 56.8757 30.7592 58.5707 32.6209L53.0413 16.6717C52.4856 15.0601 50.9295 13.8931 49.0957 13.8931H18.531C16.6971 13.8931 15.1411 15.0601 14.5854 16.6717L8.80591 33.3433V55.5721C8.80591 57.1003 10.0563 58.3507 11.5845 58.3507H14.3631C15.8913 58.3507 17.1417 57.1003 17.1417 55.5721V52.7935H29.0619C27.8671 50.3761 27.1725 47.6531 27.1725 44.7634ZM18.531 44.4577C16.2248 44.4577 14.3631 42.596 14.3631 40.2898C14.3631 37.9836 16.2248 36.1219 18.531 36.1219C20.8373 36.1219 22.6989 37.9836 22.6989 40.2898C22.6989 42.596 20.8373 44.4577 18.531 44.4577Z" fill="#263238"/>
<path d="M46.146 33.7998L46.146 58.4647" stroke="#263238" stroke-width="6"/>
<path d="M33.3567 46.5894H58.9351" stroke="#263238" stroke-width="6"/>
</svg>
