<svg width="58" height="58" viewBox="0 0 58 58" fill="none" xmlns="http://www.w3.org/2000/svg">
<path d="M45.9167 7.25H12.0833C10.8015 7.25 9.57208 7.75922 8.66565 8.66565C7.75922 9.57208 7.25 10.8015 7.25 12.0833V45.9167C7.25 47.1985 7.75922 48.4279 8.66565 49.3344C9.57208 50.2408 10.8015 50.75 12.0833 50.75H45.9167C47.1985 50.75 48.4279 50.2408 49.3344 49.3344C50.2408 48.4279 50.75 47.1985 50.75 45.9167V12.0833C50.75 10.8015 50.2408 9.57208 49.3344 8.66565C48.4279 7.75922 47.1985 7.25 45.9167 7.25ZM37.7 41.0833L29 32.3833L20.3 41.0833L16.9167 37.7L25.6167 29L16.9167 20.3L20.3 16.9167L29 25.6167L37.7 16.9167L41.0833 20.3L32.3833 29L41.0833 37.7L37.7 41.0833Z" fill="#263238"/>
</svg>
