<svg width="58" height="58" viewBox="0 0 58 58" fill="none" xmlns="http://www.w3.org/2000/svg">
<path d="M10.0406 47.9594C8.72169 47.9594 7.59225 47.4894 6.65224 46.5494C5.71224 45.6094 5.24303 44.4807 5.24463 43.1634V14.3877C5.24463 13.0689 5.71464 11.9394 6.65464 10.9994C7.59465 10.0594 8.72329 9.5902 10.0406 9.5918H48.4081C49.727 9.5918 50.8565 10.0618 51.7965 11.0018C52.7365 11.9418 53.2057 13.0705 53.2041 14.3877V43.1634C53.2041 44.4823 52.7341 45.6118 51.7941 46.5518C50.8541 47.4918 49.7254 47.961 48.4081 47.9594H10.0406ZM29.2244 30.7539C29.4242 30.7539 29.6344 30.7235 29.855 30.6628C30.0756 30.602 30.2851 30.5125 30.4833 30.3942L47.449 19.7832C47.7687 19.5834 48.0085 19.3332 48.1683 19.0326C48.3282 18.7321 48.4081 18.4028 48.4081 18.0447C48.4081 17.2453 48.0684 16.6458 47.389 16.2462C46.7096 15.8465 46.0102 15.8665 45.2908 16.3061L29.2244 26.3776L13.1579 16.3061C12.4386 15.8665 11.7391 15.8569 11.0597 16.2773C10.3803 16.6978 10.0406 17.2869 10.0406 18.0447C10.0406 18.4443 10.1205 18.7944 10.2804 19.095C10.4402 19.3955 10.68 19.6249 10.9998 19.7832L27.9654 30.3942C28.1653 30.5141 28.3755 30.6044 28.5961 30.6652C28.8167 30.7259 29.0261 30.7555 29.2244 30.7539Z" fill="#263238"/>
</svg>
