<svg width="57" height="56" viewBox="0 0 57 56" fill="none" xmlns="http://www.w3.org/2000/svg">
<path d="M38.09 31.5664C39.0962 31.5664 39.9281 31.2375 40.586 30.5796C41.2439 29.9218 41.5728 29.0898 41.5728 28.0836C41.5728 27.0775 41.2439 26.2455 40.586 25.5877C39.9281 24.9298 39.0962 24.6009 38.09 24.6009C37.0839 24.6009 36.2519 24.9298 35.594 25.5877C34.9362 26.2455 34.6072 27.0775 34.6072 28.0836C34.6072 29.0898 34.9362 29.9218 35.594 30.5796C36.2519 31.2375 37.0839 31.5664 38.09 31.5664ZM31.1245 39.6929C29.8475 39.6929 28.7539 39.2378 27.8437 38.3276C26.9335 37.4175 26.4792 36.3246 26.4808 35.0492V21.1181C26.4808 19.8411 26.9359 18.7475 27.846 17.8373C28.7562 16.9272 29.849 16.4729 31.1245 16.4744H47.3774C48.6544 16.4744 49.748 16.9295 50.6582 17.8396C51.5683 18.7498 52.0226 19.8426 52.0211 21.1181V35.0492C52.0211 36.3262 51.566 37.4198 50.6559 38.3299C49.7457 39.2401 48.6529 39.6944 47.3774 39.6929H31.1245ZM12.5497 48.9803C11.2727 48.9803 10.1791 48.5252 9.26893 47.615C8.35877 46.7048 7.90446 45.612 7.90601 44.3366V11.8307C7.90601 10.5537 8.36109 9.4601 9.27126 8.54994C10.1814 7.63978 11.2742 7.18547 12.5497 7.18702H45.0556C46.3326 7.18702 47.4262 7.6421 48.3363 8.55226C49.2465 9.46243 49.7008 10.5552 49.6993 11.8307H31.1245C28.377 11.8307 26.1418 12.6921 24.419 14.4149C22.6962 16.1377 21.8355 18.3721 21.8371 21.1181V35.0492C21.8371 37.7967 22.6985 40.0319 24.4213 41.7547C26.1441 43.4775 28.3785 44.3381 31.1245 44.3366H49.6993C49.6993 45.6136 49.2442 46.7072 48.334 47.6173C47.4238 48.5275 46.331 48.9818 45.0556 48.9803H12.5497Z" fill="#263238"/>
</svg>
