<svg width="67" height="67" viewBox="0 0 67 67" fill="none" xmlns="http://www.w3.org/2000/svg">
<path d="M26.7023 44.7634C26.7023 38.9839 29.4253 33.8712 33.621 30.5647H13.8929L18.0608 18.061H48.6255L52.0153 28.2307C54.3494 29.2587 56.4055 30.7592 58.1005 32.6209L52.5711 16.6717C52.0153 15.0601 50.4593 13.8931 48.6255 13.8931H18.0608C16.2269 13.8931 14.6709 15.0601 14.1152 16.6717L8.33569 33.3433V55.5721C8.33569 57.1004 9.58607 58.3507 11.1143 58.3507H13.8929C15.4211 58.3507 16.6715 57.1004 16.6715 55.5721V52.7935H28.5917C27.3969 50.3761 26.7023 47.6531 26.7023 44.7634ZM18.0608 44.4577C15.7546 44.4577 13.8929 42.596 13.8929 40.2898C13.8929 37.9836 15.7546 36.1219 18.0608 36.1219C20.367 36.1219 22.2287 37.9836 22.2287 40.2898C22.2287 42.596 20.367 44.4577 18.0608 44.4577ZM44.7632 32.2596C51.7097 32.2596 57.2669 37.8168 57.2669 44.7634C57.2669 47.2363 56.5723 49.5148 55.3497 51.4042L63.9078 60.0457L60.0455 63.9079L51.4041 55.3776C49.459 56.5724 47.2361 57.2671 44.7632 57.2671C37.8167 57.2671 32.2595 51.7099 32.2595 44.7634C32.2595 37.8168 37.8167 32.2596 44.7632 32.2596ZM44.7632 37.8168C43.3893 37.8168 42.0463 38.2242 40.9039 38.9875C39.7616 39.7508 38.8712 40.8357 38.3455 42.105C37.8197 43.3743 37.6821 44.7711 37.9502 46.1185C38.2182 47.466 38.8798 48.7038 39.8513 49.6753C40.8228 50.6468 42.0605 51.3084 43.408 51.5764C44.7555 51.8444 46.1522 51.7069 47.4215 51.1811C48.6908 50.6553 49.7757 49.765 50.539 48.6226C51.3023 47.4803 51.7097 46.1372 51.7097 44.7634C51.7097 40.9011 48.6255 37.8168 44.7632 37.8168Z" fill="#263238"/>
</svg>
