<?xml version="1.0" encoding="UTF-8"?><svg id="Calque_2" xmlns="http://www.w3.org/2000/svg" viewBox="0 0 534.15 634.92"><defs><style>.cls-1{fill:#fff;}.cls-2{opacity:.4;}.cls-2,.cls-3{fill:#92e3a9;}.cls-4{fill:#4d4d4d;}.cls-5{opacity:.21;}.cls-5,.cls-6{fill:#1a1a1a;}</style></defs><g id="Calque_1-2"><path class="cls-2" d="m530.19,473.3c-28.69,119.2-169.9,187.45-315.42,152.44C69.26,590.72-18.27,467.2,3.23,346.5c40.39-226.66,151.64-134.98,292.49-57.16,131,72.38,263.15,64.76,234.47,183.96Z"/><rect class="cls-1" x="198.12" y="86" width="69" height="462"/><path d="m265.12,88v458h-65V88h65m2-2h-69v462h69V86h0Z"/><rect class="cls-3" x="198.12" y="417" width="69" height="190"/><path d="m265.12,419v186h-65v-186h65m2-2h-69v190h69v-190h0Z"/><rect class="cls-3" x="198.12" y="385" width="69" height="15"/><path d="m265.12,387v11h-65v-11h65m2-2h-69v15h69v-15h0Z"/><path class="cls-6" d="m198.12,95.15v-9.16c0-1.99.24-3.97.73-5.9l1.27-5.1,8-6,5,3,3.97-3,3.03,2h8l4.5,4.82,8.5-.82,3,4,6-1,4.46,4.08h5.96l4.65,1.36c1.15.33,1.93,1.39,1.93,2.58v1.72l-69,7.42Z"/><path class="cls-4" d="m198.12,95.15s2,20.85,13,18.85c7.85-1.43,10.75-.75,11.76-.24.45.22.95.34,1.45.29l8.81-.85c1.23-.12,2.3-.87,2.84-1.98l1.28-2.64c.98-2.03,3.58-2.64,5.37-1.27l2.33,1.79c.65.5.97,1.32.81,2.13-.38,1.92-.22,5.2,6.36,2.91,8.99-3.14,8.99-1.14,11.99-6.14s3-9.69,3-9.69v-12.31h-69v9.15Z"/><path class="cls-5" d="m320.45,105.25c-18.59,2.17-36.44,8.38-52.4,18.14-19.83,12.13-48.82,22.91-71.36,2.45-17.4-15.79-17.37-34.98-12.24-51.13,6.43-20.22,21.18-36.71,40.28-45.95,21.31-10.31,56.29-22.34,92.88-14.31,24.11,5.29,40.73,9.83,51.94,13.35,24.73,7.76,51.55,6.04,74.86-5.3,10.78-5.24,22.77-12.49,35.6-22.51,0,0-60.31,93.69-159.57,105.25Z"/></g></svg>