<svg width="48" height="40" viewBox="0 0 48 40" fill="none" xmlns="http://www.w3.org/2000/svg">
<path d="M4.79595 39.5447C3.47706 39.5447 2.34762 39.0602 1.40761 38.0914C0.467608 37.1225 -0.00159458 35.9593 4.07126e-06 34.6016V4.94309C4.07126e-06 3.58374 0.470007 2.41964 1.41001 1.4508C2.35002 0.481954 3.47866 -0.0016435 4.79595 4.19617e-06H43.1635C44.4824 4.19617e-06 45.6118 0.484426 46.5519 1.45327C47.4919 2.42211 47.9611 3.58539 47.9595 4.94309V34.6016C47.9595 35.9609 47.4895 37.125 46.5495 38.0939C45.6094 39.0627 44.4808 39.5463 43.1635 39.5447H4.79595ZM23.9797 21.8113C24.1796 21.8113 24.3898 21.78 24.6104 21.7174C24.831 21.6548 25.0404 21.5625 25.2387 21.4406L42.2043 10.5041C42.5241 10.2981 42.7639 10.0402 42.9237 9.73046C43.0836 9.42069 43.1635 9.08127 43.1635 8.71218C43.1635 7.88834 42.8238 7.27045 42.1444 6.85853C41.465 6.44661 40.7655 6.4672 40.0462 6.92032L23.9797 17.3008L7.91331 6.92032C7.19392 6.4672 6.49451 6.45732 5.81509 6.89066C5.13566 7.324 4.79595 7.93118 4.79595 8.71218C4.79595 9.12411 4.87588 9.48495 5.03575 9.79472C5.19561 10.1045 5.43541 10.3409 5.75514 10.5041L22.7208 21.4406C22.9206 21.5642 23.1309 21.6573 23.3515 21.7199C23.5721 21.7825 23.7815 21.813 23.9797 21.8113Z" fill="#23645A"/>
</svg>
