<?xml version="1.0" encoding="UTF-8"?><svg id="Calque_2" xmlns="http://www.w3.org/2000/svg" viewBox="0 0 472.41 466.13"><defs><style>.cls-1{stroke:#000;}.cls-1,.cls-2,.cls-3,.cls-4,.cls-5,.cls-6,.cls-7{stroke-linecap:round;stroke-linejoin:round;}.cls-1,.cls-5{fill:none;}.cls-8{opacity:.7;}.cls-8,.cls-4{fill:#fff;}.cls-2{fill:#c9c9c9;}.cls-2,.cls-3,.cls-4,.cls-5,.cls-6,.cls-7{stroke:#263238;}.cls-3,.cls-9{fill:#92e3a9;}.cls-10{opacity:.3;}.cls-6{fill:#8c8c8c;}.cls-7,.cls-11{fill:#263238;}</style></defs><g id="Background_Simple"><path class="cls-9" d="m383.3,41.25c-15.21-14.21-31.63-26.72-48.55-33.2-22.66-8.68-47.51-9.29-71.08-6.71C174.03,11.12,38.8,111.7,9.44,219.39c-29.36,107.69,11.59,180.68,98.14,217.17,86.55,36.49,170.01,34.71,223.32,18.69,53.32-16.02,131.37-57.85,133.69-147.75,1.14-44.02,9.62-88.29,3.41-132.26-5.45-38.62-25.38-70.69-49.41-97.24-10.63-11.75-22.54-24.85-35.29-36.75Z"/><path class="cls-8" d="m383.3,41.25c-15.21-14.21-31.63-26.72-48.55-33.2-22.66-8.68-47.51-9.29-71.08-6.71C174.03,11.12,38.8,111.7,9.44,219.39c-29.36,107.69,11.59,180.68,98.14,217.17,86.55,36.49,170.01,34.71,223.32,18.69,53.32-16.02,131.37-57.85,133.69-147.75,1.14-44.02,9.62-88.29,3.41-132.26-5.45-38.62-25.38-70.69-49.41-97.24-10.63-11.75-22.54-24.85-35.29-36.75Z"/></g><g id="Lines"><line class="cls-5" x1="121.88" y1="101.23" x2="137.98" y2="105.56"/><line class="cls-5" x1="140.46" y1="127.85" x2="132.41" y2="129.09"/><line class="cls-5" x1="143.55" y1="150.14" x2="126.83" y2="160.05"/><line class="cls-5" x1="151.6" y1="85.75" x2="156.56" y2="93.79"/></g><g id="Musical_Notes"><path class="cls-11" d="m112.26,108.5c0-.45-.21-.87-.57-1.14-.36-.27-.83-.35-1.26-.22l-14.97,4.44c-.6.18-1.02.74-1.02,1.37v17.14c-.49-.19-1.02-.31-1.58-.31-2.43,0-4.41,1.97-4.41,4.41s1.97,4.41,4.41,4.41c2.3,0,4.17-1.77,4.37-4.02h.06v-13.08l12.13-3.59v7.57c-.48-.18-1-.3-1.55-.3-2.43,0-4.41,1.97-4.41,4.41s1.97,4.41,4.41,4.41,4.41-1.97,4.41-4.41c0-.02,0-.04,0-.07v-21.01Zm-2.85,6.42l-12.13,3.59v-4.52l12.13-3.59v4.52Z"/><path class="cls-11" d="m116.01,143.25c0-.29-.13-.56-.36-.73-.23-.17-.53-.23-.8-.14l-9.54,2.83c-.39.11-.65.47-.65.87v10.92c-.31-.12-.65-.19-1.01-.19-1.55,0-2.81,1.26-2.81,2.81s1.26,2.81,2.81,2.81c1.47,0,2.66-1.13,2.78-2.56h.04v-8.33l7.73-2.29v4.82c-.31-.12-.64-.19-.99-.19-1.55,0-2.81,1.26-2.81,2.81s1.26,2.81,2.81,2.81,2.81-1.26,2.81-2.81c0-.01,0-.03,0-.04v-13.39Zm-1.82,4.09l-7.73,2.29v-2.88l7.73-2.29v2.88Z"/></g><g id="Boombox"><g class="cls-10"><circle class="cls-1" cx="51.94" cy="172.75" r="32.81"/><circle class="cls-1" cx="51.94" cy="172.75" r="26.94" transform="translate(-38.3 16.55) rotate(-13.28)"/><circle class="cls-1" cx="94.64" cy="282.91" r="77.7" transform="translate(-172.33 149.79) rotate(-45)"/><circle class="cls-1" cx="94.64" cy="282.91" r="68.81" transform="translate(-60.09 27.85) rotate(-12.75)"/><circle class="cls-1" cx="94.64" cy="282.91" r="9.58" transform="translate(-202.44 255.71) rotate(-66.27)"/><circle class="cls-1" cx="51.94" cy="172.75" r="9.13" transform="translate(-127.54 154.63) rotate(-67.5)"/><circle class="cls-1" cx="430.12" cy="172.75" r="32.81"/><circle class="cls-1" cx="430.12" cy="172.75" r="26.94" transform="translate(164.19 552.39) rotate(-76.87)"/><circle class="cls-1" cx="387.42" cy="282.91" r="77.7" transform="translate(-86.58 356.81) rotate(-45)"/><circle class="cls-1" cx="387.42" cy="282.91" r="68.81" transform="translate(-86.58 356.81) rotate(-45)"/><circle class="cls-1" cx="387.42" cy="282.91" r="9.58" transform="translate(-73.14 148.67) rotate(-19.89)"/><circle class="cls-1" cx="430.12" cy="172.75" r="9.13" transform="translate(-32.98 192.3) rotate(-24.3)"/><rect class="cls-1" x="124.55" y="149.2" width="230.89" height="23.21"/><rect class="cls-1" x="8.09" y="132.62" width="463.82" height="235.48"/><rect class="cls-1" x="200.58" y="176.46" width="80.43" height="180.31"/><rect class="cls-1" x="200.58" y="246.47" width="80.43" height="110.3"/><rect class="cls-1" x="200.58" y="238.42" width="80.43" height="110.3"/><rect class="cls-1" x="200.58" y="331.28" width="80.43" height="25.49"/><rect class="cls-1" x="205.54" y="191.76" width="70.51" height="15.44"/><rect class="cls-1" x="211.2" y="259.9" width="58.09" height="25.59"/><circle class="cls-1" cx="225.03" cy="271.66" r="4.84"/><path class="cls-1" d="m260.98,271.66c0-2.67-2.17-4.84-4.84-4.84s-4.84,2.17-4.84,4.84,2.17,4.84,4.84,4.84,4.84-2.17,4.84-4.84Z"/><rect class="cls-1" x="207.74" y="338.04" width="8.67" height="9.68"/><rect class="cls-1" x="217.13" y="338.04" width="8.67" height="9.68"/><rect class="cls-1" x="226.52" y="338.04" width="8.67" height="9.68"/><rect class="cls-1" x="235.91" y="338.04" width="8.67" height="9.68"/><rect class="cls-1" x="245.29" y="338.04" width="8.67" height="9.68"/><rect class="cls-1" x="254.68" y="338.04" width="8.67" height="9.68"/><rect class="cls-1" x="264.07" y="338.04" width="8.67" height="9.68"/><rect class="cls-1" x="204.15" y="219.79" width="6.92" height="6.92"/><rect class="cls-1" x="215.21" y="219.79" width="6.92" height="6.92"/><rect class="cls-1" x="226.28" y="219.79" width="6.92" height="6.92"/><rect class="cls-1" x="237.34" y="219.79" width="6.92" height="6.92"/><rect class="cls-1" x="248.4" y="219.79" width="6.92" height="6.92"/><rect class="cls-1" x="259.47" y="219.79" width="6.92" height="6.92"/><rect class="cls-1" x="270.53" y="219.79" width="6.92" height="6.92"/><line class="cls-1" x1="178.98" y1="214.3" x2="178.98" y2="367.78"/><line class="cls-1" x1="178.98" y1="172.77" x2="178.98" y2="189.88"/><circle class="cls-1" cx="164.25" cy="201.75" r="19.12" transform="translate(-85.36 275.07) rotate(-67.22)"/><circle class="cls-1" cx="164.25" cy="201.75" r="12.38" transform="translate(-30.5 29.26) rotate(-9.32)"/><line class="cls-1" x1="302.31" y1="214.3" x2="302.31" y2="367.78"/><line class="cls-1" x1="302.31" y1="172.77" x2="302.31" y2="189.88"/><circle class="cls-1" cx="317.04" cy="201.75" r="19.12" transform="translate(-53.39 138.49) rotate(-22.78)"/><circle class="cls-1" cx="317.04" cy="201.75" r="12.38" transform="translate(67.29 482.53) rotate(-80.82)"/><polyline class="cls-1" points="50.56 92.15 50.56 74.08 57 74.08 427.02 74.08 433.45 74.08"/><line class="cls-1" x1="427.02" y1="92.15" x2="57" y2="92.15"/><rect class="cls-1" x="50.56" y="74.08" width="6.44" height="58.72"/><rect class="cls-1" x="427.02" y="74.08" width="6.44" height="58.73"/><circle class="cls-1" cx="291.72" cy="283.94" r="8.11"/><circle class="cls-1" cx="291.72" cy="283.94" r="5.25"/><circle class="cls-1" cx="291.72" cy="320.03" r="8.11" transform="translate(-71.01 556.57) rotate(-80.76)"/><path class="cls-1" d="m286.47,320.03c0-2.9,2.35-5.25,5.25-5.25s5.25,2.35,5.25,5.25-2.35,5.25-5.25,5.25-5.25-2.35-5.25-5.25Z"/><circle class="cls-1" cx="189.62" cy="283.94" r="8.11"/><circle class="cls-1" cx="189.62" cy="283.94" r="5.25"/><circle class="cls-1" cx="189.62" cy="320.03" r="8.11" transform="translate(-156.71 455.8) rotate(-80.76)"/><path class="cls-1" d="m184.37,320.03c0-2.9,2.35-5.25,5.25-5.25s5.25,2.35,5.25,5.25-2.35,5.25-5.25,5.25-5.25-2.35-5.25-5.25Z"/></g></g><g id="Shadow"><ellipse class="cls-7" cx="240.96" cy="432.83" rx="89.94" ry="10.12"/></g><g id="Character"><path class="cls-7" d="m288.62,437.07c-8.03-1.03-14.24-6.48-15.54-10.62-1.3-4.15-2.85-3.37-4.41-5.96-1.55-2.59.26-12.69.26-12.69,0,0-8.71-30.55-11.77-39.47-3.05-8.93-4.7-29.38-4.7-29.38,0,0-.94-4.23-9.16-22.8-8.23-18.57-11.52-35.25-11.52-35.25l-4.46-8.7-8.93,56.41s-.47,25.85-.95,38.07c-.47,12.22-2.81,40.89-2.11,43.95.07.33.17.67.28,1.04.9,3.01,2.8,7.02,3.01,9.54.24,2.82-3.29,4.23-6.35,6.35s-4.23,5.41-9.87,7.28c-5.64,1.89-11.28,1.18-14.34-.23-3.05-1.42-.47-6.58.94-8.94,1.42-2.35,9.4-6.58,12.22-10.11,2.82-3.52,3.52-7.51,3.52-7.51,0,0-5.87-28.67-8.46-40.65-2.58-11.99,2.59-29.61,1.65-32.9-.94-3.29-6.35-20.21-7.75-41.6-1.41-21.38,5.88-45.58,5.88-45.58l2.82-5.18,65.33,15.75s3.76,12.92,5.17,23.73c1.42,10.8,1.42,53.34,1.42,53.34,0,0,.7,1.65,3.52,9.4,2.82,7.75,1.88,23.04,2.35,26.32.47,3.29,2.37,33.25,2.37,33.25,0,0,1.29,4.4,3.37,6.73,2.07,2.33,9.06,10.62,10.88,15.02,1.81,4.41,3.37,12.44-4.66,11.41Z"/><path class="cls-4" d="m202.41,434.82c5.64-1.88,6.81-5.17,9.87-7.28s6.58-3.52,6.35-6.35c-.2-2.52-2.11-6.53-3.01-9.54-.11-.37-.21-.71-.28-1.04-.23-1.02-.13-4.92.14-10.11-4.48,1.61-8.99.63-12.42-.77,1.01,4.92,1.7,8.3,1.7,8.3,0,0-.7,3.99-3.52,7.51-2.82,3.53-10.8,7.76-12.22,10.11-1.41,2.35-3.99,7.52-.94,8.94,3.05,1.41,8.7,2.11,14.34.23Z"/><path class="cls-4" d="m268.93,407.79s-1.81,10.11-.26,12.69c1.56,2.6,3.11,1.81,4.41,5.96s7.51,9.59,15.54,10.62c8.03,1.03,6.48-7,4.66-11.41-1.81-4.4-8.81-12.69-10.88-15.02-2.08-2.33-3.37-6.73-3.37-6.73,0,0-.17-2.62-.41-6.39-4.59,1.61-9.11,1.39-12.43.78,1.59,5.5,2.73,9.49,2.73,9.49Z"/><path class="cls-4" d="m212.28,427.54c-3.05,2.11-4.23,5.41-9.87,7.28-5.64,1.89-11.28,1.18-14.34-.23-1.27-.59-1.56-1.82-1.37-3.24.26-1.99,1.48-4.32,2.31-5.7,1.42-2.35,9.4-6.58,12.22-10.11,2.82-3.52,3.52-7.51,3.52-7.51,0,0,.78-.04,2.56.73,1.77.76,3.29,5.08,3.29,5.08,0,0,2.89-.97,5.01-2.18.69,2.3,1.96,5.19,2.61,7.54.2.73.35,1.4.4,2,.24,2.82-3.29,4.23-6.35,6.35Z"/><path class="cls-4" d="m294.74,432.29c-.06,2.98-1.51,5.38-6.12,4.79-8.03-1.03-14.24-6.48-15.54-10.62-1.3-4.15-2.85-3.37-4.41-5.96-.29-.49-.47-1.24-.56-2.15-.38-3.88.82-10.54.82-10.54l3.17,2.56s0-1.68,1.96-4.47c1.96-2.8,4.98-1.98,4.98-1.98,0,0,1.29,4.4,3.37,6.73,2.07,2.33,9.06,10.62,10.88,15.02.77,1.88,1.5,4.41,1.46,6.62Z"/><path class="cls-4" d="m212.28,427.54c-3.05,2.11-4.23,5.41-9.87,7.28-5.64,1.89-11.28,1.18-14.34-.23-1.27-.59-1.56-1.82-1.37-3.24,1.99,1.21,5.73,2.71,11.22,1.75,8.63-1.52,12.17-6.59,14.96-9.13,1.65-1.5,3.83-3.44,5.34-4.77.2.73.35,1.4.4,2,.24,2.82-3.29,4.23-6.35,6.35Z"/><path class="cls-4" d="m294.74,432.29c-.06,2.98-1.51,5.38-6.12,4.79-8.03-1.03-14.24-6.48-15.54-10.62-1.3-4.15-2.85-3.37-4.41-5.96-.29-.49-.47-1.24-.56-2.15,1.88,1.08,5.24,3.26,6.24,5.43,1.4,3.08,3.91,8.67,10.62,10.07,4.41.92,7.62-.34,9.77-1.55Z"/><path class="cls-4" d="m217.57,179.66s-13.38.96-29.87-11.71c-16.49-12.67-18.88-17.92-18.88-17.92l66.2-10.99-17.45,40.63Z"/><path class="cls-5" d="m204.29,163.06c-1.04-1.45-1.85-2.67-2.25-3.48"/><path class="cls-5" d="m195.63,164.47c9.13,8.42,21.93,15.19,21.93,15.19,0,0-6.56-7.73-11.23-13.84"/><path class="cls-5" d="m192,160.78c.54.62,1.12,1.23,1.71,1.84"/><path class="cls-4" d="m225.93,160.54l-28.68,90.1s5.5,8.13,26.05,13.14c20.55,5.02,32.26,4.54,32.26,4.54l13.14-111.61-39.2-5.5-3.58,9.32Z"/><path class="cls-11" d="m263.67,199.55l.21-1.82c-18.62-3.59-34.15-8.43-45.73-12.75l-.56,1.75c11.68,4.35,27.33,9.22,46.07,12.82Z"/><path class="cls-11" d="m262.6,208.63l.22-1.83c-19.44-3.68-35.56-8.75-47.4-13.21l-.56,1.75c11.95,4.49,28.18,9.58,47.74,13.28Z"/><path class="cls-11" d="m264.74,190.47l.21-1.83c-17.82-3.49-32.75-8.11-44.05-12.29l-.56,1.75c11.4,4.21,26.46,8.86,44.4,12.37Z"/><path class="cls-11" d="m261.53,217.7l.21-1.82c-20.28-3.78-36.99-9.07-49.08-13.67l-.56,1.75c12.2,4.63,29.03,9.95,49.42,13.74Z"/><path class="cls-11" d="m223.64,167.73l-.56,1.74c11.11,4.06,25.58,8.5,42.72,11.9l.21-1.82c-17.02-3.39-31.37-7.8-42.38-11.83Z"/><path class="cls-11" d="m260.46,226.77l.21-1.82c-21.12-3.86-38.43-9.4-50.75-14.13l-.56,1.75c12.43,4.76,29.86,10.32,51.09,14.2Z"/><path class="cls-11" d="m259.4,235.84l.21-1.82c-21.97-3.95-39.89-9.73-52.42-14.59l-.56,1.75c12.65,4.89,30.68,10.69,52.76,14.66Z"/><path class="cls-11" d="m257.26,253.98l.22-1.83c-23.72-4.11-42.84-10.4-55.77-15.5l-.56,1.75c13.04,5.14,32.28,11.45,56.11,15.58Z"/><path class="cls-11" d="m256.19,263.04l.21-1.82c-24.61-4.19-44.35-10.74-57.44-15.96l-.56,1.75c13.21,5.26,33.06,11.83,57.78,16.03Z"/><path class="cls-11" d="m258.33,244.91l.21-1.82c-22.84-4.03-41.36-10.06-54.1-15.05l-.56,1.75c12.86,5.02,31.49,11.07,54.44,15.12Z"/><path class="cls-7" d="m238.99,162.69s10.22,9.89,26.06,7.92c15.83-1.98,8.9-26.38,8.9-26.38l-30.67-1.65-4.29,20.12Z"/><path class="cls-4" d="m243.62,137.12l-1.91,18.16s0,12.19,22.47,11.95c22.47-.24.72-32.5.72-32.5,0,0-16.01,2.87-21.27,2.39Z"/><path class="cls-4" d="m197.21,88.33l-.87,8.33,15.71-.69s1.48-1.91,3.13-2.87,7.21-1.74,7.9-2.6c.69-.87-2.69-1.74-5.38-1.04-2.69.69-3.73,1.13-4.51,1.22-.78.09-2.52-2.69-2.52-2.69l-13.46.35Z"/><polygon class="cls-7" points="224.74 96.21 220.09 87.06 218.78 88.95 223.29 97.81 224.74 96.21"/><polygon class="cls-7" points="186.93 89.48 219.74 87.15 218.87 89.04 185.63 91.36 186.93 89.48"/><polygon class="cls-7" points="191.58 98.62 186.93 89.48 185.63 91.36 190.13 100.22 191.58 98.62"/><polygon class="cls-2" points="160.69 98.4 167.14 157.43 259.39 142.61 253.57 92.52 160.69 98.4"/><polygon class="cls-4" points="199.83 152.18 237.16 146.18 229.26 94.06 193.34 96.33 199.83 152.18"/><ellipse class="cls-7" cx="180.55" cy="123.16" rx="14.23" ry="15.97" transform="translate(-12.18 20.09) rotate(-6.16)"/><path class="cls-4" d="m185.05,122.67c.3,2.79-1.47,5.27-3.96,5.54s-4.75-1.78-5.05-4.57c-.3-2.79,1.47-5.27,3.96-5.54s4.75,1.78,5.05,4.57Z"/><polygon class="cls-3" points="229.26 94.06 193.34 96.33 195.81 117.6 232.24 113.68 229.26 94.06"/><polygon class="cls-7" points="194.76 106.92 230.57 103.94 229.26 94.06 193.34 96.33 194.76 106.92"/><polygon class="cls-3" points="203.63 116.91 206.82 143.33 228.02 140.28 224.31 114.62 203.63 116.91"/><polygon class="cls-7" points="205.95 135.5 227.02 132.75 224.31 114.62 203.63 116.91 205.95 135.5"/><polygon class="cls-7" points="206.82 143.33 206.4 139.93 227.59 136.88 228.02 140.28 206.82 143.33"/><polygon class="cls-4" points="208.56 124.17 208.85 127.07 222.23 125.51 221.8 122.61 208.56 124.17"/><polygon class="cls-7" points="160.69 98.4 147.01 101.82 152.24 155.53 167.14 157.43 160.69 98.4"/><circle class="cls-4" cx="200.87" cy="111.11" r="1.74"/><circle class="cls-4" cx="207.26" cy="110.53" r="1.74"/><circle class="cls-4" cx="213.64" cy="109.94" r="1.74"/><circle class="cls-4" cx="220.03" cy="109.36" r="1.74"/><path class="cls-4" d="m197.21,88.33s-.09-2.95,2.08-3.13,3.56,2.87,4.17,4.08c.61,1.22.26,3.47-.35,3.82-.61.35-1.3.87-1.74.26-.43-.61-1.48-3.82-1.56-4.34-.09-.52-2.6-.69-2.6-.69Z"/><path class="cls-4" d="m200.68,85.37s3.04-.87,3.65-.69c.61.17,2.26,3.3,2.34,4.51.09,1.22-.61,2.43-1.13,2.95s-1.91-.09-1.91-.09c0,0,.26-1.74-.17-2.78-.43-1.04-2.78-3.91-2.78-3.91Z"/><path class="cls-4" d="m204.33,84.68s2.78-1.04,3.65-.26,2.26,4.43,2,5.38-.87,1.91-1.91,2.08c-1.04.17-1.48-.52-1.48-.52,0,0,.35-2.52.09-3.13-.26-.61-2.34-3.56-2.34-3.56Z"/><path class="cls-4" d="m207.97,84.42s1.74-1.22,2.69-.09c.95,1.13,2.43,3.91,2.08,5.56-.35,1.65-1.22,1.65-2,1.74-.78.09-1.48-.26-1.48-.26,0,0,.69-1.04.61-2.26-.09-1.22-1.91-4.69-1.91-4.69Z"/><polygon class="cls-4" points="184.11 244.43 182.44 249.92 190.32 267.37 191.52 265.22 184.11 244.43"/><path class="cls-3" d="m233.82,168.42s-24.62,65.25-30.35,74.09c-5.74,8.84-11.95,22.7-11.95,22.7,0,0-5.74-13.62-7.89-18.16-2.15-4.54-.72-5.02,1.67-10.04,2.39-5.02,27.25-52.1,29.16-60.23,1.91-8.13,4.54-14.1,11.47-16.25s7.89,7.89,7.89,7.89Z"/><path class="cls-4" d="m220.68,181.81l-9.7,35.88c-.27,1,.57,1.94,1.59,1.78h0c.57-.09,1.03-.51,1.17-1.07l9.09-36.84-2.15.24Z"/><path class="cls-4" d="m242.55,277.38s-.95,4.27.24,4.98c1.19.71,29.42,4.98,35.83,4.75,6.41-.24,7.59-3.08,8.07-5.69s4.98,0-12.34-2.37c-17.32-2.37-28.71-4.27-28.71-4.27,0,0-2.37.71-3.08,2.61Z"/><path class="cls-3" d="m257.26,183.9s-9.25,58.84-11.63,72.6-3.56,20.17-3.08,20.88c.47.71,24.91,5.93,33.93,5.46,9.02-.47,11.86,0,13.05-4.98,1.19-4.98,10.91-78.53,6.64-96.33s-5.93-18.03-17.08-18.03-21.83,20.4-21.83,20.4Z"/><path class="cls-4" d="m261.23,187.94l-3.8,40.69c-.1,1.02.71,1.91,1.74,1.91h0c.94,0,1.71-.74,1.75-1.68l1.64-41.3-1.33.38Z"/><path class="cls-4" d="m284.07,167.77s3.32-.24,5.93,1.42c2.61,1.66,4.75,8.54,5.93,8.07,1.19-.47,3.32-10.68-.47-16.61-3.8-5.93-8.07-8.07-10.2-5.69-2.14,2.37-3.86,11.3-1.19,12.81Z"/><path class="cls-7" d="m236.71,108.85s3.36,8.79-3.68,22.22c-7.03,13.43-20.94,34.53-21.26,44.29-.32,9.75,7.99,10.71,14.39,6.4,6.39-4.32,8.79-7.35,8.79-7.35,0,0-1.12,5.44,2.24,6.08s4.16-7.03,5.6-15.83c1.44-8.79,4.8-23.82,4.96-24.62.16-.8-5.12-4.16-6.87-11.67-1.76-7.51,2.08-16.63,1.44-19.35s-4.96-1.28-5.6-.16Z"/><path class="cls-4" d="m235.11,109.82s.82,6.35,1.17,10.06c.35,3.71-1.04,8.81,2.67,13.56,3.71,4.75,6.95,9.85,9.74,11.47s4.29,1.97,6.37.81c2.09-1.16,8.11-5.1,9.74-7.65,1.62-2.55,4.29-17.62,3.94-22.6-.35-4.98-3.82-9.16-3.82-9.16,0,0-10.9-6.26-17.85-4.75-6.95,1.51-11.95,8.25-11.95,8.25Z"/><path class="cls-5" d="m246.08,126.81s1.17,1.17,2.47,1.17"/><path class="cls-5" d="m246.34,132.02s6.9,1.69,12.1-4.03"/><line class="cls-5" x1="257.28" y1="127.59" x2="260.14" y2="128.77"/><path class="cls-7" d="m266.93,107.73s-1.6,28.62-4.8,51.96c-3.2,23.34-8.95,27.34-6.24,28.78,2.72,1.44,11.67,2.4,20.3-4.16s10.07-13.59,10.55-15.03c.48-1.44,3.68-7.03,1.76-15.03-1.92-7.99-5.12-19.03-7.03-25.1-1.92-6.08-1.78-10.05-1.78-10.05,0,0,.02-7.7-3.65-10.25-3.68-2.56-9.11-1.12-9.11-1.12Z"/><path class="cls-6" d="m235.11,109.82s8.24-6.28,19.87-3.79,24.71,13.08,24.71,13.08c0,0,.26-8.76-.26-10.85-.52-2.09-1.83-4.45-1.83-4.45,0,0,6.41,1.57,6.67-.26.26-1.83-2.61-4.97-4.58-6.54-1.96-1.57-8.89-8.76-11.51-9.15-2.61-.39-17-.65-22.23,2.35-5.23,3.01-13.08,10.59-10.85,19.61Z"/><path class="cls-7" d="m266.2,113.57c-.11-.78-2.61-1.6-6.63-1.94-4.01-.34-8.53,2.18-8.53,2.18-1.39.77-3.06.39-4.56.19,0,0-4.84-1.83-8.76-.92-3.92.92-6.28,2.09-6.28,2.88s.65,1.7.92,2.22,1.44,5.62,4.18,6.28c2.75.65,8.63-.39,9.68-2.35.95-1.78,1.21-4.15,1.3-6.14.02-.46,2.69-.41,2.76-.07,0,0,.87,4.1,2.19,5.89,1.32,1.79,7.29,1.97,9.91.92s3.05-6.26,3.23-6.82c.18-.56.7-1.56.58-2.33Z"/><path class="cls-4" d="m278.1,236.09c-.53,1.61-.95,3.19-1.21,4.64"/><path class="cls-4" d="m302.13,192.3s1.89-12.5,1.89-14.58,1.14-10.41,1.89-11.93,2.27-.76,2.46.76c.19,1.51-.38,8.14-.38,8.14,0,0,1.33-1.33,2.84-.76l1.51.57s1.33-2.46,3.41-1.33c2.08,1.14,2.27,6.63,2.27,6.63,0,0,3.79-5.49,6.63-8.14s4.73-2.65,3.79-.76c-.95,1.89-9.28,13.82-10.41,16.47-1.14,2.65-2.65,7.57-2.65,7.57l-13.25-2.65Z"/><path class="cls-5" d="m312.35,174.5s.33,4.68-.13,5.93"/><path class="cls-5" d="m308,174.69s-1,3.92-.88,4.49"/><polygon class="cls-4" points="299.86 199.12 302.09 190.03 317.34 193.62 315.71 206.88 299.86 199.12"/><path class="cls-4" d="m296.07,183.21s-4.73-2.27-10.04,5.11c-5.3,7.38-11.55,37.49-10.41,47.53,1.14,10.04.95,16.28,9.47,19.31,8.52,3.03,19.31-1.14,24.99-6.44s4.17-22.15,4.17-24.62,4.54-14.2,4.17-17.23c-.38-3.03-19.5-9.47-19.5-9.47,0,0-.19-12.12-2.84-14.2Z"/><path class="cls-4" d="m298.91,197.41s-6.82-.76-8.33,1.7-4.35,22.15-8.14,27.83c-1.32,1.98-2.53,4.38-3.5,6.83"/><path class="cls-5" d="m284.33,223.54s-2.27,14.2-.38,19.12"/><path class="cls-5" d="m307.69,232.24c.7,1.15,1.44,2.21,2.2,3.05"/><path class="cls-5" d="m303.08,222.41s1.34,3.69,3.25,7.38"/><path class="cls-5" d="m314.25,224.11s-2.08,5.87-2.08,9.85"/><line class="cls-5" x1="199.02" y1="144.25" x2="206.82" y2="143.33"/><polygon class="cls-3" points="193.93 99.49 229.64 97.17 229.94 100.09 194.31 102.71 193.93 99.49"/></g></svg>