<?xml version="1.0" encoding="UTF-8"?><svg id="Calque_2" xmlns="http://www.w3.org/2000/svg" viewBox="0 0 704.11 426.58"><defs><style>.cls-1{fill:#595959;}.cls-1,.cls-2,.cls-3,.cls-4,.cls-5,.cls-6,.cls-7,.cls-8{stroke:#263238;}.cls-1,.cls-2,.cls-3,.cls-4,.cls-5,.cls-6,.cls-7,.cls-8,.cls-9{stroke-linecap:round;stroke-linejoin:round;}.cls-2{fill:#858585;}.cls-10{opacity:.4;}.cls-10,.cls-11,.cls-5{fill:#fff;}.cls-11{opacity:.8;}.cls-3{fill:#c9c9c9;}.cls-4,.cls-12{fill:#92e3a9;}.cls-6{stroke-width:2px;}.cls-6,.cls-7,.cls-9{fill:none;}.cls-8,.cls-13{fill:#263238;}.cls-9{stroke:#b2b2b2;}</style></defs><g id="Background_Simple"><path class="cls-12" d="m320.17,21.1S119.96,30.87,44.76,117.79C-30.45,204.71-13.84,306.28,148.28,386.37c162.12,80.08,346.71,23.44,443.4-22.46,96.69-45.9,126.35-182.28,68.37-244.16-57.99-61.88-157.24-107.43-339.87-98.64Z"/><path class="cls-11" d="m320.17,21.1S119.96,30.87,44.76,117.79C-30.45,204.71-13.84,306.28,148.28,386.37c162.12,80.08,346.71,23.44,443.4-22.46,96.69-45.9,126.35-182.28,68.37-244.16-57.99-61.88-157.24-107.43-339.87-98.64Z"/></g><g id="Trees"><path class="cls-12" d="m186.38,251.88s50.11,4.96,75.51,36.02c0,0,26.83-35.99,75.03-35.25,13.99-16.86,22.4-38.5,22.41-62.12.02-53.79-43.57-97.41-97.37-97.43-53.79-.02-97.41,43.57-97.43,97.37,0,23.32,8.18,44.72,21.84,61.5v-.08Z"/><path class="cls-10" d="m186.38,251.88s50.11,4.96,75.51,36.02c0,0,26.83-35.99,75.03-35.25,13.99-16.86,22.4-38.5,22.41-62.12.02-53.79-43.57-97.41-97.37-97.43-53.79-.02-97.41,43.57-97.43,97.37,0,23.32,8.18,44.72,21.84,61.5v-.08Z"/><path class="cls-13" d="m214.56,216.69c25.03,7.93,40.58,31.19,44.63,37.91l-.36,165.56h7.2l-1.08-145.22c5.46-8.26,21.07-28.88,45.19-36.25,0,0-28.64,6.79-45.37,29.62l-.94-34.77c4.12-6.61,20.25-30.03,46.3-37.99,0,0-29.96,7.1-46.49,31.19l-.94-35.04.07.47s16.92-30.45,47.36-39.75c0,0-31.35,7.44-47.6,32.89l-2.3-47.16-.71,67.6c-15.93-24.21-44.96-31.34-44.96-31.34,25.64,8.12,41.33,32.34,44.91,38.38l-.23,34.85c-15.99-23.88-44.68-30.93-44.68-30.93Z"/><path class="cls-13" d="m214.56,216.69c25.03,7.93,40.58,31.19,44.63,37.91l-.36,165.56h7.2l-1.08-145.22c5.46-8.26,21.07-28.88,45.19-36.25,0,0-28.64,6.79-45.37,29.62l-.94-34.77c4.12-6.61,20.25-30.03,46.3-37.99,0,0-29.96,7.1-46.49,31.19l-.94-35.04.07.47s16.92-30.45,47.36-39.75c0,0-31.35,7.44-47.6,32.89l-2.3-47.16-.71,67.6c-15.93-24.21-44.96-31.34-44.96-31.34,25.64,8.12,41.33,32.34,44.91,38.38l-.23,34.85c-15.99-23.88-44.68-30.93-44.68-30.93Z"/><path class="cls-12" d="m386.77,279.69s41.83,4.14,63.03,30.07c0,0,22.4-30.04,62.63-29.42,11.67-14.07,18.7-32.14,18.7-51.85.02-44.9-36.37-81.32-81.27-81.33-44.9-.02-81.32,36.37-81.33,81.27,0,19.46,6.83,37.33,18.23,51.33v-.07Z"/><path class="cls-10" d="m386.77,279.69s41.83,4.14,63.03,30.07c0,0,22.4-30.04,62.63-29.42,11.67-14.07,18.7-32.14,18.7-51.85.02-44.9-36.37-81.32-81.27-81.33-44.9-.02-81.32,36.37-81.33,81.27,0,19.46,6.83,37.33,18.23,51.33v-.07Z"/><path class="cls-13" d="m410.29,250.31c20.89,6.62,33.87,26.04,37.26,31.64l-.3,138.2h6.01l-.91-121.22c4.56-6.9,17.59-24.11,37.72-30.26,0,0-23.91,5.67-37.87,24.72l-.78-29.02c3.44-5.51,16.91-25.06,38.65-31.71,0,0-25.01,5.93-38.8,26.03l-.79-29.25.06.39s14.12-25.42,39.54-33.18c0,0-26.17,6.21-39.74,27.46l-1.92-39.37-.59,56.43c-13.3-20.21-37.53-26.16-37.53-26.16,21.4,6.78,34.5,27,37.49,32.03l-.2,29.09c-13.34-19.93-37.29-25.82-37.29-25.82Z"/><path class="cls-13" d="m410.29,250.31c20.89,6.62,33.87,26.04,37.26,31.64l-.3,138.2h6.01l-.91-121.22c4.56-6.9,17.59-24.11,37.72-30.26,0,0-23.91,5.67-37.87,24.72l-.78-29.02c3.44-5.51,16.91-25.06,38.65-31.71,0,0-25.01,5.93-38.8,26.03l-.79-29.25.06.39s14.12-25.42,39.54-33.18c0,0-26.17,6.21-39.74,27.46l-1.92-39.37-.59,56.43c-13.3-20.21-37.53-26.16-37.53-26.16,21.4,6.78,34.5,27,37.49,32.03l-.2,29.09c-13.34-19.93-37.29-25.82-37.29-25.82Z"/><path class="cls-12" d="m18.25,279.69s41.83,4.14,63.03,30.07c0,0,22.4-30.04,62.63-29.42,11.67-14.07,18.7-32.14,18.7-51.85.02-44.9-36.37-81.32-81.27-81.33C36.43,147.14.02,183.52,0,228.43c0,19.46,6.83,37.33,18.23,51.33v-.07Z"/><path class="cls-10" d="m18.25,279.69s41.83,4.14,63.03,30.07c0,0,22.4-30.04,62.63-29.42,11.67-14.07,18.7-32.14,18.7-51.85.02-44.9-36.37-81.32-81.27-81.33C36.43,147.14.02,183.52,0,228.43c0,19.46,6.83,37.33,18.23,51.33v-.07Z"/><path class="cls-13" d="m41.77,250.31c20.9,6.62,33.87,26.04,37.26,31.64l-.3,138.2h6.01l-.91-121.22c4.56-6.9,17.59-24.11,37.72-30.26,0,0-23.91,5.67-37.87,24.72l-.78-29.02c3.44-5.51,16.91-25.06,38.65-31.71,0,0-25.01,5.93-38.8,26.03l-.79-29.25.06.39s14.12-25.42,39.54-33.18c0,0-26.17,6.21-39.74,27.46l-1.92-39.37-.59,56.43c-13.3-20.21-37.53-26.16-37.53-26.16,21.4,6.78,34.5,27,37.49,32.03l-.2,29.09c-13.34-19.93-37.29-25.82-37.29-25.82Z"/><path class="cls-13" d="m41.77,250.31c20.9,6.62,33.87,26.04,37.26,31.64l-.3,138.2h6.01l-.91-121.22c4.56-6.9,17.59-24.11,37.72-30.26,0,0-23.91,5.67-37.87,24.72l-.78-29.02c3.44-5.51,16.91-25.06,38.65-31.71,0,0-25.01,5.93-38.8,26.03l-.79-29.25.06.39s14.12-25.42,39.54-33.18c0,0-26.17,6.21-39.74,27.46l-1.92-39.37-.59,56.43c-13.3-20.21-37.53-26.16-37.53-26.16,21.4,6.78,34.5,27,37.49,32.03l-.2,29.09c-13.34-19.93-37.29-25.82-37.29-25.82Z"/><path class="cls-12" d="m531.42,252.12s50.04,4.95,75.4,35.97c0,0,26.79-35.94,74.92-35.2,13.97-16.83,22.37-38.45,22.37-62.03.02-53.72-43.51-97.28-97.23-97.29-53.72-.02-97.28,43.51-97.29,97.23,0,23.29,8.17,44.66,21.81,61.41v-.08Z"/><path class="cls-10" d="m531.42,252.12s50.04,4.95,75.4,35.97c0,0,26.79-35.94,74.92-35.2,13.97-16.83,22.37-38.45,22.37-62.03.02-53.72-43.51-97.28-97.23-97.29-53.72-.02-97.28,43.51-97.29,97.23,0,23.29,8.17,44.66,21.81,61.41v-.08Z"/><path class="cls-13" d="m559.56,216.98c25,7.92,40.52,31.15,44.57,37.85l-.36,165.32h7.19l-1.08-145.02c5.45-8.25,21.04-28.84,45.13-36.2,0,0-28.6,6.78-45.3,29.58l-.94-34.72c4.12-6.6,20.23-29.98,46.24-37.93,0,0-29.91,7.09-46.42,31.14l-.94-34.99.07.47s16.89-30.41,47.3-39.7c0,0-31.3,7.43-47.54,32.85l-2.3-47.09-.71,67.5c-15.91-24.18-44.9-31.3-44.9-31.3,25.61,8.11,41.28,32.3,44.85,38.32l-.23,34.8c-15.96-23.84-44.62-30.89-44.62-30.89Z"/><path class="cls-13" d="m559.56,216.98c25,7.92,40.52,31.15,44.57,37.85l-.36,165.32h7.19l-1.08-145.02c5.45-8.25,21.04-28.84,45.13-36.2,0,0-28.6,6.78-45.3,29.58l-.94-34.72c4.12-6.6,20.23-29.98,46.24-37.93,0,0-29.91,7.09-46.42,31.14l-.94-34.99.07.47s16.89-30.41,47.3-39.7c0,0-31.3,7.43-47.54,32.85l-2.3-47.09-.71,67.5c-15.91-24.18-44.9-31.3-44.9-31.3,25.61,8.11,41.28,32.3,44.85,38.32l-.23,34.8c-15.96-23.84-44.62-30.89-44.62-30.89Z"/></g><g id="Clouds"><path class="cls-9" d="m379.15,21.48c-.22-.67-.45-1.35-.69-2.03-9.01-25.06-50.93-26.79-50.93,4.01,0,5.93-14.23,0-19.57,7.71-5.34,7.71.59,12.46-6.52,14.83s-7.71-3.56-16.61-2.97c-8.9.59-7.71,8.9-10.68,11.27-2.97,2.37-2.97,1.19-9.49,1.78-6.52.59-7.71,5.34-7.71,5.34h155.99s5.93-17.79-4.74-24.32c-10.68-6.52-10.68,2.37-18.98-1.19-6.86-2.94-8.14-8.52-10.06-14.43Z"/><path class="cls-9" d="m384.54,54.93s3.23-9.99-4.7-17.33c-7.93-7.34-16.16-3.23-18.51,0-2.35,3.23-2.35,9.4-6.17,9.99-3.82.59-2.94-6.46-11.16-4.7-8.23,1.76-4.99,9.99-8.81,11.75-3.82,1.76-3.82-4.7-9.11-2.64-5.29,2.06-4.99,5.88-4.99,5.88"/><path class="cls-9" d="m342.35,34.97s-6.54-5.23-15.04-1.31c-8.5,3.92-4.58,12.1-8.5,14.06-3.92,1.96-5.89-.33-10.79,1.96-4.91,2.29-4.58,5.56-4.58,5.56"/><path class="cls-9" d="m200.95,65.66c-.1-.29-.19-.59-.3-.88-3.92-10.9-22.16-11.65-22.16,1.74,0,2.58-6.19,0-8.52,3.35-2.32,3.35.26,5.42-2.84,6.45-3.1,1.03-3.35-1.55-7.23-1.29s-3.35,3.87-4.64,4.9c-1.29,1.03-1.29.52-4.13.77s-3.35,2.32-3.35,2.32h67.86s2.58-7.74-2.06-10.58c-4.64-2.84-4.64,1.03-8.26-.52-2.98-1.28-3.54-3.71-4.38-6.28Z"/><path class="cls-9" d="m203.3,80.22s1.41-4.35-2.04-7.54c-3.45-3.2-7.03-1.41-8.05,0-1.02,1.41-1.02,4.09-2.68,4.35-1.66.26-1.28-2.81-4.86-2.04s-2.17,4.35-3.83,5.11c-1.66.77-1.66-2.04-3.96-1.15-2.3.89-2.17,2.56-2.17,2.56"/><path class="cls-9" d="m184.94,71.53s-2.85-2.28-6.55-.57c-3.7,1.71-1.99,5.26-3.7,6.12-1.71.85-2.56-.14-4.7.85-2.13,1-1.99,2.42-1.99,2.42"/><path class="cls-9" d="m549.5,64.35c-.1-.29-.19-.59-.3-.88-3.92-10.9-22.16-11.65-22.16,1.74,0,2.58-6.19,0-8.52,3.35-2.32,3.35.26,5.42-2.84,6.45-3.1,1.03-3.35-1.55-7.23-1.29s-3.35,3.87-4.64,4.9c-1.29,1.03-1.29.52-4.13.77s-3.35,2.32-3.35,2.32h67.86s2.58-7.74-2.06-10.58-4.64,1.03-8.26-.52c-2.98-1.28-3.54-3.71-4.38-6.28Z"/><path class="cls-9" d="m551.85,78.9s1.41-4.35-2.04-7.54c-3.45-3.2-7.03-1.41-8.05,0-1.02,1.41-1.02,4.09-2.68,4.35-1.66.26-1.28-2.81-4.86-2.04s-2.17,4.35-3.83,5.11c-1.66.77-1.66-2.04-3.96-1.15-2.3.89-2.17,2.56-2.17,2.56"/><path class="cls-9" d="m533.5,70.22s-2.85-2.28-6.55-.57c-3.7,1.71-1.99,5.26-3.7,6.12-1.71.85-2.56-.14-4.7.85-2.13,1-1.99,2.42-1.99,2.42"/></g><g id="Character_3"><path class="cls-5" d="m470.28,387.98s-3.79,19.89-4.02,21.07c-.24,1.18-1.42,10.89-1.42,10.89l18.23-.24-1.89-15.15,4.74-13.73-15.63-2.84Z"/><path class="cls-4" d="m492.77,298.01s-24.15,77.66-25.1,83.11c-.95,5.45-.71,7.58-.71,7.58l21.07,5.21,7.81-19.65.24-82.16-3.31,5.92Z"/><polygon class="cls-8" points="487.12 420.15 491.74 383.35 589.52 384.72 592.13 419.96 487.12 420.15"/><path class="cls-4" d="m491.02,381.34l-.53,10.07s11.26,9.55,45.19,9.28c33.93-.27,45.2-4.51,48.64-5.57,3.45-1.06,5.83-2.39,5.83-4.77s-1.33-8.75-1.33-8.75c0,0-30.75,3.98-54.07,4.77-23.33.8-43.74-5.04-43.74-5.04Z"/><path class="cls-4" d="m525.85,222.26s-19.39,13.15-20.64,17.42c-1.25,4.27-14.55,44.92-13.8,50.69.75,5.77,1.25,22.83,1.25,22.83,0,0-6.02,65.99-4.01,69.76,2.01,3.76,23.59,9.79,54.95,8.78,31.37-1,44.66-5.77,45.92-7.03s2.76-3.51,2.26-7.53c-.5-4.01-.5-30.11-.5-30.11l19.07-7.03s-8.53-104.13-11.79-109.65c-3.26-5.52-30.86-13.8-35.13-13.55-4.27.25-37.57,5.42-37.57,5.42Z"/><line class="cls-5" x1="513.13" y1="303.81" x2="536.55" y2="318.25"/><line class="cls-5" x1="505.16" y1="298.9" x2="510.6" y2="302.25"/><line class="cls-5" x1="543.15" y1="318.69" x2="545.96" y2="320.34"/><line class="cls-5" x1="528.18" y1="309.88" x2="539.71" y2="316.66"/><path class="cls-5" d="m511.45,140.67s-3.84,15.93-3.84,17.66,1.34,5.57,1.15,6.53c-.19.96-10.75,11.52-9.41,13.06s4.61,6.34,4.61,6.34c0,0,4.61,20.16,6.34,20.16s16.32-3.46,16.32-3.46l-.77,21.31-4.03,4.03s-2.5,22.85.58,22.46c3.07-.38,42.24-29.18,42.81-30.72.58-1.54-.38-2.5-1.54-3.07-1.15-.58-4.03-5.38-4.03-5.38,0,0-1.92-23.81-1.92-24.38s4.8-21.12,5.18-21.69c.38-.58,2.69-10.75-13.25-18.05-15.93-7.3-34.56-9.22-36.09-8.64-1.54.58-2.11,3.84-2.11,3.84Z"/><polygon class="cls-8" points="526.62 200.95 536.76 199.38 527 210.18 526.62 200.95"/><path class="cls-8" d="m508.95,184.83s5.95.58,9.98-3.65c0,0-.19,7.3-2.88,8.26-2.69.96-7.1-4.61-7.1-4.61Z"/><path class="cls-13" d="m514.71,164.28c0,1.27-.47,2.3-1.06,2.3s-1.06-1.03-1.06-2.3.47-2.3,1.06-2.3,1.06,1.03,1.06,2.3Z"/><path class="cls-7" d="m511.06,156.42s2.75-1.99,7.49,0"/><path class="cls-8" d="m533.4,117.68s-9.51-6.75-16.57-6.75-12.58,5.22-12.58,9.21,1.53,7.06-.31,8.59c-1.84,1.53-6.14-3.07-8.59,3.38-2.45,6.44,7.98,12.89,10.13,13.5,2.15.61,5.52-3.99,7.36-2.45,1.84,1.53,2.76,4.91,7.36,4.91s8.9-3.68,10.13-1.84-1.84,7.36.31,8.9c2.15,1.53,6.44,5.22,6.44,5.22,0,0-2.15,5.83-.61,6.44l1.53.61s2.76-6.44,6.75-5.83c3.99.61,5.22,2.15,5.22,8.9s-7.36,9.21-7.36,9.21c0,0,7.06,8.28,9.21,8.9s5.52,2.76,6.75.61c1.23-2.15,7.98-15.34,9.21-16.88,1.23-1.53,10.13-1.84,11.97-8.9,1.84-7.06-3.38-10.43-1.23-12.58,2.15-2.15,11.05-3.07,8.28-12.58-2.76-9.51-10.13-10.13-12.89-11.05-2.76-.92-6.14-7.98-10.43-9.82-4.3-1.84-6.75-.61-7.67-.31-.92.31-1.53-4.3-10.43-3.38-8.9.92-11.97,3.99-11.97,3.99Z"/><path class="cls-13" d="m512.07,172.01c-2.42,0-5.38-.92-6.37-2.08-1.31-1.53-2.19-9.49-1.33-12,.33-.96.9-1.26,1.32-1.35.25-.05.93-.19,11.24.43.81.05,1.57.43,2.08,1.06.52.63.75,1.45.64,2.25h0c-.24,1.8-.57,4.24-.69,5.06-.23,1.58-2.26,4.95-4.34,6.11-.65.36-1.55.52-2.55.52Zm-5.8-13.47c-.57,1.37-.09,8.76.95,10.09.84.98,5.09,1.86,6.43,1.12,1.41-.78,3.18-3.58,3.33-4.64.12-.81.44-3.25.68-5.04h0c.04-.26-.04-.52-.2-.72-.17-.2-.4-.32-.66-.34-6.53-.39-9.66-.5-10.54-.48Z"/><polygon class="cls-8" points="518.66 160.2 541.01 163.13 539.09 164.86 524.89 163.71 522.39 164.86 517.98 165.24 518.66 160.2"/><path class="cls-5" d="m490.48,323.98s-7.45-7.61-6.18-8.56,3.49-.95,4.91.63c1.43,1.59,9.04,10.78,9.04,10.78l-7.77-2.85Z"/><path class="cls-5" d="m500.15,330.96s-7.77-3.81-9.35-4.76-9.67-6.02-8.72-7.13,3.65-1.59,5.55.32c1.9,1.9,9.51,5.39,9.99,5.55.48.16,4.28,5.39,4.28,5.39l-1.74.63Z"/><path class="cls-5" d="m540.1,330.8s-10.94-4.44-11.73-4.92c-.79-.48-2.54-4.12-5.07-6.02-2.54-1.9-5.55-2.38-8.09-3.33-2.54-.95-7.45-3.49-8.24-3.96-.79-.48-3.96,1.9.32,5.23,4.28,3.33,7.45,5.71,7.45,5.71,0,0-6.34.32-8.4.63-2.06.32-6.5-.16-7.13-.95-.63-.79-5.23-7.13-6.66-8.4-1.43-1.27-4.6-1.74-5.23.32s1.74,1.9,5.39,6.98c3.65,5.07,8.56,11.89,11.1,11.73,2.54-.16,21.25,1.9,21.25,1.9l16.65,7.61-1.59-12.53Z"/><path class="cls-4" d="m577.72,255.74s-6.52,22.83-4.77,29.61c1.76,6.77,12.3,42.16,12.3,42.16,0,0-35.63.75-39.9.75s-6.52.5-6.52.5l-.25,22.08s30.86,8.03,51.19,6.02c20.32-2.01,32.87-5.02,33.62-8.53.75-3.51.5-7.53.5-7.53,0,0-12.3-73.52-15.56-85.57-3.26-12.04-6.77-25.85-9.54-27.85s-18.32-4.77-18.32-4.77"/></g><g id="Speech_Bubble_3"><path class="cls-5" d="m648.48,26.23h-83.56c-5.35,0-9.68,4.33-9.68,9.68v46.65c0,5.35,4.33,9.68,9.68,9.68h31.29l-7.56,20.03,18.62-20.03h41.21c5.35,0,9.68-4.33,9.68-9.68v-46.65c0-5.35-4.33-9.68-9.68-9.68Z"/><path class="cls-13" d="m588.91,57.87c0-2.56-2.08-4.64-4.64-4.64s-4.64,2.08-4.64,4.64,2.08,4.64,4.64,4.64,4.64-2.08,4.64-4.64Z"/><path class="cls-13" d="m611.34,57.87c0-2.56-2.08-4.64-4.64-4.64s-4.64,2.08-4.64,4.64,2.08,4.64,4.64,4.64,4.64-2.08,4.64-4.64Z"/><path class="cls-13" d="m633.77,57.87c0-2.56-2.08-4.64-4.64-4.64s-4.64,2.08-4.64,4.64,2.08,4.64,4.64,4.64,4.64-2.08,4.64-4.64Z"/></g><g id="Character_2"><path class="cls-8" d="m419.67,420.15c.26-4.75.59-12.33.26-15.15-.5-4.24-10.83-34.58-10.83-34.58l-119.69-.11-3.19,49.84h133.45Z"/><path class="cls-5" d="m417.68,373.56l-3.74,3.49-7.24,5.99,13.23,21.96s5.24-5.49,5.99-7.74c.75-2.25,2.5-8.98,2.5-8.98l1.5-3.49-12.23-11.23Z"/><path class="cls-4" d="m324.23,211.82s-42.27,13.03-43.86,19.39c-1.59,6.36-25.75,71.83-25.75,71.83l38.46,4.13s-8.58,64.52-6.99,66.43,53.4,3.81,62.93,4.13c9.54.32,58.8-5.09,60.07-7.31s.95-7.31.95-7.31l-1.59-47.04.32-19.39,17.48,34.33s5.09,4.13,14.3,2.86,15.89-5.4,13.99-18.12c-1.91-12.71-27.02-70.88-29.88-79.46-2.86-8.58-5.72-12.71-10.17-14.94-4.45-2.22-47.68-13.03-47.68-13.03l-42.59,3.5Z"/><line class="cls-5" x1="408.78" y1="296.69" x2="410.05" y2="254.41"/><line class="cls-5" x1="410.05" y1="279.84" x2="414.18" y2="256.32"/><line class="cls-7" x1="293.08" y1="307.18" x2="297.85" y2="249.96"/><line class="cls-7" x1="294.99" y1="273.48" x2="291.49" y2="250.6"/><path class="cls-4" d="m324.55,202.29s-9.54,7.63-9.22,9.22c.32,1.59.32,8.58,3.81,10.17,3.5,1.59,25.75,19.07,25.75,19.07l-20.34-38.46Z"/><path class="cls-5" d="m320.41,176.05l4.77,39.27,19.71,25.43,23.52-34.96.32-24.47s-2.22,7.31-15.89,6.67c-13.67-.64-32.43-11.94-32.43-11.94Z"/><polygon class="cls-8" points="344.84 196.99 324.55 202.29 319.65 172.12 344.84 196.99"/><path class="cls-4" d="m344.89,240.75s6.99-22.57,7.63-25.75,16.85-15.89,16.85-15.89c0,0,3.18,0,3.18,3.18s.32,6.99.32,6.99l-27.97,31.47Z"/><path class="cls-5" d="m373.18,152.86s4.45-3.5,6.67,1.91c2.22,5.4-4.77,13.99-6.36,15.57l-1.59,1.59s-.95-8.9-.95-12.08-.64-7.63,2.22-6.99Z"/><path class="cls-5" d="m313.12,157.6s-4.77.63-4.77,4.76c0,4.13,2.53,9.86,5.71,11.77,3.18,1.91,6.36,1.91,6.36,1.91,0,0,.95,7.63,5.39,12.72,4.45,5.09,10.16,8.91,13.02,10.82s9.21,4.78,13.03,3.19c3.82-1.59,9.54-7.3,9.54-7.3,0,0,5.41-2.22,7.64-9.21,2.23-6.99,4.78-19.07,4.79-25.11s-1.58-13.35-1.89-15.26c-.32-1.91-5.4-9.22-20.33-9.23-14.94-.01-27.02,4.75-29.25,8.24-2.23,3.49-9.23,12.71-9.23,12.71Z"/><path class="cls-8" d="m317.01,155.49l1.84,7.83s1.84.23,1.84-1.15-1.87-9.31-1.87-9.31l-1.82,2.63Z"/><path class="cls-7" d="m343.94,171.62s-.32,2.54,3.18,3.5c3.5.96,8.58,0,9.22-1.9s-.31-4.13-.31-4.13"/><path class="cls-7" d="m339.8,179.88s9.21,4.78,19.39-1.57"/><ellipse class="cls-13" cx="339.33" cy="160.01" rx="2.07" ry="3.02"/><path class="cls-13" d="m362.85,160.01c0,1.67-.92,3.02-2.07,3.02s-2.07-1.35-2.07-3.02.92-3.02,2.07-3.02,2.07,1.35,2.07,3.02Z"/><path class="cls-6" d="m332.18,155.4s4.45-4.45,11.76-2.86"/><path class="cls-6" d="m356.02,151.91s5.72-1.91,11.12,2.22"/><path class="cls-8" d="m318.83,152.86s-3.18,4.77-5.72,4.77-11.12-6.67-11.76-12.4c-.64-5.72,12.4-10.17,17.16-17.16,4.77-6.99,17.48-18.75,27.65-16.85,10.17,1.91,16.85,13.03,23.2,14.94,6.36,1.91,16.53,8.26,15.57,14.62-.95,6.36-3.5,9.22-6.04,9.54-2.54.32-5.72-1.59-5.72-1.59,0,0-8.9-10.49-21.61-12.08-12.71-1.59-17.16,1.59-21.61,6.36-4.45,4.77-11.12,9.85-11.12,9.85Z"/><path class="cls-1" d="m318.83,152.86s4.45,2.23,9.85-.95c5.4-3.18,8.58-11.44,21.93-9.22,13.35,2.23,14.94,6.67,18.12,7.31s4.45.32,3.18-4.13c-1.27-4.45-12.4-12.4-23.52-13.03-11.12-.64-28.92,10.49-29.56,20.02Z"/><path class="cls-5" d="m315.76,279.87s3.86-11.47,5.02-12.84,8.59-4.2,8.59-4.2l4.88-2.16c.68-.3,1.46.09,1.64.81.53,2.18.36,2.59-.9,3.77-1.48,1.4-7.32,4.1-7.32,4.1l10.8-2.35,17.95-3.7c.8-.17,1.57.41,1.64,1.22v.02c.06.75-15.12,6.61-15.12,6.61l.24,1.48,12.06-1.1,5.09-.79c.97-.15,1.89.47,2.11,1.42h0c.21.88-.23,1.77-1.05,2.15-1.82.82-4.78,2.16-5.12,2.27-.49.16-11.96,2.34-11.96,2.34l6.54,1.85,11.09-.1c.65,0,1.18.51,1.19,1.16h0c0,.44-.22.84-.6,1.05-1.1.6-3.38,1.83-4.57,2.2-1.59.5-7.02,1.44-8.38,1.68-1.36.23-5.97.48-6.35.51-.37.03,7.99,1.23,8.37,1.33s5.04.34,4.95.85c-.08.51.1,1.24-.75,1.56-.85.32-4.21.59-7.6.49-3.39-.1-7.9-.11-7.9-.11,0,0-9.16,1.37-12.89,1.67-3.73.3-8.78,1.33-8.78,1.33l-6.91,2.81-2.97-15.04,7-2.29Z"/><path class="cls-4" d="m313.37,280.47l3.74,16.97s-47.17,35.44-47.92,35.44-5.74.75-11.98-4.74c-6.24-5.49-7.74-13.23-6.74-18.22,1-4.99,5.99-11.23,8.49-13.48,2.5-2.25,54.4-15.97,54.4-15.97Z"/><path class="cls-4" d="m439.14,317.66s-8.98,7.49-10.98,10.98c-2,3.49-12.23,45.92-12.23,45.92l15.72,13.73,8.24-11.23s19.22-43.17,19.96-46.17c.75-2.99-2.99-14.23-6.99-19.72"/></g><g id="Speech_Bubble_2"><path class="cls-5" d="m457.69,53.37h-83.56c-5.35,0-9.68,4.33-9.68,9.68v46.65c0,5.35,4.33,9.68,9.68,9.68h31.29l-7.56,20.03,18.62-20.03h41.21c5.35,0,9.68-4.33,9.68-9.68v-46.65c0-5.35-4.33-9.68-9.68-9.68Z"/><path class="cls-13" d="m398.75,86.43c0-2.56-2.08-4.64-4.64-4.64s-4.64,2.08-4.64,4.64,2.08,4.64,4.64,4.64,4.64-2.08,4.64-4.64Z"/><path class="cls-13" d="m421.18,86.43c0-2.56-2.08-4.64-4.64-4.64s-4.64,2.08-4.64,4.64,2.08,4.64,4.64,4.64,4.64-2.08,4.64-4.64Z"/><path class="cls-13" d="m443.61,86.43c0-2.56-2.08-4.64-4.64-4.64s-4.64,2.08-4.64,4.64,2.08,4.64,4.64,4.64,4.64-2.08,4.64-4.64Z"/></g><g id="Character_1"><path class="cls-8" d="m138.65,112.62s-26.8,18.21-27.15,24.4c-.34,6.18-1.03,23.37-4.47,26.46-3.44,3.09-9.96,8.25-9.96,12.03s1.37,8.59,1.37,10.31-4.12,4.81-4.47,8.59,2.06,11,2.06,13.06-5.5,5.5-6.18,8.25c-.69,2.75,1.03,4.47-.69,7.22-1.72,2.75-5.15,7.22-5.15,7.22,0,0,6.18,7.56,27.83,11,21.65,3.44,52.92,4.47,65.97,1.72,13.06-2.75,38.14-19.59,38.14-19.59,0,0-2.41-1.37-2.41-5.15s4.81-9.62,2.41-14.09c-2.41-4.47-7.9-4.81-7.9-11.34s2.41-5.5,0-10.31c-2.41-4.81-7.56-5.5-8.25-9.28-.69-3.78,3.78-8.59,1.03-14.43-2.75-5.84-8.59-9.96-9.62-12.71s2.06-10.31-1.37-14.78-27.15-18.21-35.05-19.93c-7.9-1.72-16.15,1.37-16.15,1.37Z"/><path class="cls-5" d="m183.06,181.63c-2.56,16.38-15.85,27.63-15.85,27.63v8.7l-9.92-1.16-24.87-2.93v-22s-2.05,0-5.11-.52c-3.07-.51-6.66-6.13-3.59-16.87,3.07-10.75,8.7,2.04,8.7,2.04,0,0,2.04.52,9.21-13.3,7.16-13.81,10.74-32.75,10.74-32.75l27.12,14.84s6.13,19.95,3.58,36.32Z"/><path class="cls-7" d="m170.88,160.3s-1.66,4.74-1.66,6.17,3.79,17.07,4.27,18.02c.47.95-9.25,2.37-9.25,2.37"/><path class="cls-7" d="m173.25,190.66s-9.72,3.79-15.41-1.9"/><path class="cls-7" d="m160.68,156.51s-8.3-1.42-12.57,3.79"/><path class="cls-7" d="m173.01,156.98s5.93-1.66,8.3,2.13"/><path class="cls-13" d="m157.37,167.53c0,2-.94,3.63-2.09,3.63s-2.09-1.62-2.09-3.63.94-3.63,2.09-3.63,2.09,1.62,2.09,3.63Z"/><path class="cls-13" d="m179.27,167.53c0,2-.94,3.63-2.09,3.63s-2.09-1.62-2.09-3.63.94-3.63,2.09-3.63,2.09,1.62,2.09,3.63Z"/><path class="cls-8" d="m167.21,209.26v8.7l-9.92-1.16c-7.36-6.22-14.17-17.4-14.68-18.24,8.38,12.5,24.6,10.7,24.6,10.7Z"/><path class="cls-5" d="m195.92,236.91s28.47,102.84,30.53,113.15c2.06,10.31,7.22,56.18,7.22,56.18l1.55,13.4h-17.01l3.61-19.59-20.1-67s-7.22-49.48-7.73-63.4,1.94-32.75,1.94-32.75Z"/><path class="cls-4" d="m195.92,236.91s-2.46,18.83-1.94,32.75,7.73,63.4,7.73,63.4l7.92,26.39,17.9-2.83c-.41-2.78-.78-5.05-1.08-6.56-2.06-10.31-30.53-113.15-30.53-113.15Z"/><polygon class="cls-5" points="131.61 235.12 156.35 261.92 175.42 234.6 165.11 227.39 137.28 225.84 131.61 235.12"/><polygon class="cls-3" points="163.57 232.03 180.06 236.67 204.28 380.98 208.41 420.15 98.62 420.15 110.99 242.85 133.84 229.45 163.57 232.03"/><line class="cls-7" x1="140.89" y1="296.97" x2="179.54" y2="298.52"/><line class="cls-7" x1="160.99" y1="297.49" x2="159.44" y2="318.62"/><line class="cls-7" x1="165.11" y1="299.03" x2="164.6" y2="337.69"/><line class="cls-7" x1="169.24" y1="309.86" x2="170.27" y2="329.44"/><path class="cls-4" d="m124.57,228.08s-25.08,13.4-26.11,17.87c-1.03,4.47-13.23,60.82-13.23,61.85s12.2,32.99,12.2,32.99l-2.53,50.25s12.37,2.75,19.93,2.41c7.56-.34,18.9-1.03,18.9-1.03l1.84-164.33h-11Z"/><line class="cls-7" x1="108.93" y1="324.29" x2="113.57" y2="283.57"/><path class="cls-5" d="m109.1,318.1l-26.46-65.63s-3.78-10.31-6.87-13.06c-3.09-2.75-6.53-4.81-8.59-6.87s-2.41-6.87-3.78-1.72c-1.37,5.15,4.12,8.93,4.12,8.93l3.44,5.84-21.99-4.12s-11.34-5.5-12.37-3.09c-1.03,2.41,4.81,4.47,9.62,8.25,4.81,3.78,7.56,7.22,15.46,9.96,7.9,2.75,14.09,8.25,14.09,8.25,0,0,1.72,69.75,5.84,72.85s18.21,11.34,23.37,4.47c5.15-6.87,5.15-13.06,4.12-24.05Z"/><path class="cls-4" d="m109.1,318.1l-4.27-10.59-26.64,8.97c.88,11.24,2.01,20.15,3.42,21.21,4.12,3.09,18.21,11.34,23.37,4.47,5.15-6.87,5.15-13.06,4.12-24.05Z"/><path class="cls-5" d="m57.94,253.46s-9.08-5.5-10.73-8.25c-1.65-2.75-7.43-13.48-5.5-13.76,1.93-.28,7.04,7.58,7.15,8.8.11,1.22,5.78,6.6,5.78,6.6"/><path class="cls-5" d="m58.77,255.66s-3.58-2.2-5.78-7.15c-2.2-4.95-4.68-11.83-4.68-15.68s2.2-2.48,3.03.28c.83,2.75,3.58,9.35,4.68,10.73,1.1,1.38,4.95,6.88,4.95,6.88"/><path class="cls-5" d="m79.95,258.41c-.28-.83-3.85-6.6-4.95-6.88-1.1-.28-8.53,1.65-8.53,1.65l-4.95-3.85s-.28-8.25-.28-11.28-4.13,4.4-4.4,9.35,3.58,10.18,3.58,10.18c0,0,4.4.83,5.23,1.1.83.28,10.13,6.16,10.13,6.16"/><polygon class="cls-2" points="125.94 228.08 122.51 328.75 137.28 328.41 133.84 229.45 125.94 228.08"/><polygon class="cls-2" points="125.94 228.08 132.81 336.66 154.12 336.31 140.03 229.11 125.94 228.08"/><path class="cls-4" d="m170.78,233.06l.13,1.94,10.69,154.75,28.36-1.85-7.74-71.85s-4.76-78.1-6.3-79.13c-1.55-1.03-25.14-6.42-25.14-6.42v2.58Z"/><path class="cls-2" d="m129.38,208.15s35.05,6.87,38.14,6.87,5.15,2.06,4.47,4.47c-.69,2.41-1.03,4.47-1.03,5.84s3.78,6.87.69,9.62-35.39-2.41-39.86-2.75-8.59-.69-8.59-3.09,5.15-6.53,5.15-8.25-4.12-6.87,1.03-12.71Z"/></g><g id="Speech_Bubble_1"><path class="cls-5" d="m37.66,27.74h93.08c5.95,0,10.78,4.83,10.78,10.78v51.97c0,5.95-4.83,10.78-10.78,10.78h-34.85l8.42,22.31-20.74-22.31h-45.9c-5.95,0-10.78-4.83-10.78-10.78v-51.97c0-5.95,4.83-10.78,10.78-10.78Z"/><path class="cls-13" d="m66.56,64.79c0-2.56-2.08-4.64-4.64-4.64s-4.64,2.08-4.64,4.64,2.08,4.64,4.64,4.64,4.64-2.08,4.64-4.64Z"/><path class="cls-13" d="m88.99,64.79c0-2.56-2.08-4.64-4.64-4.64s-4.64,2.08-4.64,4.64,2.08,4.64,4.64,4.64,4.64-2.08,4.64-4.64Z"/><path class="cls-13" d="m111.42,64.79c0-2.56-2.08-4.64-4.64-4.64s-4.64,2.08-4.64,4.64,2.08,4.64,4.64,4.64,4.64-2.08,4.64-4.64Z"/></g><g id="Line"><line class="cls-7" x1="10.01" y1="420.15" x2="687.44" y2="420.15"/></g></svg>