<?xml version="1.0" encoding="UTF-8"?><svg id="Calque_2" xmlns="http://www.w3.org/2000/svg" viewBox="0 0 724.95 451.46"><defs><style>.cls-1,.cls-2,.cls-3,.cls-4{fill:#fff;}.cls-1,.cls-5,.cls-6,.cls-7,.cls-8,.cls-9,.cls-10{stroke:#263238;}.cls-1,.cls-5,.cls-6,.cls-7,.cls-8,.cls-10{stroke-miterlimit:10;}.cls-5{fill:#263238;}.cls-11{opacity:.24;}.cls-6,.cls-12{fill:#92e3a9;}.cls-3{opacity:.3;}.cls-4{opacity:.8;}.cls-7{fill:#969696;}.cls-13{fill:#a1a1a1;}.cls-8,.cls-9{fill:none;}.cls-9{stroke-linecap:round;stroke-linejoin:round;}.cls-10{fill:#525252;}</style></defs><g id="Background_Simple"><path class="cls-12" d="m712.25,255.54c4.21-83.11-41.86-159.85-114.16-193.71-25.26-11.83-53.94-21.79-80.19-22.73-67.52-2.42-151.92,29.05-206.4,40.34-54.48,11.3-136.58-34.69-199.5-17.75C49.08,78.63-20.68,176.63,5.75,282.75c26.43,106.12,93.88,155.72,162.17,162.17,68.29,6.45,147.36-58.72,203.02-49.53,55.66,9.19,72.54,58.41,181.5,55.99,108.96-2.42,153.46-100.04,159.6-192.02.09-1.28.16-2.55.22-3.82Z"/><path class="cls-4" d="m712.25,255.54c4.21-83.11-41.86-159.85-114.16-193.71-25.26-11.83-53.94-21.79-80.19-22.73-67.52-2.42-151.92,29.05-206.4,40.34-54.48,11.3-136.58-34.69-199.5-17.75C49.08,78.63-20.68,176.63,5.75,282.75c26.43,106.12,93.88,155.72,162.17,162.17,68.29,6.45,147.36-58.72,203.02-49.53,55.66,9.19,72.54,58.41,181.5,55.99,108.96-2.42,153.46-100.04,159.6-192.02.09-1.28.16-2.55.22-3.82Z"/></g><g id="Grass"><polygon class="cls-12" points="710.26 436.6 710.26 425.77 707.57 426.49 692.82 422.49 678.06 426.49 663.31 422.49 648.56 426.49 633.81 422.49 619.05 426.49 604.3 422.49 589.55 426.49 574.79 422.49 560.04 426.49 545.28 422.49 530.53 426.49 515.77 422.49 501.02 426.49 486.26 422.49 471.51 426.49 456.75 422.49 442 426.49 427.24 422.49 412.48 426.49 397.73 422.49 382.97 426.49 368.21 422.49 353.46 426.49 338.7 422.49 323.94 426.49 309.19 422.49 294.43 426.49 279.67 422.49 264.91 426.49 250.15 422.49 235.4 426.49 220.64 422.49 205.88 426.49 191.12 422.49 176.36 426.49 161.61 422.49 146.85 426.49 132.09 422.49 117.33 426.49 102.57 422.49 87.81 426.49 73.05 422.49 58.29 426.49 43.53 422.49 28.77 426.49 14.01 422.49 7.83 424.17 7.83 436.6 710.26 436.6"/></g><g id="Clouds"><path class="cls-9" d="m67.62,71.16h65.64s1.35-4.96-2.26-7.22c-3.61-2.26-4.51.45-8.57-.45,0,0-10.83-16.69-19.4-15.79-1.36.14-2.5.42-3.46.82"/><path class="cls-9" d="m95.81,51.56c-1.67,2.43-2.31,5.58-4.06,8.32-3.16,4.96-8.12-2.26-13.08-.45-4.96,1.8-3.16,4.96-6.32,6.32s-10.38-5.86-13.08-3.61c-2.71,2.26-3.61,5.86-5.41,6.77-1.8.9-5.41-2.26-7.22,0l-1.8,2.26h18.33"/><path class="cls-9" d="m621.93,85.87c-1.59-.62-3.25-1.03-4.91-.42-4.96,1.8-3.16,4.96-6.32,6.32s-10.38-5.86-13.08-3.61c-2.71,2.26-3.61,5.86-5.41,6.77s-5.41-2.26-7.22,0l-1.8,2.26h52.3"/><path class="cls-9" d="m650.69,77.81c-3-2.54-6.3-4.4-9.31-4.09-8.57.9-8.12,7.22-11.28,12.18-.53.83-1.1,1.31-1.72,1.56"/><path class="cls-9" d="m640.5,97.18h31.11s1.35-4.96-2.26-7.22c-3.61-2.26-4.51.45-8.57-.45,0,0-2.76-4.26-6.6-8.36"/><path class="cls-9" d="m237.87,21.7c-2.18-.62-4.42-.82-6.65-.01-8.94,3.25-5.69,8.94-11.37,11.37-5.69,2.44-18.68-10.56-23.56-6.5-4.87,4.06-6.5,10.56-9.75,12.18-3.25,1.62-9.75-4.06-13,0l-3.25,4.06h95.95"/><path class="cls-9" d="m271.81,42.8h57.7s2.44-8.94-4.06-13c-6.5-4.06-8.12.81-15.43-.81,0,0-19.5-30.06-34.93-28.43-15.43,1.62-14.62,13-20.31,21.93-3.15,4.95-7.29,3.17-11.88,1.15"/></g><g id="Buildings"><polyline class="cls-8" points="119.86 206.64 119.86 100.44 108.59 100.44 108.59 89.5 74.8 89.5 74.8 98.25 65.96 98.25 65.96 279.99 41.82 279.99 41.82 311.74 26.54 311.74"/><polyline class="cls-8" points="229.27 220.87 229.27 138.76 205.94 138.76 205.94 158.47 194.68 158.47 194.68 130 169.74 130 169.74 252.62 148.82 252.62 148.82 296.41 131.92 296.41 131.92 228.53 119.86 228.53 119.86 214.3"/><polyline class="cls-8" points="316.96 166.13 316.96 311.74 303.28 311.74 303.28 226.34 283.97 226.34 283.97 298.6 229.27 298.6 229.27 234.01"/><polyline class="cls-8" points="359.6 273.42 359.6 93.87 316.96 93.87 316.96 154.09"/><polyline class="cls-8" points="442.46 220.87 442.46 241.67 430.39 241.67 430.39 147.52 382.12 147.52 382.12 293.13 359.6 293.13 359.6 278.89"/><polyline class="cls-8" points="494.75 311.74 477.05 311.74 477.05 175.98 442.46 175.98 442.46 209.92"/></g><g id="Trees"><path class="cls-12" d="m721.92,259.21c15.93,80.77-34.12,47.13-76.2,47.13s-95.41,27.39-76.2-47.13c10.98-42.58,34.12-69.2,76.2-69.2s69.48,35.14,76.2,69.2Z"/><path class="cls-3" d="m721.92,259.21c15.93,80.77-34.12,47.13-76.2,47.13s-95.41,27.39-76.2-47.13c10.98-42.58,34.12-69.2,76.2-69.2s69.48,35.14,76.2,69.2Z"/><polygon class="cls-13" points="621.7 299.01 642.23 314.67 640.13 435.69 652.53 435.69 650.14 288.98 679.49 256.7 649.79 282.09 648.71 234.02 645.47 266.96 637.83 261.42 621.16 237.8 631.88 259.27 597.4 245.36 632.54 265.22 644.1 273.23 642.77 308.19 621.7 299.01"/><path class="cls-2" d="m633.28,220.54s-1.12,5.2,1.21,9.52c2.34,4.32,5.53,7.19,5.53,7.19,0,0,2.32-8.21-6.74-16.71Z"/><path class="cls-2" d="m589.66,266.51s4.01,3.5,8.92,3.54c4.91.04,8.96-1.37,8.96-1.37,0,0-6.07-6-17.88-2.17Z"/><path class="cls-2" d="m583.55,288.08s4.87,2.15,9.57.73c4.7-1.42,8.15-3.97,8.15-3.97,0,0-7.58-3.93-17.72,3.23Z"/><path class="cls-2" d="m612.64,290.32s5.32-.07,9.01-3.31c3.68-3.24,5.76-7,5.76-7,0,0-8.53-.42-14.77,10.31Z"/><path class="cls-2" d="m600.36,225.92s1.21,5.19,5.16,8.09c3.96,2.91,8.07,4.13,8.07,4.13,0,0-1.41-8.42-13.23-12.23Z"/><path class="cls-2" d="m687.16,222.08s-5.27.75-8.51,4.43c-3.24,3.69-4.83,7.67-4.83,7.67,0,0,8.51-.67,13.34-12.11Z"/><path class="cls-2" d="m705.43,249.47s-5.21-1.12-9.52,1.22c-4.32,2.34-7.18,5.54-7.18,5.54,0,0,8.22,2.31,16.7-6.76Z"/><path class="cls-2" d="m703.64,280.59s-3.75-3.78-8.65-4.17c-4.89-.39-9.04.72-9.04.72,0,0,5.63,6.42,17.68,3.44Z"/><path class="cls-2" d="m683.25,297.28s-2.16-4.87-6.59-6.98c-4.43-2.11-8.7-2.54-8.7-2.54,0,0,2.97,8,15.3,9.52Z"/><path class="cls-2" d="m672.52,246.8s-5.27.75-8.51,4.43c-3.24,3.69-4.83,7.67-4.83,7.67,0,0,8.51-.67,13.34-12.11Z"/><path class="cls-2" d="m586.15,239.93s2.35,4.78,6.86,6.72c4.51,1.94,8.79,2.21,8.79,2.21,0,0-3.28-7.88-15.65-8.92Z"/><path class="cls-2" d="m661.32,214.74s-4.27,3.18-5.35,7.97c-1.08,4.79-.56,9.05-.56,9.05,0,0,7.15-4.67,5.9-17.02Z"/><path class="cls-2" d="m645.23,199.68s-2.42,4.74-1.27,9.51c1.15,4.77,3.5,8.36,3.5,8.36,0,0,4.35-7.34-2.22-17.88Z"/><path class="cls-2" d="m610.38,204.74s0,5.32,3.19,9.05c3.19,3.73,6.92,5.86,6.92,5.86,0,0,.53-8.52-10.12-14.91Z"/><path class="cls-12" d="m166.29,259.21c15.93,80.77-34.12,47.13-76.2,47.13s-95.41,27.39-76.2-47.13c10.98-42.58,34.12-69.2,76.2-69.2s69.48,35.14,76.2,69.2Z"/><path class="cls-3" d="m166.29,259.21c15.93,80.77-34.12,47.13-76.2,47.13s-95.41,27.39-76.2-47.13c10.98-42.58,34.12-69.2,76.2-69.2s69.48,35.14,76.2,69.2Z"/><polygon class="cls-13" points="66.07 299.01 86.59 314.67 84.49 435.69 96.89 435.69 94.51 288.98 123.86 256.7 94.16 282.09 93.08 234.02 89.84 266.96 82.2 261.42 65.53 237.8 76.24 259.27 41.77 245.36 76.9 265.22 88.47 273.23 87.14 308.19 66.07 299.01"/><path class="cls-2" d="m77.65,220.54s-1.12,5.2,1.21,9.52c2.34,4.32,5.53,7.19,5.53,7.19,0,0,2.32-8.21-6.74-16.71Z"/><path class="cls-2" d="m34.02,266.51s4.01,3.5,8.92,3.54c4.91.04,8.96-1.37,8.96-1.37,0,0-6.07-6-17.88-2.17Z"/><path class="cls-2" d="m27.91,288.08s4.87,2.15,9.57.73c4.7-1.42,8.15-3.97,8.15-3.97,0,0-7.58-3.93-17.72,3.23Z"/><path class="cls-2" d="m57,290.32s5.32-.07,9.01-3.31c3.68-3.24,5.76-7,5.76-7,0,0-8.53-.42-14.77,10.31Z"/><path class="cls-2" d="m44.73,225.92s1.21,5.19,5.16,8.09c3.96,2.91,8.07,4.13,8.07,4.13,0,0-1.41-8.42-13.23-12.23Z"/><path class="cls-2" d="m131.53,222.08s-5.27.75-8.51,4.43c-3.24,3.69-4.83,7.67-4.83,7.67,0,0,8.51-.67,13.34-12.11Z"/><path class="cls-2" d="m149.79,249.47s-5.21-1.12-9.52,1.22c-4.32,2.34-7.18,5.54-7.18,5.54,0,0,8.22,2.31,16.7-6.76Z"/><path class="cls-2" d="m148.01,280.59s-3.75-3.78-8.65-4.17c-4.89-.39-9.04.72-9.04.72,0,0,5.63,6.42,17.68,3.44Z"/><path class="cls-2" d="m127.62,297.28s-2.16-4.87-6.59-6.98c-4.43-2.11-8.7-2.54-8.7-2.54,0,0,2.97,8,15.3,9.52Z"/><path class="cls-2" d="m116.89,246.8s-5.27.75-8.51,4.43c-3.24,3.69-4.83,7.67-4.83,7.67,0,0,8.51-.67,13.34-12.11Z"/><path class="cls-2" d="m30.52,239.93s2.35,4.78,6.86,6.72c4.51,1.94,8.79,2.21,8.79,2.21,0,0-3.28-7.88-15.65-8.92Z"/><path class="cls-2" d="m105.69,214.74s-4.27,3.18-5.35,7.97-.56,9.05-.56,9.05c0,0,7.15-4.67,5.9-17.02Z"/><path class="cls-2" d="m89.59,199.68s-2.42,4.74-1.27,9.51c1.15,4.77,3.5,8.36,3.5,8.36,0,0,4.35-7.34-2.22-17.88Z"/><path class="cls-2" d="m54.75,204.74s0,5.32,3.19,9.05c3.19,3.73,6.92,5.86,6.92,5.86,0,0,.53-8.52-10.12-14.91Z"/><path class="cls-12" d="m628.07,159.4c20.57,104.29-44.05,60.85-98.39,60.85s-123.2,35.37-98.39-60.85c14.17-54.98,44.05-89.36,98.39-89.36s89.72,45.37,98.39,89.36Z"/><path class="cls-3" d="m628.07,159.4c20.57,104.29-44.05,60.85-98.39,60.85s-123.2,35.37-98.39-60.85c14.17-54.98,44.05-89.36,98.39-89.36s89.72,45.37,98.39,89.36Z"/><polygon class="cls-13" points="498.67 210.79 525.17 231.02 522.46 435.55 538.47 435.55 535.39 197.85 573.29 156.16 534.94 188.94 533.54 126.87 529.36 169.41 519.49 162.26 497.97 131.76 511.81 159.48 467.29 141.52 512.66 167.16 527.59 177.5 525.87 222.65 498.67 210.79"/><path class="cls-2" d="m513.62,109.47s-1.45,6.72,1.56,12.29c3.02,5.58,7.14,9.28,7.14,9.28,0,0,2.99-10.61-8.7-21.57Z"/><path class="cls-2" d="m457.29,168.83s5.18,4.52,11.52,4.57c6.34.05,11.57-1.77,11.57-1.77,0,0-7.84-7.75-23.09-2.8Z"/><path class="cls-2" d="m449.4,196.67s6.29,2.78,12.36.95c6.07-1.83,10.53-5.12,10.53-5.12,0,0-9.78-5.07-22.89,4.17Z"/><path class="cls-2" d="m486.96,199.57s6.87-.09,11.63-4.28c4.76-4.19,7.44-9.04,7.44-9.04,0,0-11.01-.54-19.07,13.32Z"/><path class="cls-2" d="m471.11,116.42s1.56,6.7,6.67,10.45c5.11,3.75,10.42,5.34,10.42,5.34,0,0-1.83-10.87-17.09-15.79Z"/><path class="cls-2" d="m583.19,111.46s-6.81.96-10.99,5.72c-4.19,4.76-6.23,9.91-6.23,9.91,0,0,10.99-.86,17.23-15.63Z"/><path class="cls-2" d="m606.78,146.83s-6.72-1.45-12.29,1.58c-5.57,3.02-9.27,7.15-9.27,7.15,0,0,10.61,2.99,21.57-8.72Z"/><path class="cls-2" d="m604.47,187.01s-4.85-4.88-11.16-5.38c-6.32-.51-11.67.94-11.67.94,0,0,7.27,8.29,22.83,4.45Z"/><path class="cls-2" d="m578.14,208.57s-2.79-6.28-8.51-9.01c-5.72-2.72-11.24-3.28-11.24-3.28,0,0,3.84,10.33,19.75,12.29Z"/><path class="cls-2" d="m564.29,143.37s-6.81.96-10.99,5.72c-4.19,4.76-6.23,9.91-6.23,9.91,0,0,10.99-.86,17.23-15.63Z"/><path class="cls-2" d="m452.77,134.51s3.03,6.17,8.85,8.67c5.82,2.5,11.36,2.85,11.36,2.85,0,0-4.23-10.18-20.21-11.52Z"/><path class="cls-2" d="m549.83,101.98s-5.51,4.11-6.9,10.29c-1.39,6.18-.72,11.69-.72,11.69,0,0,9.23-6.03,7.62-21.98Z"/><path class="cls-2" d="m529.04,82.54s-3.13,6.12-1.65,12.28c1.48,6.16,4.52,10.8,4.52,10.8,0,0,5.62-9.48-2.87-23.09Z"/><path class="cls-2" d="m484.05,89.07s0,6.87,4.13,11.69c4.12,4.81,8.94,7.56,8.94,7.56,0,0,.69-11-13.06-19.25Z"/></g><g id="Plants"><polyline class="cls-1" points="695.8 394.17 710.03 394.17 710.03 403 695.8 403"/><rect class="cls-1" x="249.99" y="394.17" width="213.66" height="8.83"/><polyline class="cls-1" points="17.83 394.17 7.36 394.17 7.36 403 17.83 403"/><rect class="cls-1" x="27.08" y="394.17" width="213.66" height="8.83"/><rect class="cls-1" x="472.9" y="394.17" width="213.65" height="8.83"/><polyline class="cls-1" points="695.8 369.88 710.03 369.88 710.03 378.71 695.8 378.71"/><rect class="cls-1" x="249.99" y="369.88" width="213.66" height="8.83"/><polyline class="cls-1" points="17.83 369.88 7.36 369.88 7.36 378.71 17.83 378.71"/><rect class="cls-1" x="27.08" y="369.88" width="213.66" height="8.83"/><rect class="cls-1" x="472.9" y="369.88" width="213.65" height="8.83"/><rect class="cls-1" x="686.55" y="363.52" width="9.25" height="71.9"/><rect class="cls-1" x="463.65" y="363.52" width="9.25" height="71.9"/><rect class="cls-1" x="240.74" y="363.52" width="9.25" height="71.9"/><rect class="cls-1" x="17.83" y="363.52" width="9.25" height="71.9"/></g><g id="Car"><path class="cls-5" d="m54.59,393.59s13.73,9.15,14.95,9.46,16.17,0,16.17,0v-4.27l130.55-6.71,389.51-4.88s.61-22.27-9.76-39.96c-10.37-17.69-29.28-31.11-50.02-32.94-20.74-1.83-46.06,4.58-58.56,15.56-12.51,10.98-24.1,53.99-24.1,53.99l-239.44,3.05s-6.41-34.47-28.98-53.07c-22.57-18.61-54.29-22.88-82.36-14.34-28.06,8.54-36.3,63.44-36.3,63.44l-21.66,10.68Z"/><path class="cls-6" d="m671.16,331.89c-4.16-8.32-4.99-23.29-4.99-29.11s.83-13.72.83-13.72c0,0,4.16-5.82,0-13.72-4.16-7.9-8.32-8.73-8.32-8.73l-34.1-36.18s10.4-6.24,9.56-7.9c-.83-1.66-3.74-1.66-3.74-1.66l-49.9-2.91s-76.51-2.91-117.26-3.74c-40.75-.83-121-1.66-121-1.66,0,0-9.15.42-16.22,2.91-7.07,2.49-109.78,58.21-116.01,60.29-6.24,2.08-88.15,5.41-105.62,8.32-17.46,2.91-34.93,9.98-39.09,14.97-4.16,4.99-14.97,43.24-15.8,48.65-.83,5.41-1.66,38.26-1.25,41.58.42,3.33,4.16,4.99,4.16,4.99h30.77s.44-2.19,1.26-5.71c-.05-1.07-.08-2.15-.08-3.24,0-35.46,28.74-64.2,64.2-64.2s64.2,28.74,64.2,64.2c0,3.25-.25,6.45-.71,9.57.02.13.04.21.04.21h258.64s.54-3.84,1.88-9.66c0-.04,0-.08,0-.12,0-35.7,28.94-64.65,64.65-64.65s64.65,28.94,64.65,64.65c0,1.33-.05,2.64-.13,3.95,6.46-.09,35.76-.84,52.34-7.47,18.71-7.48,22.87-13.31,22.87-24.95s-1.66-16.63-5.82-24.95Z"/><path class="cls-11" d="m179.39,305.62s154.11-6.94,239.49-12.49c85.38-5.55,115.93-7.64,115.93-7.64l-338.06,24.3-17.35-4.17Z"/><path class="cls-10" d="m676.97,355c0-.2,0-.39-.01-.58,0-.21-.01-.4-.02-.6,0-.19-.01-.39-.02-.58-.01-.31-.02-.61-.04-.91-.01-.28-.03-.56-.05-.83,0-.07,0-.14-.01-.2-.02-.32-.04-.64-.07-.95-.01-.13-.02-.26-.03-.39-.1-1.11-.22-2.17-.37-3.17-6.32,1.79-23.25,5.64-26.06,5.64-3.36,0-14.95,8.24-16.47,9.15-1.33.8-17.17,1.82-21.29,2.08-4.65-16.19-14.37-30.22-27.35-40.27-2.29-1.92-4.68-3.66-7.18-5.11-.93-.54-1.98-1.1-3.13-1.67-11.16-6.12-23.98-9.61-37.61-9.61-38.74,0-70.9,28.13-77.2,65.08l-8.34.49s-11.9-3.97-17.08-5.19c-5.19-1.22-161.36,4.27-168.68,4.27s-32.03,6.41-32.03,6.41l-11.3-.57c-3.92-37.44-35.58-66.63-74.06-66.63s-67.02,26.42-73.27,61.22c-1.66,5.42-2.42,9.02-2.42,9.02h-18.61l-5.68-17.31s0,0,0,0c0,0,0,0,0,0,0,.25-.02.5-.03.75,0,.02,0,.03,0,.05,0,.22-.01.44-.02.67-.01.33-.02.67-.03,1.01,0,.28-.02.56-.03.84,0,.25-.02.5-.02.75,0,.33-.02.67-.03,1,0,.31-.02.62-.03.93,0,.25-.01.49-.02.74,0,.29-.02.58-.02.87,0,.1,0,.2,0,.29,0,.23-.01.46-.02.69,0,.21-.01.42-.02.64,0,.41-.02.83-.03,1.23,0,.16,0,.32-.01.48,0,.28-.01.56-.02.84,0,.07,0,.14,0,.21,0,.19,0,.37-.01.56,0,.36-.01.72-.02,1.08,0,.16,0,.33,0,.49,0,.41-.01.82-.02,1.21,0,.13,0,.25,0,.38,0,.36,0,.71-.01,1.05,0,.11,0,.22,0,.33,0,.37,0,.72-.01,1.07,0,.11,0,.22,0,.33,0,.16,0,.3,0,.46,0,.21,0,.43,0,.64,0,.08,0,.15,0,.22,0,.09,0,.18,0,.27,0,.27,0,.53,0,.78,0,.01,0,.03,0,.04,0,.19,0,.36,0,.55,0,.14,0,.29,0,.43,0,.07,0,.14,0,.21,0,.12,0,.22,0,.34,0,.17,0,.35,0,.51,0,.05,0,.1,0,.15,0,.27,0,.53.01.76,0,0,0,0,0,0,0,.23.01.44.02.64,0,.04,0,.07,0,.11,0,.18.02.34.02.49,0,.03,0,.05,0,.07,0,.14.02.26.03.36.42,3.33,4.16,4.99,4.16,4.99h30.77s.44-2.19,1.26-5.71c-.05-1.07-.08-2.15-.08-3.24,0-35.46,28.74-64.2,64.2-64.2s64.2,28.74,64.2,64.2c0,3.25-.25,6.45-.71,9.57.02.13.04.21.04.21h258.64s.54-3.84,1.88-9.66c0-.04,0-.08,0-.12,0-35.7,28.94-64.65,64.65-64.65s64.65,28.94,64.65,64.65c0,1.33-.05,2.64-.13,3.95,2.27-.03,7.37-.14,13.73-.57h0c.69-.05,1.4-.1,2.12-.15.08,0,.16-.01.24-.02,1.49-.11,3.04-.24,4.63-.39.02,0,.05,0,.07,0,.72-.07,1.46-.14,2.2-.22.16-.02.32-.03.48-.05.65-.07,1.3-.14,1.95-.22.15-.02.3-.03.45-.05,1.57-.18,3.15-.39,4.74-.61.21-.03.42-.06.63-.09.59-.09,1.17-.17,1.76-.27.23-.04.46-.07.68-.11.67-.11,1.34-.22,2.01-.34.11-.02.22-.04.33-.06.77-.14,1.53-.28,2.29-.43.2-.04.4-.08.61-.12.56-.11,1.12-.23,1.67-.35.25-.05.49-.11.73-.16.55-.12,1.1-.25,1.65-.38.19-.05.39-.09.58-.14.72-.18,1.43-.36,2.14-.56.14-.04.28-.08.42-.12.56-.16,1.12-.32,1.66-.49.22-.07.44-.14.65-.2.48-.15.96-.31,1.42-.47.2-.07.4-.14.59-.2.64-.23,1.28-.46,1.89-.71,18.71-7.48,22.87-13.31,22.87-24.95,0-.63,0-1.24-.02-1.83Z"/><path class="cls-5" d="m309.82,224.19h-1.24c-31.41,16.37-93.74,49.96-98.56,51.56-1.12.37-4.66.78-9.82,1.23,6.86,4.72,20.37,7.09,26.03,7.09s269.45-11.23,269.45-11.23c0,0,8.73-6.65,8.73-8.73s-34.1-39.92-34.1-39.92h-160.5Z"/><path class="cls-10" d="m306.24,225.41c-32.06,16.76-91.51,48.77-96.21,50.34-1.12.37-4.66.78-9.82,1.23,3.91,2.69,9.97,4.61,15.51,5.77l94.1-58.56-3.58,1.22Z"/><path class="cls-10" d="m326.04,228.35s-67.78,40.33-70.69,42.83-1.66,4.99.83,5.82,108.53-2.49,108.53-2.49l7.07-45.74-45.74-.42Z"/><polygon class="cls-10" points="392.57 229.6 391.32 272.43 479.89 270.35 486.13 254.55 466.58 228.35 392.57 229.6"/><path class="cls-10" d="m270.78,260.93s-1.3.78-7,2.33c-5.71,1.56-12.97,4.67-13.75,8.3s-.52,8.56,3.11,9.08,22.05,1.82,27.5-.78c5.45-2.59,4.67-7.78,3.89-12.19s-3.37-5.71-6.48-6.48-7.26-.26-7.26-.26Z"/><ellipse class="cls-8" cx="342.76" cy="290.24" rx="12.32" ry="3.37"/><ellipse class="cls-8" cx="489.84" cy="284.79" rx="12.32" ry="3.37"/><path class="cls-8" d="m513.15,256.18c6.12,6.81,10.67,12.57,10.86,14.8.61,7.02-5.19,37.21-5.19,37.21"/><path class="cls-8" d="m479.79,222.17s15.74,15.08,28.44,28.65"/><path class="cls-8" d="m608.14,316.46c9.35-6.69,25.99-19.56,25.99-19.56"/><path class="cls-8" d="m587.77,322.22s11.9-1.22,14.34-1.83c.44-.11,1.75-.93,3.6-2.22"/><line class="cls-8" x1="374.53" y1="359.14" x2="373.95" y2="388.71"/><line class="cls-8" x1="375.81" y1="294.27" x2="374.62" y2="354.55"/><line class="cls-8" x1="376.08" y1="280.74" x2="375.9" y2="290.08"/><line class="cls-8" x1="459.05" y1="375.29" x2="235.16" y2="381.7"/><path class="cls-8" d="m224.72,306.91c1.65,22.82,6.47,85.16,6.47,85.16"/><path class="cls-8" d="m226.62,286.53s-2.44,9.46-2.44,12.2c0,.29.08,1.55.22,3.57"/><path class="cls-5" d="m64.95,299.56c-3.25,4.91-9.66,25.93-13.13,38.72,3.27-5.61,10.19-16.99,14.05-19.72,5.19-3.66,44.23-10.68,47.58-11.9,3.36-1.22,9.46-8.24,10.37-10.98.78-2.35-45.41,2.43-58.88,3.88Z"/><path class="cls-1" d="m123.83,295.68c.78-2.35-45.41,2.43-58.88,3.88,0,0-5.17,15.65.93,19,5.19-3.66,44.23-10.68,47.58-11.9,3.36-1.22,9.46-8.24,10.37-10.98Z"/><path class="cls-5" d="m63.74,337.47l.92,22.57h-4.27s-11.94-21.27-8.56-21.77,11.92-.8,11.92-.8Z"/><path class="cls-5" d="m505.72,227.97s61.61,41.79,64.66,41.79,88.31-3.15,88.31-3.15l-34.1-36.18-118.88-2.46Z"/><path class="cls-10" d="m527.68,234.98s36.91,29.28,43.31,30.2c6.41.92,43.62-1.22,43.62-1.22,0,0-22.27-26.54-25.01-27.15-2.75-.61-61.92-1.83-61.92-1.83Z"/><path class="cls-7" d="m660.97,278.6s-47.28,1.53-47.28,2.75,4.88,7.32,8.24,8.85c3.36,1.53,8.54.92,9.46,1.83.92.92,14.03,14.64,16.47,16.47,2.44,1.83,9.76,4.58,10.98,4.58,0,0,2.75-32.94,2.14-34.47Z"/><circle class="cls-5" cx="148.58" cy="385.31" r="50.38"/><path class="cls-1" d="m148.58,347.96c-20.63,0-37.35,16.72-37.35,37.35s16.72,37.35,37.35,37.35,37.35-16.72,37.35-37.35-16.72-37.35-37.35-37.35Zm30.23,26.94l-24.73,6.78,13.48-22.1c5.16,3.81,9.12,9.14,11.25,15.32Zm-34.02,42.16c-6.58-.78-12.54-3.55-17.27-7.69l18.01-17.83-.74,25.52Zm6.74-25.41l19.57,16.34c-4.48,4.45-10.27,7.57-16.74,8.76l-2.83-25.1Zm5.3-37.23l-8.21,23.16-8.57-23.09c2.71-.75,5.57-1.16,8.52-1.16s5.62.38,8.26,1.08Zm-27.47,5.33l13.14,20.85-23.46-7.55c2.21-5.3,5.79-9.89,10.32-13.29Zm-12.75,24.96l24.57,2.58-19.86,14.75c-2.99-4.87-4.72-10.6-4.72-16.73,0-.2.01-.4.02-.6Zm60.21,15.6l-20.78-12.86,24.48-3.11c0,.33.02.65.02.98,0,5.42-1.35,10.52-3.73,14.99Z"/><circle class="cls-1" cx="148.58" cy="385.31" r="9.88"/><circle class="cls-5" cx="537.26" cy="385.31" r="50.38"/><path class="cls-1" d="m537.26,347.96c-20.63,0-37.35,16.72-37.35,37.35s16.72,37.35,37.35,37.35,37.35-16.72,37.35-37.35-16.72-37.35-37.35-37.35Zm30.23,26.94l-24.73,6.78,13.48-22.1c5.16,3.81,9.12,9.14,11.25,15.32Zm-34.02,42.16c-6.58-.78-12.54-3.55-17.27-7.69l18.01-17.83-.74,25.52Zm6.74-25.41l19.57,16.34c-4.48,4.45-10.27,7.57-16.74,8.76l-2.83-25.1Zm5.3-37.23l-8.21,23.16-8.57-23.09c2.71-.75,5.57-1.16,8.52-1.16s5.62.38,8.26,1.08Zm-27.47,5.33l13.14,20.85-23.46-7.55c2.21-5.3,5.79-9.89,10.32-13.29Zm-12.75,24.96l24.57,2.58-19.86,14.75c-2.99-4.87-4.72-10.6-4.72-16.73,0-.2.01-.4.02-.6Zm60.21,15.6l-20.78-12.86,24.48-3.11c0,.33.02.65.02.98,0,5.42-1.35,10.52-3.73,14.99Z"/><circle class="cls-1" cx="537.26" cy="385.31" r="9.88"/><path class="cls-5" d="m350.59,212.48s13.97-3.97,20.59-5.23c6.62-1.26,102.08-1.89,141.14,0,39.07,1.89,55.13,5.36,58.6,6.3,3.47.95,9.6,4.4,9.6,4.4l-30.75-1.37s.99-3.03-1.53-3.35c-2.52-.32-65.53-1.89-68.37-1.89s-2.94,3-2.94,3l-13.67-.13-5.13-3.5s-76.56-.63-78.45.31c-1.89.95-1.68,1.6-1.68,1.6l-27.41-.15Z"/></g><g id="Floor"><line class="cls-9" x1="7.36" y1="435.69" x2="710.03" y2="435.69"/></g></svg>