<?xml version="1.0" encoding="UTF-8"?><svg id="Calque_2" xmlns="http://www.w3.org/2000/svg" viewBox="0 0 512 512.05"><g id="Calque_1-2"><path d="m128,356.65c-10-3-20.8-4.6-32-4.6-53,0-96,35.8-96,80s43,80,96,80,96-35.8,96-80v-168.18l-64-64.81v157.59Z"/><path d="m499.1,6.35c-8.1-6.1-18.6-7.9-28.3-5L177.15,89.44l105.79,107.13,165.06-49.52v145.6c-10-3-20.8-4.6-32-4.6-13.01,0-25.42,2.16-36.73,6.07l116.72,118.18c10.12-12.67,16.01-27.89,16.01-44.25V32.05c0-10.1-4.8-19.7-12.9-25.7Z"/><path d="m476.43,430.21l-122-123.54-100.22-101.48-105.7-107.04L82.77,31.58c-11.45-11.6-30.13-11.71-41.72-.26-11.59,11.44-11.71,30.12-.26,41.71l87.21,88.31,64,64.81,128.96,130.59,90.07,91.21,35.68,36.13c5.77,5.84,13.37,8.77,20.99,8.77s14.98-2.83,20.72-8.51c11.6-11.45,11.71-30.12.27-41.72l-12.26-12.41Z"/></g></svg>