<?xml version="1.0" encoding="UTF-8"?><svg id="Calque_2" xmlns="http://www.w3.org/2000/svg" viewBox="0 0 139.47 133.29"><defs><style>.cls-1{fill:#92e3a9;}</style></defs><g id="Calque_1-2"><path class="cls-1" d="m132.46,0H19.18c-3.87,0-7,3.13-7,7v16.19c0,37.04-4.08,73.96-12.18,110.09l48.92-4.46c11.27-1.03,22.6-1.54,33.92-1.54h49.62c3.87,0,7-3.13,7-7V7c0-3.87-3.13-7-7-7Zm-56.05,11.75c17.94.09,32.91,14.38,33.77,32.31.12,2.47-.03,6.02-.41,9.24-.32,2.73-3.19,4.37-5.71,3.28l-17.69-7.63c-3.31-.98-6.6-2.85-10.02-2.83-3.23.02-6.59,1.87-9.72,2.78l-18.23,7.71c-2.52,1.07-5.37-.58-5.69-3.31-.32-2.71-.48-5.61-.48-7.56,0-18.83,15.31-34.09,34.17-33.99Zm-23.5,82.78c-1.72,3.41-2.64,7.08-2.73,10.92-.12,5.1-4.29,9.15-9.36,9.15h-.23c-5.18-.12-9.27-4.42-9.15-9.59.16-6.66,1.75-13.02,4.74-18.93,2.33-4.62,7.97-6.47,12.59-4.14,4.62,2.33,6.47,7.97,4.14,12.59Zm36.06-11.54c-1.18,0-2.37-.22-3.52-.69-2.95-1.2-6.07-1.82-9.29-1.87h-.36c-3.1,0-6.13.55-9,1.63-4.85,1.82-10.25-.63-12.07-5.47-1.82-4.85.63-10.25,5.47-12.07,5.18-1.94,10.61-2.89,16.19-2.82,5.58.08,10.98,1.17,16.1,3.24,4.79,1.95,7.1,7.41,5.16,12.21-1.48,3.64-4.99,5.85-8.68,5.85Zm21.85,32.56h-.03c-5.18-.02-9.36-4.23-9.34-9.4.01-3.84-.8-7.54-2.43-10.99-2.2-4.68-.2-10.27,4.48-12.47,4.68-2.21,10.26-.2,12.46,4.48,2.82,5.99,4.25,12.4,4.22,19.05-.02,5.16-4.21,9.34-9.37,9.34Z"/></g></svg>