<?xml version="1.0" encoding="UTF-8"?><svg id="Calque_2" xmlns="http://www.w3.org/2000/svg" viewBox="0 0 72 80"><defs><style>.cls-1{fill:#23645a;}</style></defs><g id="Calque_1-2"><path class="cls-1" d="m72,80l-17.51-13.62,1.51,5.62H8c-4.42,0-8-3.58-8-8V8C0,3.58,3.58,0,8,0h56c4.42,0,8,3.58,8,8v72Zm-18.84-57.72s-4.92-3.8-10.72-4.24l-1.2,2.44c-1.8-.32-3.64-.56-5.24-.56s-3.52.24-5.24.56l-1.2-2.44c-6.08.6-10.72,4.24-10.72,4.24,0,0-5.48,7.92-6.4,23.36,5.52,6.32,13.92,6.36,13.92,6.36l1.72-2.32c-1.76-.6-3.28-1.4-4.84-2.6l.36-.96c2.88,1.32,6.6,2.12,12.4,2.12s9.52-.8,12.4-2.12l.36.96c-1.56,1.2-3.08,2-4.84,2.6l1.72,2.32s8.4-.04,13.92-6.36c-.92-15.44-6.4-23.36-6.4-23.36Zm-25.16,19.24c-2.08,0-3.76-2.12-3.76-4.72s1.68-4.72,3.76-4.72,3.76,2.12,3.76,4.72-1.68,4.72-3.76,4.72Zm16,0c-2.08,0-3.76-2.12-3.76-4.72s1.68-4.72,3.76-4.72,3.76,2.12,3.76,4.72-1.68,4.72-3.76,4.72Z"/></g></svg>