<?xml version="1.0" encoding="UTF-8"?><svg id="Calque_2" xmlns="http://www.w3.org/2000/svg" viewBox="0 0 88 88"><defs><style>.cls-1{fill:#23645a;}</style></defs><g id="Calque_1-2"><path class="cls-1" d="m26,0C11.66,0,0,11.66,0,26v36c0,14.34,11.66,26,26,26h36c14.34,0,26-11.66,26-26V26c0-14.34-11.66-26-26-26H26Zm42,16c2.2,0,4,1.8,4,4s-1.8,4-4,4-4-1.8-4-4,1.8-4,4-4Zm-24,6c12.14,0,22,9.86,22,22s-9.86,22-22,22-22-9.86-22-22,9.86-22,22-22Zm0,4c-9.92,0-18,8.08-18,18s8.08,18,18,18,18-8.08,18-18-8.08-18-18-18Z"/></g></svg>