<?xml version="1.0" encoding="UTF-8"?><svg id="Calque_2" xmlns="http://www.w3.org/2000/svg" viewBox="0 0 471.76 445.04"><defs><style>.cls-1,.cls-2,.cls-3,.cls-4,.cls-5,.cls-6{fill:#fff;}.cls-7{stroke:#000;stroke-miterlimit:10;}.cls-7,.cls-8,.cls-9,.cls-10,.cls-11{fill:none;}.cls-2,.cls-12,.cls-13,.cls-4,.cls-8,.cls-14,.cls-9,.cls-10,.cls-5,.cls-11,.cls-15,.cls-16{stroke-linejoin:round;}.cls-2,.cls-12,.cls-13,.cls-4,.cls-14,.cls-9,.cls-10,.cls-5,.cls-11,.cls-15,.cls-16{stroke:#263238;}.cls-17{fill:#b2b2b2;}.cls-12{fill:#666;}.cls-12,.cls-13,.cls-4,.cls-8,.cls-9,.cls-10,.cls-5,.cls-11,.cls-15{stroke-linecap:round;}.cls-18,.cls-14{fill:#707070;}.cls-3{opacity:.7;}.cls-13,.cls-19{fill:#92e3a9;}.cls-20{opacity:.3;}.cls-8{stroke:#737373;}.cls-9,.cls-10{stroke-width:2px;}.cls-10{stroke-dasharray:0 0 2.99 2.99;}.cls-5{opacity:.5;}.cls-15,.cls-21,.cls-16{fill:#263238;}.cls-6{opacity:.6;}</style></defs><g id="Background_Simple"><path class="cls-19" d="m443.7,190.39c-.48-18.55-1.6-36.99-9.01-55.04-18.68-45.52-54.44-83.94-96.49-109.01-36.34-21.66-90.54-37.98-130.5-15.69-22.4,12.5-40.51,31.67-60.46,47.51-8.97,7.12-18.57,14.7-29.4,18.81-13.88,5.26-28.79,4.82-42.57,10.99C42.08,102.8,10.03,130.07,2.02,167.56c-9.61,44.97,17.71,85.88,28.29,128.34,5.75,23.07,3.6,44.02-2.21,66.81-4.54,17.78-18.9,42.31-17.39,60.86,1,12.28,4,20.09,4,20.09h431c7.41,0,18.73-52.6,19.78-57.53,5.9-27.68,8.56-56.49,3.88-84.56-3.47-20.8-16.61-38.15-21.3-58.44-4.05-17.52-3.92-35.17-4.37-52.72Z"/><path class="cls-3" d="m443.7,190.39c-.48-18.55-1.6-36.99-9.01-55.04-18.68-45.52-54.44-83.94-96.49-109.01-36.34-21.66-90.54-37.98-130.5-15.69-22.4,12.5-40.51,31.67-60.46,47.51-8.97,7.12-18.57,14.7-29.4,18.81-13.88,5.26-28.79,4.82-42.57,10.99C42.08,102.8,10.03,130.07,2.02,167.56c-9.61,44.97,17.71,85.88,28.29,128.34,5.75,23.07,3.6,44.02-2.21,66.81-4.54,17.78-18.9,42.31-17.39,60.86,1,12.28,4,20.09,4,20.09h431c7.41,0,18.73-52.6,19.78-57.53,5.9-27.68,8.56-56.49,3.88-84.56-3.47-20.8-16.61-38.15-21.3-58.44-4.05-17.52-3.92-35.17-4.37-52.72Z"/></g><g id="Buildings"><g class="cls-20"><rect class="cls-7" x="181.7" y="283.59" width="8.73" height="8.8"/><rect class="cls-7" x="172.25" y="288.92" width="3.54" height="3.47"/><line class="cls-7" x1="10.5" y1="151.39" x2="10.5" y2="405.54"/><polyline class="cls-7" points="85.41 112.29 72.09 112.29 72.09 104.47 32.01 104.47 32.01 112.81 10.5 112.81 10.5 144.25"/><polyline class="cls-7" points="425.32 312.82 425.32 373.2 404.97 373.2 404.97 150.34 335.21 150.34 335.21 318.88 309.7 318.88 309.7 300.22 316.38 300.22 316.38 292.33 260.6 292.33 260.6 179.26 264.21 179.26 264.21 173.35 196.5 173.35 196.5 179.26 201.35 179.26 201.35 292.52 147.84 292.52 147.84 373.52 119.74 373.52 119.74 125.98 101.41 125.98 101.41 112.29 91.45 112.29"/><polyline class="cls-7" points="464.9 262.09 422.63 262.09 422.63 269.32 425.32 269.32 425.32 306.78"/><rect class="cls-7" x="332.1" y="147.9" width="75.65" height="2.42"/><rect class="cls-7" x="207.41" y="185.84" width="8.52" height="9.12"/><rect class="cls-7" x="219.91" y="185.84" width="8.52" height="9.12"/><rect class="cls-7" x="232.41" y="185.84" width="8.52" height="9.12"/><rect class="cls-7" x="244.91" y="185.84" width="8.52" height="9.12"/><rect class="cls-7" x="207.41" y="200.3" width="8.52" height="9.12"/><rect class="cls-7" x="219.91" y="200.3" width="8.52" height="9.12"/><rect class="cls-7" x="232.41" y="200.3" width="8.52" height="9.12"/><rect class="cls-7" x="244.91" y="200.3" width="8.52" height="9.12"/><rect class="cls-7" x="207.41" y="214.76" width="8.52" height="9.12"/><rect class="cls-7" x="219.91" y="214.76" width="8.52" height="9.12"/><rect class="cls-7" x="232.41" y="214.76" width="8.52" height="9.12"/><rect class="cls-7" x="244.91" y="214.76" width="8.52" height="9.12"/><rect class="cls-7" x="207.41" y="229.22" width="8.52" height="9.12"/><rect class="cls-7" x="219.91" y="229.22" width="8.52" height="9.12"/><rect class="cls-7" x="232.41" y="229.22" width="8.52" height="9.12"/><rect class="cls-7" x="244.91" y="229.22" width="8.52" height="9.12"/><rect class="cls-7" x="207.41" y="243.68" width="8.52" height="9.12"/><rect class="cls-7" x="219.91" y="243.68" width="8.52" height="9.12"/><rect class="cls-7" x="232.41" y="243.68" width="8.52" height="9.12"/><rect class="cls-7" x="244.91" y="243.68" width="8.52" height="9.12"/><rect class="cls-7" x="207.41" y="258.15" width="8.52" height="9.12"/><rect class="cls-7" x="219.91" y="258.15" width="8.52" height="9.12"/><rect class="cls-7" x="232.41" y="258.15" width="8.52" height="9.12"/><rect class="cls-7" x="244.91" y="258.15" width="8.52" height="9.12"/><rect class="cls-7" x="207.41" y="272.61" width="8.52" height="9.12"/><rect class="cls-7" x="219.91" y="272.61" width="8.52" height="9.12"/><rect class="cls-7" x="232.41" y="272.61" width="8.52" height="9.12"/><rect class="cls-7" x="244.91" y="272.61" width="8.52" height="9.12"/><rect class="cls-7" x="207.41" y="287.07" width="8.52" height="9.12"/><rect class="cls-7" x="219.91" y="287.07" width="8.52" height="9.12"/><rect class="cls-7" x="232.41" y="287.07" width="8.52" height="9.12"/><rect class="cls-7" x="244.91" y="287.07" width="8.52" height="9.12"/><rect class="cls-7" x="207.41" y="300.3" width="8.52" height="9.12"/><rect class="cls-7" x="219.91" y="300.3" width="8.52" height="9.12"/><rect class="cls-7" x="232.41" y="300.3" width="8.52" height="9.12"/><rect class="cls-7" x="244.91" y="300.3" width="8.52" height="9.12"/><rect class="cls-7" x="207.41" y="314.76" width="8.52" height="9.12"/><rect class="cls-7" x="219.91" y="314.76" width="8.52" height="9.12"/><rect class="cls-7" x="232.41" y="314.76" width="8.52" height="9.12"/><rect class="cls-7" x="244.91" y="314.76" width="8.52" height="9.12"/><rect class="cls-7" x="207.41" y="329.22" width="8.52" height="9.12"/><rect class="cls-7" x="219.91" y="329.22" width="8.52" height="9.12"/><rect class="cls-7" x="232.41" y="329.22" width="8.52" height="9.12"/><rect class="cls-7" x="244.91" y="329.22" width="8.52" height="9.12"/><rect class="cls-7" x="207.41" y="343.69" width="8.52" height="9.12"/><rect class="cls-7" x="219.91" y="343.69" width="8.52" height="9.12"/><rect class="cls-7" x="232.41" y="343.69" width="8.52" height="9.12"/><rect class="cls-7" x="244.91" y="343.69" width="8.52" height="9.12"/><rect class="cls-7" x="207.41" y="358.15" width="8.52" height="9.12"/><rect class="cls-7" x="219.91" y="358.15" width="8.52" height="9.12"/><rect class="cls-7" x="232.41" y="358.15" width="8.52" height="9.12"/><rect class="cls-7" x="244.91" y="358.15" width="8.52" height="9.12"/><rect class="cls-7" x="207.41" y="372.61" width="8.52" height="9.12"/><rect class="cls-7" x="219.91" y="372.61" width="8.52" height="9.12"/><rect class="cls-7" x="232.41" y="372.61" width="8.52" height="9.12"/><rect class="cls-7" x="244.91" y="372.61" width="8.52" height="9.12"/><rect class="cls-7" x="256.23" y="300.3" width="8.52" height="9.12"/><rect class="cls-7" x="268.73" y="300.3" width="8.52" height="9.12"/><rect class="cls-7" x="281.22" y="300.3" width="8.52" height="9.12"/><rect class="cls-7" x="293.72" y="300.3" width="8.52" height="9.12"/><rect class="cls-7" x="256.23" y="314.76" width="8.52" height="9.12"/><rect class="cls-7" x="268.73" y="314.76" width="8.52" height="9.12"/><rect class="cls-7" x="281.22" y="314.76" width="8.52" height="9.12"/><rect class="cls-7" x="293.72" y="314.76" width="8.52" height="9.12"/><rect class="cls-7" x="256.23" y="329.22" width="8.52" height="9.12"/><rect class="cls-7" x="268.73" y="329.22" width="8.52" height="9.12"/><rect class="cls-7" x="281.22" y="329.22" width="8.52" height="9.12"/><rect class="cls-7" x="293.72" y="329.22" width="8.52" height="9.12"/><rect class="cls-7" x="256.23" y="343.69" width="8.52" height="9.12"/><rect class="cls-7" x="268.73" y="343.69" width="8.52" height="9.12"/><rect class="cls-7" x="281.22" y="343.69" width="8.52" height="9.12"/><rect class="cls-7" x="293.72" y="343.69" width="8.52" height="9.12"/><rect class="cls-7" x="256.23" y="358.15" width="8.52" height="9.12"/><rect class="cls-7" x="268.73" y="358.15" width="8.52" height="9.12"/><rect class="cls-7" x="281.22" y="358.15" width="8.52" height="9.12"/><rect class="cls-7" x="293.72" y="358.15" width="8.52" height="9.12"/><rect class="cls-7" x="256.23" y="372.61" width="8.52" height="9.12"/><rect class="cls-7" x="268.73" y="372.61" width="8.52" height="9.12"/><rect class="cls-7" x="281.22" y="372.61" width="8.52" height="9.12"/><rect class="cls-7" x="293.72" y="372.61" width="8.52" height="9.12"/><rect class="cls-7" x="157.91" y="300.3" width="8.52" height="9.12"/><rect class="cls-7" x="170.41" y="300.3" width="8.52" height="9.12"/><rect class="cls-7" x="182.91" y="300.3" width="8.52" height="9.12"/><rect class="cls-7" x="195.4" y="300.3" width="8.52" height="9.12"/><rect class="cls-7" x="157.91" y="314.76" width="8.52" height="9.12"/><rect class="cls-7" x="170.41" y="314.76" width="8.52" height="9.12"/><rect class="cls-7" x="182.91" y="314.76" width="8.52" height="9.12"/><rect class="cls-7" x="195.4" y="314.76" width="8.52" height="9.12"/><rect class="cls-7" x="157.91" y="329.22" width="8.52" height="9.12"/><rect class="cls-7" x="170.41" y="329.22" width="8.52" height="9.12"/><rect class="cls-7" x="182.91" y="329.22" width="8.52" height="9.12"/><rect class="cls-7" x="195.4" y="329.22" width="8.52" height="9.12"/><rect class="cls-7" x="157.91" y="343.69" width="8.52" height="9.12"/><rect class="cls-7" x="170.41" y="343.69" width="8.52" height="9.12"/><rect class="cls-7" x="182.91" y="343.69" width="8.52" height="9.12"/><rect class="cls-7" x="195.4" y="343.69" width="8.52" height="9.12"/><rect class="cls-7" x="157.91" y="358.15" width="8.52" height="9.12"/><rect class="cls-7" x="170.41" y="358.15" width="8.52" height="9.12"/><rect class="cls-7" x="182.91" y="358.15" width="8.52" height="9.12"/><rect class="cls-7" x="195.4" y="358.15" width="8.52" height="9.12"/><rect class="cls-7" x="157.91" y="372.61" width="8.52" height="9.12"/><rect class="cls-7" x="170.41" y="372.61" width="8.52" height="9.12"/><rect class="cls-7" x="182.91" y="372.61" width="8.52" height="9.12"/><rect class="cls-7" x="195.4" y="372.61" width="8.52" height="9.12"/><rect class="cls-7" x="437.1" y="271.95" width="8.52" height="9.12"/><rect class="cls-7" x="449.6" y="271.95" width="8.52" height="9.12"/><rect class="cls-7" x="437.1" y="286.41" width="8.52" height="9.12"/><rect class="cls-7" x="449.6" y="286.41" width="8.52" height="9.12"/><rect class="cls-7" x="437.1" y="300.88" width="8.52" height="9.12"/><rect class="cls-7" x="449.6" y="300.88" width="8.52" height="9.12"/><rect class="cls-7" x="437.1" y="315.34" width="8.52" height="9.12"/><rect class="cls-7" x="449.6" y="315.34" width="8.52" height="9.12"/><rect class="cls-7" x="437.1" y="329.8" width="8.52" height="9.12"/><rect class="cls-7" x="449.6" y="329.8" width="8.52" height="9.12"/><rect class="cls-7" x="437.1" y="344.26" width="8.52" height="9.12"/><rect class="cls-7" x="449.6" y="344.26" width="8.52" height="9.12"/><rect class="cls-7" x="437.1" y="358.72" width="8.52" height="9.12"/><rect class="cls-7" x="449.6" y="358.72" width="8.52" height="9.12"/><rect class="cls-7" x="437.1" y="373.19" width="8.52" height="9.12"/><rect class="cls-7" x="449.6" y="373.19" width="8.52" height="9.12"/><line class="cls-7" x1="341.78" y1="155.6" x2="341.78" y2="388.58"/><line class="cls-7" x1="350.23" y1="336.98" x2="350.23" y2="388.58"/><line class="cls-7" x1="350.23" y1="227.16" x2="350.23" y2="331.49"/><line class="cls-7" x1="350.23" y1="155.6" x2="350.23" y2="220.57"/><line class="cls-7" x1="358.68" y1="155.6" x2="358.68" y2="388.58"/><line class="cls-7" x1="367.13" y1="210.69" x2="367.13" y2="388.58"/><line class="cls-7" x1="367.13" y1="155.6" x2="367.13" y2="204.1"/><line class="cls-7" x1="375.59" y1="155.6" x2="375.59" y2="388.58"/><line class="cls-7" x1="384.04" y1="267.79" x2="384.04" y2="388.58"/><line class="cls-7" x1="384.04" y1="155.6" x2="384.04" y2="259.56"/><line class="cls-7" x1="392.49" y1="155.6" x2="392.49" y2="388.58"/><line class="cls-7" x1="400.94" y1="155.6" x2="400.94" y2="388.58"/><line class="cls-7" x1="10.99" y1="130.37" x2="119.49" y2="130.37"/><line class="cls-7" x1="19.79" y1="295.8" x2="19.79" y2="406.52"/><line class="cls-7" x1="19.79" y1="136.24" x2="19.79" y2="287.56"/><line class="cls-7" x1="24.68" y1="208.49" x2="24.68" y2="406.52"/><line class="cls-7" x1="24.68" y1="136.24" x2="24.68" y2="201.9"/><line class="cls-7" x1="39.34" y1="136.24" x2="39.34" y2="406.52"/><line class="cls-7" x1="44.23" y1="136.24" x2="44.23" y2="406.52"/><line class="cls-7" x1="58.89" y1="136.24" x2="58.89" y2="406.52"/><line class="cls-7" x1="63.78" y1="177.19" x2="63.78" y2="406.52"/><line class="cls-7" x1="63.78" y1="136.24" x2="63.78" y2="168.96"/><line class="cls-7" x1="78.44" y1="136.24" x2="78.44" y2="406.52"/><line class="cls-7" x1="83.33" y1="394.63" x2="83.33" y2="406.52"/><line class="cls-7" x1="83.33" y1="136.24" x2="83.33" y2="385.85"/><line class="cls-7" x1="97.99" y1="136.24" x2="97.99" y2="406.52"/><line class="cls-7" x1="102.88" y1="136.24" x2="102.88" y2="406.52"/></g></g><g id="Trees"><path class="cls-19" d="m62.12,354.92c0,17.04-11.71,23.61-26.16,23.61s-26.16-6.57-26.16-23.61,11.71-55.27,26.16-55.27,26.16,38.23,26.16,55.27Z"/><path class="cls-6" d="m62.12,354.92c0,17.04-11.71,23.61-26.16,23.61s-26.16-6.57-26.16-23.61,11.71-55.27,26.16-55.27,26.16,38.23,26.16,55.27Z"/><polygon class="cls-17" points="25.42 358.96 33.26 362.55 31.77 444.54 37.41 444.54 36.36 369.33 46.64 363.74 51.87 366.34 48.23 363.15 53.55 359.36 40.09 365.54 42.02 361.55 38.1 365.94 36.51 366.14 36.24 362.15 51.1 344.2 43.84 350.98 44.68 341.81 48.7 331.44 44.25 340.21 44.09 330.04 42.45 351.38 39.32 355.57 38.84 350.18 37.15 356.76 35.8 359.56 36.64 337.82 41.28 329.24 36.38 334.23 35.41 324.06 34.52 342.4 24.53 329.44 33.95 344.2 33.87 351.38 27.03 347.79 27.53 342.01 25.82 346.99 18.98 343.2 33.71 353.77 33.42 360.15 15.37 353.97 24.01 358.36 14.5 361.95 25.42 358.96"/><path class="cls-19" d="m194.84,392.92c0,17.04-11.71,23.61-26.16,23.61s-26.16-6.57-26.16-23.61,11.71-55.27,26.16-55.27,26.16,38.23,26.16,55.27Z"/><path class="cls-6" d="m194.84,392.92c0,17.04-11.71,23.61-26.16,23.61s-26.16-6.57-26.16-23.61,11.71-55.27,26.16-55.27,26.16,38.23,26.16,55.27Z"/><polygon class="cls-17" points="158.14 396.96 165.98 400.55 165.19 444.08 169.59 444.08 169.08 407.33 179.36 401.74 184.59 404.34 180.95 401.15 186.27 397.36 172.81 403.54 174.74 399.55 170.82 403.94 169.23 404.14 168.96 400.15 183.82 382.2 176.56 388.98 177.4 379.81 181.42 369.44 176.98 378.21 176.81 368.04 175.17 389.38 172.04 393.57 171.56 388.18 169.87 394.76 168.52 397.56 169.36 375.82 174 367.24 169.1 372.23 168.13 362.06 167.24 380.4 157.25 367.44 166.67 382.2 166.59 389.38 159.75 385.79 160.25 380.01 158.54 384.99 151.7 381.2 166.43 391.77 166.14 398.15 148.09 391.97 156.74 396.36 147.22 399.95 158.14 396.96"/><path class="cls-19" d="m418.12,354.92c0,17.04-11.71,23.61-26.16,23.61s-26.16-6.57-26.16-23.61,11.71-55.27,26.16-55.27,26.16,38.23,26.16,55.27Z"/><path class="cls-6" d="m418.12,354.92c0,17.04-11.71,23.61-26.16,23.61s-26.16-6.57-26.16-23.61,11.71-55.27,26.16-55.27,26.16,38.23,26.16,55.27Z"/><polygon class="cls-17" points="381.42 358.96 389.26 362.55 387.77 444.54 393.41 444.54 392.36 369.33 402.64 363.74 407.87 366.34 404.23 363.15 409.55 359.36 396.09 365.54 398.02 361.55 394.1 365.94 392.51 366.14 392.24 362.15 407.1 344.2 399.84 350.98 400.68 341.81 404.7 331.44 400.25 340.21 400.09 330.04 398.45 351.38 395.32 355.57 394.84 350.18 393.15 356.76 391.8 359.56 392.64 337.82 397.28 329.24 392.38 334.23 391.41 324.06 390.52 342.4 380.53 329.44 389.95 344.2 389.87 351.38 383.03 347.79 383.53 342.01 381.82 346.99 374.98 343.2 389.71 353.77 389.42 360.15 371.37 353.97 380.01 358.36 370.5 361.95 381.42 358.96"/></g><g id="Clouds"><g class="cls-20"><path class="cls-7" d="m439.12,76.14c-3.62-1.97-5.27-.33-6.58-1.97-1.32-1.65,3.62-5.93-6.25-10.2,0,0-.66-9.22-14.15-9.55-13.5-.33-9.87,9.22-13.5,11.52-3.62,2.3-4.61-1.32-8.23.99-3.62,2.3-1.98,6.91-4.94,7.57-2.96.66-6.91-2.96-10.53-.66-3.62,2.3-3.62,4.28-5.27,4.28s-4.94-1.32-6.91,0c-1.97,1.32-4.28,2.96-4.28,2.96h83.28s.99-2.96-2.63-4.94Z"/><path class="cls-7" d="m87.82,74.18c-2.6-1.42-3.78-.24-4.73-1.42-.95-1.18,2.6-4.25-4.49-7.33,0,0-.47-6.62-10.16-6.85-9.69-.24-7.09,6.62-9.69,8.27-2.6,1.65-3.31-.95-5.91.71-2.6,1.65-1.42,4.96-3.55,5.44-2.13.47-4.96-2.13-7.56-.47-2.6,1.65-2.6,3.07-3.78,3.07s-3.55-.95-4.96,0c-1.42.95-3.07,2.13-3.07,2.13h59.8s.71-2.13-1.89-3.55Z"/><path class="cls-7" d="m389.13,62.52c-2.26-1.23-3.29-.21-4.11-1.23-.82-1.03,2.26-3.7-3.9-6.37,0,0-.41-5.75-8.83-5.96-8.42-.21-6.16,5.75-8.42,7.19-2.26,1.44-2.88-.82-5.14.62-2.26,1.44-1.23,4.31-3.08,4.73-1.85.41-4.31-1.85-6.57-.41-2.26,1.44-2.26,2.67-3.29,2.67s-3.08-.82-4.31,0c-1.23.82-2.67,1.85-2.67,1.85h51.98s.62-1.85-1.64-3.08Z"/></g></g><g id="Device"><path class="cls-14" d="m344.44,132.63v-36.5h-3.3v-46.73c0-15.91-12.9-28.81-28.81-28.81h-154.73c-15.91,0-28.81,12.9-28.81,28.81v314.39c0,15.91,12.9,28.81,28.81,28.81h154.73c15.91,0,28.81-12.9,28.81-28.81v-200.05h3.3v-21.57h-3.3v-9.54h3.3Z"/><rect class="cls-16" x="132.14" y="24.56" width="205.67" height="364.06" rx="30.52" ry="30.52"/><path class="cls-13" d="m303.28,27.18h-57.12l-.06.21c-1.69,6.09-5.58,10.04-9.89,10.04h-2.48c-4.31,0-8.2-3.95-9.89-10.04l-.06-.21h-57.12c-15.91,0-28.81,12.9-28.81,28.81v287.23c0,15.91,12.9,28.81,28.81,28.81h136.62c15.91,0,28.81-12.9,28.81-28.81V55.98c0-15.91-12.9-28.81-28.81-28.81Z"/><path class="cls-5" d="m303.28,27.18h-57.12l-.06.21c-1.69,6.09-5.58,10.04-9.89,10.04h-2.48c-4.31,0-8.2-3.95-9.89-10.04l-.06-.21h-57.12c-15.91,0-28.81,12.9-28.81,28.81v287.23c0,15.91,12.9,28.81,28.81,28.81h136.62c15.91,0,28.81-12.9,28.81-28.81V55.98c0-15.91-12.9-28.81-28.81-28.81Z"/><polygon class="cls-19" points="160.69 107.85 145.37 86.69 143.18 131.93 156.31 137.04 160.69 107.85"/><polygon class="cls-19" points="195.71 147.98 165.07 111.5 161.35 141.87 195.13 159.29 195.71 147.98"/><path class="cls-19" d="m332.09,100.41v-44.43c0-12.37-7.8-22.91-18.74-26.99l-34.75,40.14c-3.86,4.46-3.35,11.2,1.13,15.03l29.59,25.29c4.24,3.62,10.55,3.35,14.47-.62l8.31-8.42Z"/><polygon class="cls-19" points="193.79 185.45 157.86 170.27 155.58 188.84 192.8 204.89 193.79 185.45"/><polygon class="cls-19" points="158.66 163.73 194.08 179.92 194.84 164.94 160.71 147.08 158.66 163.73"/><polygon class="cls-19" points="223.44 281.5 296.4 280.05 271.6 247.94 223.44 281.5"/><path class="cls-1" d="m285.18,225.69c0,12.02,9.78,21.8,21.8,21.8s21.81-9.78,21.81-21.8-9.78-21.8-21.81-21.8-21.8,9.78-21.8,21.8Zm41.59,0c0,10.91-8.88,19.78-19.78,19.78s-19.78-8.88-19.78-19.78,8.87-19.78,19.78-19.78,19.78,8.87,19.78,19.78Z"/><path class="cls-1" d="m332.09,172.97l-52.72,30.24-28.72-28.72,22.47-1.43h0c.22-.02.44-.1.61-.26l58.36-52.37v-2.72l-19.01,17.06-61.11-49.47,47.22-58.14h-2.6l-67.3,82.86L154.11,30.05c-.63.31-1.24.64-1.85.99l75.74,80.58-5.92,7.29-33.39-33.94c-5.85-5.94-15.4-6.36-21.75-.96l-9,7.67-20.09-23.81v3.13l62.77,74.4c-.04.1-.07.21-.08.33l-4.34,70.19-20,6.05v-.02c-.09-.16-.21-.3-.36-.4l-37.98-24.59v2.41l36,23.31-36,10.88v2.11l37.3-11.28,11.83,23.65-49.12,22.71v2.22l50.03-23.13,16.23,32.46-66.26,51.26v2.56l135.34-104.7,58.89,69.8v-3.13l-69.81-82.75,69.81-40.04v-2.33Zm-20.53-36.82l-17.34,15.56-25.55-23.48,14.44-15.12,28.46,23.04Zm-60.86-49.27l30.82,24.95-15.03,15.75c-.19.2-.29.46-.28.73s.13.53.33.71l26.17,24.05-19.6,17.59-49.59-50.31,27.19-33.47Zm-28.47,35.05l48.55,49.26-43.43,2.76-24.13-28.6,19.01-23.41Zm-62.98-28.71l9.01-7.68c5.54-4.72,13.89-4.36,18.99.84l33.55,34.1-18.91,23.29-42.64-50.55Zm43.21,54.35l44.68,52.95-48.86,14.77,4.19-67.73Zm46.08,54.62l10.56,12.52-46.78,21.63-13.44-19.11,49.67-15.02v-.02Zm-71.42,21.61l19.72-5.96,13.61,19.36-21.63,10-11.7-23.4Zm28.63,57.25l-16.02-32.05,21.91-10.13,17.13,24.37-23.02,17.81Zm66.15-51.18l-41.53,32.13-16.87-23.99,46.95-21.71,11.45,13.57Zm-10.95-16.11l-31.98-37.9,19.63-1.25-.34.34,29.29,29.29-16.6,9.52Z"/><path class="cls-1" d="m298.31,225.69c0,4.78,3.89,8.67,8.67,8.67s8.67-3.89,8.67-8.67-3.89-8.67-8.67-8.67-8.67,3.89-8.67,8.67Zm15.32,0c0,3.67-2.98,6.65-6.65,6.65s-6.65-2.98-6.65-6.65,2.98-6.65,6.65-6.65,6.65,2.98,6.65,6.65Z"/><path class="cls-2" d="m137.86,272.75v70.46c0,15.91,12.9,28.81,28.81,28.81h136.62c15.91,0,28.81-12.9,28.81-28.81v-70.46h-194.23Z"/><path class="cls-21" d="m325.57,294.69c-.02-.09-.03-.17-.05-.24-.08-.44-.11-.59-.62-1.22-.47-.58-.63-.98-.67-1.08,0-.03.01-.06.02-.11,0-.02,0-.04.01-.06,0-.02,0-.03.01-.05,0-.02,0-.05.01-.07,0-.01,0-.03,0-.04,0-.03.01-.06.02-.09,0-.01,0-.03,0-.04,0-.03.01-.06.02-.09,0-.02,0-.03,0-.05,0-.03.01-.06.02-.09,0-.02,0-.04.01-.06,0-.03.01-.06.02-.09,0-.02,0-.05.01-.07,0-.03,0-.05.01-.08,0-.03,0-.05.01-.08,0-.03,0-.05.01-.08,0-.03,0-.05.01-.08,0-.02,0-.05.01-.07,0-.03,0-.05.01-.08,0-.02,0-.04,0-.07,0-.03,0-.05.01-.08,0-.02,0-.04,0-.06,0-.03,0-.05,0-.08,0-.02,0-.03,0-.05,0-.03,0-.05,0-.07,0-.01,0-.03,0-.04,0-.03,0-.07,0-.09,0-.15-.04-.26-.12-.34-.09-.08-.2-.1-.32-.11-.11-.02-.22-.01-.3,0-.08-.22-.3-.72-.74-.94-.15-.08-.3-.14-.47-.22-.38-.17-.85-.38-1.7-.87-.49-.28-1.23-.75-2.01-1.25-1.14-.72-2.33-1.47-2.83-1.7-.14-.06-.29-.16-.47-.28-.86-.55-2.45-1.57-7.11-1.85-3.97-.24-9.88-.26-9.94-.26-.02,0-2.21-.06-4.24.13-.23.02-.45.04-.68.05-.89.06-1.99.12-4.18.67-1.58.4-10.14,4.12-10.49,4.28-.33.09-8.11,2.27-9,2.93-.37.27-.61.64-.77.98-.25.39-.29.79-.3.95-.27.2-1.1.87-1.02,1.32.07.42.07.71.07.71v5.77c0,.07.06.12.12.12h.9s.04,0,.06-.02l.59-.34h1.32c.54,1.76,1.82,3,3.32,3h2.71c1.45,0,2.71-1.18,3.27-2.86l.44.2s.03.01.05.01h5.78c.59,1.57,1.8,2.65,3.19,2.65h2.71c1.54,0,2.86-1.33,3.36-3.18h7.02c.48,1.85,1.78,3.18,3.32,3.18h1.97s.02,0,.03,0c.04,0,.07,0,.11,0,1.24,0,2.3-1.33,2.69-3.18h3.09c.48,1.85,1.78,3.18,3.32,3.18h1.97s.03,0,.04,0c.03,0,.07,0,.1,0,1.24,0,2.3-1.33,2.69-3.18h2.77s.04,0,.06-.02c.55-.32.39-.97.22-1.3.07-.4.56-3.16.44-3.78Z"/><path class="cls-1" d="m299.3,285.74s-3.97,2.63-3.91,2.83c.06.19,2.31.51,2.88.51h17.94s2.18-.45,2.5-.83c.32-.38-4.49-3.4-6.22-3.97-1.73-.58-5.1-.54-8.52-.26-2.55.2-4.68,1.73-4.68,1.73Z"/><path class="cls-1" d="m279.07,287.8h12.22s1.79.13,3.27-.83,2.37-1.29,3.72-2.12c1.35-.83,1.86-1.09,1.86-1.09,0,0-4.55-.38-7.18-.38s-3.78.32-3.78.32l-10.11,4.11Z"/><path class="cls-21" d="m185.73,287.6c0,4.7-5.28,6.39-5.3,9.98v.24h5.12v1.58h-6.84v-1.34c0-5.03,5.28-6.02,5.28-10.4,0-1.6-.53-2.45-1.83-2.45s-1.83.91-1.83,2.29v1.38h-1.63v-1.27c0-2.38,1.09-3.97,3.5-3.97s3.52,1.56,3.52,3.94Z"/><path class="cls-21" d="m196.54,299.38h-1.67l-2.58-12.41v12.43h-1.52v-15.59h2.43l2.56,12.45,2.47-12.45h2.43v15.59h-1.65v-12.54l-2.47,12.52Z"/><path class="cls-21" d="m204.18,283.81v15.59h-1.74v-15.59h1.74Z"/><path class="cls-21" d="m207.5,299.4h-1.56v-15.59h2.21l3.61,11.27v-11.27h1.54v15.59h-1.8l-3.99-12.61v12.61Z"/><path class="cls-2" d="m169.79,291.72c0,5.64-4.57,10.22-10.22,10.22s-10.2-4.58-10.2-10.22,4.57-10.22,10.2-10.22c2.62,0,4.99.97,6.79,2.59,2.1,1.86,3.43,4.59,3.43,7.63Z"/><path class="cls-21" d="m166.37,284.1l-6.79,7.63v-10.22c2.62,0,4.99.97,6.79,2.59Z"/><line class="cls-11" x1="151.12" y1="315.23" x2="231.28" y2="315.23"/><line class="cls-11" x1="151.12" y1="321.96" x2="231.28" y2="321.96"/><line class="cls-11" x1="151.12" y1="328.7" x2="231.28" y2="328.7"/><path class="cls-2" d="m303.28,27.18h-57.12l-.06.21c-1.69,6.09-5.58,10.04-9.89,10.04h-2.48c-4.31,0-8.2-3.95-9.89-10.04l-.06-.21h-57.12c-15.91,0-28.81,12.9-28.81,28.81v5.17h194.23v-5.17c0-15.91-12.9-28.81-28.81-28.81Z"/><circle class="cls-18" cx="234.38" cy="28.56" r="2.7"/><path class="cls-21" d="m155.12,38.92c0,2.74-3.07,3.72-3.09,5.81v.14h2.98v.92h-3.98v-.78c0-2.93,3.07-3.5,3.07-6.05,0-.93-.31-1.43-1.06-1.43s-1.06.53-1.06,1.34v.8h-.95v-.74c0-1.39.64-2.31,2.03-2.31s2.05.91,2.05,2.3Z"/><path class="cls-21" d="m160.08,38.91v.23c0,.93-.38,1.6-1.1,1.87.76.29,1.1.97,1.1,1.88v.7c0,1.39-.65,2.29-2.05,2.29s-2.03-.91-2.03-2.29v-.62h.95v.69c0,.82.34,1.31,1.06,1.31s1.06-.48,1.06-1.4v-.7c0-.89-.38-1.32-1.14-1.35h-.54v-.91h.6c.67-.03,1.09-.45,1.09-1.24v-.42c0-.93-.32-1.41-1.06-1.41s-1.06.51-1.06,1.32v.47h-.95v-.41c0-1.39.65-2.28,2.03-2.28s2.05.89,2.05,2.28Z"/><path class="cls-21" d="m162.04,39.59v1.26h-.97v-1.26h.97Zm0,4.94v1.26h-.97v-1.26h.97Z"/><path class="cls-21" d="m164.09,40.41c.29-.49.74-.75,1.35-.75,1.17,0,1.68.86,1.68,2.15v1.78c0,1.39-.66,2.29-2.05,2.29s-2.04-.91-2.04-2.29v-.61h.95v.67c0,.82.34,1.31,1.06,1.31s1.06-.49,1.06-1.31v-1.76c0-.82-.34-1.31-1.06-1.31-.56,0-.93.31-1.02.97v.21h-.95l.25-5.04h3.58v.91h-2.67l-.14,2.79Z"/><path class="cls-21" d="m172.17,38.89v.17h-.95v-.23c0-.82-.34-1.3-1.08-1.3s-1.1.49-1.1,1.47v2.04c.25-.62.74-.97,1.46-.97,1.17,0,1.69.84,1.69,2.15v1.37c0,1.39-.69,2.29-2.08,2.29s-2.09-.91-2.09-2.29v-4.63c0-1.44.65-2.33,2.09-2.33s2.05.88,2.05,2.27Zm-3.12,3.4v1.36c0,.82.34,1.31,1.08,1.31s1.08-.49,1.08-1.31v-1.36c0-.82-.35-1.31-1.08-1.31s-1.08.49-1.08,1.31Z"/><rect class="cls-21" x="268.69" y="39.29" width="2.56" height="6.41"/><rect class="cls-21" x="272.11" y="38.01" width="2.56" height="7.69"/><rect class="cls-21" x="275.53" y="37.1" width="2.56" height="8.6"/><rect class="cls-21" x="278.94" y="35.51" width="2.56" height="10.19"/><path class="cls-21" d="m313.22,45.52h-15.38v-9.4h15.38v9.4Zm-14.52-.85h13.67v-7.69h-13.67v7.69Z"/><rect class="cls-21" x="299.98" y="37.91" width="8.12" height="5.83"/><rect class="cls-21" x="312.69" y="39.72" width="1.93" height="2.21"/><path class="cls-21" d="m292.21,43.48c-.1,0-.2-.03-.29-.08-3.13-1.86-5.2-.13-5.28-.06-.24.21-.6.18-.81-.06-.21-.24-.19-.6.05-.81.11-.1,2.76-2.36,6.63-.06.27.16.36.51.2.79-.11.18-.3.28-.49.28Z"/><path class="cls-21" d="m293.36,41.55c-.1,0-.2-.03-.29-.08-4.52-2.69-7.57-.09-7.6-.06-.24.21-.6.19-.81-.05-.21-.24-.19-.6.05-.81.04-.03,3.7-3.18,8.94-.06.27.16.36.51.2.79-.11.18-.3.28-.49.28Z"/><path class="cls-21" d="m294.42,39.31c-.1,0-.2-.03-.29-.08-5.73-3.41-9.54-.2-9.7-.06-.24.21-.6.18-.81-.06-.21-.24-.18-.6.05-.81.04-.04,4.57-3.91,11.04-.06.27.16.36.51.2.79-.11.18-.3.28-.49.28Z"/><circle class="cls-21" cx="289.04" cy="44.44" r="1.44"/><path class="cls-21" d="m280.33,79.91c-.02-.08-.03-.15-.04-.21-.07-.38-.09-.51-.53-1.05-.4-.49-.55-.84-.58-.93,0-.02.01-.06.02-.1,0-.02,0-.03.01-.05,0-.01,0-.03,0-.05,0-.02,0-.04.01-.06,0-.01,0-.02,0-.03,0-.02,0-.05.01-.07,0-.01,0-.02,0-.04,0-.02,0-.05.02-.08,0-.01,0-.03,0-.04,0-.03.01-.05.02-.08,0-.02,0-.03,0-.05,0-.02,0-.05.01-.08,0-.02,0-.04.01-.06,0-.02,0-.05.01-.07,0-.02,0-.04.01-.07,0-.02,0-.04.01-.07,0-.02,0-.05.01-.07,0-.02,0-.04.01-.06,0-.02,0-.05.01-.07,0-.02,0-.04,0-.06,0-.02,0-.05,0-.07,0-.02,0-.03,0-.05,0-.02,0-.04,0-.07,0-.01,0-.03,0-.04,0-.02,0-.04,0-.06,0-.01,0-.02,0-.03,0-.03,0-.06,0-.08,0-.13-.04-.23-.1-.29-.08-.07-.18-.09-.28-.09-.09-.01-.19-.01-.25,0-.07-.19-.26-.62-.63-.8-.13-.07-.26-.12-.4-.19-.33-.14-.73-.32-1.46-.75-.42-.24-1.06-.65-1.73-1.07-.98-.62-2-1.27-2.43-1.47-.12-.06-.25-.14-.41-.24-.74-.47-2.1-1.35-6.11-1.59-3.41-.21-8.49-.23-8.54-.23-.02,0-1.9-.05-3.65.11-.2.02-.39.03-.59.04-.76.05-1.71.11-3.59.58-1.36.34-8.72,3.54-9.01,3.68-.28.08-6.97,1.95-7.73,2.52-.31.24-.52.55-.66.84-.21.33-.25.68-.26.81-.23.17-.94.74-.88,1.14.06.36.06.61.06.61v4.96c0,.06.05.11.11.11h.78s.04,0,.05-.01l.51-.29h1.13c.46,1.51,1.56,2.58,2.85,2.58h2.33c1.25,0,2.32-1.01,2.81-2.45l.38.17s.03,0,.04,0h4.96c.51,1.35,1.55,2.28,2.74,2.28h2.33c1.33,0,2.46-1.14,2.89-2.73h6.03c.41,1.59,1.53,2.73,2.85,2.73h1.69s.02,0,.02,0c.03,0,.06,0,.1,0,1.07,0,1.97-1.14,2.31-2.73h2.65c.41,1.59,1.53,2.73,2.85,2.73h1.69s.02,0,.04,0c.03,0,.06,0,.09,0,1.07,0,1.97-1.14,2.31-2.73h2.38s.04,0,.05-.01c.47-.28.34-.83.19-1.12.06-.34.49-2.72.38-3.25Z"/><path class="cls-1" d="m257.77,72.22s-3.41,2.26-3.36,2.43c.05.17,1.98.44,2.48.44h15.42s1.87-.39,2.15-.72c.28-.33-3.85-2.92-5.34-3.41s-4.38-.46-7.32-.23c-2.2.18-4.02,1.49-4.02,1.49Z"/><path class="cls-1" d="m240.38,73.99h10.5s1.54.11,2.81-.72c1.27-.83,2.04-1.11,3.19-1.82,1.16-.72,1.6-.94,1.6-.94,0,0-3.91-.33-6.17-.33s-3.25.28-3.25.28l-8.69,3.53Z"/><path class="cls-21" d="m185.18,212.52c-4.21-.33-9.16,1.54-11.06,4.19-1.9,2.64,1.58,9.02,1.58,9.02,0,0,11.77-5.18,13.67-7.82,1.9-2.64.02-5.05-4.19-5.38Zm-4.81,6.7c-1.68-.13-2.43-1.1-1.67-2.15.76-1.06,2.74-1.81,4.42-1.67,1.68.13,2.43,1.1,1.67,2.15-.76,1.06-2.74,1.81-4.42,1.67Z"/><path class="cls-13" d="m175.7,197.9c-5.47,0-9.91,4.44-9.91,9.91s9.91,17.44,9.91,17.44c0,0,9.91-11.97,9.91-17.44s-4.44-9.91-9.91-9.91Zm0,13.88c-2.19,0-3.96-1.78-3.96-3.96s1.78-3.96,3.96-3.96,3.96,1.78,3.96,3.96-1.78,3.96-3.96,3.96Z"/><line class="cls-9" x1="249.49" y1="87.03" x2="248.53" y2="88.18"/><path class="cls-10" d="m246.61,90.47l-42.46,50.62c-1.31,1.56-1.34,3.84-.07,5.43l40.57,50.82c1.88,2.35.81,5.85-2.05,6.76l-59.35,18.86"/><line class="cls-9" x1="181.82" y1="223.41" x2="180.39" y2="223.86"/><polygon class="cls-21" points="233.97 130.66 233.97 141.75 211.74 138.75 233.97 149.54 233.97 158.96 288.53 158.96 288.53 130.66 233.97 130.66"/><path class="cls-1" d="m239.74,140.84c0-2.38,1.18-3.92,3.56-3.92s3.59,1.54,3.59,3.92v8.04c0,2.38-1.18,3.94-3.59,3.94s-3.56-1.56-3.56-3.94v-8.04Zm1.72,8.15c0,1.4.6,2.25,1.85,2.25s1.85-.85,1.85-2.25v-8.24c0-1.43-.58-2.27-1.85-2.27s-1.85.85-1.85,2.27v8.24Z"/><path class="cls-1" d="m250.21,150.51v2.16h-1.67v-2.16h1.67Z"/><path class="cls-1" d="m258.32,149.52v3.14h-1.69v-3.14h-5.04v-1.58l4.83-10.87h1.89v10.87h1.25v1.58h-1.25Zm-5.12-1.58h3.43v-7.62l-3.43,7.62Z"/><path class="cls-1" d="m267.01,145.89l-.91,1.54v5.24h-1.74v-15.59h1.74v7.53l4.14-7.53h1.76l-3.94,7.11,4.08,8.49h-1.78l-3.34-6.77Z"/><path class="cls-1" d="m279.22,152.64h-1.67l-2.58-12.41v12.43h-1.52v-15.59h2.43l2.56,12.45,2.47-12.45h2.43v15.59h-1.65v-12.54l-2.47,12.52Z"/></g><g id="Character"><path class="cls-4" d="m122.61,427.92l1.95,5.54s5.86,2.28,6.84,3.91c.98,1.63.98,7.17.98,7.17h-24.11s-.65-5.21-.65-8.15v-6.84l14.99-1.63Z"/><path class="cls-4" d="m107.98,441.93h24.3c.1,1.43.1,2.61.1,2.61h-24.11s-.14-1.12-.29-2.61Z"/><path class="cls-15" d="m119.96,420.75l-1.63-132.29-29,1.56-29-1.56-1.63,132.29s-2.93,2.61-2.93,3.91v3.26l.33,1.63s7.17.65,8.8.98c1.63.33,5.87-.98,5.87-.98,0,0,1.95-10.1,1.95-11.08s15.64-110.13,15.64-110.13l.98-.14.98.14s15.64,109.15,15.64,110.13,1.95,11.08,1.95,11.08c0,0,4.24,1.3,5.86.98,1.63-.33,8.8-.98,8.8-.98l.33-1.63v-3.26c0-1.3-2.93-3.91-2.93-3.91Z"/><path class="cls-15" d="m131.01,213.68s9.26,4.27,12.35,6.41c3.09,2.14,2.37,10.21,3.32,14.72.95,4.51,2.14,7.36.95,8.55-1.19,1.19-2.85,3.32-2.85,3.32,0,0,1.19,11.4,1.66,20.18.47,8.79-4.27,11.87-8.07,14.25-3.8,2.37-8.07,2.85-15.91,2.37-7.84-.47-13.3-4.27-14.01-5.94-.71-1.66-7.36-19.95-4.51-30.4s12.35-32.77,16.86-35.14c4.51-2.37,10.21,1.66,10.21,1.66Z"/><path class="cls-4" d="m59.3,277.32l-1.66,11.87s9.26,5.7,16.15,8.07c6.89,2.37,14.96,4.27,14.96,4.27l1.9-4.04,1.42,4.51s4.27-.47,11.16-3.8c6.89-3.32,16.86-9.97,16.86-9.97l-.24-12.11-4.51-79.08-18.05-7.84-17.57,1.42-13.3,7.36-7.12,79.31Z"/><path class="cls-4" d="m108.35,194.02l-11.05-4.8-17.57,1.42-6.76,3.74c1.26,4.37,5.97,17.82,16.5,18.82,9.8.92,16.43-12.99,18.89-19.18Z"/><path class="cls-15" d="m79.24,192.21s4.77,6.36,9.37,8.13c4.6,1.77,8.66-6.19,9.9-8.31,1.24-2.12,1.59-2.83,1.59-2.83l-20.37,1.44s-2.25-.74-.48,1.56Z"/><path class="cls-13" d="m97.29,189.22s-.47,102.11.24,102.35c.71.24,22.8-8.79,23.98-9.74,1.19-.95,2.61-2.61,2.61-2.61l.47-38.23s7.36,4.75,9.5,5.22c2.14.47,8.79-.71,9.26-3.32s-7.84-23.98-9.97-30.63c-2.14-6.65-5.46-12.82-6.41-14.96-.95-2.14-10.45-3.32-16.15-4.99-5.7-1.66-13.54-3.09-13.54-3.09Z"/><path class="cls-13" d="m97.53,210.12l2.61-3.8s6.41,5.46,7.12,3.56-4.17-17.23-4.99-20.18c-.81-2.95-5.22-2.85-5.46-1.66s.71,22.08.71,22.08Z"/><path class="cls-15" d="m110.83,192.31s-.47,33.96,1.19,42.74c1.66,8.79,12.59,32.77,12.59,32.77v-9.02s-6.41-23.51-7.36-30.4c-.95-6.89-.71-34.43-.71-34.43l-5.7-1.66Z"/><path class="cls-13" d="m81.82,192.47s.38,95.76.38,97.09-2.1.57-3.62-.19c-1.53-.76-16.79-5.91-20.98-7.63s-4.77-.57-4.58-2.48c.19-1.91.19-8.2.19-9.16s1.34-20.41,1.34-20.41c0,0-8.97,3.24-14.31,1.14s-7.82-4.58-7.25-6.49c.57-1.91,10.68-26.71,11.45-28.99.76-2.29,2.67-15.26,3.82-16.4,1.14-1.14,26.9-7.63,28.42-8.77,1.53-1.14,3.05-.95,3.62-.95s1.14-.38,1.53,3.24Z"/><path class="cls-11" d="m59.73,223.45c.24,1.73.37,3.39.16,4.31-.57,2.48-5.34,21.94-5.34,21.94"/><path class="cls-11" d="m58.55,217.26s.25,1.05.54,2.52"/><path class="cls-13" d="m79.15,187.89s-1.72,2.1-1.91,3.82c-.19,1.72-2.67,10.87-4.01,13.73-1.34,2.86-1.91,4.58-1.91,4.58,0,0,1.72.57,3.43-.38,1.72-.95,4.58-2.48,4.58-2.48l2.29,2.48.19-17.17s.19-6.1-2.67-4.58Z"/><path class="cls-4" d="m73.81,173.01s-3.05-4.01-3.24-1.72c-.19,2.29-.76,5.15.76,7.06,1.53,1.91,2.67,2.48,2.67,2.48,0,0,2.48,6.49,4.2,8.2s2.67,5.53,7.44,7.44c4.77,1.91,7.25.76,9.73-.95,1.19-.83,5.53-7.44,6.1-8.77.57-1.34.76-6.1.76-6.1,0,0,3.24-4.58,3.43-7.06.19-2.48-.19-4.01-.95-4.01h-1.72s2.29-9.35,2.1-12.4c-.19-3.05-5.72-9.16-9.92-12.02-4.2-2.86-12.97-1.91-17.55.95-4.58,2.86-9.35,8.97-8.2,11.45s4.39,15.45,4.39,15.45Z"/><path class="cls-11" d="m86.37,184.47s.71,1.19,2.85,1.66c2.14.47,3.09-1.66,3.09-1.66"/><path class="cls-11" d="m85.42,188.03s1.42,1.19,4.04,1.19,4.04-1.42,4.04-1.42"/><path class="cls-11" d="m73.81,173.01s-.15-.2-.38-.48l.38.48Z"/><path class="cls-15" d="m95.17,145.16c-4.2-2.86-12.97-1.91-17.55.95-4.58,2.86-9.35,8.97-8.2,11.45s4.39,15.45,4.39,15.45c0,0,1.53.38,2.1-.95.57-1.34-.38-3.24.57-4.96.77-1.39,3.03-1.29,4.38-1.6-1,.65-2.27,1.85-.75,2.55,2.48,1.14,4.01-.57,9.16-3.24,5.15-2.67,5.72-5.34,5.72-5.34,0,0,2.48,2.1,2.48,4.39s-.19,5.53,1.14,5.91c1.34.38,2.29.57,2.29.57,0,0-.57,2.48.76,2.67.98.14,1.34-2.19,1.47-3.43h-.13s2.29-9.35,2.1-12.4c-.19-3.05-5.72-9.16-9.92-12.02Z"/><path class="cls-11" d="m92.31,177.02s2.48,2.1,6.29-.38"/><path class="cls-11" d="m78.58,177.02s2.48,2.1,6.29-.38"/><path class="cls-11" d="m78,174.15s3.05-1.34,6.1-.57"/><path class="cls-11" d="m92.5,173.58s2.67-.95,5.53.19"/><path class="cls-13" d="m37.95,243.59s11.83-.76,13.54-.76,3.05,3.62,3.43,5.72.57,6.87.57,6.87c0,0-5.53,7.82-9.35,9.16s-12.21-1.14-14.31-2.86-3.82-9.54-2.67-12.21c1.14-2.67,3.62-4.39,4.58-5.34"/><polygon class="cls-15" points="67.66 220.2 73.53 244.48 84.61 242.03 79.88 218.41 67.66 220.2"/><path class="cls-4" d="m61.41,242.64l3.24-3.24s1.34-5.15,2.1-6.68c.76-1.53,2.86-4.2,2.86-4.2l.76,2.48s7.25-3.24,8.39-3.24,1.53,1.14,1.53,1.72-8.01,4.39-8.01,4.39l-.95,1.34s6.87-2.67,8.01-3.43c1.14-.76,2.48-.95,2.48-.95,0,0,.95,1.53.57,2.29s-.76,1.72-.76,1.72c0,0,.14.37-.16,1.49-.49,1.84-2.28,3.07-2.28,3.07,0,0-2.52,3.07-3.85,4.41-1.34,1.34-6.1,2.48-6.1,2.48l-8.97,5.72s-1.34-1.14-1.34-4.39,2.48-4.96,2.48-4.96Z"/><path class="cls-11" d="m81.82,233.86s-7.63,3.82-9.54,5.15"/><line class="cls-11" x1="72.57" y1="242.28" x2="79.19" y2="239.37"/><path class="cls-13" d="m62.93,240.73s-2.48,3.05-2.29,5.91,2.29,7.63,2.29,7.63c0,0-3.43,2.29-4.77,3.62s-4.39,2.1-5.53-.38-3.05-8.01-2.29-11.25,2.29-4.2,3.05-4.39c.76-.19,8.2-.95,9.54-1.14Z"/><path class="cls-4" d="m124.13,229.35s-3.32-9.97-4.51-11.87c-1.19-1.9-3.09-3.09-3.8-3.09s-4.99-1.19-6.17-1.19-3.32.71-2.85,2.85l.47,2.14s-.47,3.8-.47,4.75,1.9,2.61,1.9,2.61c0,0,.24,2.85.71,3.8.47.95,8.07,3.09,8.07,3.09l.71.95,1.42.71,4.51-4.75Z"/><path class="cls-13" d="m128.16,233.63s6.41,3.56,8.31,4.27,4.27.95,6.89,4.99,1.66,10.69,0,14.25c-1.66,3.56-7.12,4.51-10.69,4.51s-7.12-7.36-9.02-9.5-4.99-8.31-4.99-8.31l9.5-10.21Z"/><path class="cls-13" d="m125.08,227.93s-4.75,2.61-6.89,5.46-4.04,5.46-4.04,6.89,4.04,6.89,4.04,6.89l12.35-12.82s-2.85-4.75-5.46-6.41Z"/><path class="cls-4" d="m55.77,427.92l-1.96,5.54s-5.87,2.28-6.84,3.91c-.98,1.63-.98,7.17-.98,7.17h24.11s.65-5.21.65-8.15v-6.84l-14.99-1.63Z"/><path class="cls-4" d="m70.4,441.93h-24.3c-.1,1.43-.1,2.61-.1,2.61h24.11s.14-1.12.29-2.61Z"/></g><g id="Car"><path class="cls-15" d="m334.24,431.97h-38.23s1.09-18.26,7.89-26.15c6.8-7.89,17.14-8.71,25.58-4.08s8.98,25.31,8.98,25.31h65.31s5.99-23.4,19.59-25.04c13.61-1.63,16.87,22.04,16.87,22.04l-2.35,7.92h-103.66Z"/><path class="cls-15" d="m426.74,426.28c0-4.29-1.09-8.22-2.9-11.34v-6.92h-7.77c-7.41,0-13.41,8.17-13.41,18.26s6.01,18.26,13.41,18.26h7.77v-6.92c1.82-3.12,2.9-7.05,2.9-11.34Z"/><ellipse class="cls-15" cx="424.39" cy="426.31" rx="10.76" ry="18.23"/><ellipse class="cls-4" cx="424.39" cy="426.31" rx="8.27" ry="14.01"/><path class="cls-15" d="m320.64,425.93c0-4.37-1.11-8.38-2.96-11.56v-7.05h-10.71c-7.55,0-13.67,8.33-13.67,18.61s6.12,18.61,13.67,18.61h10.71v-7.05c1.85-3.17,2.96-7.19,2.96-11.56Z"/><ellipse class="cls-15" cx="317.68" cy="425.93" rx="13.67" ry="18.61"/><ellipse class="cls-4" cx="317.68" cy="425.93" rx="10.51" ry="14.3"/><path class="cls-15" d="m380.15,408.08c-.19,0-.37,0-.56.02v-.09h-7.77c-7.41,0-13.41,8.17-13.41,18.26s6.01,18.26,13.41,18.26h7.77v-.02c.18.02.37.02.56.02,5.94,0,10.76-8.16,10.76-18.23s-4.82-18.23-10.76-18.23Z"/><path class="cls-15" d="m256.68,407.32h-10.71c-7.55,0-13.67,8.33-13.67,18.61s6.12,18.61,13.67,18.61h10.71c7.55,0,13.67-8.33,13.67-18.61s-6.12-18.61-13.67-18.61Z"/><path class="cls-4" d="m448.32,412.38c-.51-2.53-.25-2.78-2.53-5.57-2.28-2.78-2.78-4.56-2.78-4.56,0,0,1.27-5.82,1.27-7.6s-2.78-1.27-2.78-1.27c0,0-.76-2.78-2.78-3.8-2.03-1.01-3.8-1.52-8.61-4.3-4.81-2.78-15.79-10.12-19.08-11.64-3.29-1.52-7.58-7.03-29.78-8.36-15.85-.95-39.24-1.04-39.24-1.04,0,0-8.61-.25-16.71.51-4.38.41-8.3.12-19.16,2.84-6.29,1.57-41.44,16.9-41.44,16.9,0,0-31.94,8.92-35.39,11.51-3.45,2.59-4.03,7.48-4.03,7.48,0,0-4.32,3.16-4.03,4.89.29,1.73.29,2.88.29,2.88v22.81h3.57l2.44-1.4h40.86l3.14,1.4h30.35c-.1-1.15-.15-4.42-.15-5.61,0-14.33,7.31-25.95,16.33-25.95s16.33,11.62,16.33,25.95c0,1.19-.05,2.36-.15,3.51h76.35c-.02-.58-.04-1.15-.04-1.74,0-13.35,6.13-24.18,13.7-24.18s13.7,10.82,13.7,24.18c0,.59-.02,1.16-.04,1.74h8.04c2.43-1.42.61-4.65.61-4.65,0,0,2.28-12.41,1.77-14.94Z"/><path class="cls-15" d="m345.02,376.92s-15.7,10.4-15.44,11.16c.25.76,9.11,2.03,11.39,2.03h70.89s8.61-1.77,9.87-3.29-17.72-13.42-24.56-15.7-20.16-2.12-33.67-1.04c-10.09.81-18.48,6.84-18.48,6.84Z"/><path class="cls-11" d="m381.61,398.21h-7.09c-.77,0-1.39-.62-1.39-1.39h0c0-.77.62-1.39,1.39-1.39h7.09c.77,0,1.39.62,1.39,1.39h0c0,.77-.62,1.39-1.39,1.39Z"/><path class="cls-11" d="m413.12,398.21h-7.09c-.77,0-1.39-.62-1.39-1.39h0c0-.77.62-1.39,1.39-1.39h7.09c.77,0,1.39.62,1.39,1.39h0c0,.77-.62,1.39-1.39,1.39Z"/><polyline class="cls-11" points="382.24 390.87 385.28 395.42 385.02 422.76 386.54 425.8 385.02 429.35 387.05 431.63"/><path class="cls-11" d="m416.67,389.6l2.03,2.28-3.8,17.22-8.1,19.24s-5.06.51-5.82.51-58.48.51-58.48.51c0,0-.76-1.27-1.52-2.78s-3.29-22.53-3.29-27.34-2.28-8.86-2.28-8.86"/><path class="cls-15" d="m265.07,385.04h48.3s7.09.51,12.91-3.29c5.82-3.8,9.37-5.09,14.68-8.38,5.32-3.29,7.34-4.3,7.34-4.3,0,0-17.97-1.52-28.35-1.52s-14.94,1.27-14.94,1.27l-39.95,16.23Z"/><path class="cls-11" d="m303.33,394.72s6-.82,7.01-1.32c1.01-.51,6.08-6.33,6.08-6.33"/><path class="cls-12" d="m279.34,398.01l23.99-3.29s-17.09,10.35-19.6,10.35-21.17.63-21.17.63l4.7-4.08,5.49-2.82,6.59-.78Z"/><path class="cls-4" d="m300.07,396.66l-9.67,1.21-6.99,4.66-18.59,1.21-2.26,1.95s18.66-.63,21.17-.63c1.81,0,11.25-5.41,16.34-8.41Z"/><path class="cls-12" d="m229.32,401.15l-1.25,4.08-2.81-1.74s-.05-2.85,2.03-4.85l2.04,2.51Z"/><path class="cls-4" d="m228.39,404.17l-3.01-1.85c-.13.69-.12,1.17-.12,1.17l2.81,1.74.32-1.05Z"/><path class="cls-15" d="m227.28,398.64s2.04,2.98,8,4.55l1.25,5.17h4.39l4.08-4.55s29.95-3.29,30.73-3.61c.78-.31,3.61-2.2,3.61-2.2,0,0-33.08,2.35-34.03,2.35s-9.41-.47-9.41-.47l-7.68-2.67-.94,1.41Z"/><path class="cls-15" d="m284.72,425.88c0,1.3-1.37,2.35-3.06,2.35s-3.06-1.05-3.06-2.35,1.37-2.35,3.06-2.35,3.06,1.05,3.06,2.35Z"/><path class="cls-15" d="m444.26,394.66c0-1.77-1.64-1.18-2.78-1.27l-5.06,1.27-1.01,3.54,7.59,4.05s1.27-5.82,1.27-7.6Z"/><path class="cls-11" d="m427.3,391.46c3.97-.11,7.44-.15,10.26-.1"/><path class="cls-11" d="m350.45,396.27c22.13-1.74,51.52-3.87,71.71-4.64"/><path class="cls-11" d="m325.28,398.33c4.71-.4,12.11-1.02,20.97-1.72"/><path class="cls-11" d="m319.73,398.8s1.18-.1,3.32-.29"/><polygon class="cls-15" points="227.13 408.83 255.19 408.83 261.78 412.44 270.56 426.71 261.93 429.22 223.68 429.22 221.95 424.83 222.89 411.34 227.13 408.83"/><rect class="cls-1" x="227.28" y="412.28" width="21.32" height="8.94"/><line class="cls-8" x1="261.03" y1="413.74" x2="251.51" y2="413.74"/><line class="cls-8" x1="263.53" y1="417.25" x2="252.01" y2="417.25"/><line class="cls-8" x1="266.04" y1="420.75" x2="252.01" y2="420.75"/><line class="cls-8" x1="268.54" y1="424.26" x2="238.48" y2="424.26"/><line class="cls-8" x1="268.54" y1="427.41" x2="223.85" y2="427.41"/><path class="cls-4" d="m357.14,380.58h-11.67c-2.91,1.54-5.23,3.13-5.12,4.37.28,3.15,1.4,4.37,2.79,4.37h11.64s5.12-2.91,4.66-5.82c-.18-1.1-1.15-2.1-2.3-2.91Z"/><line class="cls-4" x1="340.34" y1="384.95" x2="355.36" y2="384.95"/><path class="cls-15" d="m343.14,389.32l.7,3.78,1.02,1.01,3.18-.66s-1.4.35-1.05-4.19l-3.84.06Z"/><line class="cls-4" x1="266.3" y1="413.2" x2="300.42" y2="413.2"/><polygon class="cls-15" points="271.03 429.37 284.67 429.37 286.95 427.76 283.07 412.62 271.97 407.42 282.5 414.06 285.77 426.08 282.71 428.43 271.03 429.37"/></g><g id="Floor"><line class="cls-11" x1="1.48" y1="444.54" x2="458.36" y2="444.54"/></g></svg>